%TF.GenerationSoftware,KiCad,Pcbnew,(6.0.7)*%
%TF.CreationDate,2022-08-09T22:38:16+07:00*%
%TF.ProjectId,Keypad-3,4b657970-6164-42d3-932e-6b696361645f,rev?*%
%TF.SameCoordinates,Original*%
%TF.FileFunction,Profile,NP*%
%FSLAX46Y46*%
G04 Gerber Fmt 4.6, Leading zero omitted, Abs format (unit mm)*
G04 Created by KiCad (PCBNEW (6.0.7)) date 2022-08-09 22:38:16*
%MOMM*%
%LPD*%
G01*
G04 APERTURE LIST*
%ADD10C,0.150000*%
%TA.AperFunction,Profile*%
%ADD11C,0.100000*%
%TD*%
G04 APERTURE END LIST*
D10*
X177213142Y-150702380D02*
X177022666Y-150702380D01*
X176927428Y-150750000D01*
X176879809Y-150797619D01*
X176784571Y-150940476D01*
X176736952Y-151130952D01*
X176736952Y-151511904D01*
X176784571Y-151607142D01*
X176832190Y-151654761D01*
X176927428Y-151702380D01*
X177117904Y-151702380D01*
X177213142Y-151654761D01*
X177260761Y-151607142D01*
X177308380Y-151511904D01*
X177308380Y-151273809D01*
X177260761Y-151178571D01*
X177213142Y-151130952D01*
X177117904Y-151083333D01*
X176927428Y-151083333D01*
X176832190Y-151130952D01*
X176784571Y-151178571D01*
X176736952Y-151273809D01*
X177784571Y-151702380D02*
X177975047Y-151702380D01*
X178070285Y-151654761D01*
X178117904Y-151607142D01*
X178213142Y-151464285D01*
X178260761Y-151273809D01*
X178260761Y-150892857D01*
X178213142Y-150797619D01*
X178165523Y-150750000D01*
X178070285Y-150702380D01*
X177879809Y-150702380D01*
X177784571Y-150750000D01*
X177736952Y-150797619D01*
X177689333Y-150892857D01*
X177689333Y-151130952D01*
X177736952Y-151226190D01*
X177784571Y-151273809D01*
X177879809Y-151321428D01*
X178070285Y-151321428D01*
X178165523Y-151273809D01*
X178213142Y-151226190D01*
X178260761Y-151130952D01*
X178689333Y-151607142D02*
X178736952Y-151654761D01*
X178689333Y-151702380D01*
X178641714Y-151654761D01*
X178689333Y-151607142D01*
X178689333Y-151702380D01*
X179356000Y-150702380D02*
X179451238Y-150702380D01*
X179546476Y-150750000D01*
X179594095Y-150797619D01*
X179641714Y-150892857D01*
X179689333Y-151083333D01*
X179689333Y-151321428D01*
X179641714Y-151511904D01*
X179594095Y-151607142D01*
X179546476Y-151654761D01*
X179451238Y-151702380D01*
X179356000Y-151702380D01*
X179260761Y-151654761D01*
X179213142Y-151607142D01*
X179165523Y-151511904D01*
X179117904Y-151321428D01*
X179117904Y-151083333D01*
X179165523Y-150892857D01*
X179213142Y-150797619D01*
X179260761Y-150750000D01*
X179356000Y-150702380D01*
X180260761Y-151130952D02*
X180165523Y-151083333D01*
X180117904Y-151035714D01*
X180070285Y-150940476D01*
X180070285Y-150892857D01*
X180117904Y-150797619D01*
X180165523Y-150750000D01*
X180260761Y-150702380D01*
X180451238Y-150702380D01*
X180546476Y-150750000D01*
X180594095Y-150797619D01*
X180641714Y-150892857D01*
X180641714Y-150940476D01*
X180594095Y-151035714D01*
X180546476Y-151083333D01*
X180451238Y-151130952D01*
X180260761Y-151130952D01*
X180165523Y-151178571D01*
X180117904Y-151226190D01*
X180070285Y-151321428D01*
X180070285Y-151511904D01*
X180117904Y-151607142D01*
X180165523Y-151654761D01*
X180260761Y-151702380D01*
X180451238Y-151702380D01*
X180546476Y-151654761D01*
X180594095Y-151607142D01*
X180641714Y-151511904D01*
X180641714Y-151321428D01*
X180594095Y-151226190D01*
X180546476Y-151178571D01*
X180451238Y-151130952D01*
X181213142Y-151130952D02*
X181117904Y-151083333D01*
X181070285Y-151035714D01*
X181022666Y-150940476D01*
X181022666Y-150892857D01*
X181070285Y-150797619D01*
X181117904Y-150750000D01*
X181213142Y-150702380D01*
X181403619Y-150702380D01*
X181498857Y-150750000D01*
X181546476Y-150797619D01*
X181594095Y-150892857D01*
X181594095Y-150940476D01*
X181546476Y-151035714D01*
X181498857Y-151083333D01*
X181403619Y-151130952D01*
X181213142Y-151130952D01*
X181117904Y-151178571D01*
X181070285Y-151226190D01*
X181022666Y-151321428D01*
X181022666Y-151511904D01*
X181070285Y-151607142D01*
X181117904Y-151654761D01*
X181213142Y-151702380D01*
X181403619Y-151702380D01*
X181498857Y-151654761D01*
X181546476Y-151607142D01*
X181594095Y-151511904D01*
X181594095Y-151321428D01*
X181546476Y-151226190D01*
X181498857Y-151178571D01*
X181403619Y-151130952D01*
X182213142Y-150702380D02*
X182308380Y-150702380D01*
X182403619Y-150750000D01*
X182451238Y-150797619D01*
X182498857Y-150892857D01*
X182546476Y-151083333D01*
X182546476Y-151321428D01*
X182498857Y-151511904D01*
X182451238Y-151607142D01*
X182403619Y-151654761D01*
X182308380Y-151702380D01*
X182213142Y-151702380D01*
X182117904Y-151654761D01*
X182070285Y-151607142D01*
X182022666Y-151511904D01*
X181975047Y-151321428D01*
X181975047Y-151083333D01*
X182022666Y-150892857D01*
X182070285Y-150797619D01*
X182117904Y-150750000D01*
X182213142Y-150702380D01*
X183736952Y-151702380D02*
X183736952Y-151035714D01*
X183736952Y-151130952D02*
X183784571Y-151083333D01*
X183879809Y-151035714D01*
X184022666Y-151035714D01*
X184117904Y-151083333D01*
X184165523Y-151178571D01*
X184165523Y-151702380D01*
X184165523Y-151178571D02*
X184213142Y-151083333D01*
X184308380Y-151035714D01*
X184451238Y-151035714D01*
X184546476Y-151083333D01*
X184594095Y-151178571D01*
X184594095Y-151702380D01*
X185070285Y-151702380D02*
X185070285Y-151035714D01*
X185070285Y-151130952D02*
X185117904Y-151083333D01*
X185213142Y-151035714D01*
X185356000Y-151035714D01*
X185451238Y-151083333D01*
X185498857Y-151178571D01*
X185498857Y-151702380D01*
X185498857Y-151178571D02*
X185546476Y-151083333D01*
X185641714Y-151035714D01*
X185784571Y-151035714D01*
X185879809Y-151083333D01*
X185927428Y-151178571D01*
X185927428Y-151702380D01*
D11*
X215900000Y-139692000D02*
X215900000Y-152986420D01*
X146812000Y-139692000D02*
X146812000Y-152986420D01*
X215900000Y-152400000D02*
X146812000Y-152400000D01*
X215900000Y-152400000D02*
X146812000Y-152400000D01*
X215900000Y-152400000D02*
X214773496Y-151813579D01*
X215900000Y-152400000D02*
X214773496Y-152986421D01*
X146812000Y-152400000D02*
X147938504Y-152986421D01*
X146812000Y-152400000D02*
X147938504Y-151813579D01*
D10*
X222155714Y-124729357D02*
X222822380Y-124729357D01*
X221774761Y-124967452D02*
X222489047Y-125205547D01*
X222489047Y-124586500D01*
X221822380Y-124300785D02*
X221822380Y-123634119D01*
X222822380Y-124062690D01*
X222727142Y-123253166D02*
X222774761Y-123205547D01*
X222822380Y-123253166D01*
X222774761Y-123300785D01*
X222727142Y-123253166D01*
X222822380Y-123253166D01*
X221822380Y-122872214D02*
X221822380Y-122253166D01*
X222203333Y-122586500D01*
X222203333Y-122443642D01*
X222250952Y-122348404D01*
X222298571Y-122300785D01*
X222393809Y-122253166D01*
X222631904Y-122253166D01*
X222727142Y-122300785D01*
X222774761Y-122348404D01*
X222822380Y-122443642D01*
X222822380Y-122729357D01*
X222774761Y-122824595D01*
X222727142Y-122872214D01*
X221822380Y-121919833D02*
X221822380Y-121253166D01*
X222822380Y-121681738D01*
X222822380Y-120348404D02*
X222822380Y-120919833D01*
X222822380Y-120634119D02*
X221822380Y-120634119D01*
X221965238Y-120729357D01*
X222060476Y-120824595D01*
X222108095Y-120919833D01*
X221822380Y-119729357D02*
X221822380Y-119634119D01*
X221870000Y-119538880D01*
X221917619Y-119491261D01*
X222012857Y-119443642D01*
X222203333Y-119396023D01*
X222441428Y-119396023D01*
X222631904Y-119443642D01*
X222727142Y-119491261D01*
X222774761Y-119538880D01*
X222822380Y-119634119D01*
X222822380Y-119729357D01*
X222774761Y-119824595D01*
X222727142Y-119872214D01*
X222631904Y-119919833D01*
X222441428Y-119967452D01*
X222203333Y-119967452D01*
X222012857Y-119919833D01*
X221917619Y-119872214D01*
X221870000Y-119824595D01*
X221822380Y-119729357D01*
X222822380Y-118205547D02*
X222155714Y-118205547D01*
X222250952Y-118205547D02*
X222203333Y-118157928D01*
X222155714Y-118062690D01*
X222155714Y-117919833D01*
X222203333Y-117824595D01*
X222298571Y-117776976D01*
X222822380Y-117776976D01*
X222298571Y-117776976D02*
X222203333Y-117729357D01*
X222155714Y-117634119D01*
X222155714Y-117491261D01*
X222203333Y-117396023D01*
X222298571Y-117348404D01*
X222822380Y-117348404D01*
X222822380Y-116872214D02*
X222155714Y-116872214D01*
X222250952Y-116872214D02*
X222203333Y-116824595D01*
X222155714Y-116729357D01*
X222155714Y-116586500D01*
X222203333Y-116491261D01*
X222298571Y-116443642D01*
X222822380Y-116443642D01*
X222298571Y-116443642D02*
X222203333Y-116396023D01*
X222155714Y-116300785D01*
X222155714Y-116157928D01*
X222203333Y-116062690D01*
X222298571Y-116015071D01*
X222822380Y-116015071D01*
D11*
X211320000Y-144272000D02*
X224106420Y-144272000D01*
X211320000Y-96901000D02*
X224106420Y-96901000D01*
X223520000Y-144272000D02*
X223520000Y-96901000D01*
X223520000Y-144272000D02*
X223520000Y-96901000D01*
X223520000Y-144272000D02*
X224106421Y-143145496D01*
X223520000Y-144272000D02*
X222933579Y-143145496D01*
X223520000Y-96901000D02*
X222933579Y-98027504D01*
X223520000Y-96901000D02*
X224106421Y-98027504D01*
D10*
X218107619Y-99586548D02*
X218060000Y-99538929D01*
X218012380Y-99443691D01*
X218012380Y-99205595D01*
X218060000Y-99110357D01*
X218107619Y-99062738D01*
X218202857Y-99015119D01*
X218298095Y-99015119D01*
X218440952Y-99062738D01*
X219012380Y-99634167D01*
X219012380Y-99015119D01*
X218917142Y-98586548D02*
X218964761Y-98538929D01*
X219012380Y-98586548D01*
X218964761Y-98634167D01*
X218917142Y-98586548D01*
X219012380Y-98586548D01*
X219012380Y-98062738D02*
X219012380Y-97872262D01*
X218964761Y-97777024D01*
X218917142Y-97729405D01*
X218774285Y-97634167D01*
X218583809Y-97586548D01*
X218202857Y-97586548D01*
X218107619Y-97634167D01*
X218060000Y-97681786D01*
X218012380Y-97777024D01*
X218012380Y-97967500D01*
X218060000Y-98062738D01*
X218107619Y-98110357D01*
X218202857Y-98157976D01*
X218440952Y-98157976D01*
X218536190Y-98110357D01*
X218583809Y-98062738D01*
X218631428Y-97967500D01*
X218631428Y-97777024D01*
X218583809Y-97681786D01*
X218536190Y-97634167D01*
X218440952Y-97586548D01*
X218107619Y-97205595D02*
X218060000Y-97157976D01*
X218012380Y-97062738D01*
X218012380Y-96824643D01*
X218060000Y-96729405D01*
X218107619Y-96681786D01*
X218202857Y-96634167D01*
X218298095Y-96634167D01*
X218440952Y-96681786D01*
X219012380Y-97253214D01*
X219012380Y-96634167D01*
X218012380Y-96300833D02*
X218012380Y-95634167D01*
X219012380Y-96062738D01*
X218345714Y-94824643D02*
X219012380Y-94824643D01*
X217964761Y-95062738D02*
X218679047Y-95300833D01*
X218679047Y-94681786D01*
X219012380Y-93538929D02*
X218345714Y-93538929D01*
X218440952Y-93538929D02*
X218393333Y-93491310D01*
X218345714Y-93396071D01*
X218345714Y-93253214D01*
X218393333Y-93157976D01*
X218488571Y-93110357D01*
X219012380Y-93110357D01*
X218488571Y-93110357D02*
X218393333Y-93062738D01*
X218345714Y-92967500D01*
X218345714Y-92824643D01*
X218393333Y-92729405D01*
X218488571Y-92681786D01*
X219012380Y-92681786D01*
X219012380Y-92205595D02*
X218345714Y-92205595D01*
X218440952Y-92205595D02*
X218393333Y-92157976D01*
X218345714Y-92062738D01*
X218345714Y-91919881D01*
X218393333Y-91824643D01*
X218488571Y-91777024D01*
X219012380Y-91777024D01*
X218488571Y-91777024D02*
X218393333Y-91729405D01*
X218345714Y-91634167D01*
X218345714Y-91491310D01*
X218393333Y-91396071D01*
X218488571Y-91348452D01*
X219012380Y-91348452D01*
D11*
X203573000Y-93980000D02*
X220296420Y-93980000D01*
X203573000Y-96907382D02*
X220296420Y-96907382D01*
X219710000Y-93980000D02*
X219710000Y-96907382D01*
X219710000Y-93980000D02*
X219710000Y-96907382D01*
X219710000Y-93980000D02*
X219123579Y-95106504D01*
X219710000Y-93980000D02*
X220296421Y-95106504D01*
X219710000Y-96907382D02*
X220296421Y-95780878D01*
X219710000Y-96907382D02*
X219123579Y-95780878D01*
D10*
X193373880Y-81852380D02*
X192802452Y-81852380D01*
X193088166Y-81852380D02*
X193088166Y-80852380D01*
X192992928Y-80995238D01*
X192897690Y-81090476D01*
X192802452Y-81138095D01*
X194326261Y-81852380D02*
X193754833Y-81852380D01*
X194040547Y-81852380D02*
X194040547Y-80852380D01*
X193945309Y-80995238D01*
X193850071Y-81090476D01*
X193754833Y-81138095D01*
X194754833Y-81757142D02*
X194802452Y-81804761D01*
X194754833Y-81852380D01*
X194707214Y-81804761D01*
X194754833Y-81757142D01*
X194754833Y-81852380D01*
X195135785Y-80852380D02*
X195754833Y-80852380D01*
X195421500Y-81233333D01*
X195564357Y-81233333D01*
X195659595Y-81280952D01*
X195707214Y-81328571D01*
X195754833Y-81423809D01*
X195754833Y-81661904D01*
X195707214Y-81757142D01*
X195659595Y-81804761D01*
X195564357Y-81852380D01*
X195278642Y-81852380D01*
X195183404Y-81804761D01*
X195135785Y-81757142D01*
X196373880Y-80852380D02*
X196469119Y-80852380D01*
X196564357Y-80900000D01*
X196611976Y-80947619D01*
X196659595Y-81042857D01*
X196707214Y-81233333D01*
X196707214Y-81471428D01*
X196659595Y-81661904D01*
X196611976Y-81757142D01*
X196564357Y-81804761D01*
X196469119Y-81852380D01*
X196373880Y-81852380D01*
X196278642Y-81804761D01*
X196231023Y-81757142D01*
X196183404Y-81661904D01*
X196135785Y-81471428D01*
X196135785Y-81233333D01*
X196183404Y-81042857D01*
X196231023Y-80947619D01*
X196278642Y-80900000D01*
X196373880Y-80852380D01*
X197040547Y-80852380D02*
X197659595Y-80852380D01*
X197326261Y-81233333D01*
X197469119Y-81233333D01*
X197564357Y-81280952D01*
X197611976Y-81328571D01*
X197659595Y-81423809D01*
X197659595Y-81661904D01*
X197611976Y-81757142D01*
X197564357Y-81804761D01*
X197469119Y-81852380D01*
X197183404Y-81852380D01*
X197088166Y-81804761D01*
X197040547Y-81757142D01*
X198278642Y-80852380D02*
X198373880Y-80852380D01*
X198469119Y-80900000D01*
X198516738Y-80947619D01*
X198564357Y-81042857D01*
X198611976Y-81233333D01*
X198611976Y-81471428D01*
X198564357Y-81661904D01*
X198516738Y-81757142D01*
X198469119Y-81804761D01*
X198373880Y-81852380D01*
X198278642Y-81852380D01*
X198183404Y-81804761D01*
X198135785Y-81757142D01*
X198088166Y-81661904D01*
X198040547Y-81471428D01*
X198040547Y-81233333D01*
X198088166Y-81042857D01*
X198135785Y-80947619D01*
X198183404Y-80900000D01*
X198278642Y-80852380D01*
X199802452Y-81852380D02*
X199802452Y-81185714D01*
X199802452Y-81280952D02*
X199850071Y-81233333D01*
X199945309Y-81185714D01*
X200088166Y-81185714D01*
X200183404Y-81233333D01*
X200231023Y-81328571D01*
X200231023Y-81852380D01*
X200231023Y-81328571D02*
X200278642Y-81233333D01*
X200373880Y-81185714D01*
X200516738Y-81185714D01*
X200611976Y-81233333D01*
X200659595Y-81328571D01*
X200659595Y-81852380D01*
X201135785Y-81852380D02*
X201135785Y-81185714D01*
X201135785Y-81280952D02*
X201183404Y-81233333D01*
X201278642Y-81185714D01*
X201421500Y-81185714D01*
X201516738Y-81233333D01*
X201564357Y-81328571D01*
X201564357Y-81852380D01*
X201564357Y-81328571D02*
X201611976Y-81233333D01*
X201707214Y-81185714D01*
X201850071Y-81185714D01*
X201945309Y-81233333D01*
X201992928Y-81328571D01*
X201992928Y-81852380D01*
D11*
X191770000Y-93480000D02*
X191770000Y-81963580D01*
X203073000Y-93480000D02*
X203073000Y-81963580D01*
X191770000Y-82550000D02*
X203073000Y-82550000D01*
X191770000Y-82550000D02*
X203073000Y-82550000D01*
X191770000Y-82550000D02*
X192896504Y-83136421D01*
X191770000Y-82550000D02*
X192896504Y-81963579D01*
X203073000Y-82550000D02*
X201946496Y-81963579D01*
X203073000Y-82550000D02*
X201946496Y-83136421D01*
D10*
X165148142Y-87281715D02*
X165148142Y-87948381D01*
X164910047Y-86900762D02*
X164671952Y-87615048D01*
X165291000Y-87615048D01*
X166100523Y-87281715D02*
X166100523Y-87948381D01*
X165862428Y-86900762D02*
X165624333Y-87615048D01*
X166243380Y-87615048D01*
X166624333Y-87853143D02*
X166671952Y-87900762D01*
X166624333Y-87948381D01*
X166576714Y-87900762D01*
X166624333Y-87853143D01*
X166624333Y-87948381D01*
X167148142Y-87948381D02*
X167338619Y-87948381D01*
X167433857Y-87900762D01*
X167481476Y-87853143D01*
X167576714Y-87710286D01*
X167624333Y-87519810D01*
X167624333Y-87138858D01*
X167576714Y-87043620D01*
X167529095Y-86996001D01*
X167433857Y-86948381D01*
X167243380Y-86948381D01*
X167148142Y-86996001D01*
X167100523Y-87043620D01*
X167052904Y-87138858D01*
X167052904Y-87376953D01*
X167100523Y-87472191D01*
X167148142Y-87519810D01*
X167243380Y-87567429D01*
X167433857Y-87567429D01*
X167529095Y-87519810D01*
X167576714Y-87472191D01*
X167624333Y-87376953D01*
X168529095Y-86948381D02*
X168052904Y-86948381D01*
X168005285Y-87424572D01*
X168052904Y-87376953D01*
X168148142Y-87329334D01*
X168386238Y-87329334D01*
X168481476Y-87376953D01*
X168529095Y-87424572D01*
X168576714Y-87519810D01*
X168576714Y-87757905D01*
X168529095Y-87853143D01*
X168481476Y-87900762D01*
X168386238Y-87948381D01*
X168148142Y-87948381D01*
X168052904Y-87900762D01*
X168005285Y-87853143D01*
X169148142Y-87376953D02*
X169052904Y-87329334D01*
X169005285Y-87281715D01*
X168957666Y-87186477D01*
X168957666Y-87138858D01*
X169005285Y-87043620D01*
X169052904Y-86996001D01*
X169148142Y-86948381D01*
X169338619Y-86948381D01*
X169433857Y-86996001D01*
X169481476Y-87043620D01*
X169529095Y-87138858D01*
X169529095Y-87186477D01*
X169481476Y-87281715D01*
X169433857Y-87329334D01*
X169338619Y-87376953D01*
X169148142Y-87376953D01*
X169052904Y-87424572D01*
X169005285Y-87472191D01*
X168957666Y-87567429D01*
X168957666Y-87757905D01*
X169005285Y-87853143D01*
X169052904Y-87900762D01*
X169148142Y-87948381D01*
X169338619Y-87948381D01*
X169433857Y-87900762D01*
X169481476Y-87853143D01*
X169529095Y-87757905D01*
X169529095Y-87567429D01*
X169481476Y-87472191D01*
X169433857Y-87424572D01*
X169338619Y-87376953D01*
X170148142Y-86948381D02*
X170243380Y-86948381D01*
X170338619Y-86996001D01*
X170386238Y-87043620D01*
X170433857Y-87138858D01*
X170481476Y-87329334D01*
X170481476Y-87567429D01*
X170433857Y-87757905D01*
X170386238Y-87853143D01*
X170338619Y-87900762D01*
X170243380Y-87948381D01*
X170148142Y-87948381D01*
X170052904Y-87900762D01*
X170005285Y-87853143D01*
X169957666Y-87757905D01*
X169910047Y-87567429D01*
X169910047Y-87329334D01*
X169957666Y-87138858D01*
X170005285Y-87043620D01*
X170052904Y-86996001D01*
X170148142Y-86948381D01*
X171671952Y-87948381D02*
X171671952Y-87281715D01*
X171671952Y-87376953D02*
X171719571Y-87329334D01*
X171814809Y-87281715D01*
X171957666Y-87281715D01*
X172052904Y-87329334D01*
X172100523Y-87424572D01*
X172100523Y-87948381D01*
X172100523Y-87424572D02*
X172148142Y-87329334D01*
X172243380Y-87281715D01*
X172386238Y-87281715D01*
X172481476Y-87329334D01*
X172529095Y-87424572D01*
X172529095Y-87948381D01*
X173005285Y-87948381D02*
X173005285Y-87281715D01*
X173005285Y-87376953D02*
X173052904Y-87329334D01*
X173148142Y-87281715D01*
X173291000Y-87281715D01*
X173386238Y-87329334D01*
X173433857Y-87424572D01*
X173433857Y-87948381D01*
X173433857Y-87424572D02*
X173481476Y-87329334D01*
X173576714Y-87281715D01*
X173719571Y-87281715D01*
X173814809Y-87329334D01*
X173862428Y-87424572D01*
X173862428Y-87948381D01*
D11*
X191770000Y-93480000D02*
X191770000Y-88059581D01*
X146812000Y-93480000D02*
X146812000Y-88059581D01*
X191770000Y-88646001D02*
X146812000Y-88646001D01*
X191770000Y-88646001D02*
X146812000Y-88646001D01*
X191770000Y-88646001D02*
X190643496Y-88059580D01*
X191770000Y-88646001D02*
X190643496Y-89232422D01*
X146812000Y-88646001D02*
X147938504Y-89232422D01*
X146812000Y-88646001D02*
X147938504Y-88059580D01*
D10*
X205438880Y-87948380D02*
X204867452Y-87948380D01*
X205153166Y-87948380D02*
X205153166Y-86948380D01*
X205057928Y-87091238D01*
X204962690Y-87186476D01*
X204867452Y-87234095D01*
X205819833Y-87043619D02*
X205867452Y-86996000D01*
X205962690Y-86948380D01*
X206200785Y-86948380D01*
X206296023Y-86996000D01*
X206343642Y-87043619D01*
X206391261Y-87138857D01*
X206391261Y-87234095D01*
X206343642Y-87376952D01*
X205772214Y-87948380D01*
X206391261Y-87948380D01*
X206819833Y-87853142D02*
X206867452Y-87900761D01*
X206819833Y-87948380D01*
X206772214Y-87900761D01*
X206819833Y-87853142D01*
X206819833Y-87948380D01*
X207438880Y-87376952D02*
X207343642Y-87329333D01*
X207296023Y-87281714D01*
X207248404Y-87186476D01*
X207248404Y-87138857D01*
X207296023Y-87043619D01*
X207343642Y-86996000D01*
X207438880Y-86948380D01*
X207629357Y-86948380D01*
X207724595Y-86996000D01*
X207772214Y-87043619D01*
X207819833Y-87138857D01*
X207819833Y-87186476D01*
X207772214Y-87281714D01*
X207724595Y-87329333D01*
X207629357Y-87376952D01*
X207438880Y-87376952D01*
X207343642Y-87424571D01*
X207296023Y-87472190D01*
X207248404Y-87567428D01*
X207248404Y-87757904D01*
X207296023Y-87853142D01*
X207343642Y-87900761D01*
X207438880Y-87948380D01*
X207629357Y-87948380D01*
X207724595Y-87900761D01*
X207772214Y-87853142D01*
X207819833Y-87757904D01*
X207819833Y-87567428D01*
X207772214Y-87472190D01*
X207724595Y-87424571D01*
X207629357Y-87376952D01*
X208200785Y-87043619D02*
X208248404Y-86996000D01*
X208343642Y-86948380D01*
X208581738Y-86948380D01*
X208676976Y-86996000D01*
X208724595Y-87043619D01*
X208772214Y-87138857D01*
X208772214Y-87234095D01*
X208724595Y-87376952D01*
X208153166Y-87948380D01*
X208772214Y-87948380D01*
X209105547Y-86948380D02*
X209772214Y-86948380D01*
X209343642Y-87948380D01*
X210343642Y-86948380D02*
X210438880Y-86948380D01*
X210534119Y-86996000D01*
X210581738Y-87043619D01*
X210629357Y-87138857D01*
X210676976Y-87329333D01*
X210676976Y-87567428D01*
X210629357Y-87757904D01*
X210581738Y-87853142D01*
X210534119Y-87900761D01*
X210438880Y-87948380D01*
X210343642Y-87948380D01*
X210248404Y-87900761D01*
X210200785Y-87853142D01*
X210153166Y-87757904D01*
X210105547Y-87567428D01*
X210105547Y-87329333D01*
X210153166Y-87138857D01*
X210200785Y-87043619D01*
X210248404Y-86996000D01*
X210343642Y-86948380D01*
X211867452Y-87948380D02*
X211867452Y-87281714D01*
X211867452Y-87376952D02*
X211915071Y-87329333D01*
X212010309Y-87281714D01*
X212153166Y-87281714D01*
X212248404Y-87329333D01*
X212296023Y-87424571D01*
X212296023Y-87948380D01*
X212296023Y-87424571D02*
X212343642Y-87329333D01*
X212438880Y-87281714D01*
X212581738Y-87281714D01*
X212676976Y-87329333D01*
X212724595Y-87424571D01*
X212724595Y-87948380D01*
X213200785Y-87948380D02*
X213200785Y-87281714D01*
X213200785Y-87376952D02*
X213248404Y-87329333D01*
X213343642Y-87281714D01*
X213486500Y-87281714D01*
X213581738Y-87329333D01*
X213629357Y-87424571D01*
X213629357Y-87948380D01*
X213629357Y-87424571D02*
X213676976Y-87329333D01*
X213772214Y-87281714D01*
X213915071Y-87281714D01*
X214010309Y-87329333D01*
X214057928Y-87424571D01*
X214057928Y-87948380D01*
D11*
X203073000Y-93480000D02*
X203073000Y-88059580D01*
X215900000Y-93480000D02*
X215900000Y-88059580D01*
X203073000Y-88646000D02*
X215900000Y-88646000D01*
X203073000Y-88646000D02*
X215900000Y-88646000D01*
X203073000Y-88646000D02*
X204199504Y-89232421D01*
X203073000Y-88646000D02*
X204199504Y-88059579D01*
X215900000Y-88646000D02*
X214773496Y-88059579D01*
X215900000Y-88646000D02*
X214773496Y-89232421D01*
X191770000Y-93980000D02*
X191770000Y-96012000D01*
X203073000Y-93980000D02*
X191770000Y-93980000D01*
X203066618Y-96018382D02*
X203073000Y-93980000D01*
X203066618Y-96018382D02*
G75*
G03*
X203955618Y-96907382I889000J0D01*
G01*
X190881000Y-96901000D02*
G75*
G03*
X191770000Y-96012000I0J889000D01*
G01*
X146812000Y-139192000D02*
X146800332Y-100344732D01*
X203955618Y-96907382D02*
X212598000Y-96910000D01*
X210820000Y-144272000D02*
G75*
G03*
X215900000Y-139192000I0J5080000D01*
G01*
X190881000Y-96901000D02*
X150368000Y-96890000D01*
X215900000Y-100355400D02*
X215900000Y-139192000D01*
X151892000Y-144272000D02*
X210820000Y-144272000D01*
X150367999Y-96890021D02*
G75*
G03*
X146800332Y-100344732I-111199J-3454679D01*
G01*
X146812000Y-139192000D02*
G75*
G03*
X151892000Y-144272000I5080000J0D01*
G01*
X215900013Y-100355400D02*
G75*
G03*
X212598000Y-96910000I-3448513J0D01*
G01*
M02*
