%TF.GenerationSoftware,KiCad,Pcbnew,(6.0.7)*%
%TF.CreationDate,2022-08-09T22:38:16+07:00*%
%TF.ProjectId,Keypad-3,4b657970-6164-42d3-932e-6b696361645f,rev?*%
%TF.SameCoordinates,Original*%
%TF.FileFunction,Soldermask,Bot*%
%TF.FilePolarity,Negative*%
%FSLAX46Y46*%
G04 Gerber Fmt 4.6, Leading zero omitted, Abs format (unit mm)*
G04 Created by KiCad (PCBNEW (6.0.7)) date 2022-08-09 22:38:16*
%MOMM*%
%LPD*%
G01*
G04 APERTURE LIST*
G04 Aperture macros list*
%AMRoundRect*
0 Rectangle with rounded corners*
0 $1 Rounding radius*
0 $2 $3 $4 $5 $6 $7 $8 $9 X,Y pos of 4 corners*
0 Add a 4 corners polygon primitive as box body*
4,1,4,$2,$3,$4,$5,$6,$7,$8,$9,$2,$3,0*
0 Add four circle primitives for the rounded corners*
1,1,$1+$1,$2,$3*
1,1,$1+$1,$4,$5*
1,1,$1+$1,$6,$7*
1,1,$1+$1,$8,$9*
0 Add four rect primitives between the rounded corners*
20,1,$1+$1,$2,$3,$4,$5,0*
20,1,$1+$1,$4,$5,$6,$7,0*
20,1,$1+$1,$6,$7,$8,$9,0*
20,1,$1+$1,$8,$9,$2,$3,0*%
%AMHorizOval*
0 Thick line with rounded ends*
0 $1 width*
0 $2 $3 position (X,Y) of the first rounded end (center of the circle)*
0 $4 $5 position (X,Y) of the second rounded end (center of the circle)*
0 Add line between two ends*
20,1,$1,$2,$3,$4,$5,0*
0 Add two circle primitives to create the rounded ends*
1,1,$1,$2,$3*
1,1,$1,$4,$5*%
G04 Aperture macros list end*
%ADD10C,3.987800*%
%ADD11C,1.750000*%
%ADD12HorizOval,2.250000X0.655001X0.730000X-0.655001X-0.730000X0*%
%ADD13C,2.250000*%
%ADD14HorizOval,2.250000X0.020000X0.290000X-0.020000X-0.290000X0*%
%ADD15RoundRect,0.250000X-0.262500X-0.450000X0.262500X-0.450000X0.262500X0.450000X-0.262500X0.450000X0*%
%ADD16R,0.550000X1.500000*%
%ADD17R,1.500000X0.550000*%
%ADD18R,1.200000X0.900000*%
%ADD19RoundRect,0.250000X0.475000X-0.250000X0.475000X0.250000X-0.475000X0.250000X-0.475000X-0.250000X0*%
%ADD20R,1.200000X1.400000*%
%ADD21RoundRect,0.250000X0.262500X0.450000X-0.262500X0.450000X-0.262500X-0.450000X0.262500X-0.450000X0*%
%ADD22RoundRect,0.250000X-0.450000X0.262500X-0.450000X-0.262500X0.450000X-0.262500X0.450000X0.262500X0*%
%ADD23RoundRect,0.250000X-0.250000X-0.475000X0.250000X-0.475000X0.250000X0.475000X-0.250000X0.475000X0*%
%ADD24RoundRect,0.150000X0.475000X0.150000X-0.475000X0.150000X-0.475000X-0.150000X0.475000X-0.150000X0*%
%ADD25RoundRect,0.250000X-0.475000X0.250000X-0.475000X-0.250000X0.475000X-0.250000X0.475000X0.250000X0*%
%ADD26RoundRect,0.250000X-0.625000X0.375000X-0.625000X-0.375000X0.625000X-0.375000X0.625000X0.375000X0*%
%ADD27C,0.650000*%
%ADD28R,0.600000X1.450000*%
%ADD29R,0.300000X1.450000*%
%ADD30O,1.000000X2.100000*%
%ADD31O,1.000000X1.600000*%
G04 APERTURE END LIST*
D10*
%TO.C,MX1*%
X158597600Y-111684800D03*
D11*
X153517600Y-111684800D03*
X163677600Y-111684800D03*
D12*
X155442601Y-108414800D03*
D13*
X156097600Y-107684800D03*
D14*
X161117600Y-106894800D03*
D13*
X161137600Y-106604800D03*
%TD*%
D10*
%TO.C,MX2*%
X177647600Y-120701800D03*
D11*
X172567600Y-120701800D03*
X182727600Y-120701800D03*
D12*
X174492601Y-117431800D03*
D13*
X175147600Y-116701800D03*
X180187600Y-115621800D03*
D14*
X180167600Y-115911800D03*
%TD*%
D15*
%TO.C,R5*%
X199202268Y-103442500D03*
X201027268Y-103442500D03*
%TD*%
D16*
%TO.C,U1*%
X195980235Y-126057108D03*
X196780235Y-126057108D03*
X197580235Y-126057108D03*
X198380235Y-126057108D03*
X199180235Y-126057108D03*
X199980235Y-126057108D03*
X200780235Y-126057108D03*
X201580235Y-126057108D03*
X202380235Y-126057108D03*
X203180235Y-126057108D03*
X203980235Y-126057108D03*
D17*
X205680235Y-127757108D03*
X205680235Y-128557108D03*
X205680235Y-129357108D03*
X205680235Y-130157108D03*
X205680235Y-130957108D03*
X205680235Y-131757108D03*
X205680235Y-132557108D03*
X205680235Y-133357108D03*
X205680235Y-134157108D03*
X205680235Y-134957108D03*
X205680235Y-135757108D03*
D16*
X203980235Y-137457108D03*
X203180235Y-137457108D03*
X202380235Y-137457108D03*
X201580235Y-137457108D03*
X200780235Y-137457108D03*
X199980235Y-137457108D03*
X199180235Y-137457108D03*
X198380235Y-137457108D03*
X197580235Y-137457108D03*
X196780235Y-137457108D03*
X195980235Y-137457108D03*
D17*
X194280235Y-135757108D03*
X194280235Y-134957108D03*
X194280235Y-134157108D03*
X194280235Y-133357108D03*
X194280235Y-132557108D03*
X194280235Y-131757108D03*
X194280235Y-130957108D03*
X194280235Y-130157108D03*
X194280235Y-129357108D03*
X194280235Y-128557108D03*
X194280235Y-127757108D03*
%TD*%
D18*
%TO.C,D1*%
X166344600Y-113334800D03*
X166344600Y-110034800D03*
%TD*%
D19*
%TO.C,C4*%
X209956400Y-124140000D03*
X209956400Y-122240000D03*
%TD*%
D20*
%TO.C,Y1*%
X210306236Y-132857108D03*
X210306236Y-130657108D03*
X212006236Y-130657108D03*
X212006236Y-132857108D03*
%TD*%
D21*
%TO.C,R6*%
X196201268Y-103504999D03*
X194376268Y-103504999D03*
%TD*%
D19*
%TO.C,C6*%
X190464260Y-136263108D03*
X190464260Y-134363108D03*
%TD*%
D22*
%TO.C,R1*%
X207772000Y-122277500D03*
X207772000Y-124102500D03*
%TD*%
D21*
%TO.C,C1*%
X212068732Y-135440109D03*
X210243732Y-135440109D03*
%TD*%
D23*
%TO.C,C2*%
X210206237Y-128074109D03*
X212106237Y-128074109D03*
%TD*%
D24*
%TO.C,U2*%
X199130768Y-105603000D03*
X199130768Y-106553000D03*
X199130768Y-107503000D03*
X196780768Y-107503000D03*
X196780768Y-106553000D03*
X196780768Y-105603000D03*
%TD*%
D22*
%TO.C,R2*%
X198971768Y-117058668D03*
X198971768Y-118883668D03*
%TD*%
D25*
%TO.C,C7*%
X190618978Y-126168192D03*
X190618978Y-128068192D03*
%TD*%
D23*
%TO.C,C5*%
X201824236Y-141028108D03*
X203724236Y-141028108D03*
%TD*%
D26*
%TO.C,F1*%
X194042268Y-108478500D03*
X194042268Y-111278500D03*
%TD*%
D23*
%TO.C,C3*%
X200052400Y-122566668D03*
X201952400Y-122566668D03*
%TD*%
D22*
%TO.C,R3*%
X196939768Y-117058668D03*
X196939768Y-118883668D03*
%TD*%
D15*
%TO.C,R4*%
X194241735Y-141155108D03*
X196066735Y-141155108D03*
%TD*%
D18*
%TO.C,D2*%
X185775600Y-122224800D03*
X185775600Y-118924800D03*
%TD*%
D27*
%TO.C,J1*%
X200337768Y-99195000D03*
X194557768Y-99195000D03*
D28*
X194197768Y-100640000D03*
X194997768Y-100640000D03*
D29*
X196197768Y-100640000D03*
X197197768Y-100640000D03*
X197697768Y-100640000D03*
X198697768Y-100640000D03*
D28*
X199897768Y-100640000D03*
X200697768Y-100640000D03*
X200697768Y-100640000D03*
X199897768Y-100640000D03*
D29*
X199197768Y-100640000D03*
X198197768Y-100640000D03*
X196697768Y-100640000D03*
X195697768Y-100640000D03*
D28*
X194997768Y-100640000D03*
X194197768Y-100640000D03*
D30*
X201767768Y-99725000D03*
X193127768Y-99725000D03*
D31*
X201767768Y-95545000D03*
X193127768Y-95545000D03*
%TD*%
M02*
