%TF.GenerationSoftware,KiCad,Pcbnew,(6.0.7)*%
%TF.CreationDate,2022-08-09T22:38:16+07:00*%
%TF.ProjectId,Keypad-3,4b657970-6164-42d3-932e-6b696361645f,rev?*%
%TF.SameCoordinates,Original*%
%TF.FileFunction,Copper,L2,Bot*%
%TF.FilePolarity,Positive*%
%FSLAX46Y46*%
G04 Gerber Fmt 4.6, Leading zero omitted, Abs format (unit mm)*
G04 Created by KiCad (PCBNEW (6.0.7)) date 2022-08-09 22:38:16*
%MOMM*%
%LPD*%
G01*
G04 APERTURE LIST*
G04 Aperture macros list*
%AMRoundRect*
0 Rectangle with rounded corners*
0 $1 Rounding radius*
0 $2 $3 $4 $5 $6 $7 $8 $9 X,Y pos of 4 corners*
0 Add a 4 corners polygon primitive as box body*
4,1,4,$2,$3,$4,$5,$6,$7,$8,$9,$2,$3,0*
0 Add four circle primitives for the rounded corners*
1,1,$1+$1,$2,$3*
1,1,$1+$1,$4,$5*
1,1,$1+$1,$6,$7*
1,1,$1+$1,$8,$9*
0 Add four rect primitives between the rounded corners*
20,1,$1+$1,$2,$3,$4,$5,0*
20,1,$1+$1,$4,$5,$6,$7,0*
20,1,$1+$1,$6,$7,$8,$9,0*
20,1,$1+$1,$8,$9,$2,$3,0*%
%AMHorizOval*
0 Thick line with rounded ends*
0 $1 width*
0 $2 $3 position (X,Y) of the first rounded end (center of the circle)*
0 $4 $5 position (X,Y) of the second rounded end (center of the circle)*
0 Add line between two ends*
20,1,$1,$2,$3,$4,$5,0*
0 Add two circle primitives to create the rounded ends*
1,1,$1,$2,$3*
1,1,$1,$4,$5*%
G04 Aperture macros list end*
%TA.AperFunction,ComponentPad*%
%ADD10HorizOval,2.250000X0.655001X0.730000X-0.655001X-0.730000X0*%
%TD*%
%TA.AperFunction,ComponentPad*%
%ADD11C,2.250000*%
%TD*%
%TA.AperFunction,ComponentPad*%
%ADD12HorizOval,2.250000X0.020000X0.290000X-0.020000X-0.290000X0*%
%TD*%
%TA.AperFunction,SMDPad,CuDef*%
%ADD13RoundRect,0.250000X-0.262500X-0.450000X0.262500X-0.450000X0.262500X0.450000X-0.262500X0.450000X0*%
%TD*%
%TA.AperFunction,SMDPad,CuDef*%
%ADD14R,0.550000X1.500000*%
%TD*%
%TA.AperFunction,SMDPad,CuDef*%
%ADD15R,1.500000X0.550000*%
%TD*%
%TA.AperFunction,SMDPad,CuDef*%
%ADD16R,1.200000X0.900000*%
%TD*%
%TA.AperFunction,SMDPad,CuDef*%
%ADD17RoundRect,0.250000X0.475000X-0.250000X0.475000X0.250000X-0.475000X0.250000X-0.475000X-0.250000X0*%
%TD*%
%TA.AperFunction,SMDPad,CuDef*%
%ADD18R,1.200000X1.400000*%
%TD*%
%TA.AperFunction,SMDPad,CuDef*%
%ADD19RoundRect,0.250000X0.262500X0.450000X-0.262500X0.450000X-0.262500X-0.450000X0.262500X-0.450000X0*%
%TD*%
%TA.AperFunction,SMDPad,CuDef*%
%ADD20RoundRect,0.250000X-0.450000X0.262500X-0.450000X-0.262500X0.450000X-0.262500X0.450000X0.262500X0*%
%TD*%
%TA.AperFunction,SMDPad,CuDef*%
%ADD21RoundRect,0.250000X-0.250000X-0.475000X0.250000X-0.475000X0.250000X0.475000X-0.250000X0.475000X0*%
%TD*%
%TA.AperFunction,SMDPad,CuDef*%
%ADD22RoundRect,0.150000X0.475000X0.150000X-0.475000X0.150000X-0.475000X-0.150000X0.475000X-0.150000X0*%
%TD*%
%TA.AperFunction,SMDPad,CuDef*%
%ADD23RoundRect,0.250000X-0.475000X0.250000X-0.475000X-0.250000X0.475000X-0.250000X0.475000X0.250000X0*%
%TD*%
%TA.AperFunction,SMDPad,CuDef*%
%ADD24RoundRect,0.250000X-0.625000X0.375000X-0.625000X-0.375000X0.625000X-0.375000X0.625000X0.375000X0*%
%TD*%
%TA.AperFunction,SMDPad,CuDef*%
%ADD25R,0.600000X1.450000*%
%TD*%
%TA.AperFunction,SMDPad,CuDef*%
%ADD26R,0.300000X1.450000*%
%TD*%
%TA.AperFunction,ComponentPad*%
%ADD27O,1.000000X2.100000*%
%TD*%
%TA.AperFunction,ComponentPad*%
%ADD28O,1.000000X1.600000*%
%TD*%
%TA.AperFunction,ViaPad*%
%ADD29C,0.800000*%
%TD*%
%TA.AperFunction,Conductor*%
%ADD30C,0.330200*%
%TD*%
%TA.AperFunction,Conductor*%
%ADD31C,0.200000*%
%TD*%
%TA.AperFunction,Conductor*%
%ADD32C,0.381000*%
%TD*%
%TA.AperFunction,Conductor*%
%ADD33C,0.254000*%
%TD*%
G04 APERTURE END LIST*
D10*
%TO.P,MX1,1,COL*%
%TO.N,COL0*%
X155442601Y-108414800D03*
D11*
X156097600Y-107684800D03*
D12*
%TO.P,MX1,2,ROW*%
%TO.N,Net-(D1-Pad2)*%
X161117600Y-106894800D03*
D11*
X161137600Y-106604800D03*
%TD*%
D10*
%TO.P,MX2,1,COL*%
%TO.N,COL1*%
X174492601Y-117431800D03*
D11*
X175147600Y-116701800D03*
%TO.P,MX2,2,ROW*%
%TO.N,Net-(D2-Pad2)*%
X180187600Y-115621800D03*
D12*
X180167600Y-115911800D03*
%TD*%
D13*
%TO.P,R5,1*%
%TO.N,Net-(J1-PadB5)*%
X199202268Y-103442500D03*
%TO.P,R5,2*%
%TO.N,GND*%
X201027268Y-103442500D03*
%TD*%
D14*
%TO.P,U1,1,PE6*%
%TO.N,unconnected-(U1-Pad1)*%
X195980235Y-126057108D03*
%TO.P,U1,2,UVCC*%
%TO.N,+5V*%
X196780235Y-126057108D03*
%TO.P,U1,3,D-*%
%TO.N,Net-(R3-Pad2)*%
X197580235Y-126057108D03*
%TO.P,U1,4,D+*%
%TO.N,Net-(R2-Pad2)*%
X198380235Y-126057108D03*
%TO.P,U1,5,UGND*%
%TO.N,GND*%
X199180235Y-126057108D03*
%TO.P,U1,6,UCAP*%
%TO.N,Net-(C3-Pad1)*%
X199980235Y-126057108D03*
%TO.P,U1,7,VBUS*%
%TO.N,+5V*%
X200780235Y-126057108D03*
%TO.P,U1,8,PB0*%
%TO.N,unconnected-(U1-Pad8)*%
X201580235Y-126057108D03*
%TO.P,U1,9,PB1*%
%TO.N,unconnected-(U1-Pad9)*%
X202380235Y-126057108D03*
%TO.P,U1,10,PB2*%
%TO.N,unconnected-(U1-Pad10)*%
X203180235Y-126057108D03*
%TO.P,U1,11,PB3*%
%TO.N,unconnected-(U1-Pad11)*%
X203980235Y-126057108D03*
D15*
%TO.P,U1,12,PB7*%
%TO.N,unconnected-(U1-Pad12)*%
X205680235Y-127757108D03*
%TO.P,U1,13,~{RESET}*%
%TO.N,Net-(R1-Pad2)*%
X205680235Y-128557108D03*
%TO.P,U1,14,VCC*%
%TO.N,+5V*%
X205680235Y-129357108D03*
%TO.P,U1,15,GND*%
%TO.N,GND*%
X205680235Y-130157108D03*
%TO.P,U1,16,XTAL2*%
%TO.N,Net-(C2-Pad2)*%
X205680235Y-130957108D03*
%TO.P,U1,17,XTAL1*%
%TO.N,Net-(C1-Pad2)*%
X205680235Y-131757108D03*
%TO.P,U1,18,PD0*%
%TO.N,unconnected-(U1-Pad18)*%
X205680235Y-132557108D03*
%TO.P,U1,19,PD1*%
%TO.N,unconnected-(U1-Pad19)*%
X205680235Y-133357108D03*
%TO.P,U1,20,PD2*%
%TO.N,unconnected-(U1-Pad20)*%
X205680235Y-134157108D03*
%TO.P,U1,21,PD3*%
%TO.N,unconnected-(U1-Pad21)*%
X205680235Y-134957108D03*
%TO.P,U1,22,PD5*%
%TO.N,unconnected-(U1-Pad22)*%
X205680235Y-135757108D03*
D14*
%TO.P,U1,23,GND*%
%TO.N,GND*%
X203980235Y-137457108D03*
%TO.P,U1,24,AVCC*%
%TO.N,+5V*%
X203180235Y-137457108D03*
%TO.P,U1,25,PD4*%
%TO.N,unconnected-(U1-Pad25)*%
X202380235Y-137457108D03*
%TO.P,U1,26,PD6*%
%TO.N,unconnected-(U1-Pad26)*%
X201580235Y-137457108D03*
%TO.P,U1,27,PD7*%
%TO.N,unconnected-(U1-Pad27)*%
X200780235Y-137457108D03*
%TO.P,U1,28,PB4*%
%TO.N,unconnected-(U1-Pad28)*%
X199980235Y-137457108D03*
%TO.P,U1,29,PB5*%
%TO.N,unconnected-(U1-Pad29)*%
X199180235Y-137457108D03*
%TO.P,U1,30,PB6*%
%TO.N,unconnected-(U1-Pad30)*%
X198380235Y-137457108D03*
%TO.P,U1,31,PC6*%
%TO.N,unconnected-(U1-Pad31)*%
X197580235Y-137457108D03*
%TO.P,U1,32,PC7*%
%TO.N,unconnected-(U1-Pad32)*%
X196780235Y-137457108D03*
%TO.P,U1,33,~{HWB}/PE2*%
%TO.N,Net-(R4-Pad2)*%
X195980235Y-137457108D03*
D15*
%TO.P,U1,34,VCC*%
%TO.N,+5V*%
X194280235Y-135757108D03*
%TO.P,U1,35,GND*%
%TO.N,GND*%
X194280235Y-134957108D03*
%TO.P,U1,36,PF7*%
%TO.N,unconnected-(U1-Pad36)*%
X194280235Y-134157108D03*
%TO.P,U1,37,PF6*%
%TO.N,unconnected-(U1-Pad37)*%
X194280235Y-133357108D03*
%TO.P,U1,38,PF5*%
%TO.N,unconnected-(U1-Pad38)*%
X194280235Y-132557108D03*
%TO.P,U1,39,PF4*%
%TO.N,COL0*%
X194280235Y-131757108D03*
%TO.P,U1,40,PF1*%
%TO.N,COL1*%
X194280235Y-130957108D03*
%TO.P,U1,41,PF0*%
%TO.N,ROW0*%
X194280235Y-130157108D03*
%TO.P,U1,42,AREF*%
%TO.N,unconnected-(U1-Pad42)*%
X194280235Y-129357108D03*
%TO.P,U1,43,GND*%
%TO.N,GND*%
X194280235Y-128557108D03*
%TO.P,U1,44,AVCC*%
%TO.N,+5V*%
X194280235Y-127757108D03*
%TD*%
D16*
%TO.P,D1,1,K*%
%TO.N,ROW0*%
X166344600Y-113334800D03*
%TO.P,D1,2,A*%
%TO.N,Net-(D1-Pad2)*%
X166344600Y-110034800D03*
%TD*%
D17*
%TO.P,C4,1*%
%TO.N,+5V*%
X209956400Y-124140000D03*
%TO.P,C4,2*%
%TO.N,GND*%
X209956400Y-122240000D03*
%TD*%
D18*
%TO.P,Y1,1,1*%
%TO.N,Net-(C1-Pad2)*%
X210306236Y-132857108D03*
%TO.P,Y1,2,2*%
%TO.N,GND*%
X210306236Y-130657108D03*
%TO.P,Y1,3,3*%
%TO.N,Net-(C2-Pad2)*%
X212006236Y-130657108D03*
%TO.P,Y1,4,4*%
%TO.N,GND*%
X212006236Y-132857108D03*
%TD*%
D19*
%TO.P,R6,1*%
%TO.N,Net-(J1-PadA5)*%
X196201268Y-103504999D03*
%TO.P,R6,2*%
%TO.N,GND*%
X194376268Y-103504999D03*
%TD*%
D17*
%TO.P,C6,1*%
%TO.N,+5V*%
X190464260Y-136263108D03*
%TO.P,C6,2*%
%TO.N,GND*%
X190464260Y-134363108D03*
%TD*%
D20*
%TO.P,R1,1*%
%TO.N,+5V*%
X207772000Y-122277500D03*
%TO.P,R1,2*%
%TO.N,Net-(R1-Pad2)*%
X207772000Y-124102500D03*
%TD*%
D19*
%TO.P,C1,1*%
%TO.N,GND*%
X212068732Y-135440109D03*
%TO.P,C1,2*%
%TO.N,Net-(C1-Pad2)*%
X210243732Y-135440109D03*
%TD*%
D21*
%TO.P,C2,1*%
%TO.N,GND*%
X210206237Y-128074109D03*
%TO.P,C2,2*%
%TO.N,Net-(C2-Pad2)*%
X212106237Y-128074109D03*
%TD*%
D22*
%TO.P,U2,1,IO1*%
%TO.N,unconnected-(U2-Pad1)*%
X199130768Y-105603000D03*
%TO.P,U2,2,VN*%
%TO.N,GND*%
X199130768Y-106553000D03*
%TO.P,U2,3,IO2*%
%TO.N,D+*%
X199130768Y-107503000D03*
%TO.P,U2,4,IO3*%
%TO.N,D-*%
X196780768Y-107503000D03*
%TO.P,U2,5,VP*%
%TO.N,VBUS*%
X196780768Y-106553000D03*
%TO.P,U2,6,IO4*%
%TO.N,unconnected-(U2-Pad6)*%
X196780768Y-105603000D03*
%TD*%
D20*
%TO.P,R2,1*%
%TO.N,D+*%
X198971768Y-117058668D03*
%TO.P,R2,2*%
%TO.N,Net-(R2-Pad2)*%
X198971768Y-118883668D03*
%TD*%
D23*
%TO.P,C7,1*%
%TO.N,+5V*%
X190618978Y-126168192D03*
%TO.P,C7,2*%
%TO.N,GND*%
X190618978Y-128068192D03*
%TD*%
D21*
%TO.P,C5,1*%
%TO.N,+5V*%
X201824236Y-141028108D03*
%TO.P,C5,2*%
%TO.N,GND*%
X203724236Y-141028108D03*
%TD*%
D24*
%TO.P,F1,1*%
%TO.N,VBUS*%
X194042268Y-108478500D03*
%TO.P,F1,2*%
%TO.N,+5V*%
X194042268Y-111278500D03*
%TD*%
D21*
%TO.P,C3,1*%
%TO.N,Net-(C3-Pad1)*%
X200052400Y-122566668D03*
%TO.P,C3,2*%
%TO.N,GND*%
X201952400Y-122566668D03*
%TD*%
D20*
%TO.P,R3,1*%
%TO.N,D-*%
X196939768Y-117058668D03*
%TO.P,R3,2*%
%TO.N,Net-(R3-Pad2)*%
X196939768Y-118883668D03*
%TD*%
D13*
%TO.P,R4,1*%
%TO.N,GND*%
X194241735Y-141155108D03*
%TO.P,R4,2*%
%TO.N,Net-(R4-Pad2)*%
X196066735Y-141155108D03*
%TD*%
D16*
%TO.P,D2,1,K*%
%TO.N,ROW0*%
X185775600Y-122224800D03*
%TO.P,D2,2,A*%
%TO.N,Net-(D2-Pad2)*%
X185775600Y-118924800D03*
%TD*%
D25*
%TO.P,J1,A1,GND*%
%TO.N,GND*%
X194197768Y-100640000D03*
%TO.P,J1,A4,VBUS*%
%TO.N,VBUS*%
X194997768Y-100640000D03*
D26*
%TO.P,J1,A5,CC1*%
%TO.N,Net-(J1-PadA5)*%
X196197768Y-100640000D03*
%TO.P,J1,A6,D+*%
%TO.N,D+*%
X197197768Y-100640000D03*
%TO.P,J1,A7,D-*%
%TO.N,D-*%
X197697768Y-100640000D03*
%TO.P,J1,A8,SBU1*%
%TO.N,unconnected-(J1-PadA8)*%
X198697768Y-100640000D03*
D25*
%TO.P,J1,A9,VBUS*%
%TO.N,VBUS*%
X199897768Y-100640000D03*
%TO.P,J1,A12,GND*%
%TO.N,GND*%
X200697768Y-100640000D03*
%TO.P,J1,B1,GND*%
X200697768Y-100640000D03*
%TO.P,J1,B4,VBUS*%
%TO.N,VBUS*%
X199897768Y-100640000D03*
D26*
%TO.P,J1,B5,CC2*%
%TO.N,Net-(J1-PadB5)*%
X199197768Y-100640000D03*
%TO.P,J1,B6,D+*%
%TO.N,D+*%
X198197768Y-100640000D03*
%TO.P,J1,B7,D-*%
%TO.N,D-*%
X196697768Y-100640000D03*
%TO.P,J1,B8,SBU2*%
%TO.N,unconnected-(J1-PadB8)*%
X195697768Y-100640000D03*
D25*
%TO.P,J1,B9,VBUS*%
%TO.N,VBUS*%
X194997768Y-100640000D03*
%TO.P,J1,B12,GND*%
%TO.N,GND*%
X194197768Y-100640000D03*
D27*
%TO.P,J1,S1,SHIELD*%
X201767768Y-99725000D03*
X193127768Y-99725000D03*
D28*
X201767768Y-95545000D03*
X193127768Y-95545000D03*
%TD*%
D29*
%TO.N,GND*%
X188672592Y-128068192D03*
X188813260Y-134424109D03*
X201003768Y-106299000D03*
X201638768Y-101600000D03*
X208691083Y-130589676D03*
X163118800Y-135026400D03*
X210731873Y-126506122D03*
X202018400Y-120915668D03*
X197525000Y-131550000D03*
X192600000Y-141200000D03*
X193002768Y-103505000D03*
X213515753Y-132882103D03*
X199180000Y-124160000D03*
X202400768Y-103505000D03*
X213515751Y-135396576D03*
X193141600Y-101662632D03*
X202250000Y-131550000D03*
%TO.N,+5V*%
X202895200Y-120040400D03*
X187655200Y-124612400D03*
X194056000Y-117703600D03*
X206451200Y-120040400D03*
X188150500Y-136842500D03*
%TO.N,Net-(R1-Pad2)*%
X207772000Y-127127000D03*
%TD*%
D30*
%TO.N,+5V*%
X194042268Y-117689868D02*
X194042268Y-111278500D01*
X194056000Y-117703600D02*
X194042268Y-117689868D01*
D31*
%TO.N,D+*%
X198180769Y-108452999D02*
X199130768Y-107503000D01*
X198180769Y-116267669D02*
X198180769Y-108452999D01*
X198971768Y-117058668D02*
X198180769Y-116267669D01*
%TO.N,D-*%
X197730767Y-116267669D02*
X197730767Y-108452999D01*
X196939768Y-117058668D02*
X197730767Y-116267669D01*
X197730767Y-108452999D02*
X196780768Y-107503000D01*
D30*
%TO.N,GND*%
X201767768Y-99725000D02*
X201767768Y-95545000D01*
X196835576Y-128557109D02*
X194280234Y-128557109D01*
X201345288Y-130157110D02*
X205680235Y-130157109D01*
X194197768Y-100640000D02*
X194164232Y-100640000D01*
X210936147Y-131411284D02*
X210936147Y-131453240D01*
X190618978Y-128068192D02*
X188672592Y-128068192D01*
X210206237Y-128074109D02*
X210644005Y-127636342D01*
X201952400Y-122566668D02*
X201952400Y-120981668D01*
X192644892Y-141155108D02*
X192600000Y-141200000D01*
X200852768Y-100640000D02*
X201767768Y-99725000D01*
X194376268Y-103504999D02*
X193002768Y-103505000D01*
X190464260Y-134363107D02*
X188874259Y-134363109D01*
X212068732Y-135440109D02*
X212068732Y-132919607D01*
X199180235Y-126057108D02*
X199180235Y-124160235D01*
X203892367Y-135489635D02*
X199890432Y-131487701D01*
X203980233Y-137457109D02*
X203980235Y-135701767D01*
X199802564Y-127420767D02*
X199268103Y-126886304D01*
X193127768Y-99725000D02*
X193127768Y-95545000D01*
X203980233Y-140772110D02*
X203980233Y-137457109D01*
X194164232Y-100640000D02*
X193141600Y-101662632D01*
X201952400Y-120981668D02*
X202018400Y-120915668D01*
X199890432Y-131487701D02*
X197047708Y-128644976D01*
X194042768Y-100640000D02*
X193127768Y-99725000D01*
X192415771Y-134297108D02*
X190530260Y-134297107D01*
X190618978Y-128068192D02*
X191923792Y-128068192D01*
X210306234Y-130657109D02*
X210238802Y-130589676D01*
X203724233Y-141028109D02*
X203980233Y-140772110D01*
X199130768Y-106553000D02*
X200625504Y-106553000D01*
D32*
X203724234Y-141028108D02*
X203980233Y-140772110D01*
D30*
X210306234Y-130657109D02*
X210848279Y-131199152D01*
X190530260Y-134297107D02*
X190464260Y-134363107D01*
X211024015Y-131665372D02*
X211918367Y-132559724D01*
X199890432Y-131487701D02*
X199890432Y-127632899D01*
X212031227Y-132882103D02*
X213515753Y-132882103D01*
X207519109Y-129109747D02*
X209046334Y-129109747D01*
X191923792Y-128068192D02*
X192416668Y-128561068D01*
X194197768Y-100640000D02*
X194042768Y-100640000D01*
X206471748Y-130157108D02*
X207519109Y-129109747D01*
X201027268Y-103442500D02*
X202338268Y-103442500D01*
X199890432Y-131487701D02*
X201133156Y-130244977D01*
X192416668Y-128561068D02*
X192420628Y-128557108D01*
X209258466Y-129021879D02*
X210205141Y-128075204D01*
X192420628Y-128557108D02*
X194280235Y-128557108D01*
X210731873Y-127424210D02*
X210731873Y-126506122D01*
X196296759Y-134957109D02*
X194280234Y-134957109D01*
X212112266Y-135396576D02*
X213515751Y-135396576D01*
X202338268Y-103442500D02*
X202400768Y-103505000D01*
X199180235Y-126674172D02*
X199180233Y-126057107D01*
X199890432Y-131487701D02*
X196508890Y-134869240D01*
X205680235Y-130157108D02*
X206471748Y-130157108D01*
X194280234Y-134957108D02*
X193324298Y-134957109D01*
X194241735Y-141155108D02*
X192644892Y-141155108D01*
X200697768Y-100640000D02*
X200852768Y-100640000D01*
X210238802Y-130589676D02*
X208691083Y-130589676D01*
X188874259Y-134363109D02*
X188813260Y-134424109D01*
X193112165Y-134869240D02*
X192627903Y-134384976D01*
X200697768Y-100659000D02*
X201638768Y-101600000D01*
X199180235Y-124160235D02*
X199180000Y-124160000D01*
X200697768Y-100640000D02*
X200697768Y-100659000D01*
X200837636Y-106465132D02*
X201003768Y-106299000D01*
X212006255Y-132771856D02*
G75*
G03*
X211918366Y-132559725I-300055J-44D01*
G01*
X203892358Y-135489644D02*
G75*
G02*
X203980235Y-135701767I-212158J-212156D01*
G01*
X199802570Y-127420761D02*
G75*
G02*
X199890432Y-127632899I-212170J-212139D01*
G01*
X193324298Y-134957107D02*
G75*
G02*
X193112166Y-134869239I2J300007D01*
G01*
X196508913Y-134869263D02*
G75*
G02*
X196296759Y-134957109I-212113J212163D01*
G01*
X201345288Y-130157098D02*
G75*
G03*
X201133156Y-130244977I12J-300002D01*
G01*
X210936144Y-131411284D02*
G75*
G03*
X210848279Y-131199152I-300044J-16D01*
G01*
X196835576Y-128557123D02*
G75*
G02*
X197047708Y-128644976I24J-299977D01*
G01*
X209258459Y-129021872D02*
G75*
G02*
X209046334Y-129109747I-212159J212172D01*
G01*
X210936105Y-131453240D02*
G75*
G03*
X211024015Y-131665372I299995J40D01*
G01*
X199268096Y-126886311D02*
G75*
G02*
X199180235Y-126674172I212104J212111D01*
G01*
X200837634Y-106465130D02*
G75*
G02*
X200625504Y-106553000I-212134J212130D01*
G01*
X210643994Y-127636331D02*
G75*
G03*
X210731873Y-127424210I-212094J212131D01*
G01*
X192415771Y-134297127D02*
G75*
G02*
X192627902Y-134384977I29J-299973D01*
G01*
D33*
%TO.N,Net-(C1-Pad2)*%
X210206236Y-135440109D02*
X210306236Y-135340110D01*
X208747912Y-132857109D02*
X210306236Y-132857108D01*
X207611518Y-131844976D02*
X208535782Y-132769240D01*
X210243732Y-135440109D02*
X210306235Y-135377607D01*
X205680235Y-131757109D02*
X207399386Y-131757108D01*
X210306235Y-135377607D02*
X210306236Y-132857108D01*
X208535773Y-132769249D02*
G75*
G03*
X208747912Y-132857109I212127J212149D01*
G01*
X207399386Y-131757116D02*
G75*
G02*
X207611518Y-131844976I14J-299984D01*
G01*
%TO.N,Net-(C2-Pad2)*%
X212018367Y-129234453D02*
X211650974Y-129601848D01*
X211650974Y-129601848D02*
X211918367Y-129869241D01*
X212006235Y-130081373D02*
X212006235Y-130657109D01*
X206455550Y-130869241D02*
X207635075Y-129689715D01*
X205680233Y-130957110D02*
X206243418Y-130957109D01*
X207847207Y-129601848D02*
X211650974Y-129601848D01*
X212106235Y-129022319D02*
X212106235Y-128074109D01*
X212018364Y-129234450D02*
G75*
G03*
X212106235Y-129022319I-212164J212150D01*
G01*
X207635082Y-129689722D02*
G75*
G02*
X207847207Y-129601848I212118J-212078D01*
G01*
X206243418Y-130957119D02*
G75*
G03*
X206455550Y-130869241I-18J300019D01*
G01*
X211918361Y-129869247D02*
G75*
G02*
X212006235Y-130081373I-212161J-212153D01*
G01*
%TO.N,Net-(C3-Pad1)*%
X199980235Y-122638833D02*
X199980235Y-126057108D01*
X200052400Y-122566668D02*
X199980235Y-122638833D01*
D30*
%TO.N,+5V*%
X208093900Y-122277500D02*
X209956400Y-124140000D01*
X201912104Y-140242337D02*
X203092367Y-139062074D01*
X192816260Y-136263109D02*
X193234392Y-135844977D01*
X207355040Y-128524000D02*
X207787215Y-128524000D01*
X200780235Y-124976908D02*
X201757143Y-124000000D01*
X187579000Y-140179000D02*
X190600000Y-143200000D01*
X193847908Y-127757108D02*
X192258992Y-126168192D01*
X203180233Y-138849942D02*
X203180233Y-137457109D01*
X190600000Y-143200000D02*
X200900000Y-143200000D01*
X207772000Y-122277500D02*
X208093900Y-122277500D01*
X203700000Y-120800000D02*
X202940400Y-120040400D01*
X202600000Y-124000000D02*
X203700000Y-122900000D01*
X202940400Y-120040400D02*
X202895200Y-120040400D01*
X200780235Y-126057108D02*
X200780235Y-124976908D01*
X194280235Y-127757108D02*
X193847908Y-127757108D01*
X201824236Y-141028109D02*
X201824236Y-140454469D01*
X193446524Y-135757109D02*
X194280233Y-135757108D01*
X190464259Y-136263108D02*
X192816260Y-136263109D01*
X201757143Y-124000000D02*
X202600000Y-124000000D01*
X205680235Y-129357108D02*
X206521932Y-129357108D01*
X196780235Y-126057108D02*
X196780235Y-127137308D01*
X201824236Y-142275764D02*
X201824236Y-141028108D01*
X200900000Y-143200000D02*
X201824236Y-142275764D01*
X208661000Y-127650215D02*
X208661000Y-125984000D01*
X188150500Y-136842500D02*
X187579000Y-137414000D01*
X207787215Y-128524000D02*
X208661000Y-127650215D01*
X203700000Y-122900000D02*
X203700000Y-120800000D01*
X209956400Y-124688600D02*
X209956400Y-124140000D01*
X196160435Y-127757108D02*
X194280235Y-127757108D01*
X189210992Y-126168192D02*
X187655200Y-124612400D01*
X190464260Y-136263108D02*
X188729892Y-136263108D01*
X206521932Y-129357108D02*
X207355040Y-128524000D01*
X196780235Y-127137308D02*
X196160435Y-127757108D01*
X190618978Y-126168192D02*
X189210992Y-126168192D01*
X187579000Y-137414000D02*
X187579000Y-140179000D01*
X192258992Y-126168192D02*
X190618978Y-126168192D01*
X188729892Y-136263108D02*
X188150500Y-136842500D01*
X207772000Y-121361200D02*
X206451200Y-120040400D01*
X208661000Y-125984000D02*
X209956400Y-124688600D01*
X207772000Y-122277500D02*
X207772000Y-121361200D01*
X203092352Y-139062059D02*
G75*
G03*
X203180233Y-138849942I-212152J212159D01*
G01*
X201912127Y-140242360D02*
G75*
G03*
X201824236Y-140454469I212073J-212140D01*
G01*
X193446524Y-135757124D02*
G75*
G03*
X193234392Y-135844977I-24J-299976D01*
G01*
D33*
%TO.N,ROW0*%
X185775600Y-122224800D02*
X185775600Y-127609600D01*
X186817000Y-118041001D02*
X186817000Y-122200400D01*
X166344600Y-113334800D02*
X182110799Y-113334800D01*
X186817000Y-122200400D02*
X186792600Y-122224800D01*
X186792600Y-122224800D02*
X185775600Y-122224800D01*
X185775600Y-127609600D02*
X188323108Y-130157108D01*
X182110799Y-113334800D02*
X186817000Y-118041001D01*
X188323108Y-130157108D02*
X194280235Y-130157108D01*
%TO.N,Net-(D1-Pad2)*%
X163781200Y-110034800D02*
X166344600Y-110034800D01*
X161097600Y-107351200D02*
X163781200Y-110034800D01*
X161097600Y-107184800D02*
X161097600Y-107351200D01*
%TO.N,Net-(D2-Pad2)*%
X180147600Y-116201800D02*
X182870600Y-118924800D01*
X182870600Y-118924800D02*
X185775600Y-118924800D01*
%TO.N,COL0*%
X170644600Y-122962400D02*
X173383600Y-125701400D01*
X157128200Y-122962400D02*
X170644600Y-122962400D01*
X173383600Y-128509853D02*
X174843348Y-129969600D01*
X174843348Y-129969600D02*
X186579148Y-129969600D01*
X154787600Y-120621800D02*
X157128200Y-122962400D01*
X186579148Y-129969600D02*
X188366656Y-131757108D01*
X154787600Y-109144800D02*
X154787600Y-120621800D01*
X173383600Y-125701400D02*
X173383600Y-128509853D01*
X188366656Y-131757108D02*
X194280235Y-131757108D01*
%TO.N,COL1*%
X173837600Y-128321800D02*
X175031400Y-129515600D01*
X188208708Y-130957108D02*
X194280235Y-130957108D01*
X175031400Y-129515600D02*
X186767200Y-129515600D01*
X186767200Y-129515600D02*
X188208708Y-130957108D01*
X173837600Y-118161800D02*
X173837600Y-128321800D01*
%TO.N,Net-(R1-Pad2)*%
X207772000Y-127344343D02*
X207772000Y-127127000D01*
X206559235Y-128557108D02*
X207772000Y-127344343D01*
X205680235Y-128557108D02*
X206559235Y-128557108D01*
X207772000Y-127127000D02*
X207772000Y-124102500D01*
D31*
%TO.N,D+*%
X198418032Y-107503000D02*
X199130768Y-107503000D01*
X197597768Y-102327314D02*
X198017900Y-102747447D01*
X198197768Y-100640000D02*
X198197768Y-101603050D01*
X197285636Y-102015182D02*
X197597768Y-102327314D01*
X198105768Y-102959579D02*
X198105768Y-107190736D01*
X197197768Y-100640000D02*
X197197768Y-101803050D01*
X198193636Y-107402868D02*
X198205900Y-107415132D01*
X198109900Y-101815182D02*
X197597768Y-102327314D01*
X198105752Y-107190736D02*
G75*
G03*
X198193636Y-107402868I300048J36D01*
G01*
X198418032Y-107502977D02*
G75*
G02*
X198205900Y-107415132I-32J299977D01*
G01*
X198197741Y-101603050D02*
G75*
G02*
X198109899Y-101815181I-299941J-50D01*
G01*
X197197813Y-101803050D02*
G75*
G03*
X197285636Y-102015182I299987J-50D01*
G01*
X198105792Y-102959579D02*
G75*
G03*
X198017900Y-102747447I-299992J-21D01*
G01*
D33*
%TO.N,Net-(R2-Pad2)*%
X198971768Y-119034168D02*
X198380235Y-119625701D01*
X198380235Y-119625701D02*
X198380235Y-126057108D01*
X198971768Y-118883668D02*
X198971768Y-119034168D01*
D31*
%TO.N,D-*%
X196785636Y-102080867D02*
X197617900Y-102913132D01*
X197389504Y-107503000D02*
X196780768Y-107503000D01*
X197647768Y-99615000D02*
X197697768Y-99665000D01*
X196697768Y-100640000D02*
X196697768Y-99665000D01*
X196697768Y-100640000D02*
X196697768Y-101868735D01*
X196697768Y-99665000D02*
X196747768Y-99615000D01*
X197617900Y-107398868D02*
X197601636Y-107415132D01*
X197705768Y-103125264D02*
X197705768Y-107186736D01*
X197697768Y-99665000D02*
X197697768Y-100640000D01*
X196747768Y-99615000D02*
X197647768Y-99615000D01*
X197705802Y-103125264D02*
G75*
G03*
X197617899Y-102913133I-300002J-36D01*
G01*
X197601634Y-107415130D02*
G75*
G02*
X197389504Y-107503000I-212134J212130D01*
G01*
X197705802Y-107186736D02*
G75*
G02*
X197617899Y-107398867I-300002J36D01*
G01*
X196697753Y-101868735D02*
G75*
G03*
X196785636Y-102080867I300047J35D01*
G01*
D33*
%TO.N,Net-(R3-Pad2)*%
X196939768Y-118883668D02*
X197580235Y-119524135D01*
X197580235Y-119524135D02*
X197580235Y-126057108D01*
%TO.N,Net-(R4-Pad2)*%
X195980233Y-141068608D02*
X195980234Y-137457108D01*
X196066734Y-141155109D02*
X195980233Y-141068608D01*
%TO.N,VBUS*%
X199809900Y-99723132D02*
X199234636Y-99147868D01*
X196555452Y-106553000D02*
X196780768Y-106553000D01*
X194997768Y-99935264D02*
X194997767Y-100640000D01*
X194997768Y-100640000D02*
X194997768Y-101639736D01*
X195215768Y-102106264D02*
X195215768Y-105337580D01*
X195215768Y-105337580D02*
X196343320Y-106465132D01*
X199022504Y-99060000D02*
X195873032Y-99060000D01*
X195215768Y-107305000D02*
X194042268Y-108478500D01*
X195660900Y-99147868D02*
X195085636Y-99723132D01*
X195085636Y-101851868D02*
X195127900Y-101894132D01*
X199897769Y-100640000D02*
X199897768Y-99935264D01*
X195215768Y-105337580D02*
X195215768Y-107305000D01*
X195660884Y-99147852D02*
G75*
G02*
X195873032Y-99060000I212116J-212148D01*
G01*
X195085647Y-99723143D02*
G75*
G03*
X194997768Y-99935264I212153J-212157D01*
G01*
X196555452Y-106553033D02*
G75*
G02*
X196343321Y-106465131I48J300033D01*
G01*
X199809875Y-99723157D02*
G75*
G02*
X199897768Y-99935264I-212075J-212143D01*
G01*
X194997752Y-101639736D02*
G75*
G03*
X195085636Y-101851868I300048J36D01*
G01*
X195215802Y-102106264D02*
G75*
G03*
X195127899Y-101894133I-300002J-36D01*
G01*
X199234634Y-99147870D02*
G75*
G03*
X199022504Y-99060000I-212134J-212130D01*
G01*
%TO.N,Net-(J1-PadA5)*%
X196197769Y-103501500D02*
X196201268Y-103504999D01*
X196197768Y-100639999D02*
X196197769Y-103501500D01*
%TO.N,Net-(J1-PadB5)*%
X199197768Y-103438000D02*
X199197768Y-100640000D01*
X199202268Y-103442500D02*
X199197768Y-103438000D01*
%TD*%
%TA.AperFunction,Conductor*%
%TO.N,GND*%
G36*
X200888394Y-94508502D02*
G01*
X200934887Y-94562158D01*
X200944991Y-94632432D01*
X200930687Y-94675201D01*
X200839766Y-94840585D01*
X200834934Y-94851858D01*
X200778888Y-95028538D01*
X200776338Y-95040532D01*
X200760161Y-95184761D01*
X200759768Y-95191785D01*
X200759768Y-95272885D01*
X200764243Y-95288124D01*
X200765633Y-95289329D01*
X200773316Y-95291000D01*
X201895768Y-95291000D01*
X201963889Y-95311002D01*
X202010382Y-95364658D01*
X202021768Y-95417000D01*
X202021768Y-96802924D01*
X202025741Y-96816455D01*
X202033536Y-96817575D01*
X202141289Y-96785862D01*
X202152657Y-96781269D01*
X202316922Y-96695393D01*
X202327183Y-96688679D01*
X202471641Y-96572532D01*
X202481326Y-96563048D01*
X202543991Y-96529677D01*
X202614750Y-96535483D01*
X202671137Y-96578622D01*
X202685893Y-96604853D01*
X202706579Y-96654795D01*
X202821514Y-96842355D01*
X202824729Y-96846119D01*
X202824731Y-96846122D01*
X202893929Y-96927142D01*
X202964376Y-97009624D01*
X202968132Y-97012832D01*
X203127188Y-97148679D01*
X203131645Y-97152486D01*
X203319205Y-97267421D01*
X203323780Y-97269316D01*
X203323784Y-97269318D01*
X203517864Y-97349706D01*
X203517867Y-97349707D01*
X203522435Y-97351599D01*
X203527242Y-97352753D01*
X203527245Y-97352754D01*
X203617124Y-97374330D01*
X203736332Y-97402948D01*
X203840923Y-97411178D01*
X203918080Y-97417249D01*
X203929091Y-97418606D01*
X203943076Y-97420958D01*
X203949459Y-97421036D01*
X203950769Y-97421052D01*
X203950772Y-97421052D01*
X203955628Y-97421111D01*
X203973990Y-97418481D01*
X203983152Y-97417169D01*
X204001054Y-97415896D01*
X208604092Y-97417290D01*
X212535048Y-97418481D01*
X212559662Y-97420917D01*
X212569907Y-97422961D01*
X212578852Y-97422176D01*
X212578853Y-97422176D01*
X212581756Y-97421921D01*
X212588273Y-97421349D01*
X212611498Y-97421459D01*
X212705057Y-97430570D01*
X212888821Y-97448466D01*
X212902410Y-97450543D01*
X213081009Y-97487908D01*
X213202933Y-97513417D01*
X213216201Y-97516958D01*
X213508082Y-97612199D01*
X213520887Y-97617166D01*
X213800655Y-97743639D01*
X213812846Y-97749972D01*
X214066070Y-97899614D01*
X214077173Y-97906175D01*
X214088609Y-97913805D01*
X214334323Y-98097860D01*
X214344860Y-98106689D01*
X214569074Y-98316431D01*
X214578587Y-98326357D01*
X214778614Y-98559277D01*
X214786980Y-98570168D01*
X214960449Y-98823507D01*
X214967579Y-98835247D01*
X215112405Y-99105960D01*
X215118214Y-99118405D01*
X215119903Y-99122608D01*
X215232691Y-99403301D01*
X215237112Y-99416316D01*
X215248626Y-99457452D01*
X215319865Y-99711975D01*
X215322840Y-99725382D01*
X215372892Y-100028308D01*
X215374388Y-100041964D01*
X215389186Y-100312815D01*
X215387874Y-100339071D01*
X215386309Y-100349124D01*
X215387473Y-100358026D01*
X215387473Y-100358028D01*
X215390436Y-100380683D01*
X215391500Y-100397021D01*
X215391500Y-139142633D01*
X215390000Y-139162018D01*
X215387690Y-139176851D01*
X215387690Y-139176855D01*
X215386309Y-139185724D01*
X215388984Y-139206183D01*
X215389928Y-139228008D01*
X215376365Y-139538648D01*
X215374344Y-139584936D01*
X215373386Y-139595886D01*
X215322767Y-139980379D01*
X215320858Y-139991205D01*
X215236920Y-140369822D01*
X215234075Y-140380439D01*
X215183008Y-140542404D01*
X215142147Y-140672001D01*
X215117461Y-140750294D01*
X215113705Y-140760615D01*
X215057365Y-140896633D01*
X214965289Y-141118923D01*
X214960643Y-141128885D01*
X214781577Y-141472867D01*
X214776081Y-141482387D01*
X214567708Y-141809468D01*
X214561403Y-141818472D01*
X214325322Y-142126138D01*
X214318257Y-142134558D01*
X214060379Y-142415984D01*
X214056256Y-142420483D01*
X214048487Y-142428252D01*
X213947699Y-142520607D01*
X213762558Y-142690257D01*
X213754138Y-142697322D01*
X213446472Y-142933403D01*
X213437468Y-142939708D01*
X213110387Y-143148081D01*
X213100868Y-143153576D01*
X212756876Y-143332647D01*
X212746932Y-143337285D01*
X212388615Y-143485705D01*
X212378302Y-143489458D01*
X212191346Y-143548405D01*
X212008439Y-143606075D01*
X211997822Y-143608920D01*
X211619205Y-143692858D01*
X211608379Y-143694767D01*
X211223886Y-143745386D01*
X211212937Y-143746344D01*
X210863446Y-143761603D01*
X210838571Y-143760223D01*
X210826276Y-143758309D01*
X210817374Y-143759473D01*
X210817372Y-143759473D01*
X210802323Y-143761441D01*
X210794714Y-143762436D01*
X210778379Y-143763500D01*
X201593306Y-143763500D01*
X201525185Y-143743498D01*
X201478692Y-143689842D01*
X201468588Y-143619568D01*
X201498082Y-143554988D01*
X201504210Y-143548405D01*
X202280951Y-142771663D01*
X202287218Y-142765809D01*
X202322770Y-142734795D01*
X202328495Y-142729801D01*
X202363342Y-142680219D01*
X202367275Y-142674924D01*
X202399950Y-142633251D01*
X202404640Y-142627270D01*
X202407769Y-142620340D01*
X202410876Y-142615210D01*
X202415050Y-142607894D01*
X202417875Y-142602626D01*
X202422242Y-142596412D01*
X202444247Y-142539973D01*
X202446803Y-142533892D01*
X202468609Y-142485597D01*
X202471733Y-142478678D01*
X202473117Y-142471213D01*
X202474907Y-142465500D01*
X202477208Y-142457423D01*
X202478706Y-142451589D01*
X202481465Y-142444512D01*
X202483606Y-142428256D01*
X202489373Y-142384448D01*
X202490405Y-142377934D01*
X202500060Y-142325839D01*
X202501444Y-142318371D01*
X202498045Y-142259421D01*
X202497836Y-142252168D01*
X202497836Y-142201637D01*
X202517838Y-142133516D01*
X202544421Y-142104162D01*
X202548584Y-142101586D01*
X202673541Y-141976411D01*
X202676338Y-141971873D01*
X202733589Y-141931284D01*
X202804512Y-141928054D01*
X202865923Y-141963680D01*
X202873298Y-141972176D01*
X202881334Y-141982315D01*
X202996065Y-142096847D01*
X203007476Y-142105859D01*
X203145479Y-142190924D01*
X203158660Y-142197071D01*
X203312946Y-142248246D01*
X203326322Y-142251113D01*
X203420674Y-142260780D01*
X203427090Y-142261108D01*
X203452121Y-142261108D01*
X203467360Y-142256633D01*
X203468565Y-142255243D01*
X203470236Y-142247560D01*
X203470236Y-142242992D01*
X203978236Y-142242992D01*
X203982711Y-142258231D01*
X203984101Y-142259436D01*
X203991784Y-142261107D01*
X204021331Y-142261107D01*
X204027850Y-142260770D01*
X204123442Y-142250851D01*
X204136836Y-142247959D01*
X204291020Y-142196520D01*
X204304198Y-142190347D01*
X204442043Y-142105045D01*
X204453444Y-142096009D01*
X204567975Y-141981279D01*
X204576987Y-141969868D01*
X204662052Y-141831865D01*
X204668199Y-141818684D01*
X204719374Y-141664398D01*
X204722241Y-141651022D01*
X204731908Y-141556670D01*
X204732236Y-141550254D01*
X204732236Y-141300223D01*
X204727761Y-141284984D01*
X204726371Y-141283779D01*
X204718688Y-141282108D01*
X203996351Y-141282108D01*
X203981112Y-141286583D01*
X203979907Y-141287973D01*
X203978236Y-141295656D01*
X203978236Y-142242992D01*
X203470236Y-142242992D01*
X203470236Y-140755993D01*
X203978236Y-140755993D01*
X203982711Y-140771232D01*
X203984101Y-140772437D01*
X203991784Y-140774108D01*
X204714120Y-140774108D01*
X204729359Y-140769633D01*
X204730564Y-140768243D01*
X204732235Y-140760560D01*
X204732235Y-140506013D01*
X204731898Y-140499494D01*
X204721979Y-140403902D01*
X204719087Y-140390508D01*
X204667648Y-140236324D01*
X204661475Y-140223146D01*
X204576173Y-140085301D01*
X204567137Y-140073900D01*
X204452407Y-139959369D01*
X204440996Y-139950357D01*
X204302993Y-139865292D01*
X204289812Y-139859145D01*
X204135526Y-139807970D01*
X204122150Y-139805103D01*
X204027798Y-139795436D01*
X204021381Y-139795108D01*
X203996351Y-139795108D01*
X203981112Y-139799583D01*
X203979907Y-139800973D01*
X203978236Y-139808656D01*
X203978236Y-140755993D01*
X203470236Y-140755993D01*
X203470236Y-139813224D01*
X203458928Y-139774711D01*
X203445705Y-139754135D01*
X203445708Y-139683139D01*
X203477508Y-139629547D01*
X203528471Y-139578584D01*
X203541915Y-139566918D01*
X203558706Y-139554312D01*
X203558712Y-139554307D01*
X203562011Y-139551830D01*
X203572164Y-139541887D01*
X203599282Y-139507304D01*
X203602625Y-139503220D01*
X203667080Y-139427757D01*
X203667082Y-139427754D01*
X203670298Y-139423989D01*
X203750367Y-139293344D01*
X203809016Y-139151784D01*
X203844802Y-139002792D01*
X203851813Y-138913859D01*
X203852682Y-138905991D01*
X203858048Y-138868326D01*
X203858048Y-138868325D01*
X203858629Y-138864247D01*
X203858780Y-138850037D01*
X203854743Y-138816637D01*
X203853833Y-138801518D01*
X203853833Y-138696992D01*
X204234235Y-138696992D01*
X204238710Y-138712231D01*
X204240100Y-138713436D01*
X204247783Y-138715107D01*
X204299904Y-138715107D01*
X204306725Y-138714737D01*
X204357587Y-138709213D01*
X204372839Y-138705587D01*
X204493289Y-138660432D01*
X204508884Y-138651894D01*
X204610959Y-138575393D01*
X204623520Y-138562832D01*
X204700021Y-138460757D01*
X204708559Y-138445162D01*
X204753713Y-138324714D01*
X204757340Y-138309459D01*
X204762866Y-138258594D01*
X204763235Y-138251780D01*
X204763235Y-137729223D01*
X204758760Y-137713984D01*
X204757370Y-137712779D01*
X204749687Y-137711108D01*
X204252350Y-137711108D01*
X204237111Y-137715583D01*
X204235906Y-137716973D01*
X204234235Y-137724656D01*
X204234235Y-138696992D01*
X203853833Y-138696992D01*
X203853833Y-138565194D01*
X203873835Y-138497073D01*
X203878993Y-138489648D01*
X203905850Y-138453813D01*
X203956980Y-138317424D01*
X203963735Y-138255242D01*
X203963735Y-136658974D01*
X203956980Y-136596792D01*
X203905850Y-136460403D01*
X203818496Y-136343847D01*
X203776670Y-136312500D01*
X203734155Y-136255641D01*
X203728822Y-136226034D01*
X203721760Y-136201985D01*
X203720370Y-136200780D01*
X203712687Y-136199109D01*
X203660566Y-136199109D01*
X203653745Y-136199479D01*
X203595028Y-136205856D01*
X203594730Y-136203110D01*
X203565789Y-136203168D01*
X203565551Y-136205363D01*
X203506766Y-136198977D01*
X203503369Y-136198608D01*
X202857101Y-136198608D01*
X202853704Y-136198977D01*
X202817279Y-136202934D01*
X202794919Y-136205363D01*
X202794655Y-136202934D01*
X202765815Y-136202934D01*
X202765551Y-136205363D01*
X202706766Y-136198977D01*
X202703369Y-136198608D01*
X202057101Y-136198608D01*
X202053704Y-136198977D01*
X202017279Y-136202934D01*
X201994919Y-136205363D01*
X201994655Y-136202934D01*
X201965815Y-136202934D01*
X201965551Y-136205363D01*
X201906766Y-136198977D01*
X201903369Y-136198608D01*
X201257101Y-136198608D01*
X201253704Y-136198977D01*
X201217279Y-136202934D01*
X201194919Y-136205363D01*
X201194655Y-136202934D01*
X201165815Y-136202934D01*
X201165551Y-136205363D01*
X201106766Y-136198977D01*
X201103369Y-136198608D01*
X200457101Y-136198608D01*
X200453704Y-136198977D01*
X200417279Y-136202934D01*
X200394919Y-136205363D01*
X200394655Y-136202934D01*
X200365815Y-136202934D01*
X200365551Y-136205363D01*
X200306766Y-136198977D01*
X200303369Y-136198608D01*
X199657101Y-136198608D01*
X199653704Y-136198977D01*
X199617279Y-136202934D01*
X199594919Y-136205363D01*
X199594655Y-136202934D01*
X199565815Y-136202934D01*
X199565551Y-136205363D01*
X199506766Y-136198977D01*
X199503369Y-136198608D01*
X198857101Y-136198608D01*
X198853704Y-136198977D01*
X198817279Y-136202934D01*
X198794919Y-136205363D01*
X198794655Y-136202934D01*
X198765815Y-136202934D01*
X198765551Y-136205363D01*
X198706766Y-136198977D01*
X198703369Y-136198608D01*
X198057101Y-136198608D01*
X198053704Y-136198977D01*
X198017279Y-136202934D01*
X197994919Y-136205363D01*
X197994655Y-136202934D01*
X197965815Y-136202934D01*
X197965551Y-136205363D01*
X197906766Y-136198977D01*
X197903369Y-136198608D01*
X197257101Y-136198608D01*
X197253704Y-136198977D01*
X197217279Y-136202934D01*
X197194919Y-136205363D01*
X197194655Y-136202934D01*
X197165815Y-136202934D01*
X197165551Y-136205363D01*
X197106766Y-136198977D01*
X197103369Y-136198608D01*
X196457101Y-136198608D01*
X196453704Y-136198977D01*
X196417279Y-136202934D01*
X196394919Y-136205363D01*
X196394655Y-136202934D01*
X196365815Y-136202934D01*
X196365551Y-136205363D01*
X196306766Y-136198977D01*
X196303369Y-136198608D01*
X195664735Y-136198608D01*
X195596614Y-136178606D01*
X195550121Y-136124950D01*
X195538735Y-136072608D01*
X195538735Y-135433974D01*
X195531980Y-135371792D01*
X195534119Y-135371560D01*
X195534069Y-135342596D01*
X195531487Y-135342315D01*
X195537866Y-135283594D01*
X195538235Y-135276780D01*
X195538235Y-135229223D01*
X195533760Y-135213984D01*
X195532370Y-135212779D01*
X195511452Y-135208229D01*
X195511717Y-135207011D01*
X195457548Y-135191106D01*
X195424843Y-135160673D01*
X195398878Y-135126028D01*
X195398877Y-135126027D01*
X195393496Y-135118847D01*
X195312220Y-135057934D01*
X195269705Y-135001075D01*
X195264679Y-134930256D01*
X195298739Y-134867963D01*
X195312220Y-134856282D01*
X195386316Y-134800750D01*
X195393496Y-134795369D01*
X195424843Y-134753543D01*
X195481702Y-134711028D01*
X195511309Y-134705695D01*
X195535358Y-134698633D01*
X195536563Y-134697243D01*
X195538234Y-134689560D01*
X195538234Y-134637439D01*
X195537864Y-134630618D01*
X195531487Y-134571901D01*
X195534233Y-134571603D01*
X195534175Y-134542662D01*
X195531980Y-134542424D01*
X195538366Y-134483639D01*
X195538735Y-134480242D01*
X195538735Y-133833974D01*
X195531980Y-133771792D01*
X195534409Y-133771528D01*
X195534409Y-133742688D01*
X195531980Y-133742424D01*
X195538366Y-133683639D01*
X195538735Y-133680242D01*
X195538735Y-133033974D01*
X195531980Y-132971792D01*
X195534409Y-132971528D01*
X195534409Y-132942688D01*
X195531980Y-132942424D01*
X195538366Y-132883639D01*
X195538735Y-132880242D01*
X195538735Y-132233974D01*
X195531980Y-132171792D01*
X195534409Y-132171528D01*
X195534409Y-132142688D01*
X195531980Y-132142424D01*
X195538366Y-132083639D01*
X195538735Y-132080242D01*
X195538735Y-131433974D01*
X195531980Y-131371792D01*
X195534409Y-131371528D01*
X195534409Y-131342688D01*
X195531980Y-131342424D01*
X195538366Y-131283639D01*
X195538735Y-131280242D01*
X195538735Y-130633974D01*
X195531980Y-130571792D01*
X195534409Y-130571528D01*
X195534409Y-130542688D01*
X195531980Y-130542424D01*
X195538366Y-130483639D01*
X195538735Y-130480242D01*
X195538735Y-129833974D01*
X195531980Y-129771792D01*
X195534409Y-129771528D01*
X195534409Y-129742688D01*
X195531980Y-129742424D01*
X195538366Y-129683639D01*
X195538735Y-129680242D01*
X195538735Y-129033974D01*
X195531980Y-128971792D01*
X195534119Y-128971560D01*
X195534069Y-128942596D01*
X195531487Y-128942315D01*
X195537866Y-128883594D01*
X195538235Y-128876780D01*
X195538235Y-128829223D01*
X195533760Y-128813984D01*
X195532370Y-128812779D01*
X195511452Y-128808229D01*
X195511717Y-128807011D01*
X195457548Y-128791106D01*
X195424843Y-128760673D01*
X195398878Y-128726028D01*
X195398877Y-128726027D01*
X195393496Y-128718847D01*
X195312220Y-128657934D01*
X195269705Y-128601075D01*
X195264679Y-128530256D01*
X195298739Y-128467963D01*
X195312245Y-128456263D01*
X195312779Y-128455863D01*
X195379292Y-128431032D01*
X195388319Y-128430708D01*
X196132726Y-128430708D01*
X196141297Y-128431000D01*
X196195947Y-128434726D01*
X196255670Y-128424302D01*
X196262160Y-128423345D01*
X196322291Y-128416068D01*
X196329400Y-128413382D01*
X196335197Y-128411958D01*
X196343352Y-128409728D01*
X196349076Y-128408000D01*
X196356557Y-128406694D01*
X196412029Y-128382343D01*
X196418134Y-128379852D01*
X196467698Y-128361124D01*
X196467700Y-128361123D01*
X196474803Y-128358439D01*
X196481062Y-128354138D01*
X196486329Y-128351384D01*
X196493754Y-128347251D01*
X196498886Y-128344216D01*
X196505843Y-128341162D01*
X196511869Y-128336538D01*
X196511871Y-128336537D01*
X196542784Y-128312816D01*
X196553905Y-128304283D01*
X196559239Y-128300408D01*
X196602904Y-128270399D01*
X196602911Y-128270393D01*
X196609166Y-128266094D01*
X196619540Y-128254451D01*
X196648446Y-128222007D01*
X196653427Y-128216731D01*
X197236950Y-127633207D01*
X197243217Y-127627353D01*
X197278769Y-127596339D01*
X197284494Y-127591345D01*
X197319341Y-127541763D01*
X197323273Y-127536469D01*
X197355950Y-127494794D01*
X197360640Y-127488813D01*
X197363768Y-127481884D01*
X197366872Y-127476760D01*
X197371067Y-127469406D01*
X197373877Y-127464166D01*
X197378241Y-127457956D01*
X197380998Y-127450885D01*
X197381000Y-127450881D01*
X197400243Y-127401523D01*
X197402804Y-127395432D01*
X197405371Y-127389748D01*
X197451638Y-127335897D01*
X197520203Y-127315608D01*
X197903369Y-127315608D01*
X197911369Y-127314739D01*
X197965551Y-127308853D01*
X197965815Y-127311282D01*
X197994655Y-127311282D01*
X197994919Y-127308853D01*
X198049102Y-127314739D01*
X198057101Y-127315608D01*
X198703369Y-127315608D01*
X198711369Y-127314739D01*
X198765551Y-127308853D01*
X198765783Y-127310992D01*
X198794747Y-127310942D01*
X198795028Y-127308360D01*
X198853749Y-127314739D01*
X198860563Y-127315108D01*
X198908120Y-127315108D01*
X198923359Y-127310633D01*
X198924564Y-127309243D01*
X198929114Y-127288325D01*
X198930332Y-127288590D01*
X198946237Y-127234421D01*
X198976670Y-127201716D01*
X199011315Y-127175751D01*
X199011316Y-127175750D01*
X199018496Y-127170369D01*
X199079409Y-127089093D01*
X199136268Y-127046578D01*
X199207087Y-127041552D01*
X199269380Y-127075612D01*
X199281060Y-127089092D01*
X199341974Y-127170369D01*
X199349154Y-127175750D01*
X199349155Y-127175751D01*
X199383800Y-127201716D01*
X199426315Y-127258575D01*
X199431648Y-127288182D01*
X199438710Y-127312231D01*
X199440100Y-127313436D01*
X199447783Y-127315107D01*
X199499904Y-127315107D01*
X199506725Y-127314737D01*
X199565442Y-127308360D01*
X199565740Y-127311106D01*
X199594681Y-127311048D01*
X199594919Y-127308853D01*
X199649102Y-127314739D01*
X199657101Y-127315608D01*
X200303369Y-127315608D01*
X200311369Y-127314739D01*
X200365551Y-127308853D01*
X200365815Y-127311282D01*
X200394655Y-127311282D01*
X200394919Y-127308853D01*
X200449102Y-127314739D01*
X200457101Y-127315608D01*
X201103369Y-127315608D01*
X201111369Y-127314739D01*
X201165551Y-127308853D01*
X201165815Y-127311282D01*
X201194655Y-127311282D01*
X201194919Y-127308853D01*
X201249102Y-127314739D01*
X201257101Y-127315608D01*
X201903369Y-127315608D01*
X201911369Y-127314739D01*
X201965551Y-127308853D01*
X201965815Y-127311282D01*
X201994655Y-127311282D01*
X201994919Y-127308853D01*
X202049102Y-127314739D01*
X202057101Y-127315608D01*
X202703369Y-127315608D01*
X202711369Y-127314739D01*
X202765551Y-127308853D01*
X202765815Y-127311282D01*
X202794655Y-127311282D01*
X202794919Y-127308853D01*
X202849102Y-127314739D01*
X202857101Y-127315608D01*
X203503369Y-127315608D01*
X203511369Y-127314739D01*
X203565551Y-127308853D01*
X203565815Y-127311282D01*
X203594655Y-127311282D01*
X203594919Y-127308853D01*
X203649102Y-127314739D01*
X203657101Y-127315608D01*
X204295735Y-127315608D01*
X204363856Y-127335610D01*
X204410349Y-127389266D01*
X204421735Y-127441608D01*
X204421735Y-128080242D01*
X204422104Y-128083639D01*
X204428490Y-128142424D01*
X204426061Y-128142688D01*
X204426061Y-128171528D01*
X204428490Y-128171792D01*
X204421735Y-128233974D01*
X204421735Y-128880242D01*
X204422104Y-128883639D01*
X204428490Y-128942424D01*
X204426061Y-128942688D01*
X204426061Y-128971528D01*
X204428490Y-128971792D01*
X204421735Y-129033974D01*
X204421735Y-129680242D01*
X204422104Y-129683639D01*
X204428490Y-129742424D01*
X204426351Y-129742656D01*
X204426401Y-129771620D01*
X204428983Y-129771901D01*
X204422604Y-129830622D01*
X204422235Y-129837436D01*
X204422235Y-129884993D01*
X204426710Y-129900232D01*
X204428100Y-129901437D01*
X204449018Y-129905987D01*
X204448753Y-129907205D01*
X204502922Y-129923110D01*
X204535627Y-129953543D01*
X204566974Y-129995369D01*
X204574154Y-130000750D01*
X204648250Y-130056282D01*
X204690765Y-130113141D01*
X204695791Y-130183960D01*
X204661731Y-130246253D01*
X204648251Y-130257933D01*
X204566974Y-130318847D01*
X204561593Y-130326027D01*
X204561592Y-130326028D01*
X204535627Y-130360673D01*
X204478768Y-130403188D01*
X204449161Y-130408521D01*
X204425112Y-130415583D01*
X204423907Y-130416973D01*
X204422236Y-130424656D01*
X204422236Y-130476777D01*
X204422606Y-130483598D01*
X204428983Y-130542315D01*
X204426237Y-130542613D01*
X204426295Y-130571554D01*
X204428490Y-130571792D01*
X204421735Y-130633974D01*
X204421735Y-131280242D01*
X204422104Y-131283639D01*
X204428490Y-131342424D01*
X204426061Y-131342688D01*
X204426061Y-131371528D01*
X204428490Y-131371792D01*
X204421735Y-131433974D01*
X204421735Y-132080242D01*
X204422104Y-132083639D01*
X204428490Y-132142424D01*
X204426061Y-132142688D01*
X204426061Y-132171528D01*
X204428490Y-132171792D01*
X204421735Y-132233974D01*
X204421735Y-132880242D01*
X204422104Y-132883639D01*
X204428490Y-132942424D01*
X204426061Y-132942688D01*
X204426061Y-132971528D01*
X204428490Y-132971792D01*
X204421735Y-133033974D01*
X204421735Y-133680242D01*
X204422104Y-133683639D01*
X204428490Y-133742424D01*
X204426061Y-133742688D01*
X204426061Y-133771528D01*
X204428490Y-133771792D01*
X204421735Y-133833974D01*
X204421735Y-134480242D01*
X204422104Y-134483639D01*
X204428490Y-134542424D01*
X204426061Y-134542688D01*
X204426061Y-134571528D01*
X204428490Y-134571792D01*
X204421735Y-134633974D01*
X204421735Y-135280242D01*
X204422104Y-135283639D01*
X204428490Y-135342424D01*
X204426061Y-135342688D01*
X204426061Y-135371528D01*
X204428490Y-135371792D01*
X204421735Y-135433974D01*
X204421735Y-136073108D01*
X204401733Y-136141229D01*
X204348077Y-136187722D01*
X204295735Y-136199108D01*
X204252350Y-136199108D01*
X204237111Y-136203583D01*
X204235906Y-136204973D01*
X204234235Y-136212656D01*
X204234235Y-137184993D01*
X204238710Y-137200232D01*
X204240100Y-137201437D01*
X204247783Y-137203108D01*
X204745119Y-137203108D01*
X204760358Y-137198633D01*
X204761563Y-137197243D01*
X204763234Y-137189560D01*
X204763234Y-136666608D01*
X204783236Y-136598487D01*
X204836892Y-136551994D01*
X204889234Y-136540608D01*
X206478369Y-136540608D01*
X206540551Y-136533853D01*
X206676940Y-136482723D01*
X206793496Y-136395369D01*
X206880850Y-136278813D01*
X206931980Y-136142424D01*
X206938735Y-136080242D01*
X206938735Y-135433974D01*
X206931980Y-135371792D01*
X206934409Y-135371528D01*
X206934409Y-135342688D01*
X206931980Y-135342424D01*
X206938366Y-135283639D01*
X206938735Y-135280242D01*
X206938735Y-134633974D01*
X206931980Y-134571792D01*
X206934409Y-134571528D01*
X206934409Y-134542688D01*
X206931980Y-134542424D01*
X206938366Y-134483639D01*
X206938735Y-134480242D01*
X206938735Y-133833974D01*
X206931980Y-133771792D01*
X206934409Y-133771528D01*
X206934409Y-133742688D01*
X206931980Y-133742424D01*
X206938366Y-133683639D01*
X206938735Y-133680242D01*
X206938735Y-133033974D01*
X206931980Y-132971792D01*
X206934409Y-132971528D01*
X206934409Y-132942688D01*
X206931980Y-132942424D01*
X206938366Y-132883639D01*
X206938735Y-132880242D01*
X206938735Y-132518608D01*
X206958737Y-132450487D01*
X207012393Y-132403994D01*
X207064735Y-132392608D01*
X207208227Y-132392608D01*
X207276348Y-132412610D01*
X207297323Y-132429513D01*
X208048145Y-133180336D01*
X208059805Y-133193772D01*
X208073757Y-133212352D01*
X208083138Y-133221931D01*
X208086378Y-133224471D01*
X208086390Y-133224482D01*
X208113051Y-133245384D01*
X208113895Y-133246086D01*
X208114688Y-133246879D01*
X208117075Y-133248731D01*
X208118626Y-133250021D01*
X208120954Y-133251917D01*
X208196359Y-133316310D01*
X208321914Y-133393242D01*
X208377738Y-133416362D01*
X208453379Y-133447690D01*
X208453384Y-133447692D01*
X208457958Y-133449586D01*
X208462770Y-133450741D01*
X208462776Y-133450743D01*
X208596325Y-133482799D01*
X208601141Y-133483955D01*
X208635705Y-133486674D01*
X208637523Y-133486817D01*
X208658973Y-133490387D01*
X208659946Y-133490637D01*
X208659953Y-133490638D01*
X208667630Y-133492609D01*
X208693779Y-133492609D01*
X208711527Y-133493865D01*
X208734531Y-133497138D01*
X208738656Y-133497181D01*
X208738659Y-133497181D01*
X208740799Y-133497203D01*
X208747938Y-133497277D01*
X208778958Y-133493522D01*
X208794100Y-133492609D01*
X209072460Y-133492609D01*
X209140581Y-133512611D01*
X209187074Y-133566267D01*
X209196687Y-133605356D01*
X209197736Y-133605242D01*
X209204491Y-133667424D01*
X209255621Y-133803813D01*
X209342975Y-133920369D01*
X209459531Y-134007723D01*
X209467940Y-134010875D01*
X209467941Y-134010876D01*
X209588965Y-134056246D01*
X209645730Y-134098887D01*
X209670430Y-134165449D01*
X209670736Y-134174217D01*
X209670735Y-134201471D01*
X209670735Y-134220037D01*
X209650731Y-134288157D01*
X209611038Y-134327178D01*
X209545873Y-134367504D01*
X209506884Y-134391631D01*
X209381927Y-134516806D01*
X209378087Y-134523036D01*
X209378086Y-134523037D01*
X209311749Y-134630656D01*
X209289117Y-134667371D01*
X209286813Y-134674318D01*
X209258055Y-134761022D01*
X209233435Y-134835248D01*
X209222732Y-134939709D01*
X209222732Y-135940509D01*
X209223069Y-135943755D01*
X209223069Y-135943759D01*
X209232850Y-136038023D01*
X209233706Y-136046275D01*
X209235887Y-136052811D01*
X209235887Y-136052813D01*
X209259954Y-136124950D01*
X209289682Y-136214055D01*
X209382754Y-136364457D01*
X209507929Y-136489414D01*
X209514159Y-136493254D01*
X209514160Y-136493255D01*
X209651520Y-136577925D01*
X209658494Y-136582224D01*
X209707526Y-136598487D01*
X209819843Y-136635741D01*
X209819845Y-136635741D01*
X209826371Y-136637906D01*
X209833207Y-136638606D01*
X209833210Y-136638607D01*
X209876263Y-136643018D01*
X209930832Y-136648609D01*
X210556632Y-136648609D01*
X210559878Y-136648272D01*
X210559882Y-136648272D01*
X210655540Y-136638347D01*
X210655544Y-136638346D01*
X210662398Y-136637635D01*
X210668934Y-136635454D01*
X210668936Y-136635454D01*
X210806996Y-136589393D01*
X210830178Y-136581659D01*
X210980580Y-136488587D01*
X211008715Y-136460403D01*
X211067370Y-136401646D01*
X211129653Y-136367567D01*
X211200473Y-136372570D01*
X211245561Y-136401491D01*
X211328061Y-136483848D01*
X211339472Y-136492860D01*
X211477475Y-136577925D01*
X211490656Y-136584072D01*
X211644942Y-136635247D01*
X211658318Y-136638114D01*
X211752670Y-136647781D01*
X211759086Y-136648109D01*
X211796617Y-136648109D01*
X211811856Y-136643634D01*
X211813061Y-136642244D01*
X211814732Y-136634561D01*
X211814732Y-136629993D01*
X212322732Y-136629993D01*
X212327207Y-136645232D01*
X212328597Y-136646437D01*
X212336280Y-136648108D01*
X212378327Y-136648108D01*
X212384846Y-136647771D01*
X212480438Y-136637852D01*
X212493832Y-136634960D01*
X212648016Y-136583521D01*
X212661194Y-136577348D01*
X212799039Y-136492046D01*
X212810440Y-136483010D01*
X212924971Y-136368280D01*
X212933983Y-136356869D01*
X213019048Y-136218866D01*
X213025195Y-136205685D01*
X213076370Y-136051399D01*
X213079237Y-136038023D01*
X213088904Y-135943671D01*
X213089232Y-135937255D01*
X213089232Y-135712224D01*
X213084757Y-135696985D01*
X213083367Y-135695780D01*
X213075684Y-135694109D01*
X212340847Y-135694109D01*
X212325608Y-135698584D01*
X212324403Y-135699974D01*
X212322732Y-135707657D01*
X212322732Y-136629993D01*
X211814732Y-136629993D01*
X211814732Y-135312109D01*
X211834734Y-135243988D01*
X211888390Y-135197495D01*
X211940732Y-135186109D01*
X213071116Y-135186109D01*
X213086355Y-135181634D01*
X213087560Y-135180244D01*
X213089231Y-135172561D01*
X213089231Y-134943014D01*
X213088894Y-134936495D01*
X213078975Y-134840903D01*
X213076083Y-134827509D01*
X213024644Y-134673325D01*
X213018471Y-134660147D01*
X212933169Y-134522302D01*
X212924133Y-134510901D01*
X212809403Y-134396370D01*
X212797992Y-134387358D01*
X212659988Y-134302292D01*
X212655380Y-134300143D01*
X212602096Y-134253225D01*
X212582636Y-134184947D01*
X212603179Y-134116988D01*
X212657203Y-134070923D01*
X212695027Y-134060686D01*
X212708588Y-134059213D01*
X212723840Y-134055587D01*
X212844290Y-134010432D01*
X212859885Y-134001894D01*
X212961960Y-133925393D01*
X212974521Y-133912832D01*
X213051022Y-133810757D01*
X213059560Y-133795162D01*
X213104714Y-133674714D01*
X213108341Y-133659459D01*
X213113867Y-133608594D01*
X213114236Y-133601780D01*
X213114236Y-133129223D01*
X213109761Y-133113984D01*
X213108371Y-133112779D01*
X213100688Y-133111108D01*
X211878236Y-133111108D01*
X211810115Y-133091106D01*
X211763622Y-133037450D01*
X211752236Y-132985108D01*
X211752236Y-132729108D01*
X211772238Y-132660987D01*
X211825894Y-132614494D01*
X211878236Y-132603108D01*
X213096120Y-132603108D01*
X213111359Y-132598633D01*
X213112564Y-132597243D01*
X213114235Y-132589560D01*
X213114235Y-132112439D01*
X213113865Y-132105618D01*
X213108341Y-132054756D01*
X213104715Y-132039504D01*
X213059560Y-131919054D01*
X213051022Y-131903460D01*
X212998283Y-131833090D01*
X212973435Y-131766584D01*
X212988488Y-131697201D01*
X212998283Y-131681960D01*
X213051465Y-131610999D01*
X213056851Y-131603813D01*
X213107981Y-131467424D01*
X213114736Y-131405242D01*
X213114736Y-129908974D01*
X213107981Y-129846792D01*
X213056851Y-129710403D01*
X212969497Y-129593847D01*
X212852941Y-129506493D01*
X212839905Y-129501606D01*
X212771677Y-129476028D01*
X212714913Y-129433386D01*
X212690213Y-129366824D01*
X212696074Y-129319110D01*
X212696798Y-129316883D01*
X212698691Y-129312312D01*
X212710020Y-129265132D01*
X212745372Y-129203567D01*
X212766224Y-129187415D01*
X212830585Y-129147587D01*
X212955542Y-129022412D01*
X212986888Y-128971560D01*
X213044512Y-128878077D01*
X213044513Y-128878075D01*
X213048352Y-128871847D01*
X213081777Y-128771072D01*
X213101869Y-128710498D01*
X213101869Y-128710496D01*
X213104034Y-128703970D01*
X213106847Y-128676521D01*
X213113656Y-128610058D01*
X213114737Y-128599509D01*
X213114737Y-127548709D01*
X213114087Y-127542441D01*
X213104475Y-127449801D01*
X213104474Y-127449797D01*
X213103763Y-127442943D01*
X213073233Y-127351432D01*
X213050105Y-127282111D01*
X213047787Y-127275163D01*
X212954715Y-127124761D01*
X212829540Y-126999804D01*
X212823309Y-126995963D01*
X212685205Y-126910834D01*
X212685203Y-126910833D01*
X212678975Y-126906994D01*
X212593659Y-126878696D01*
X212517626Y-126853477D01*
X212517624Y-126853477D01*
X212511098Y-126851312D01*
X212504262Y-126850612D01*
X212504259Y-126850611D01*
X212461206Y-126846200D01*
X212406637Y-126840609D01*
X211805837Y-126840609D01*
X211802591Y-126840946D01*
X211802587Y-126840946D01*
X211706929Y-126850871D01*
X211706925Y-126850872D01*
X211700071Y-126851583D01*
X211693535Y-126853764D01*
X211693533Y-126853764D01*
X211577308Y-126892540D01*
X211532291Y-126907559D01*
X211381889Y-127000631D01*
X211256932Y-127125806D01*
X211254135Y-127130344D01*
X211196884Y-127170933D01*
X211125961Y-127174163D01*
X211064550Y-127138537D01*
X211057175Y-127130041D01*
X211049139Y-127119902D01*
X210934408Y-127005370D01*
X210922997Y-126996358D01*
X210784994Y-126911293D01*
X210771813Y-126905146D01*
X210617527Y-126853971D01*
X210604151Y-126851104D01*
X210509799Y-126841437D01*
X210503382Y-126841109D01*
X210478352Y-126841109D01*
X210463113Y-126845584D01*
X210461908Y-126846974D01*
X210460237Y-126854657D01*
X210460237Y-128202109D01*
X210440235Y-128270230D01*
X210386579Y-128316723D01*
X210334237Y-128328109D01*
X210078237Y-128328109D01*
X210010116Y-128308107D01*
X209963623Y-128254451D01*
X209952237Y-128202109D01*
X209952237Y-126859225D01*
X209947762Y-126843986D01*
X209946372Y-126842781D01*
X209938689Y-126841110D01*
X209909142Y-126841110D01*
X209902623Y-126841447D01*
X209807031Y-126851366D01*
X209793637Y-126854258D01*
X209639453Y-126905697D01*
X209626275Y-126911870D01*
X209526903Y-126973364D01*
X209458451Y-126992202D01*
X209390682Y-126971041D01*
X209345110Y-126916600D01*
X209334600Y-126866220D01*
X209334600Y-126315205D01*
X209354602Y-126247084D01*
X209371505Y-126226110D01*
X210413109Y-125184505D01*
X210419385Y-125178642D01*
X210420089Y-125178028D01*
X210489905Y-125147659D01*
X210580707Y-125138238D01*
X210580710Y-125138237D01*
X210587566Y-125137526D01*
X210594102Y-125135345D01*
X210594104Y-125135345D01*
X210748398Y-125083868D01*
X210755346Y-125081550D01*
X210905748Y-124988478D01*
X211030705Y-124863303D01*
X211036846Y-124853341D01*
X211119675Y-124718968D01*
X211119676Y-124718966D01*
X211123515Y-124712738D01*
X211169981Y-124572646D01*
X211177032Y-124551389D01*
X211177032Y-124551387D01*
X211179197Y-124544861D01*
X211181302Y-124524323D01*
X211189572Y-124443598D01*
X211189900Y-124440400D01*
X211189900Y-123839600D01*
X211188402Y-123825163D01*
X211179638Y-123740692D01*
X211179637Y-123740688D01*
X211178926Y-123733834D01*
X211122950Y-123566054D01*
X211029878Y-123415652D01*
X210904703Y-123290695D01*
X210900165Y-123287898D01*
X210859576Y-123230647D01*
X210856346Y-123159724D01*
X210891972Y-123098313D01*
X210900468Y-123090938D01*
X210910607Y-123082902D01*
X211025139Y-122968171D01*
X211034151Y-122956760D01*
X211119216Y-122818757D01*
X211125363Y-122805576D01*
X211176538Y-122651290D01*
X211179405Y-122637914D01*
X211189072Y-122543562D01*
X211189400Y-122537146D01*
X211189400Y-122512115D01*
X211184925Y-122496876D01*
X211183535Y-122495671D01*
X211175852Y-122494000D01*
X209828400Y-122494000D01*
X209760279Y-122473998D01*
X209713786Y-122420342D01*
X209702400Y-122368000D01*
X209702400Y-121967885D01*
X210210400Y-121967885D01*
X210214875Y-121983124D01*
X210216265Y-121984329D01*
X210223948Y-121986000D01*
X211171284Y-121986000D01*
X211186523Y-121981525D01*
X211187728Y-121980135D01*
X211189399Y-121972452D01*
X211189399Y-121942905D01*
X211189062Y-121936386D01*
X211179143Y-121840794D01*
X211176251Y-121827400D01*
X211124812Y-121673216D01*
X211118639Y-121660038D01*
X211033337Y-121522193D01*
X211024301Y-121510792D01*
X210909571Y-121396261D01*
X210898160Y-121387249D01*
X210760157Y-121302184D01*
X210746976Y-121296037D01*
X210592690Y-121244862D01*
X210579314Y-121241995D01*
X210484962Y-121232328D01*
X210478545Y-121232000D01*
X210228515Y-121232000D01*
X210213276Y-121236475D01*
X210212071Y-121237865D01*
X210210400Y-121245548D01*
X210210400Y-121967885D01*
X209702400Y-121967885D01*
X209702400Y-121250116D01*
X209697925Y-121234877D01*
X209696535Y-121233672D01*
X209688852Y-121232001D01*
X209434305Y-121232001D01*
X209427786Y-121232338D01*
X209332194Y-121242257D01*
X209318800Y-121245149D01*
X209164616Y-121296588D01*
X209151438Y-121302761D01*
X209013593Y-121388063D01*
X209002187Y-121397103D01*
X208928733Y-121470684D01*
X208866451Y-121504763D01*
X208795631Y-121499760D01*
X208750543Y-121470839D01*
X208700483Y-121420866D01*
X208695303Y-121415695D01*
X208665378Y-121397249D01*
X208550968Y-121326725D01*
X208550966Y-121326724D01*
X208544738Y-121322885D01*
X208517601Y-121313884D01*
X208459241Y-121273454D01*
X208434171Y-121214138D01*
X208433683Y-121214258D01*
X208432936Y-121211216D01*
X208432180Y-121209428D01*
X208430960Y-121199344D01*
X208428276Y-121192241D01*
X208426853Y-121186446D01*
X208424620Y-121178283D01*
X208422892Y-121172559D01*
X208421586Y-121165078D01*
X208397235Y-121109606D01*
X208394744Y-121103501D01*
X208376016Y-121053937D01*
X208376015Y-121053935D01*
X208373331Y-121046832D01*
X208369030Y-121040573D01*
X208366276Y-121035306D01*
X208362153Y-121027899D01*
X208359111Y-121022755D01*
X208356054Y-121015792D01*
X208319170Y-120967725D01*
X208315306Y-120962405D01*
X208285288Y-120918728D01*
X208285286Y-120918726D01*
X208280986Y-120912469D01*
X208236881Y-120873173D01*
X208231605Y-120868191D01*
X207391662Y-120028248D01*
X207357636Y-119965936D01*
X207355447Y-119952323D01*
X207345432Y-119857037D01*
X207345432Y-119857035D01*
X207344742Y-119850472D01*
X207336601Y-119825415D01*
X207287769Y-119675129D01*
X207285727Y-119668844D01*
X207190240Y-119503456D01*
X207127161Y-119433399D01*
X207066875Y-119366445D01*
X207066874Y-119366444D01*
X207062453Y-119361534D01*
X206907952Y-119249282D01*
X206901924Y-119246598D01*
X206901922Y-119246597D01*
X206739519Y-119174291D01*
X206739518Y-119174291D01*
X206733488Y-119171606D01*
X206640088Y-119151753D01*
X206553144Y-119133272D01*
X206553139Y-119133272D01*
X206546687Y-119131900D01*
X206355713Y-119131900D01*
X206349261Y-119133272D01*
X206349256Y-119133272D01*
X206262312Y-119151753D01*
X206168912Y-119171606D01*
X206162882Y-119174291D01*
X206162881Y-119174291D01*
X206000478Y-119246597D01*
X206000476Y-119246598D01*
X205994448Y-119249282D01*
X205839947Y-119361534D01*
X205835526Y-119366444D01*
X205835525Y-119366445D01*
X205775240Y-119433399D01*
X205712160Y-119503456D01*
X205616673Y-119668844D01*
X205557658Y-119850472D01*
X205556968Y-119857033D01*
X205556968Y-119857035D01*
X205544583Y-119974876D01*
X205537696Y-120040400D01*
X205538386Y-120046965D01*
X205552307Y-120179412D01*
X205557658Y-120230328D01*
X205616673Y-120411956D01*
X205712160Y-120577344D01*
X205716578Y-120582251D01*
X205716579Y-120582252D01*
X205770127Y-120641723D01*
X205839947Y-120719266D01*
X205935195Y-120788468D01*
X205981838Y-120822356D01*
X205994448Y-120831518D01*
X206000476Y-120834202D01*
X206000478Y-120834203D01*
X206134125Y-120893706D01*
X206168912Y-120909194D01*
X206262313Y-120929047D01*
X206349256Y-120947528D01*
X206349261Y-120947528D01*
X206355713Y-120948900D01*
X206362314Y-120948900D01*
X206367968Y-120949494D01*
X206433625Y-120976506D01*
X206443894Y-120985709D01*
X206772150Y-121313965D01*
X206806176Y-121376277D01*
X206801111Y-121447092D01*
X206772229Y-121492077D01*
X206722695Y-121541697D01*
X206718855Y-121547927D01*
X206718854Y-121547928D01*
X206647008Y-121664484D01*
X206629885Y-121692262D01*
X206605526Y-121765704D01*
X206579982Y-121842717D01*
X206574203Y-121860139D01*
X206563500Y-121964600D01*
X206563500Y-122590400D01*
X206563837Y-122593646D01*
X206563837Y-122593650D01*
X206570574Y-122658575D01*
X206574474Y-122696166D01*
X206576655Y-122702702D01*
X206576655Y-122702704D01*
X206594617Y-122756543D01*
X206630450Y-122863946D01*
X206723522Y-123014348D01*
X206807634Y-123098313D01*
X206810109Y-123100784D01*
X206844188Y-123163066D01*
X206839185Y-123233886D01*
X206810264Y-123278975D01*
X206766933Y-123322382D01*
X206722695Y-123366697D01*
X206718855Y-123372927D01*
X206718854Y-123372928D01*
X206633908Y-123510736D01*
X206629885Y-123517262D01*
X206574203Y-123685139D01*
X206573503Y-123691975D01*
X206573502Y-123691978D01*
X206572389Y-123702843D01*
X206563500Y-123789600D01*
X206563500Y-124415400D01*
X206563837Y-124418646D01*
X206563837Y-124418650D01*
X206573657Y-124513291D01*
X206574474Y-124521166D01*
X206576655Y-124527702D01*
X206576655Y-124527704D01*
X206617318Y-124649586D01*
X206630450Y-124688946D01*
X206723522Y-124839348D01*
X206848697Y-124964305D01*
X206854927Y-124968145D01*
X206854928Y-124968146D01*
X206969232Y-125038604D01*
X206999262Y-125057115D01*
X207006207Y-125059419D01*
X207006208Y-125059419D01*
X207050168Y-125074000D01*
X207108528Y-125114432D01*
X207135764Y-125179996D01*
X207136500Y-125193593D01*
X207136500Y-126426697D01*
X207116498Y-126494818D01*
X207104136Y-126511006D01*
X207032960Y-126590056D01*
X206937473Y-126755444D01*
X206878458Y-126937072D01*
X206877768Y-126943638D01*
X206877751Y-126943796D01*
X206877716Y-126943881D01*
X206876394Y-126950100D01*
X206875257Y-126949858D01*
X206850742Y-127009454D01*
X206792522Y-127050087D01*
X206721577Y-127052794D01*
X206691931Y-127041151D01*
X206684121Y-127036875D01*
X206676940Y-127031493D01*
X206668539Y-127028344D01*
X206668538Y-127028343D01*
X206584335Y-126996777D01*
X206540551Y-126980363D01*
X206478369Y-126973608D01*
X204889735Y-126973608D01*
X204821614Y-126953606D01*
X204775121Y-126899950D01*
X204763735Y-126847608D01*
X204763735Y-125258974D01*
X204756980Y-125196792D01*
X204705850Y-125060403D01*
X204618496Y-124943847D01*
X204501940Y-124856493D01*
X204365551Y-124805363D01*
X204303369Y-124798608D01*
X203657101Y-124798608D01*
X203653704Y-124798977D01*
X203630774Y-124801468D01*
X203594919Y-124805363D01*
X203594655Y-124802934D01*
X203565815Y-124802934D01*
X203565551Y-124805363D01*
X203506766Y-124798977D01*
X203503369Y-124798608D01*
X203036980Y-124798608D01*
X202968859Y-124778606D01*
X202922366Y-124724950D01*
X202912262Y-124654676D01*
X202941756Y-124590096D01*
X202960275Y-124572646D01*
X202965423Y-124568696D01*
X202993487Y-124547162D01*
X202998804Y-124543300D01*
X203042469Y-124513291D01*
X203042476Y-124513285D01*
X203048731Y-124508986D01*
X203088019Y-124464890D01*
X203093001Y-124459614D01*
X204156709Y-123395905D01*
X204162975Y-123390051D01*
X204198532Y-123359033D01*
X204204259Y-123354037D01*
X204239108Y-123304452D01*
X204243026Y-123299177D01*
X204248717Y-123291920D01*
X204280405Y-123251506D01*
X204283531Y-123244583D01*
X204286648Y-123239436D01*
X204290793Y-123232168D01*
X204293636Y-123226866D01*
X204298006Y-123220648D01*
X204320014Y-123164201D01*
X204322569Y-123158123D01*
X204344371Y-123109837D01*
X204344372Y-123109835D01*
X204347497Y-123102913D01*
X204348881Y-123095443D01*
X204350668Y-123089741D01*
X204352975Y-123081644D01*
X204354469Y-123075827D01*
X204357229Y-123068748D01*
X204361765Y-123034299D01*
X204365137Y-123008682D01*
X204366169Y-123002167D01*
X204375824Y-122950073D01*
X204377208Y-122942607D01*
X204375507Y-122913097D01*
X204373809Y-122883657D01*
X204373600Y-122876404D01*
X204373600Y-120827709D01*
X204373892Y-120819138D01*
X204377101Y-120772064D01*
X204377618Y-120764488D01*
X204367195Y-120704770D01*
X204366234Y-120698254D01*
X204363741Y-120677656D01*
X204358960Y-120638144D01*
X204356272Y-120631032D01*
X204354840Y-120625200D01*
X204352617Y-120617074D01*
X204350893Y-120611365D01*
X204349587Y-120603879D01*
X204325233Y-120548399D01*
X204322745Y-120542302D01*
X204304015Y-120492735D01*
X204301331Y-120485632D01*
X204297028Y-120479371D01*
X204294275Y-120474105D01*
X204290140Y-120466675D01*
X204287107Y-120461547D01*
X204284054Y-120454592D01*
X204255730Y-120417679D01*
X204247174Y-120406528D01*
X204243296Y-120401191D01*
X204208986Y-120351269D01*
X204164881Y-120311973D01*
X204159605Y-120306991D01*
X203830353Y-119977739D01*
X203796327Y-119915427D01*
X203794138Y-119901814D01*
X203793360Y-119894406D01*
X203788742Y-119850472D01*
X203729727Y-119668844D01*
X203634240Y-119503456D01*
X203571161Y-119433399D01*
X203510875Y-119366445D01*
X203510874Y-119366444D01*
X203506453Y-119361534D01*
X203351952Y-119249282D01*
X203345924Y-119246598D01*
X203345922Y-119246597D01*
X203183519Y-119174291D01*
X203183518Y-119174291D01*
X203177488Y-119171606D01*
X203084088Y-119151753D01*
X202997144Y-119133272D01*
X202997139Y-119133272D01*
X202990687Y-119131900D01*
X202799713Y-119131900D01*
X202793261Y-119133272D01*
X202793256Y-119133272D01*
X202706312Y-119151753D01*
X202612912Y-119171606D01*
X202606882Y-119174291D01*
X202606881Y-119174291D01*
X202444478Y-119246597D01*
X202444476Y-119246598D01*
X202438448Y-119249282D01*
X202283947Y-119361534D01*
X202279526Y-119366444D01*
X202279525Y-119366445D01*
X202219240Y-119433399D01*
X202156160Y-119503456D01*
X202060673Y-119668844D01*
X202001658Y-119850472D01*
X202000968Y-119857033D01*
X202000968Y-119857035D01*
X201988583Y-119974876D01*
X201981696Y-120040400D01*
X201982386Y-120046965D01*
X201996307Y-120179412D01*
X202001658Y-120230328D01*
X202060673Y-120411956D01*
X202156160Y-120577344D01*
X202160578Y-120582251D01*
X202160579Y-120582252D01*
X202214127Y-120641723D01*
X202283947Y-120719266D01*
X202379195Y-120788468D01*
X202425838Y-120822356D01*
X202438448Y-120831518D01*
X202444476Y-120834202D01*
X202444478Y-120834203D01*
X202578125Y-120893706D01*
X202612912Y-120909194D01*
X202706313Y-120929047D01*
X202793256Y-120947528D01*
X202793261Y-120947528D01*
X202799713Y-120948900D01*
X202844096Y-120948900D01*
X202912217Y-120968902D01*
X202933191Y-120985805D01*
X202989495Y-121042109D01*
X203023521Y-121104421D01*
X203026400Y-121131204D01*
X203026400Y-121542212D01*
X203006398Y-121610333D01*
X202952742Y-121656826D01*
X202882468Y-121666930D01*
X202817888Y-121637436D01*
X202801652Y-121620474D01*
X202795299Y-121612458D01*
X202680571Y-121497929D01*
X202669160Y-121488917D01*
X202531157Y-121403852D01*
X202517976Y-121397705D01*
X202363690Y-121346530D01*
X202350314Y-121343663D01*
X202255962Y-121333996D01*
X202249545Y-121333668D01*
X202224515Y-121333668D01*
X202209276Y-121338143D01*
X202208071Y-121339533D01*
X202206400Y-121347216D01*
X202206400Y-122694668D01*
X202186398Y-122762789D01*
X202132742Y-122809282D01*
X202080400Y-122820668D01*
X201824400Y-122820668D01*
X201756279Y-122800666D01*
X201709786Y-122747010D01*
X201698400Y-122694668D01*
X201698400Y-121351784D01*
X201693925Y-121336545D01*
X201692535Y-121335340D01*
X201684852Y-121333669D01*
X201655305Y-121333669D01*
X201648786Y-121334006D01*
X201553194Y-121343925D01*
X201539800Y-121346817D01*
X201385616Y-121398256D01*
X201372438Y-121404429D01*
X201234593Y-121489731D01*
X201223192Y-121498767D01*
X201108662Y-121613496D01*
X201101606Y-121622430D01*
X201043688Y-121663491D01*
X200972765Y-121666721D01*
X200911354Y-121631094D01*
X200904554Y-121623261D01*
X200900878Y-121617320D01*
X200775703Y-121492363D01*
X200740785Y-121470839D01*
X200631368Y-121403393D01*
X200631366Y-121403392D01*
X200625138Y-121399553D01*
X200545395Y-121373104D01*
X200463789Y-121346036D01*
X200463787Y-121346036D01*
X200457261Y-121343871D01*
X200450425Y-121343171D01*
X200450422Y-121343170D01*
X200407369Y-121338759D01*
X200352800Y-121333168D01*
X199752000Y-121333168D01*
X199748754Y-121333505D01*
X199748750Y-121333505D01*
X199653092Y-121343430D01*
X199653088Y-121343431D01*
X199646234Y-121344142D01*
X199639698Y-121346323D01*
X199639696Y-121346323D01*
X199623328Y-121351784D01*
X199478454Y-121400118D01*
X199328052Y-121493190D01*
X199322879Y-121498372D01*
X199230908Y-121590503D01*
X199168625Y-121624582D01*
X199097805Y-121619579D01*
X199040932Y-121577082D01*
X199016064Y-121510583D01*
X199015735Y-121501485D01*
X199015735Y-120030668D01*
X199035737Y-119962547D01*
X199089393Y-119916054D01*
X199141735Y-119904668D01*
X199472168Y-119904668D01*
X199475414Y-119904331D01*
X199475418Y-119904331D01*
X199571076Y-119894406D01*
X199571080Y-119894405D01*
X199577934Y-119893694D01*
X199584470Y-119891513D01*
X199584472Y-119891513D01*
X199726306Y-119844193D01*
X199745714Y-119837718D01*
X199896116Y-119744646D01*
X200021073Y-119619471D01*
X200045773Y-119579401D01*
X200110043Y-119475136D01*
X200110044Y-119475134D01*
X200113883Y-119468906D01*
X200149497Y-119361534D01*
X200167400Y-119307557D01*
X200167400Y-119307555D01*
X200169565Y-119301029D01*
X200180268Y-119196568D01*
X200180268Y-118570768D01*
X200173963Y-118510000D01*
X200170006Y-118471860D01*
X200170005Y-118471856D01*
X200169294Y-118465002D01*
X200113318Y-118297222D01*
X200020246Y-118146820D01*
X199933659Y-118060384D01*
X199899580Y-117998102D01*
X199904583Y-117927282D01*
X199933504Y-117882193D01*
X200015902Y-117799651D01*
X200021073Y-117794471D01*
X200025920Y-117786608D01*
X200110043Y-117650136D01*
X200110044Y-117650134D01*
X200113883Y-117643906D01*
X200156741Y-117514693D01*
X200167400Y-117482557D01*
X200167400Y-117482555D01*
X200169565Y-117476029D01*
X200180268Y-117371568D01*
X200180268Y-116745768D01*
X200179931Y-116742518D01*
X200170006Y-116646860D01*
X200170005Y-116646856D01*
X200169294Y-116640002D01*
X200160353Y-116613201D01*
X200115636Y-116479170D01*
X200113318Y-116472222D01*
X200020246Y-116321820D01*
X199895071Y-116196863D01*
X199828659Y-116155926D01*
X199750736Y-116107893D01*
X199750734Y-116107892D01*
X199744506Y-116104053D01*
X199584022Y-116050823D01*
X199583157Y-116050536D01*
X199583155Y-116050536D01*
X199576629Y-116048371D01*
X199569793Y-116047671D01*
X199569790Y-116047670D01*
X199526737Y-116043259D01*
X199472168Y-116037668D01*
X198915269Y-116037668D01*
X198847148Y-116017666D01*
X198800655Y-115964010D01*
X198789269Y-115911668D01*
X198789269Y-108757238D01*
X198809271Y-108689117D01*
X198826174Y-108668143D01*
X199145912Y-108348405D01*
X199208224Y-108314379D01*
X199235007Y-108311500D01*
X199672270Y-108311500D01*
X199674718Y-108311307D01*
X199674726Y-108311307D01*
X199703189Y-108309067D01*
X199703194Y-108309066D01*
X199709599Y-108308562D01*
X199845588Y-108269054D01*
X199861756Y-108264357D01*
X199861758Y-108264356D01*
X199869369Y-108262145D01*
X199898179Y-108245107D01*
X200005748Y-108181491D01*
X200005751Y-108181489D01*
X200012575Y-108177453D01*
X200130221Y-108059807D01*
X200134257Y-108052983D01*
X200134259Y-108052980D01*
X200203326Y-107936193D01*
X200214913Y-107916601D01*
X200261330Y-107756831D01*
X200264268Y-107719502D01*
X200264268Y-107286498D01*
X200261330Y-107249169D01*
X200214913Y-107089399D01*
X200210879Y-107082577D01*
X200208640Y-107077404D01*
X200199944Y-107006942D01*
X200208640Y-106977326D01*
X200216661Y-106958790D01*
X200255707Y-106824395D01*
X200255667Y-106810294D01*
X200248398Y-106807000D01*
X200010610Y-106807000D01*
X199946471Y-106789453D01*
X199876195Y-106747892D01*
X199876196Y-106747892D01*
X199869369Y-106743855D01*
X199861758Y-106741644D01*
X199861756Y-106741643D01*
X199780099Y-106717920D01*
X199709599Y-106697438D01*
X199703194Y-106696934D01*
X199703189Y-106696933D01*
X199674726Y-106694693D01*
X199674718Y-106694693D01*
X199672270Y-106694500D01*
X199002768Y-106694500D01*
X198934647Y-106674498D01*
X198888154Y-106620842D01*
X198876768Y-106568500D01*
X198876768Y-106537500D01*
X198896770Y-106469379D01*
X198950426Y-106422886D01*
X199002768Y-106411500D01*
X199672270Y-106411500D01*
X199674718Y-106411307D01*
X199674726Y-106411307D01*
X199703189Y-106409067D01*
X199703194Y-106409066D01*
X199709599Y-106408562D01*
X199809537Y-106379528D01*
X199861756Y-106364357D01*
X199861758Y-106364356D01*
X199869369Y-106362145D01*
X199946471Y-106316547D01*
X200010610Y-106299000D01*
X200242646Y-106299000D01*
X200256177Y-106295027D01*
X200257312Y-106287129D01*
X200216661Y-106147210D01*
X200208640Y-106128674D01*
X200199944Y-106058212D01*
X200208640Y-106028596D01*
X200210879Y-106023423D01*
X200214913Y-106016601D01*
X200261330Y-105856831D01*
X200264268Y-105819502D01*
X200264268Y-105386498D01*
X200263184Y-105372726D01*
X200261835Y-105355579D01*
X200261834Y-105355574D01*
X200261330Y-105349169D01*
X200221993Y-105213769D01*
X200217125Y-105197012D01*
X200217124Y-105197010D01*
X200214913Y-105189399D01*
X200172199Y-105117173D01*
X200134259Y-105053020D01*
X200134257Y-105053017D01*
X200130221Y-105046193D01*
X200012575Y-104928547D01*
X200005751Y-104924511D01*
X200005748Y-104924509D01*
X199876195Y-104847892D01*
X199876196Y-104847892D01*
X199869369Y-104843855D01*
X199797096Y-104822858D01*
X199737260Y-104784646D01*
X199707582Y-104720150D01*
X199717485Y-104649847D01*
X199763824Y-104596059D01*
X199778794Y-104587762D01*
X199781778Y-104586364D01*
X199788714Y-104584050D01*
X199795681Y-104579739D01*
X199932888Y-104494832D01*
X199939116Y-104490978D01*
X200001683Y-104428302D01*
X200025906Y-104404037D01*
X200088189Y-104369958D01*
X200159009Y-104374961D01*
X200204097Y-104403882D01*
X200286597Y-104486239D01*
X200298008Y-104495251D01*
X200436011Y-104580316D01*
X200449192Y-104586463D01*
X200603478Y-104637638D01*
X200616854Y-104640505D01*
X200711206Y-104650172D01*
X200717622Y-104650500D01*
X200755153Y-104650500D01*
X200770392Y-104646025D01*
X200771597Y-104644635D01*
X200773268Y-104636952D01*
X200773268Y-104632384D01*
X201281268Y-104632384D01*
X201285743Y-104647623D01*
X201287133Y-104648828D01*
X201294816Y-104650499D01*
X201336863Y-104650499D01*
X201343382Y-104650162D01*
X201438974Y-104640243D01*
X201452368Y-104637351D01*
X201606552Y-104585912D01*
X201619730Y-104579739D01*
X201757575Y-104494437D01*
X201768976Y-104485401D01*
X201883507Y-104370671D01*
X201892519Y-104359260D01*
X201977584Y-104221257D01*
X201983731Y-104208076D01*
X202034906Y-104053790D01*
X202037773Y-104040414D01*
X202047440Y-103946062D01*
X202047768Y-103939646D01*
X202047768Y-103714615D01*
X202043293Y-103699376D01*
X202041903Y-103698171D01*
X202034220Y-103696500D01*
X201299383Y-103696500D01*
X201284144Y-103700975D01*
X201282939Y-103702365D01*
X201281268Y-103710048D01*
X201281268Y-104632384D01*
X200773268Y-104632384D01*
X200773268Y-103170385D01*
X201281268Y-103170385D01*
X201285743Y-103185624D01*
X201287133Y-103186829D01*
X201294816Y-103188500D01*
X202029652Y-103188500D01*
X202044891Y-103184025D01*
X202046096Y-103182635D01*
X202047767Y-103174952D01*
X202047767Y-102945405D01*
X202047430Y-102938886D01*
X202037511Y-102843294D01*
X202034619Y-102829900D01*
X201983180Y-102675716D01*
X201977007Y-102662538D01*
X201891705Y-102524693D01*
X201882669Y-102513292D01*
X201767939Y-102398761D01*
X201756528Y-102389749D01*
X201618525Y-102304684D01*
X201605344Y-102298537D01*
X201451058Y-102247362D01*
X201437682Y-102244495D01*
X201343330Y-102234828D01*
X201336913Y-102234500D01*
X201299383Y-102234500D01*
X201284144Y-102238975D01*
X201282939Y-102240365D01*
X201281268Y-102248048D01*
X201281268Y-103170385D01*
X200773268Y-103170385D01*
X200773268Y-102252616D01*
X200768793Y-102237377D01*
X200767403Y-102236172D01*
X200759720Y-102234501D01*
X200717673Y-102234501D01*
X200711154Y-102234838D01*
X200615562Y-102244757D01*
X200602168Y-102247649D01*
X200447984Y-102299088D01*
X200434806Y-102305261D01*
X200296961Y-102390563D01*
X200285560Y-102399599D01*
X200204338Y-102480962D01*
X200142055Y-102515041D01*
X200071235Y-102510038D01*
X200026148Y-102481117D01*
X199943256Y-102398370D01*
X199943251Y-102398366D01*
X199938071Y-102393195D01*
X199931837Y-102389352D01*
X199893151Y-102365505D01*
X199845658Y-102312733D01*
X199833268Y-102258246D01*
X199833268Y-101999500D01*
X199853270Y-101931379D01*
X199906926Y-101884886D01*
X199959268Y-101873500D01*
X200245902Y-101873500D01*
X200286488Y-101869091D01*
X200313701Y-101869091D01*
X200346285Y-101872631D01*
X200353096Y-101873000D01*
X200425653Y-101873000D01*
X200440892Y-101868525D01*
X200442097Y-101867135D01*
X200445043Y-101853590D01*
X200479067Y-101791278D01*
X200492586Y-101779556D01*
X200561029Y-101728261D01*
X200648383Y-101611705D01*
X200699513Y-101475316D01*
X200700366Y-101467464D01*
X200700367Y-101467460D01*
X200700505Y-101466185D01*
X200700890Y-101465259D01*
X200702193Y-101459778D01*
X200703080Y-101459989D01*
X200727747Y-101400623D01*
X200786109Y-101360196D01*
X200857064Y-101357740D01*
X200918082Y-101394035D01*
X200949791Y-101457557D01*
X200951768Y-101479792D01*
X200951768Y-101854884D01*
X200956243Y-101870123D01*
X200957633Y-101871328D01*
X200965316Y-101872999D01*
X201042437Y-101872999D01*
X201049258Y-101872629D01*
X201100120Y-101867105D01*
X201115372Y-101863479D01*
X201235822Y-101818324D01*
X201251417Y-101809786D01*
X201353492Y-101733285D01*
X201366053Y-101720724D01*
X201442554Y-101618649D01*
X201451092Y-101603054D01*
X201496246Y-101482606D01*
X201499873Y-101467351D01*
X201505399Y-101416486D01*
X201505768Y-101409672D01*
X201505768Y-101284934D01*
X201513433Y-101250892D01*
X201513768Y-101246648D01*
X201513768Y-101232924D01*
X202021768Y-101232924D01*
X202025741Y-101246455D01*
X202033536Y-101247575D01*
X202141289Y-101215862D01*
X202152657Y-101211269D01*
X202316922Y-101125393D01*
X202327183Y-101118679D01*
X202471641Y-101002532D01*
X202480400Y-100993954D01*
X202599546Y-100851961D01*
X202606476Y-100841841D01*
X202695770Y-100679415D01*
X202700602Y-100668142D01*
X202756648Y-100491462D01*
X202759198Y-100479468D01*
X202775375Y-100335239D01*
X202775768Y-100328215D01*
X202775768Y-99997115D01*
X202771293Y-99981876D01*
X202769903Y-99980671D01*
X202762220Y-99979000D01*
X202039883Y-99979000D01*
X202024644Y-99983475D01*
X202023439Y-99984865D01*
X202021768Y-99992548D01*
X202021768Y-101232924D01*
X201513768Y-101232924D01*
X201513768Y-100912115D01*
X201509293Y-100896876D01*
X201507903Y-100895671D01*
X201500220Y-100894000D01*
X200969883Y-100894000D01*
X200954644Y-100898475D01*
X200945478Y-100909053D01*
X200921364Y-100953214D01*
X200859052Y-100987239D01*
X200788236Y-100982175D01*
X200731400Y-100939628D01*
X200706589Y-100873108D01*
X200706268Y-100864119D01*
X200706268Y-100408137D01*
X200726270Y-100340016D01*
X200779926Y-100293523D01*
X200850200Y-100283419D01*
X200914780Y-100312913D01*
X200953164Y-100372639D01*
X200956243Y-100383124D01*
X200957633Y-100384329D01*
X200965316Y-100386000D01*
X201495653Y-100386000D01*
X201510892Y-100381525D01*
X201512097Y-100380135D01*
X201513768Y-100372452D01*
X201513768Y-99997115D01*
X201509293Y-99981876D01*
X201507903Y-99980671D01*
X201500220Y-99979000D01*
X201038442Y-99979000D01*
X200970321Y-99958998D01*
X200923828Y-99905342D01*
X200913724Y-99835068D01*
X200943218Y-99770488D01*
X200951869Y-99761452D01*
X200971295Y-99743082D01*
X200971297Y-99743080D01*
X200976253Y-99738393D01*
X200980085Y-99732755D01*
X200980088Y-99732751D01*
X201074210Y-99594255D01*
X201078045Y-99588612D01*
X201093406Y-99550206D01*
X201137273Y-99494387D01*
X201210394Y-99471000D01*
X201495653Y-99471000D01*
X201510892Y-99466525D01*
X201512097Y-99465135D01*
X201513768Y-99457452D01*
X201513768Y-99452885D01*
X202021768Y-99452885D01*
X202026243Y-99468124D01*
X202027633Y-99469329D01*
X202035316Y-99471000D01*
X202757653Y-99471000D01*
X202772892Y-99466525D01*
X202774097Y-99465135D01*
X202775768Y-99457452D01*
X202775768Y-99128343D01*
X202775467Y-99122195D01*
X202761956Y-98984397D01*
X202759573Y-98972362D01*
X202706001Y-98794924D01*
X202701327Y-98783584D01*
X202614308Y-98619923D01*
X202607519Y-98609706D01*
X202490371Y-98466067D01*
X202481727Y-98457363D01*
X202338912Y-98339216D01*
X202328741Y-98332356D01*
X202165692Y-98244196D01*
X202154387Y-98239444D01*
X202039076Y-98203750D01*
X202024973Y-98203544D01*
X202021768Y-98210299D01*
X202021768Y-99452885D01*
X201513768Y-99452885D01*
X201513768Y-98217076D01*
X201509795Y-98203545D01*
X201502000Y-98202425D01*
X201394247Y-98234138D01*
X201382879Y-98238731D01*
X201218614Y-98324607D01*
X201208353Y-98331321D01*
X201063895Y-98447468D01*
X201055136Y-98456046D01*
X201010768Y-98508921D01*
X200951658Y-98548248D01*
X200880670Y-98549374D01*
X200837720Y-98528028D01*
X200772090Y-98477850D01*
X200658847Y-98425044D01*
X200614137Y-98404195D01*
X200614134Y-98404194D01*
X200607960Y-98401315D01*
X200601312Y-98399829D01*
X200601309Y-98399828D01*
X200436262Y-98362936D01*
X200436263Y-98362936D01*
X200431225Y-98361810D01*
X200425680Y-98361500D01*
X200292524Y-98361500D01*
X200157731Y-98376143D01*
X200074377Y-98404195D01*
X199992564Y-98431728D01*
X199992562Y-98431729D01*
X199986093Y-98433906D01*
X199830863Y-98527177D01*
X199825906Y-98531865D01*
X199825903Y-98531867D01*
X199785389Y-98570180D01*
X199755770Y-98598190D01*
X199750367Y-98603299D01*
X199687130Y-98635571D01*
X199616483Y-98628531D01*
X199581963Y-98607561D01*
X199577850Y-98604048D01*
X199577842Y-98604042D01*
X199574081Y-98600830D01*
X199569868Y-98598248D01*
X199569865Y-98598246D01*
X199477908Y-98541893D01*
X199448531Y-98523890D01*
X199312490Y-98467539D01*
X199228894Y-98447468D01*
X199174129Y-98434319D01*
X199174126Y-98434319D01*
X199169309Y-98433162D01*
X199161554Y-98432552D01*
X199132905Y-98430296D01*
X199111468Y-98426729D01*
X199110467Y-98426472D01*
X199102786Y-98424500D01*
X199076656Y-98424500D01*
X199058900Y-98423243D01*
X199039996Y-98420552D01*
X199039993Y-98420552D01*
X199035920Y-98419972D01*
X199030481Y-98419915D01*
X199026640Y-98419875D01*
X199026639Y-98419875D01*
X199022513Y-98419832D01*
X199018424Y-98420327D01*
X199018420Y-98420327D01*
X198991472Y-98423588D01*
X198976336Y-98424500D01*
X195927218Y-98424500D01*
X195909451Y-98423241D01*
X195890589Y-98420554D01*
X195890583Y-98420554D01*
X195886507Y-98419973D01*
X195879725Y-98419902D01*
X195877221Y-98419875D01*
X195877216Y-98419875D01*
X195873100Y-98419832D01*
X195846143Y-98423091D01*
X195835359Y-98424395D01*
X195834216Y-98424500D01*
X195833049Y-98424500D01*
X195829935Y-98424893D01*
X195828293Y-98425044D01*
X195824767Y-98425405D01*
X195731229Y-98432757D01*
X195731226Y-98432758D01*
X195726296Y-98433145D01*
X195666612Y-98447468D01*
X195587917Y-98466353D01*
X195587914Y-98466354D01*
X195583105Y-98467508D01*
X195447052Y-98523848D01*
X195321488Y-98600779D01*
X195316386Y-98605136D01*
X195315776Y-98605409D01*
X195313720Y-98606903D01*
X195313406Y-98606471D01*
X195251594Y-98634163D01*
X195181395Y-98623552D01*
X195146285Y-98596730D01*
X195145302Y-98597762D01*
X195140361Y-98593057D01*
X195135955Y-98587843D01*
X195112853Y-98570180D01*
X194997511Y-98481994D01*
X194997507Y-98481991D01*
X194992090Y-98477850D01*
X194878847Y-98425044D01*
X194834137Y-98404195D01*
X194834134Y-98404194D01*
X194827960Y-98401315D01*
X194821312Y-98399829D01*
X194821309Y-98399828D01*
X194656262Y-98362936D01*
X194656263Y-98362936D01*
X194651225Y-98361810D01*
X194645680Y-98361500D01*
X194512524Y-98361500D01*
X194377731Y-98376143D01*
X194294377Y-98404195D01*
X194212564Y-98431728D01*
X194212562Y-98431729D01*
X194206093Y-98433906D01*
X194054117Y-98525222D01*
X194054114Y-98525223D01*
X194050863Y-98527177D01*
X194050513Y-98526594D01*
X193988851Y-98550065D01*
X193919377Y-98535439D01*
X193881377Y-98504085D01*
X193850371Y-98466067D01*
X193841727Y-98457363D01*
X193698912Y-98339216D01*
X193688741Y-98332356D01*
X193525692Y-98244196D01*
X193514387Y-98239444D01*
X193399076Y-98203750D01*
X193384973Y-98203544D01*
X193381768Y-98210299D01*
X193381768Y-99452885D01*
X193386243Y-99468124D01*
X193387633Y-99469329D01*
X193395316Y-99471000D01*
X193685011Y-99471000D01*
X193753132Y-99491002D01*
X193796468Y-99538235D01*
X193862690Y-99663836D01*
X193867095Y-99669049D01*
X193867098Y-99669053D01*
X193953819Y-99771672D01*
X193982511Y-99836613D01*
X193971538Y-99906756D01*
X193924385Y-99959833D01*
X193857581Y-99979000D01*
X193399883Y-99979000D01*
X193384644Y-99983475D01*
X193383439Y-99984865D01*
X193381768Y-99992548D01*
X193381768Y-100367885D01*
X193386243Y-100383124D01*
X193387633Y-100384329D01*
X193395316Y-100386000D01*
X193925653Y-100386000D01*
X193940892Y-100381525D01*
X193950058Y-100370947D01*
X193974172Y-100326786D01*
X194036484Y-100292761D01*
X194107300Y-100297825D01*
X194164136Y-100340372D01*
X194188947Y-100406892D01*
X194189268Y-100415881D01*
X194189268Y-100871863D01*
X194169266Y-100939984D01*
X194115610Y-100986477D01*
X194045336Y-100996581D01*
X193980756Y-100967087D01*
X193942372Y-100907361D01*
X193939293Y-100896876D01*
X193937903Y-100895671D01*
X193930220Y-100894000D01*
X193399883Y-100894000D01*
X193384644Y-100898475D01*
X193383439Y-100899865D01*
X193381768Y-100907548D01*
X193381768Y-101232924D01*
X193384665Y-101242790D01*
X193389769Y-101278288D01*
X193389769Y-101409669D01*
X193390139Y-101416490D01*
X193395663Y-101467352D01*
X193399289Y-101482604D01*
X193444444Y-101603054D01*
X193452982Y-101618649D01*
X193529483Y-101720724D01*
X193542044Y-101733285D01*
X193644119Y-101809786D01*
X193659714Y-101818324D01*
X193780162Y-101863478D01*
X193795417Y-101867105D01*
X193846282Y-101872631D01*
X193853096Y-101873000D01*
X193925653Y-101873000D01*
X193940892Y-101868525D01*
X193942097Y-101867135D01*
X193943768Y-101859452D01*
X193943768Y-101479792D01*
X193963770Y-101411671D01*
X194017426Y-101365178D01*
X194087700Y-101355074D01*
X194152280Y-101384568D01*
X194190664Y-101444294D01*
X194195031Y-101466185D01*
X194195169Y-101467460D01*
X194195170Y-101467464D01*
X194196023Y-101475316D01*
X194247153Y-101611705D01*
X194334507Y-101728261D01*
X194339125Y-101731722D01*
X194371728Y-101789932D01*
X194405312Y-101929762D01*
X194461666Y-102065788D01*
X194464251Y-102070006D01*
X194536015Y-102187104D01*
X194536018Y-102187109D01*
X194538603Y-102191326D01*
X194541818Y-102195090D01*
X194550078Y-102204761D01*
X194579110Y-102269551D01*
X194580268Y-102286593D01*
X194580268Y-105258560D01*
X194579738Y-105269794D01*
X194578060Y-105277299D01*
X194578309Y-105285218D01*
X194580206Y-105345592D01*
X194580268Y-105349549D01*
X194580268Y-106989577D01*
X194560266Y-107057698D01*
X194543363Y-107078672D01*
X194313940Y-107308095D01*
X194251628Y-107342121D01*
X194224845Y-107345000D01*
X193366868Y-107345000D01*
X193363622Y-107345337D01*
X193363618Y-107345337D01*
X193267960Y-107355262D01*
X193267956Y-107355263D01*
X193261102Y-107355974D01*
X193254566Y-107358155D01*
X193254564Y-107358155D01*
X193154168Y-107391650D01*
X193093322Y-107411950D01*
X192942920Y-107505022D01*
X192817963Y-107630197D01*
X192814123Y-107636427D01*
X192814122Y-107636428D01*
X192730378Y-107772286D01*
X192725153Y-107780762D01*
X192708535Y-107830865D01*
X192682623Y-107908988D01*
X192669471Y-107948639D01*
X192658768Y-108053100D01*
X192658768Y-108903900D01*
X192669742Y-109009666D01*
X192725718Y-109177446D01*
X192818790Y-109327848D01*
X192823972Y-109333021D01*
X192829055Y-109338095D01*
X192943965Y-109452805D01*
X192950195Y-109456645D01*
X192950196Y-109456646D01*
X193087358Y-109541194D01*
X193094530Y-109545615D01*
X193174273Y-109572064D01*
X193255879Y-109599132D01*
X193255881Y-109599132D01*
X193262407Y-109601297D01*
X193269243Y-109601997D01*
X193269246Y-109601998D01*
X193312299Y-109606409D01*
X193366868Y-109612000D01*
X194717668Y-109612000D01*
X194720914Y-109611663D01*
X194720918Y-109611663D01*
X194816576Y-109601738D01*
X194816580Y-109601737D01*
X194823434Y-109601026D01*
X194829970Y-109598845D01*
X194829972Y-109598845D01*
X194962074Y-109554772D01*
X194991214Y-109545050D01*
X195141616Y-109451978D01*
X195266573Y-109326803D01*
X195321119Y-109238313D01*
X195355543Y-109182468D01*
X195355544Y-109182466D01*
X195359383Y-109176238D01*
X195415065Y-109008361D01*
X195417837Y-108981312D01*
X195425440Y-108907098D01*
X195425768Y-108903900D01*
X195425768Y-108053100D01*
X195425689Y-108052340D01*
X195442039Y-107983722D01*
X195462320Y-107957181D01*
X195509771Y-107909730D01*
X195572083Y-107875704D01*
X195642898Y-107880769D01*
X195699734Y-107923316D01*
X195707306Y-107934666D01*
X195781315Y-108059807D01*
X195898961Y-108177453D01*
X195905785Y-108181489D01*
X195905788Y-108181491D01*
X196013357Y-108245107D01*
X196042167Y-108262145D01*
X196049778Y-108264356D01*
X196049780Y-108264357D01*
X196065948Y-108269054D01*
X196201937Y-108308562D01*
X196208342Y-108309066D01*
X196208347Y-108309067D01*
X196236810Y-108311307D01*
X196236818Y-108311307D01*
X196239266Y-108311500D01*
X196676529Y-108311500D01*
X196744650Y-108331502D01*
X196765624Y-108348405D01*
X197085362Y-108668143D01*
X197119388Y-108730455D01*
X197122267Y-108757238D01*
X197122267Y-115911668D01*
X197102265Y-115979789D01*
X197048609Y-116026282D01*
X196996267Y-116037668D01*
X196439368Y-116037668D01*
X196436122Y-116038005D01*
X196436118Y-116038005D01*
X196340460Y-116047930D01*
X196340456Y-116047931D01*
X196333602Y-116048642D01*
X196327066Y-116050823D01*
X196327064Y-116050823D01*
X196194962Y-116094896D01*
X196165822Y-116104618D01*
X196015420Y-116197690D01*
X195890463Y-116322865D01*
X195886623Y-116329095D01*
X195886622Y-116329096D01*
X195817857Y-116440654D01*
X195797653Y-116473430D01*
X195741971Y-116641307D01*
X195741271Y-116648143D01*
X195741270Y-116648146D01*
X195739640Y-116664055D01*
X195731268Y-116745768D01*
X195731268Y-117371568D01*
X195731605Y-117374814D01*
X195731605Y-117374818D01*
X195739877Y-117454536D01*
X195742242Y-117477334D01*
X195744423Y-117483870D01*
X195744423Y-117483872D01*
X195756555Y-117520235D01*
X195798218Y-117645114D01*
X195891290Y-117795516D01*
X195977627Y-117881702D01*
X195977877Y-117881952D01*
X196011956Y-117944234D01*
X196006953Y-118015054D01*
X195978032Y-118060143D01*
X195902708Y-118135599D01*
X195890463Y-118147865D01*
X195886623Y-118154095D01*
X195886622Y-118154096D01*
X195813190Y-118273225D01*
X195797653Y-118298430D01*
X195741971Y-118466307D01*
X195741271Y-118473143D01*
X195741270Y-118473146D01*
X195737494Y-118510000D01*
X195731268Y-118570768D01*
X195731268Y-119196568D01*
X195742242Y-119302334D01*
X195744423Y-119308870D01*
X195744423Y-119308872D01*
X195747726Y-119318772D01*
X195798218Y-119470114D01*
X195891290Y-119620516D01*
X196016465Y-119745473D01*
X196022695Y-119749313D01*
X196022696Y-119749314D01*
X196159858Y-119833862D01*
X196167030Y-119838283D01*
X196203779Y-119850472D01*
X196328379Y-119891800D01*
X196328381Y-119891800D01*
X196334907Y-119893965D01*
X196341743Y-119894665D01*
X196341746Y-119894666D01*
X196384799Y-119899077D01*
X196439368Y-119904668D01*
X196818735Y-119904668D01*
X196886856Y-119924670D01*
X196933349Y-119978326D01*
X196944735Y-120030668D01*
X196944735Y-124672608D01*
X196924733Y-124740729D01*
X196871077Y-124787222D01*
X196818735Y-124798608D01*
X196457101Y-124798608D01*
X196453704Y-124798977D01*
X196430774Y-124801468D01*
X196394919Y-124805363D01*
X196394655Y-124802934D01*
X196365815Y-124802934D01*
X196365551Y-124805363D01*
X196306766Y-124798977D01*
X196303369Y-124798608D01*
X195657101Y-124798608D01*
X195594919Y-124805363D01*
X195458530Y-124856493D01*
X195341974Y-124943847D01*
X195254620Y-125060403D01*
X195203490Y-125196792D01*
X195196735Y-125258974D01*
X195196735Y-126847608D01*
X195176733Y-126915729D01*
X195123077Y-126962222D01*
X195070735Y-126973608D01*
X194069212Y-126973608D01*
X194001091Y-126953606D01*
X193980117Y-126936703D01*
X192754897Y-125711483D01*
X192749043Y-125705217D01*
X192718025Y-125669660D01*
X192713029Y-125663933D01*
X192663444Y-125629084D01*
X192658169Y-125625166D01*
X192616477Y-125592475D01*
X192616476Y-125592475D01*
X192610498Y-125587787D01*
X192603575Y-125584661D01*
X192598428Y-125581544D01*
X192591160Y-125577399D01*
X192585858Y-125574556D01*
X192579640Y-125570186D01*
X192523193Y-125548178D01*
X192517115Y-125545623D01*
X192468829Y-125523821D01*
X192468827Y-125523820D01*
X192461905Y-125520695D01*
X192454435Y-125519311D01*
X192448733Y-125517524D01*
X192440636Y-125515217D01*
X192434819Y-125513723D01*
X192427740Y-125510963D01*
X192420211Y-125509972D01*
X192420208Y-125509971D01*
X192382379Y-125504991D01*
X192367669Y-125503054D01*
X192361172Y-125502025D01*
X192301599Y-125490984D01*
X192294019Y-125491421D01*
X192294018Y-125491421D01*
X192242649Y-125494383D01*
X192235396Y-125494592D01*
X191792507Y-125494592D01*
X191724386Y-125474590D01*
X191695032Y-125448007D01*
X191692456Y-125443844D01*
X191567281Y-125318887D01*
X191514505Y-125286355D01*
X191422946Y-125229917D01*
X191422944Y-125229916D01*
X191416716Y-125226077D01*
X191291380Y-125184505D01*
X191255367Y-125172560D01*
X191255365Y-125172560D01*
X191248839Y-125170395D01*
X191242003Y-125169695D01*
X191242000Y-125169694D01*
X191198947Y-125165283D01*
X191144378Y-125159692D01*
X190093578Y-125159692D01*
X190090332Y-125160029D01*
X190090328Y-125160029D01*
X189994670Y-125169954D01*
X189994666Y-125169955D01*
X189987812Y-125170666D01*
X189981276Y-125172847D01*
X189981274Y-125172847D01*
X189909503Y-125196792D01*
X189820032Y-125226642D01*
X189669630Y-125319714D01*
X189589847Y-125399637D01*
X189581629Y-125407869D01*
X189519347Y-125441948D01*
X189448527Y-125436945D01*
X189403361Y-125407946D01*
X188595662Y-124600247D01*
X188561636Y-124537935D01*
X188559447Y-124524323D01*
X188558395Y-124514308D01*
X188552646Y-124459614D01*
X188549432Y-124429036D01*
X188549432Y-124429035D01*
X188548742Y-124422472D01*
X188489727Y-124240844D01*
X188394240Y-124075456D01*
X188266453Y-123933534D01*
X188141660Y-123842866D01*
X188117294Y-123825163D01*
X188117293Y-123825162D01*
X188111952Y-123821282D01*
X188105924Y-123818598D01*
X188105922Y-123818597D01*
X187943519Y-123746291D01*
X187943518Y-123746291D01*
X187937488Y-123743606D01*
X187844088Y-123723753D01*
X187757144Y-123705272D01*
X187757139Y-123705272D01*
X187750687Y-123703900D01*
X187559713Y-123703900D01*
X187553261Y-123705272D01*
X187553256Y-123705272D01*
X187466312Y-123723753D01*
X187372912Y-123743606D01*
X187366882Y-123746291D01*
X187366881Y-123746291D01*
X187204478Y-123818597D01*
X187204476Y-123818598D01*
X187198448Y-123821282D01*
X187193107Y-123825162D01*
X187193106Y-123825163D01*
X187168740Y-123842866D01*
X187043947Y-123933534D01*
X186916160Y-124075456D01*
X186820673Y-124240844D01*
X186761658Y-124422472D01*
X186760968Y-124429033D01*
X186760968Y-124429035D01*
X186748762Y-124545167D01*
X186741696Y-124612400D01*
X186742386Y-124618965D01*
X186752897Y-124718968D01*
X186761658Y-124802328D01*
X186820673Y-124983956D01*
X186916160Y-125149344D01*
X186920578Y-125154251D01*
X186920579Y-125154252D01*
X187014871Y-125258974D01*
X187043947Y-125291266D01*
X187198448Y-125403518D01*
X187204476Y-125406202D01*
X187204478Y-125406203D01*
X187358079Y-125474590D01*
X187372912Y-125481194D01*
X187466313Y-125501047D01*
X187553256Y-125519528D01*
X187553261Y-125519528D01*
X187559713Y-125520900D01*
X187566314Y-125520900D01*
X187571968Y-125521494D01*
X187637625Y-125548506D01*
X187647894Y-125557709D01*
X188715087Y-126624901D01*
X188720940Y-126631166D01*
X188756955Y-126672451D01*
X188763169Y-126676818D01*
X188806537Y-126707298D01*
X188811832Y-126711231D01*
X188859486Y-126748596D01*
X188866416Y-126751725D01*
X188871546Y-126754832D01*
X188878862Y-126759006D01*
X188884130Y-126761831D01*
X188890344Y-126766198D01*
X188897419Y-126768957D01*
X188897422Y-126768958D01*
X188946783Y-126788203D01*
X188952864Y-126790759D01*
X189008078Y-126815689D01*
X189015543Y-126817073D01*
X189021256Y-126818863D01*
X189029333Y-126821164D01*
X189035167Y-126822662D01*
X189042244Y-126825421D01*
X189049773Y-126826412D01*
X189049776Y-126826413D01*
X189087722Y-126831409D01*
X189102313Y-126833330D01*
X189108817Y-126834360D01*
X189142534Y-126840609D01*
X189154254Y-126842781D01*
X189168385Y-126845400D01*
X189175965Y-126844963D01*
X189175966Y-126844963D01*
X189227335Y-126842001D01*
X189234588Y-126841792D01*
X189445449Y-126841792D01*
X189513570Y-126861794D01*
X189542924Y-126888377D01*
X189545500Y-126892540D01*
X189670675Y-127017497D01*
X189675213Y-127020294D01*
X189715802Y-127077545D01*
X189719032Y-127148468D01*
X189683406Y-127209879D01*
X189674910Y-127217254D01*
X189664771Y-127225290D01*
X189550239Y-127340021D01*
X189541227Y-127351432D01*
X189456162Y-127489435D01*
X189450015Y-127502616D01*
X189398840Y-127656902D01*
X189395973Y-127670278D01*
X189386306Y-127764630D01*
X189385978Y-127771047D01*
X189385978Y-127796077D01*
X189390453Y-127811316D01*
X189391843Y-127812521D01*
X189399526Y-127814192D01*
X191833862Y-127814192D01*
X191849101Y-127809717D01*
X191850306Y-127808327D01*
X191851977Y-127800644D01*
X191851977Y-127771097D01*
X191851640Y-127764578D01*
X191841721Y-127668986D01*
X191838829Y-127655592D01*
X191787390Y-127501408D01*
X191781217Y-127488230D01*
X191695915Y-127350385D01*
X191686879Y-127338984D01*
X191572150Y-127224454D01*
X191563216Y-127217398D01*
X191522155Y-127159480D01*
X191518925Y-127088557D01*
X191554552Y-127027146D01*
X191562385Y-127020346D01*
X191568326Y-127016670D01*
X191693283Y-126891495D01*
X191694985Y-126888733D01*
X191751535Y-126848638D01*
X191792502Y-126841792D01*
X191927787Y-126841792D01*
X191995908Y-126861794D01*
X192016877Y-126878692D01*
X192984831Y-127846645D01*
X193018855Y-127908956D01*
X193021735Y-127935739D01*
X193021735Y-128080242D01*
X193022104Y-128083639D01*
X193028490Y-128142424D01*
X193026351Y-128142656D01*
X193026401Y-128171620D01*
X193028983Y-128171901D01*
X193022604Y-128230622D01*
X193022235Y-128237436D01*
X193022235Y-128284993D01*
X193026710Y-128300232D01*
X193028100Y-128301437D01*
X193049018Y-128305987D01*
X193048753Y-128307205D01*
X193102922Y-128323110D01*
X193135627Y-128353543D01*
X193149276Y-128371754D01*
X193166974Y-128395369D01*
X193214516Y-128431000D01*
X193248250Y-128456282D01*
X193290765Y-128513141D01*
X193295791Y-128583960D01*
X193261731Y-128646253D01*
X193248251Y-128657933D01*
X193166974Y-128718847D01*
X193161593Y-128726027D01*
X193161592Y-128726028D01*
X193135627Y-128760673D01*
X193078768Y-128803188D01*
X193049161Y-128808521D01*
X193025112Y-128815583D01*
X193023907Y-128816973D01*
X193022236Y-128824656D01*
X193022236Y-128876777D01*
X193022606Y-128883598D01*
X193028983Y-128942315D01*
X193026237Y-128942613D01*
X193026295Y-128971554D01*
X193028490Y-128971792D01*
X193021735Y-129033974D01*
X193021735Y-129395608D01*
X193001733Y-129463729D01*
X192948077Y-129510222D01*
X192895735Y-129521608D01*
X188638531Y-129521608D01*
X188570410Y-129501606D01*
X188549436Y-129484703D01*
X187430020Y-128365287D01*
X189385979Y-128365287D01*
X189386316Y-128371806D01*
X189396235Y-128467398D01*
X189399127Y-128480792D01*
X189450566Y-128634976D01*
X189456739Y-128648154D01*
X189542041Y-128785999D01*
X189551077Y-128797400D01*
X189665807Y-128911931D01*
X189677218Y-128920943D01*
X189815221Y-129006008D01*
X189828402Y-129012155D01*
X189982688Y-129063330D01*
X189996064Y-129066197D01*
X190090416Y-129075864D01*
X190096832Y-129076192D01*
X190346863Y-129076192D01*
X190362102Y-129071717D01*
X190363307Y-129070327D01*
X190364978Y-129062644D01*
X190364978Y-129058076D01*
X190872978Y-129058076D01*
X190877453Y-129073315D01*
X190878843Y-129074520D01*
X190886526Y-129076191D01*
X191141073Y-129076191D01*
X191147592Y-129075854D01*
X191243184Y-129065935D01*
X191256578Y-129063043D01*
X191410762Y-129011604D01*
X191423940Y-129005431D01*
X191561785Y-128920129D01*
X191573186Y-128911093D01*
X191687717Y-128796363D01*
X191696729Y-128784952D01*
X191781794Y-128646949D01*
X191787941Y-128633768D01*
X191839116Y-128479482D01*
X191841983Y-128466106D01*
X191851650Y-128371754D01*
X191851978Y-128365338D01*
X191851978Y-128340307D01*
X191847503Y-128325068D01*
X191846113Y-128323863D01*
X191838430Y-128322192D01*
X190891093Y-128322192D01*
X190875854Y-128326667D01*
X190874649Y-128328057D01*
X190872978Y-128335740D01*
X190872978Y-129058076D01*
X190364978Y-129058076D01*
X190364978Y-128340307D01*
X190360503Y-128325068D01*
X190359113Y-128323863D01*
X190351430Y-128322192D01*
X189404094Y-128322192D01*
X189388855Y-128326667D01*
X189387650Y-128328057D01*
X189385979Y-128335740D01*
X189385979Y-128365287D01*
X187430020Y-128365287D01*
X186448005Y-127383272D01*
X186413979Y-127320960D01*
X186411100Y-127294177D01*
X186411100Y-123291920D01*
X186431102Y-123223799D01*
X186484758Y-123177306D01*
X186492871Y-123173938D01*
X186613895Y-123128568D01*
X186613896Y-123128567D01*
X186622305Y-123125415D01*
X186738861Y-123038061D01*
X186799793Y-122956760D01*
X186820831Y-122928689D01*
X186820831Y-122928688D01*
X186826215Y-122921505D01*
X186828917Y-122914297D01*
X186878719Y-122864605D01*
X186903833Y-122854261D01*
X186912353Y-122851786D01*
X186931712Y-122847777D01*
X186944040Y-122846220D01*
X186944042Y-122846220D01*
X186951899Y-122845227D01*
X186959263Y-122842311D01*
X186959268Y-122842310D01*
X186993156Y-122828893D01*
X187004385Y-122825048D01*
X187021065Y-122820202D01*
X187046993Y-122812669D01*
X187053820Y-122808631D01*
X187053823Y-122808630D01*
X187064506Y-122802312D01*
X187082264Y-122793612D01*
X187093815Y-122789039D01*
X187093821Y-122789035D01*
X187101188Y-122786119D01*
X187113382Y-122777260D01*
X187137088Y-122760036D01*
X187147010Y-122753519D01*
X187178368Y-122734974D01*
X187178372Y-122734971D01*
X187185198Y-122730934D01*
X187199582Y-122716550D01*
X187214617Y-122703708D01*
X187224674Y-122696401D01*
X187231087Y-122691742D01*
X187256003Y-122661624D01*
X187261236Y-122655688D01*
X187272089Y-122644131D01*
X187274843Y-122641290D01*
X187294639Y-122621494D01*
X187297063Y-122618369D01*
X187297071Y-122618360D01*
X187297137Y-122618274D01*
X187304845Y-122609249D01*
X187329790Y-122582685D01*
X187335217Y-122576906D01*
X187345023Y-122559069D01*
X187355873Y-122542553D01*
X187368350Y-122526467D01*
X187385976Y-122485734D01*
X187391193Y-122475086D01*
X187408749Y-122443151D01*
X187412569Y-122436203D01*
X187414540Y-122428528D01*
X187414542Y-122428522D01*
X187417631Y-122416489D01*
X187424034Y-122397787D01*
X187432117Y-122379108D01*
X187439060Y-122335273D01*
X187441467Y-122323651D01*
X187452500Y-122280682D01*
X187452500Y-122260335D01*
X187454051Y-122240624D01*
X187455995Y-122228350D01*
X187457235Y-122220521D01*
X187453059Y-122176344D01*
X187452500Y-122164486D01*
X187452500Y-118120021D01*
X187453030Y-118108787D01*
X187454708Y-118101282D01*
X187452562Y-118032989D01*
X187452500Y-118029032D01*
X187452500Y-118001018D01*
X187451992Y-117996997D01*
X187451058Y-117985145D01*
X187450766Y-117975829D01*
X187449665Y-117940796D01*
X187443987Y-117921252D01*
X187439977Y-117901889D01*
X187438420Y-117889561D01*
X187438420Y-117889559D01*
X187437427Y-117881702D01*
X187434511Y-117874338D01*
X187434510Y-117874333D01*
X187421093Y-117840445D01*
X187417248Y-117829216D01*
X187407080Y-117794220D01*
X187404869Y-117786608D01*
X187394510Y-117769092D01*
X187385813Y-117751342D01*
X187378319Y-117732413D01*
X187352240Y-117696518D01*
X187345722Y-117686596D01*
X187327170Y-117655225D01*
X187327166Y-117655220D01*
X187323134Y-117648402D01*
X187308747Y-117634015D01*
X187295906Y-117618981D01*
X187288602Y-117608928D01*
X187283942Y-117602514D01*
X187249750Y-117574228D01*
X187240971Y-117566239D01*
X182616049Y-112941317D01*
X182608473Y-112932991D01*
X182604352Y-112926497D01*
X182554533Y-112879714D01*
X182551692Y-112876960D01*
X182531893Y-112857161D01*
X182528768Y-112854737D01*
X182528759Y-112854729D01*
X182528673Y-112854663D01*
X182519648Y-112846955D01*
X182493084Y-112822010D01*
X182487305Y-112816583D01*
X182469468Y-112806777D01*
X182452952Y-112795927D01*
X182436866Y-112783450D01*
X182396133Y-112765824D01*
X182385485Y-112760607D01*
X182363833Y-112748704D01*
X182346602Y-112739231D01*
X182338927Y-112737260D01*
X182338921Y-112737258D01*
X182326888Y-112734169D01*
X182308186Y-112727766D01*
X182289507Y-112719683D01*
X182255671Y-112714324D01*
X182245672Y-112712740D01*
X182234059Y-112710335D01*
X182191081Y-112699300D01*
X182170734Y-112699300D01*
X182151023Y-112697749D01*
X182138749Y-112695805D01*
X182130920Y-112694565D01*
X182123028Y-112695311D01*
X182086743Y-112698741D01*
X182074885Y-112699300D01*
X167501938Y-112699300D01*
X167433817Y-112679298D01*
X167395331Y-112638008D01*
X167395215Y-112638095D01*
X167394410Y-112637020D01*
X167394407Y-112637016D01*
X167307861Y-112521539D01*
X167191305Y-112434185D01*
X167054916Y-112383055D01*
X166992734Y-112376300D01*
X165696466Y-112376300D01*
X165634284Y-112383055D01*
X165497895Y-112434185D01*
X165381339Y-112521539D01*
X165293985Y-112638095D01*
X165242855Y-112774484D01*
X165236100Y-112836666D01*
X165236100Y-113832934D01*
X165242855Y-113895116D01*
X165293985Y-114031505D01*
X165381339Y-114148061D01*
X165497895Y-114235415D01*
X165634284Y-114286545D01*
X165696466Y-114293300D01*
X166992734Y-114293300D01*
X167054916Y-114286545D01*
X167191305Y-114235415D01*
X167307861Y-114148061D01*
X167395215Y-114031505D01*
X167395499Y-114031718D01*
X167441680Y-113985643D01*
X167501938Y-113970300D01*
X179307698Y-113970300D01*
X179375819Y-113990302D01*
X179422312Y-114043958D01*
X179432416Y-114114232D01*
X179402922Y-114178812D01*
X179365985Y-114208008D01*
X179322363Y-114230769D01*
X179322360Y-114230771D01*
X179317971Y-114233061D01*
X179313991Y-114236012D01*
X179277090Y-114263372D01*
X179267880Y-114269591D01*
X179224484Y-114296184D01*
X179172793Y-114340332D01*
X179166045Y-114345705D01*
X179111431Y-114386198D01*
X179107975Y-114389722D01*
X179107970Y-114389726D01*
X179075792Y-114422534D01*
X179067670Y-114430115D01*
X179028969Y-114463169D01*
X179025761Y-114466925D01*
X179025756Y-114466930D01*
X178984831Y-114514847D01*
X178978974Y-114521245D01*
X178934855Y-114566227D01*
X178934848Y-114566235D01*
X178931390Y-114569761D01*
X178928525Y-114573786D01*
X178928524Y-114573787D01*
X178901877Y-114611221D01*
X178895039Y-114619982D01*
X178861984Y-114658684D01*
X178829751Y-114711283D01*
X178826480Y-114716621D01*
X178821697Y-114723855D01*
X178798416Y-114756560D01*
X178782281Y-114779227D01*
X178780079Y-114783654D01*
X178780076Y-114783659D01*
X178759614Y-114824798D01*
X178754242Y-114834502D01*
X178727640Y-114877913D01*
X178725749Y-114882478D01*
X178725746Y-114882484D01*
X178701631Y-114940703D01*
X178698047Y-114948579D01*
X178667775Y-115009441D01*
X178666293Y-115014157D01*
X178666289Y-115014167D01*
X178652514Y-115058001D01*
X178648719Y-115068445D01*
X178642677Y-115083033D01*
X178629245Y-115115460D01*
X178613374Y-115181565D01*
X178611075Y-115189873D01*
X178590693Y-115254733D01*
X178589966Y-115259631D01*
X178583218Y-115305076D01*
X178581103Y-115315982D01*
X178570379Y-115360654D01*
X178569222Y-115365474D01*
X178568834Y-115370405D01*
X178568833Y-115370411D01*
X178563889Y-115433232D01*
X178562913Y-115441837D01*
X178562751Y-115442931D01*
X178562387Y-115445384D01*
X178559423Y-115488355D01*
X178558565Y-115500797D01*
X178558476Y-115502008D01*
X178549049Y-115621800D01*
X178549437Y-115626730D01*
X178549437Y-115628820D01*
X178549138Y-115637489D01*
X178516726Y-116107467D01*
X178513555Y-116153440D01*
X178513579Y-116155924D01*
X178513579Y-116155926D01*
X178515256Y-116329096D01*
X178515421Y-116346171D01*
X178558101Y-116599722D01*
X178559673Y-116604406D01*
X178559674Y-116604409D01*
X178621730Y-116789286D01*
X178639919Y-116843476D01*
X178642209Y-116847864D01*
X178642209Y-116847865D01*
X178753347Y-117060861D01*
X178758861Y-117071429D01*
X178911998Y-117277969D01*
X179095561Y-117458010D01*
X179099600Y-117460885D01*
X179099601Y-117460886D01*
X179291460Y-117597461D01*
X179305027Y-117607119D01*
X179309463Y-117609325D01*
X179309464Y-117609326D01*
X179530808Y-117719420D01*
X179530812Y-117719422D01*
X179535242Y-117721625D01*
X179780534Y-117798707D01*
X180034864Y-117836468D01*
X180098651Y-117835850D01*
X180287020Y-117834027D01*
X180287021Y-117834027D01*
X180291971Y-117833979D01*
X180545522Y-117791299D01*
X180690778Y-117742543D01*
X180761721Y-117739829D01*
X180819966Y-117772899D01*
X182256502Y-119209435D01*
X182290528Y-119271747D01*
X182285463Y-119342562D01*
X182242916Y-119399398D01*
X182219157Y-119413412D01*
X182057187Y-119486374D01*
X182057183Y-119486376D01*
X182052322Y-119488566D01*
X181857559Y-119619688D01*
X181853702Y-119623367D01*
X181853700Y-119623369D01*
X181845951Y-119630761D01*
X181687673Y-119781751D01*
X181547522Y-119970121D01*
X181545106Y-119974872D01*
X181545104Y-119974876D01*
X181443531Y-120174656D01*
X181441113Y-120179412D01*
X181371489Y-120403640D01*
X181370788Y-120408929D01*
X181342123Y-120625200D01*
X181340639Y-120636393D01*
X181349448Y-120871016D01*
X181357935Y-120911464D01*
X181393091Y-121079014D01*
X181397662Y-121100801D01*
X181483902Y-121319177D01*
X181500375Y-121346323D01*
X181596519Y-121504763D01*
X181605704Y-121519900D01*
X181759585Y-121697232D01*
X181763717Y-121700620D01*
X181937016Y-121842717D01*
X181937022Y-121842721D01*
X181941144Y-121846101D01*
X181945780Y-121848740D01*
X181945783Y-121848742D01*
X182057008Y-121912055D01*
X182145190Y-121962251D01*
X182365889Y-122042361D01*
X182371138Y-122043310D01*
X182371141Y-122043311D01*
X182452215Y-122057971D01*
X182596930Y-122084140D01*
X182601069Y-122084335D01*
X182601076Y-122084336D01*
X182620040Y-122085230D01*
X182620049Y-122085230D01*
X182621529Y-122085300D01*
X182786550Y-122085300D01*
X182867899Y-122078397D01*
X182956237Y-122070902D01*
X182956241Y-122070901D01*
X182961548Y-122070451D01*
X182966703Y-122069113D01*
X182966709Y-122069112D01*
X183183635Y-122012809D01*
X183183634Y-122012809D01*
X183188806Y-122011467D01*
X183193672Y-122009275D01*
X183193675Y-122009274D01*
X183398017Y-121917224D01*
X183398020Y-121917223D01*
X183402878Y-121915034D01*
X183597641Y-121783912D01*
X183767527Y-121621849D01*
X183774746Y-121612147D01*
X183904492Y-121437761D01*
X183907678Y-121433479D01*
X183915183Y-121418719D01*
X184011669Y-121228944D01*
X184011669Y-121228943D01*
X184014087Y-121224188D01*
X184083711Y-120999960D01*
X184095560Y-120910566D01*
X184113861Y-120772490D01*
X184113861Y-120772487D01*
X184114561Y-120767207D01*
X184105752Y-120532584D01*
X184080442Y-120411956D01*
X184058635Y-120308026D01*
X184058634Y-120308023D01*
X184057538Y-120302799D01*
X183971298Y-120084423D01*
X183925712Y-120009300D01*
X183852264Y-119888261D01*
X183852262Y-119888258D01*
X183849496Y-119883700D01*
X183749859Y-119768878D01*
X183720320Y-119704321D01*
X183730374Y-119634040D01*
X183776828Y-119580351D01*
X183845025Y-119560300D01*
X184618262Y-119560300D01*
X184686383Y-119580302D01*
X184724869Y-119621592D01*
X184724985Y-119621505D01*
X184725790Y-119622580D01*
X184725793Y-119622584D01*
X184812339Y-119738061D01*
X184928895Y-119825415D01*
X185065284Y-119876545D01*
X185127466Y-119883300D01*
X186055500Y-119883300D01*
X186123621Y-119903302D01*
X186170114Y-119956958D01*
X186181500Y-120009300D01*
X186181500Y-121140300D01*
X186161498Y-121208421D01*
X186107842Y-121254914D01*
X186055500Y-121266300D01*
X185127466Y-121266300D01*
X185065284Y-121273055D01*
X184928895Y-121324185D01*
X184812339Y-121411539D01*
X184724985Y-121528095D01*
X184673855Y-121664484D01*
X184667100Y-121726666D01*
X184667100Y-122722934D01*
X184673855Y-122785116D01*
X184724985Y-122921505D01*
X184812339Y-123038061D01*
X184928895Y-123125415D01*
X184937304Y-123128567D01*
X184937305Y-123128568D01*
X185058329Y-123173938D01*
X185115094Y-123216579D01*
X185139794Y-123283141D01*
X185140100Y-123291920D01*
X185140100Y-127530580D01*
X185139570Y-127541814D01*
X185137892Y-127549319D01*
X185138141Y-127557238D01*
X185140038Y-127617612D01*
X185140100Y-127621569D01*
X185140100Y-127649583D01*
X185140596Y-127653508D01*
X185140596Y-127653509D01*
X185140608Y-127653604D01*
X185141541Y-127665449D01*
X185142935Y-127709805D01*
X185145147Y-127717417D01*
X185148613Y-127729348D01*
X185152623Y-127748712D01*
X185155173Y-127768899D01*
X185158089Y-127776263D01*
X185158090Y-127776268D01*
X185171507Y-127810156D01*
X185175352Y-127821385D01*
X185187731Y-127863993D01*
X185191769Y-127870820D01*
X185191770Y-127870823D01*
X185198088Y-127881506D01*
X185206788Y-127899264D01*
X185211361Y-127910815D01*
X185211365Y-127910821D01*
X185214281Y-127918188D01*
X185218939Y-127924599D01*
X185218940Y-127924601D01*
X185240364Y-127954088D01*
X185246881Y-127964010D01*
X185265426Y-127995368D01*
X185265429Y-127995372D01*
X185269466Y-128002198D01*
X185283850Y-128016582D01*
X185296691Y-128031616D01*
X185308658Y-128048087D01*
X185314766Y-128053140D01*
X185342855Y-128076377D01*
X185351635Y-128084367D01*
X185932273Y-128665005D01*
X185966299Y-128727317D01*
X185961234Y-128798132D01*
X185918687Y-128854968D01*
X185852167Y-128879779D01*
X185843178Y-128880100D01*
X175346823Y-128880100D01*
X175278702Y-128860098D01*
X175257728Y-128843195D01*
X174510005Y-128095472D01*
X174475979Y-128033160D01*
X174473100Y-128006377D01*
X174473100Y-120859238D01*
X175145200Y-120859238D01*
X175184664Y-121171630D01*
X175262970Y-121476613D01*
X175264423Y-121480282D01*
X175264423Y-121480283D01*
X175268007Y-121489336D01*
X175378884Y-121769377D01*
X175380786Y-121772836D01*
X175380787Y-121772839D01*
X175512712Y-122012809D01*
X175530576Y-122045304D01*
X175715655Y-122300044D01*
X175931202Y-122529578D01*
X176173818Y-122730287D01*
X176439676Y-122899006D01*
X176443255Y-122900690D01*
X176443262Y-122900694D01*
X176720994Y-123031384D01*
X176720998Y-123031386D01*
X176724584Y-123033073D01*
X177024048Y-123130375D01*
X177333346Y-123189377D01*
X177426900Y-123195263D01*
X177566958Y-123204075D01*
X177566974Y-123204076D01*
X177568953Y-123204200D01*
X177726247Y-123204200D01*
X177728226Y-123204076D01*
X177728242Y-123204075D01*
X177868300Y-123195263D01*
X177961854Y-123189377D01*
X178271152Y-123130375D01*
X178570616Y-123033073D01*
X178574202Y-123031386D01*
X178574206Y-123031384D01*
X178851938Y-122900694D01*
X178851945Y-122900690D01*
X178855524Y-122899006D01*
X179121382Y-122730287D01*
X179363998Y-122529578D01*
X179579545Y-122300044D01*
X179764624Y-122045304D01*
X179782489Y-122012809D01*
X179914413Y-121772839D01*
X179914414Y-121772836D01*
X179916316Y-121769377D01*
X180027193Y-121489336D01*
X180030777Y-121480283D01*
X180030777Y-121480282D01*
X180032230Y-121476613D01*
X180110536Y-121171630D01*
X180150000Y-120859238D01*
X180150000Y-120544362D01*
X180110536Y-120231970D01*
X180032230Y-119926987D01*
X179916316Y-119634223D01*
X179913273Y-119628688D01*
X179766533Y-119361768D01*
X179766531Y-119361765D01*
X179764624Y-119358296D01*
X179579545Y-119103556D01*
X179363998Y-118874022D01*
X179121382Y-118673313D01*
X178938090Y-118556992D01*
X178858871Y-118506718D01*
X178858870Y-118506718D01*
X178855524Y-118504594D01*
X178851945Y-118502910D01*
X178851938Y-118502906D01*
X178574206Y-118372216D01*
X178574202Y-118372214D01*
X178570616Y-118370527D01*
X178271152Y-118273225D01*
X177961854Y-118214223D01*
X177868300Y-118208337D01*
X177728242Y-118199525D01*
X177728226Y-118199524D01*
X177726247Y-118199400D01*
X177568953Y-118199400D01*
X177566974Y-118199524D01*
X177566958Y-118199525D01*
X177426900Y-118208337D01*
X177333346Y-118214223D01*
X177024048Y-118273225D01*
X176724584Y-118370527D01*
X176720998Y-118372214D01*
X176720994Y-118372216D01*
X176443262Y-118502906D01*
X176443255Y-118502910D01*
X176439676Y-118504594D01*
X176436330Y-118506718D01*
X176436329Y-118506718D01*
X176357110Y-118556992D01*
X176173818Y-118673313D01*
X175931202Y-118874022D01*
X175715655Y-119103556D01*
X175530576Y-119358296D01*
X175528669Y-119361765D01*
X175528667Y-119361768D01*
X175381927Y-119628688D01*
X175378884Y-119634223D01*
X175262970Y-119926987D01*
X175184664Y-120231970D01*
X175145200Y-120544362D01*
X175145200Y-120859238D01*
X174473100Y-120859238D01*
X174473100Y-119747978D01*
X174493102Y-119679857D01*
X174544658Y-119634347D01*
X174654872Y-119581542D01*
X174659341Y-119579401D01*
X174870985Y-119433399D01*
X175010563Y-119300483D01*
X175015056Y-119295476D01*
X176285388Y-117879688D01*
X176297338Y-117868027D01*
X176302472Y-117863642D01*
X176302475Y-117863639D01*
X176306231Y-117860431D01*
X176309438Y-117856676D01*
X176309445Y-117856669D01*
X176375734Y-117779054D01*
X176377763Y-117776736D01*
X176404633Y-117746790D01*
X176404648Y-117746771D01*
X176406289Y-117744943D01*
X176407784Y-117742987D01*
X176407792Y-117742978D01*
X176416375Y-117731752D01*
X176420658Y-117726454D01*
X176446224Y-117696520D01*
X176473216Y-117664916D01*
X176475799Y-117660701D01*
X176475807Y-117660690D01*
X176493007Y-117632622D01*
X176500336Y-117621937D01*
X176523356Y-117591829D01*
X176532873Y-117574229D01*
X176561872Y-117520597D01*
X176565274Y-117514693D01*
X176604971Y-117449913D01*
X176604974Y-117449906D01*
X176607560Y-117445687D01*
X176609453Y-117441117D01*
X176609457Y-117441109D01*
X176622053Y-117410698D01*
X176627621Y-117398997D01*
X176645649Y-117365656D01*
X176672552Y-117289263D01*
X176674987Y-117282904D01*
X176704063Y-117212709D01*
X176704065Y-117212703D01*
X176705955Y-117208140D01*
X176707107Y-117203340D01*
X176707110Y-117203332D01*
X176714795Y-117171320D01*
X176718468Y-117158881D01*
X176729414Y-117127800D01*
X176729415Y-117127794D01*
X176731056Y-117123136D01*
X176745676Y-117043481D01*
X176747087Y-117036814D01*
X176764823Y-116962938D01*
X176764824Y-116962935D01*
X176765978Y-116958126D01*
X176768949Y-116920377D01*
X176770631Y-116907518D01*
X176776577Y-116875118D01*
X176777472Y-116870243D01*
X176779452Y-116789274D01*
X176779801Y-116782478D01*
X176782434Y-116749034D01*
X176786151Y-116701800D01*
X176783181Y-116664055D01*
X176782831Y-116651093D01*
X176783636Y-116618158D01*
X176783636Y-116618156D01*
X176783757Y-116613201D01*
X176773045Y-116532918D01*
X176772326Y-116526140D01*
X176766366Y-116450404D01*
X176765978Y-116445474D01*
X176764824Y-116440669D01*
X176764822Y-116440654D01*
X176757138Y-116408650D01*
X176754763Y-116395898D01*
X176750407Y-116363246D01*
X176750406Y-116363241D01*
X176749752Y-116358340D01*
X176726615Y-116280727D01*
X176724846Y-116274148D01*
X176707110Y-116200272D01*
X176705955Y-116195460D01*
X176704059Y-116190882D01*
X176691467Y-116160481D01*
X176687127Y-116148261D01*
X176676299Y-116111938D01*
X176646881Y-116050536D01*
X176641307Y-116038902D01*
X176638529Y-116032679D01*
X176632311Y-116017666D01*
X176616621Y-115979789D01*
X176609453Y-115962483D01*
X176607560Y-115957913D01*
X176604974Y-115953694D01*
X176604971Y-115953687D01*
X176587776Y-115925627D01*
X176581578Y-115914236D01*
X176567339Y-115884518D01*
X176565203Y-115880059D01*
X176519217Y-115813398D01*
X176515499Y-115807685D01*
X176473216Y-115738684D01*
X176448630Y-115709897D01*
X176440727Y-115699617D01*
X176422009Y-115672483D01*
X176422002Y-115672475D01*
X176419201Y-115668414D01*
X176363354Y-115609768D01*
X176358791Y-115604709D01*
X176309449Y-115546936D01*
X176309443Y-115546930D01*
X176306231Y-115543169D01*
X176277431Y-115518572D01*
X176268020Y-115509656D01*
X176260233Y-115501478D01*
X176241889Y-115482215D01*
X176237957Y-115479209D01*
X176237954Y-115479206D01*
X176177547Y-115433021D01*
X176172274Y-115428759D01*
X176110716Y-115376184D01*
X176078424Y-115356395D01*
X176067742Y-115349068D01*
X176037631Y-115326046D01*
X175966407Y-115287535D01*
X175960513Y-115284139D01*
X175895707Y-115244426D01*
X175891487Y-115241840D01*
X175886917Y-115239947D01*
X175886909Y-115239943D01*
X175856491Y-115227344D01*
X175844789Y-115221775D01*
X175811458Y-115203753D01*
X175735082Y-115176856D01*
X175728723Y-115174421D01*
X175658513Y-115145339D01*
X175658511Y-115145338D01*
X175653940Y-115143445D01*
X175649129Y-115142290D01*
X175649126Y-115142289D01*
X175628424Y-115137319D01*
X175617111Y-115134603D01*
X175604673Y-115130930D01*
X175573612Y-115119991D01*
X175573604Y-115119989D01*
X175568939Y-115118346D01*
X175489297Y-115103728D01*
X175482653Y-115102322D01*
X175430310Y-115089756D01*
X175408738Y-115084577D01*
X175408735Y-115084577D01*
X175403926Y-115083422D01*
X175383213Y-115081792D01*
X175366163Y-115080450D01*
X175353303Y-115078768D01*
X175320918Y-115072824D01*
X175320913Y-115072823D01*
X175316045Y-115071930D01*
X175235110Y-115069951D01*
X175228329Y-115069603D01*
X175147600Y-115063249D01*
X175142670Y-115063637D01*
X175109838Y-115066221D01*
X175096872Y-115066571D01*
X175063960Y-115065766D01*
X175063957Y-115065766D01*
X175059003Y-115065645D01*
X174978749Y-115076353D01*
X174971999Y-115077069D01*
X174938302Y-115079721D01*
X174896211Y-115083033D01*
X174896205Y-115083034D01*
X174891274Y-115083422D01*
X174886462Y-115084577D01*
X174886457Y-115084578D01*
X174854431Y-115092267D01*
X174841685Y-115094641D01*
X174804143Y-115099650D01*
X174726573Y-115122773D01*
X174720011Y-115124538D01*
X174641260Y-115143445D01*
X174636694Y-115145336D01*
X174636692Y-115145337D01*
X174606253Y-115157945D01*
X174594030Y-115162285D01*
X174557740Y-115173103D01*
X174540145Y-115181533D01*
X174484745Y-115208075D01*
X174478523Y-115210851D01*
X174408291Y-115239943D01*
X174408284Y-115239947D01*
X174403713Y-115241840D01*
X174371397Y-115261643D01*
X174360017Y-115267834D01*
X174330324Y-115282060D01*
X174330317Y-115282064D01*
X174325861Y-115284199D01*
X174316159Y-115290892D01*
X174259252Y-115330149D01*
X174253540Y-115333865D01*
X174188707Y-115373595D01*
X174188697Y-115373602D01*
X174184484Y-115376184D01*
X174163271Y-115394302D01*
X174155666Y-115400797D01*
X174145389Y-115408698D01*
X174114217Y-115430201D01*
X174059597Y-115482215D01*
X174055620Y-115486002D01*
X174050560Y-115490566D01*
X173988969Y-115543169D01*
X173985761Y-115546925D01*
X173985756Y-115546930D01*
X173919399Y-115624624D01*
X173917378Y-115626934D01*
X172578913Y-117118656D01*
X172461846Y-117271771D01*
X172339553Y-117497944D01*
X172337909Y-117502611D01*
X172337909Y-117502612D01*
X172255788Y-117735799D01*
X172255786Y-117735805D01*
X172254146Y-117740463D01*
X172253254Y-117745324D01*
X172253253Y-117745327D01*
X172224900Y-117899806D01*
X172207730Y-117993357D01*
X172207053Y-118021033D01*
X172201996Y-118227882D01*
X172201445Y-118250399D01*
X172235450Y-118505260D01*
X172308903Y-118751662D01*
X172419999Y-118983541D01*
X172422814Y-118987622D01*
X172422816Y-118987625D01*
X172519761Y-119128157D01*
X172541979Y-119195588D01*
X172524213Y-119264326D01*
X172472105Y-119312547D01*
X172426700Y-119325254D01*
X172389145Y-119328440D01*
X172338963Y-119332698D01*
X172338959Y-119332699D01*
X172333652Y-119333149D01*
X172328497Y-119334487D01*
X172328491Y-119334488D01*
X172150777Y-119380614D01*
X172106394Y-119392133D01*
X172101528Y-119394325D01*
X172101525Y-119394326D01*
X171897183Y-119486376D01*
X171897180Y-119486377D01*
X171892322Y-119488566D01*
X171697559Y-119619688D01*
X171693702Y-119623367D01*
X171693700Y-119623369D01*
X171685951Y-119630761D01*
X171527673Y-119781751D01*
X171387522Y-119970121D01*
X171385106Y-119974872D01*
X171385104Y-119974876D01*
X171283531Y-120174656D01*
X171281113Y-120179412D01*
X171211489Y-120403640D01*
X171210788Y-120408929D01*
X171182123Y-120625200D01*
X171180639Y-120636393D01*
X171189448Y-120871016D01*
X171197935Y-120911464D01*
X171233091Y-121079014D01*
X171237662Y-121100801D01*
X171323902Y-121319177D01*
X171340375Y-121346323D01*
X171436519Y-121504763D01*
X171445704Y-121519900D01*
X171599585Y-121697232D01*
X171603717Y-121700620D01*
X171777016Y-121842717D01*
X171777022Y-121842721D01*
X171781144Y-121846101D01*
X171785780Y-121848740D01*
X171785783Y-121848742D01*
X171897008Y-121912055D01*
X171985190Y-121962251D01*
X172205889Y-122042361D01*
X172211138Y-122043310D01*
X172211141Y-122043311D01*
X172292215Y-122057971D01*
X172436930Y-122084140D01*
X172441069Y-122084335D01*
X172441076Y-122084336D01*
X172460040Y-122085230D01*
X172460049Y-122085230D01*
X172461529Y-122085300D01*
X172626550Y-122085300D01*
X172707899Y-122078397D01*
X172796237Y-122070902D01*
X172796241Y-122070901D01*
X172801548Y-122070451D01*
X172806703Y-122069113D01*
X172806709Y-122069112D01*
X173023644Y-122012807D01*
X173023646Y-122012806D01*
X173028806Y-122011467D01*
X173033670Y-122009276D01*
X173034246Y-122009073D01*
X173105143Y-122005311D01*
X173166819Y-122040476D01*
X173199692Y-122103403D01*
X173202100Y-122127918D01*
X173202100Y-124316978D01*
X173182098Y-124385099D01*
X173128442Y-124431592D01*
X173058168Y-124441696D01*
X172993588Y-124412202D01*
X172987005Y-124406073D01*
X172167800Y-123586867D01*
X171149850Y-122568917D01*
X171142274Y-122560591D01*
X171138153Y-122554097D01*
X171088334Y-122507314D01*
X171085493Y-122504560D01*
X171065694Y-122484761D01*
X171062569Y-122482337D01*
X171062560Y-122482329D01*
X171062474Y-122482263D01*
X171053449Y-122474555D01*
X171026885Y-122449610D01*
X171021106Y-122444183D01*
X171003269Y-122434377D01*
X170986753Y-122423527D01*
X170970667Y-122411050D01*
X170929934Y-122393424D01*
X170919286Y-122388207D01*
X170888501Y-122371283D01*
X170880403Y-122366831D01*
X170872728Y-122364860D01*
X170872722Y-122364858D01*
X170860689Y-122361769D01*
X170841987Y-122355366D01*
X170823308Y-122347283D01*
X170789472Y-122341924D01*
X170779473Y-122340340D01*
X170767860Y-122337935D01*
X170724882Y-122326900D01*
X170704535Y-122326900D01*
X170684824Y-122325349D01*
X170672550Y-122323405D01*
X170664721Y-122322165D01*
X170656829Y-122322911D01*
X170620544Y-122326341D01*
X170608686Y-122326900D01*
X157443623Y-122326900D01*
X157375502Y-122306898D01*
X157354528Y-122289995D01*
X155460005Y-120395472D01*
X155425979Y-120333160D01*
X155423100Y-120306377D01*
X155423100Y-111842238D01*
X156095200Y-111842238D01*
X156134664Y-112154630D01*
X156212970Y-112459613D01*
X156328884Y-112752377D01*
X156330786Y-112755836D01*
X156330787Y-112755839D01*
X156462712Y-112995809D01*
X156480576Y-113028304D01*
X156665655Y-113283044D01*
X156881202Y-113512578D01*
X157123818Y-113713287D01*
X157389676Y-113882006D01*
X157393255Y-113883690D01*
X157393262Y-113883694D01*
X157670994Y-114014384D01*
X157670998Y-114014386D01*
X157674584Y-114016073D01*
X157678356Y-114017299D01*
X157678357Y-114017299D01*
X157701150Y-114024705D01*
X157974048Y-114113375D01*
X158283346Y-114172377D01*
X158376900Y-114178263D01*
X158516958Y-114187075D01*
X158516974Y-114187076D01*
X158518953Y-114187200D01*
X158676247Y-114187200D01*
X158678226Y-114187076D01*
X158678242Y-114187075D01*
X158818300Y-114178263D01*
X158911854Y-114172377D01*
X159221152Y-114113375D01*
X159494050Y-114024705D01*
X159516843Y-114017299D01*
X159516844Y-114017299D01*
X159520616Y-114016073D01*
X159524202Y-114014386D01*
X159524206Y-114014384D01*
X159801938Y-113883694D01*
X159801945Y-113883690D01*
X159805524Y-113882006D01*
X160071382Y-113713287D01*
X160313998Y-113512578D01*
X160529545Y-113283044D01*
X160714624Y-113028304D01*
X160732489Y-112995809D01*
X160864413Y-112755839D01*
X160864414Y-112755836D01*
X160866316Y-112752377D01*
X160982230Y-112459613D01*
X161060536Y-112154630D01*
X161100000Y-111842238D01*
X161100000Y-111527362D01*
X161060536Y-111214970D01*
X160982230Y-110909987D01*
X160866316Y-110617223D01*
X160860349Y-110606369D01*
X160716533Y-110344768D01*
X160716531Y-110344765D01*
X160714624Y-110341296D01*
X160529545Y-110086556D01*
X160313998Y-109857022D01*
X160071382Y-109656313D01*
X159877496Y-109533269D01*
X159808871Y-109489718D01*
X159808870Y-109489718D01*
X159805524Y-109487594D01*
X159801945Y-109485910D01*
X159801938Y-109485906D01*
X159524206Y-109355216D01*
X159524202Y-109355214D01*
X159520616Y-109353527D01*
X159498999Y-109346503D01*
X159224928Y-109257452D01*
X159224929Y-109257452D01*
X159221152Y-109256225D01*
X158911854Y-109197223D01*
X158818300Y-109191337D01*
X158678242Y-109182525D01*
X158678226Y-109182524D01*
X158676247Y-109182400D01*
X158518953Y-109182400D01*
X158516974Y-109182524D01*
X158516958Y-109182525D01*
X158376900Y-109191337D01*
X158283346Y-109197223D01*
X157974048Y-109256225D01*
X157970271Y-109257452D01*
X157970272Y-109257452D01*
X157696202Y-109346503D01*
X157674584Y-109353527D01*
X157670998Y-109355214D01*
X157670994Y-109355216D01*
X157393262Y-109485906D01*
X157393255Y-109485910D01*
X157389676Y-109487594D01*
X157386330Y-109489718D01*
X157386329Y-109489718D01*
X157317704Y-109533269D01*
X157123818Y-109656313D01*
X156881202Y-109857022D01*
X156665655Y-110086556D01*
X156480576Y-110341296D01*
X156478669Y-110344765D01*
X156478667Y-110344768D01*
X156334851Y-110606369D01*
X156328884Y-110617223D01*
X156212970Y-110909987D01*
X156134664Y-111214970D01*
X156095200Y-111527362D01*
X156095200Y-111842238D01*
X155423100Y-111842238D01*
X155423100Y-110730978D01*
X155443102Y-110662857D01*
X155494658Y-110617347D01*
X155604872Y-110564542D01*
X155609341Y-110562401D01*
X155820985Y-110416399D01*
X155865706Y-110373813D01*
X155958762Y-110285198D01*
X155960563Y-110283483D01*
X155962216Y-110281641D01*
X157235388Y-108862688D01*
X157247338Y-108851027D01*
X157252472Y-108846642D01*
X157252475Y-108846639D01*
X157256231Y-108843431D01*
X157259438Y-108839676D01*
X157259445Y-108839669D01*
X157325734Y-108762054D01*
X157327763Y-108759736D01*
X157354633Y-108729790D01*
X157354648Y-108729771D01*
X157356289Y-108727943D01*
X157357784Y-108725987D01*
X157357792Y-108725978D01*
X157366375Y-108714752D01*
X157370658Y-108709454D01*
X157388027Y-108689117D01*
X157423216Y-108647916D01*
X157425799Y-108643701D01*
X157425807Y-108643690D01*
X157443007Y-108615622D01*
X157450336Y-108604937D01*
X157473356Y-108574829D01*
X157511872Y-108503597D01*
X157515274Y-108497693D01*
X157554971Y-108432913D01*
X157554974Y-108432906D01*
X157557560Y-108428687D01*
X157559453Y-108424117D01*
X157559457Y-108424109D01*
X157572053Y-108393698D01*
X157577621Y-108381997D01*
X157595649Y-108348656D01*
X157622552Y-108272263D01*
X157624987Y-108265904D01*
X157654063Y-108195709D01*
X157654065Y-108195703D01*
X157655955Y-108191140D01*
X157657107Y-108186340D01*
X157657110Y-108186332D01*
X157664795Y-108154320D01*
X157668468Y-108141881D01*
X157679414Y-108110800D01*
X157679415Y-108110794D01*
X157681056Y-108106136D01*
X157695676Y-108026481D01*
X157697087Y-108019814D01*
X157714823Y-107945938D01*
X157714824Y-107945935D01*
X157715978Y-107941126D01*
X157717965Y-107915881D01*
X157718949Y-107903377D01*
X157720631Y-107890518D01*
X157726577Y-107858118D01*
X157727472Y-107853243D01*
X157729452Y-107772274D01*
X157729801Y-107765478D01*
X157729996Y-107763008D01*
X157736151Y-107684800D01*
X157733181Y-107647055D01*
X157732831Y-107634093D01*
X157733636Y-107601158D01*
X157733636Y-107601156D01*
X157733757Y-107596201D01*
X157723045Y-107515918D01*
X157722326Y-107509140D01*
X157716366Y-107433404D01*
X157715978Y-107428474D01*
X157714824Y-107423669D01*
X157714822Y-107423654D01*
X157707138Y-107391650D01*
X157704763Y-107378898D01*
X157700407Y-107346246D01*
X157700406Y-107346241D01*
X157699752Y-107341340D01*
X157676615Y-107263727D01*
X157674846Y-107257148D01*
X157674469Y-107255579D01*
X157655955Y-107178460D01*
X157654059Y-107173882D01*
X157641467Y-107143481D01*
X157638966Y-107136440D01*
X159463555Y-107136440D01*
X159463579Y-107138924D01*
X159463579Y-107138926D01*
X159463962Y-107178460D01*
X159465421Y-107329171D01*
X159508101Y-107582722D01*
X159509673Y-107587406D01*
X159509674Y-107587409D01*
X159581566Y-107801590D01*
X159589919Y-107826476D01*
X159592209Y-107830864D01*
X159592209Y-107830865D01*
X159692527Y-108023124D01*
X159708861Y-108054429D01*
X159861998Y-108260969D01*
X160045561Y-108441010D01*
X160049600Y-108443885D01*
X160049601Y-108443886D01*
X160239062Y-108578754D01*
X160255027Y-108590119D01*
X160259463Y-108592325D01*
X160259464Y-108592326D01*
X160480808Y-108702420D01*
X160480812Y-108702422D01*
X160485242Y-108704625D01*
X160730534Y-108781707D01*
X160984864Y-108819468D01*
X161048651Y-108818850D01*
X161237020Y-108817027D01*
X161237021Y-108817027D01*
X161241971Y-108816979D01*
X161495522Y-108774299D01*
X161516192Y-108767361D01*
X161587137Y-108764646D01*
X161645383Y-108797716D01*
X163091780Y-110244113D01*
X163125806Y-110306425D01*
X163120741Y-110377240D01*
X163078194Y-110434076D01*
X163054436Y-110448090D01*
X163007183Y-110469376D01*
X163007180Y-110469377D01*
X163002322Y-110471566D01*
X162807559Y-110602688D01*
X162637673Y-110764751D01*
X162497522Y-110953121D01*
X162495106Y-110957872D01*
X162495104Y-110957876D01*
X162393531Y-111157656D01*
X162391113Y-111162412D01*
X162321489Y-111386640D01*
X162320788Y-111391929D01*
X162303692Y-111520916D01*
X162290639Y-111619393D01*
X162299448Y-111854016D01*
X162300543Y-111859234D01*
X162326654Y-111983676D01*
X162347662Y-112083801D01*
X162433902Y-112302177D01*
X162436671Y-112306740D01*
X162514007Y-112434185D01*
X162555704Y-112502900D01*
X162709585Y-112680232D01*
X162713717Y-112683620D01*
X162887016Y-112825717D01*
X162887022Y-112825721D01*
X162891144Y-112829101D01*
X162895780Y-112831740D01*
X162895783Y-112831742D01*
X162975220Y-112876960D01*
X163095190Y-112945251D01*
X163315889Y-113025361D01*
X163321138Y-113026310D01*
X163321141Y-113026311D01*
X163402215Y-113040971D01*
X163546930Y-113067140D01*
X163551069Y-113067335D01*
X163551076Y-113067336D01*
X163570040Y-113068230D01*
X163570049Y-113068230D01*
X163571529Y-113068300D01*
X163736550Y-113068300D01*
X163817899Y-113061397D01*
X163906237Y-113053902D01*
X163906241Y-113053901D01*
X163911548Y-113053451D01*
X163916703Y-113052113D01*
X163916709Y-113052112D01*
X164133635Y-112995809D01*
X164133634Y-112995809D01*
X164138806Y-112994467D01*
X164143672Y-112992275D01*
X164143675Y-112992274D01*
X164348017Y-112900224D01*
X164348020Y-112900223D01*
X164352878Y-112898034D01*
X164547641Y-112766912D01*
X164554251Y-112760607D01*
X164713670Y-112608528D01*
X164717527Y-112604849D01*
X164857678Y-112416479D01*
X164860685Y-112410566D01*
X164961669Y-112211944D01*
X164961669Y-112211943D01*
X164964087Y-112207188D01*
X165033711Y-111982960D01*
X165050802Y-111854016D01*
X165063861Y-111755490D01*
X165063861Y-111755487D01*
X165064561Y-111750207D01*
X165062943Y-111707098D01*
X165062823Y-111703900D01*
X192658768Y-111703900D01*
X192659105Y-111707146D01*
X192659105Y-111707150D01*
X192663573Y-111750207D01*
X192669742Y-111809666D01*
X192725718Y-111977446D01*
X192818790Y-112127848D01*
X192943965Y-112252805D01*
X192950195Y-112256645D01*
X192950196Y-112256646D01*
X193087358Y-112341194D01*
X193094530Y-112345615D01*
X193142952Y-112361676D01*
X193255875Y-112399131D01*
X193255880Y-112399132D01*
X193262407Y-112401297D01*
X193269126Y-112401985D01*
X193331498Y-112435803D01*
X193365708Y-112498013D01*
X193368668Y-112525163D01*
X193368668Y-117060861D01*
X193348666Y-117128982D01*
X193336305Y-117145171D01*
X193316960Y-117166656D01*
X193313658Y-117172375D01*
X193313656Y-117172378D01*
X193252693Y-117277969D01*
X193221473Y-117332044D01*
X193162458Y-117513672D01*
X193161768Y-117520233D01*
X193161768Y-117520235D01*
X193153120Y-117602514D01*
X193142496Y-117703600D01*
X193143186Y-117710165D01*
X193161267Y-117882193D01*
X193162458Y-117893528D01*
X193221473Y-118075156D01*
X193316960Y-118240544D01*
X193321378Y-118245451D01*
X193321379Y-118245452D01*
X193363471Y-118292200D01*
X193444747Y-118382466D01*
X193599248Y-118494718D01*
X193605276Y-118497402D01*
X193605278Y-118497403D01*
X193633572Y-118510000D01*
X193773712Y-118572394D01*
X193867112Y-118592247D01*
X193954056Y-118610728D01*
X193954061Y-118610728D01*
X193960513Y-118612100D01*
X194151487Y-118612100D01*
X194157939Y-118610728D01*
X194157944Y-118610728D01*
X194244888Y-118592247D01*
X194338288Y-118572394D01*
X194478428Y-118510000D01*
X194506722Y-118497403D01*
X194506724Y-118497402D01*
X194512752Y-118494718D01*
X194667253Y-118382466D01*
X194748529Y-118292200D01*
X194790621Y-118245452D01*
X194790622Y-118245451D01*
X194795040Y-118240544D01*
X194890527Y-118075156D01*
X194949542Y-117893528D01*
X194950734Y-117882193D01*
X194968814Y-117710165D01*
X194969504Y-117703600D01*
X194958880Y-117602514D01*
X194950232Y-117520235D01*
X194950232Y-117520233D01*
X194949542Y-117513672D01*
X194890527Y-117332044D01*
X194859307Y-117277969D01*
X194798344Y-117172378D01*
X194798342Y-117172375D01*
X194795040Y-117166656D01*
X194748231Y-117114669D01*
X194717514Y-117050661D01*
X194715868Y-117030359D01*
X194715868Y-112525180D01*
X194735870Y-112457059D01*
X194789526Y-112410566D01*
X194815274Y-112402019D01*
X194816578Y-112401737D01*
X194823434Y-112401026D01*
X194991214Y-112345050D01*
X195141616Y-112251978D01*
X195266573Y-112126803D01*
X195270414Y-112120572D01*
X195355543Y-111982468D01*
X195355544Y-111982466D01*
X195359383Y-111976238D01*
X195415065Y-111808361D01*
X195425768Y-111703900D01*
X195425768Y-110853100D01*
X195417045Y-110769029D01*
X195415506Y-110754192D01*
X195415505Y-110754188D01*
X195414794Y-110747334D01*
X195411911Y-110738691D01*
X195361136Y-110586502D01*
X195358818Y-110579554D01*
X195265746Y-110429152D01*
X195140571Y-110304195D01*
X195134340Y-110300354D01*
X194996236Y-110215225D01*
X194996234Y-110215224D01*
X194990006Y-110211385D01*
X194829522Y-110158155D01*
X194828657Y-110157868D01*
X194828655Y-110157868D01*
X194822129Y-110155703D01*
X194815293Y-110155003D01*
X194815290Y-110155002D01*
X194772237Y-110150591D01*
X194717668Y-110145000D01*
X193366868Y-110145000D01*
X193363622Y-110145337D01*
X193363618Y-110145337D01*
X193267960Y-110155262D01*
X193267956Y-110155263D01*
X193261102Y-110155974D01*
X193254566Y-110158155D01*
X193254564Y-110158155D01*
X193122462Y-110202228D01*
X193093322Y-110211950D01*
X192942920Y-110305022D01*
X192817963Y-110430197D01*
X192814123Y-110436427D01*
X192814122Y-110436428D01*
X192738204Y-110559590D01*
X192725153Y-110580762D01*
X192713018Y-110617347D01*
X192672771Y-110738691D01*
X192669471Y-110748639D01*
X192658768Y-110853100D01*
X192658768Y-111703900D01*
X165062823Y-111703900D01*
X165059850Y-111624723D01*
X165055752Y-111515584D01*
X165037958Y-111430778D01*
X165008635Y-111291026D01*
X165008634Y-111291023D01*
X165007538Y-111285799D01*
X164921298Y-111067423D01*
X164799496Y-110866700D01*
X164800206Y-110866269D01*
X164777762Y-110803715D01*
X164793721Y-110734535D01*
X164844547Y-110684965D01*
X164903544Y-110670300D01*
X165187262Y-110670300D01*
X165255383Y-110690302D01*
X165293869Y-110731592D01*
X165293985Y-110731505D01*
X165294790Y-110732580D01*
X165294793Y-110732584D01*
X165381339Y-110848061D01*
X165497895Y-110935415D01*
X165634284Y-110986545D01*
X165696466Y-110993300D01*
X166992734Y-110993300D01*
X167054916Y-110986545D01*
X167191305Y-110935415D01*
X167307861Y-110848061D01*
X167395215Y-110731505D01*
X167446345Y-110595116D01*
X167453100Y-110532934D01*
X167453100Y-109536666D01*
X167446345Y-109474484D01*
X167395215Y-109338095D01*
X167307861Y-109221539D01*
X167191305Y-109134185D01*
X167054916Y-109083055D01*
X166992734Y-109076300D01*
X165696466Y-109076300D01*
X165634284Y-109083055D01*
X165497895Y-109134185D01*
X165381339Y-109221539D01*
X165293985Y-109338095D01*
X165293701Y-109337882D01*
X165247520Y-109383957D01*
X165187262Y-109399300D01*
X164096623Y-109399300D01*
X164028502Y-109379298D01*
X164007528Y-109362395D01*
X162623326Y-107978193D01*
X162589300Y-107915881D01*
X162594365Y-107845066D01*
X162599606Y-107832985D01*
X162615222Y-107801590D01*
X162615228Y-107801575D01*
X162617425Y-107797158D01*
X162694507Y-107551866D01*
X162722813Y-107361216D01*
X162723025Y-107358155D01*
X162766637Y-106725771D01*
X162766726Y-106724554D01*
X162775763Y-106609730D01*
X162776151Y-106604800D01*
X162773294Y-106568500D01*
X162770819Y-106537047D01*
X162770437Y-106528382D01*
X162769827Y-106465380D01*
X162769827Y-106465379D01*
X162769779Y-106460429D01*
X162763459Y-106422886D01*
X162761331Y-106410241D01*
X162759971Y-106399212D01*
X162757228Y-106364357D01*
X162755978Y-106348474D01*
X162747964Y-106315092D01*
X162740113Y-106282389D01*
X162738380Y-106273892D01*
X162733455Y-106244636D01*
X162727099Y-106206878D01*
X162721795Y-106191075D01*
X162710906Y-106158637D01*
X162707837Y-106147954D01*
X162697109Y-106103267D01*
X162697109Y-106103266D01*
X162695955Y-106098460D01*
X162669941Y-106035656D01*
X162666907Y-106027553D01*
X162646857Y-105967818D01*
X162646855Y-105967813D01*
X162645281Y-105963124D01*
X162642992Y-105958737D01*
X162642989Y-105958730D01*
X162621741Y-105918009D01*
X162617039Y-105907939D01*
X162599457Y-105865491D01*
X162599453Y-105865484D01*
X162597560Y-105860913D01*
X162562044Y-105802957D01*
X162557780Y-105795428D01*
X162528629Y-105739560D01*
X162526339Y-105735171D01*
X162523391Y-105731194D01*
X162523386Y-105731187D01*
X162496024Y-105694283D01*
X162489814Y-105685087D01*
X162463216Y-105641684D01*
X162419078Y-105590005D01*
X162413690Y-105583238D01*
X162373202Y-105528630D01*
X162336860Y-105492984D01*
X162329279Y-105484863D01*
X162299439Y-105449925D01*
X162296231Y-105446169D01*
X162292475Y-105442961D01*
X162292470Y-105442956D01*
X162244561Y-105402038D01*
X162238163Y-105396181D01*
X162193173Y-105352054D01*
X162193165Y-105352047D01*
X162189639Y-105348589D01*
X162158096Y-105326135D01*
X162148172Y-105319071D01*
X162139411Y-105312233D01*
X162104483Y-105282401D01*
X162104480Y-105282399D01*
X162100716Y-105279184D01*
X162042775Y-105243678D01*
X162035568Y-105238914D01*
X161980173Y-105199480D01*
X161934593Y-105176810D01*
X161924871Y-105171426D01*
X161885710Y-105147428D01*
X161881487Y-105144840D01*
X161876917Y-105142947D01*
X161876915Y-105142946D01*
X161818701Y-105118833D01*
X161810807Y-105115240D01*
X161754391Y-105087180D01*
X161754392Y-105087180D01*
X161749958Y-105084975D01*
X161701399Y-105069715D01*
X161690960Y-105065921D01*
X161643940Y-105046445D01*
X161581676Y-105031497D01*
X161577857Y-105030580D01*
X161569496Y-105028265D01*
X161509392Y-105009377D01*
X161509390Y-105009377D01*
X161504666Y-105007892D01*
X161454321Y-105000417D01*
X161443410Y-104998302D01*
X161398737Y-104987577D01*
X161393926Y-104986422D01*
X161372884Y-104984766D01*
X161326175Y-104981090D01*
X161317557Y-104980112D01*
X161267100Y-104972621D01*
X161250336Y-104970132D01*
X161245381Y-104970180D01*
X161199452Y-104970625D01*
X161188344Y-104970243D01*
X161142530Y-104966637D01*
X161137600Y-104966249D01*
X161132670Y-104966637D01*
X161132669Y-104966637D01*
X161069846Y-104971581D01*
X161061181Y-104971963D01*
X160998180Y-104972573D01*
X160998179Y-104972573D01*
X160993229Y-104972621D01*
X160943039Y-104981069D01*
X160932011Y-104982429D01*
X160881274Y-104986422D01*
X160876461Y-104987578D01*
X160876458Y-104987578D01*
X160815193Y-105002286D01*
X160806695Y-105004019D01*
X160744564Y-105014477D01*
X160744557Y-105014479D01*
X160739678Y-105015300D01*
X160734982Y-105016876D01*
X160734983Y-105016876D01*
X160691423Y-105031497D01*
X160680747Y-105034564D01*
X160631260Y-105046445D01*
X160626694Y-105048336D01*
X160626692Y-105048337D01*
X160568480Y-105072449D01*
X160560356Y-105075491D01*
X160536525Y-105083490D01*
X160495924Y-105097118D01*
X160461979Y-105114830D01*
X160450796Y-105120665D01*
X160440727Y-105125366D01*
X160393713Y-105144840D01*
X160389494Y-105147425D01*
X160389483Y-105147431D01*
X160335768Y-105180348D01*
X160328220Y-105184624D01*
X160272363Y-105213769D01*
X160272360Y-105213771D01*
X160267971Y-105216061D01*
X160263991Y-105219012D01*
X160227090Y-105246372D01*
X160217880Y-105252591D01*
X160174484Y-105279184D01*
X160122793Y-105323332D01*
X160116045Y-105328705D01*
X160061431Y-105369198D01*
X160057975Y-105372722D01*
X160057970Y-105372726D01*
X160025792Y-105405534D01*
X160017670Y-105413115D01*
X159978969Y-105446169D01*
X159975761Y-105449925D01*
X159975756Y-105449930D01*
X159934831Y-105497847D01*
X159928974Y-105504245D01*
X159884855Y-105549227D01*
X159884848Y-105549235D01*
X159881390Y-105552761D01*
X159878525Y-105556786D01*
X159878524Y-105556787D01*
X159851877Y-105594221D01*
X159845039Y-105602982D01*
X159811984Y-105641684D01*
X159779751Y-105694283D01*
X159776480Y-105699621D01*
X159771697Y-105706855D01*
X159748416Y-105739560D01*
X159732281Y-105762227D01*
X159730079Y-105766654D01*
X159730076Y-105766659D01*
X159709614Y-105807798D01*
X159704242Y-105817502D01*
X159677640Y-105860913D01*
X159675749Y-105865478D01*
X159675746Y-105865484D01*
X159651631Y-105923703D01*
X159648047Y-105931579D01*
X159617775Y-105992441D01*
X159616293Y-105997157D01*
X159616289Y-105997167D01*
X159602514Y-106041001D01*
X159598719Y-106051445D01*
X159592677Y-106066033D01*
X159579245Y-106098460D01*
X159563374Y-106164565D01*
X159561075Y-106172873D01*
X159540693Y-106237733D01*
X159539966Y-106242631D01*
X159533218Y-106288076D01*
X159531103Y-106298982D01*
X159520379Y-106343654D01*
X159519222Y-106348474D01*
X159518834Y-106353405D01*
X159518833Y-106353411D01*
X159513889Y-106416232D01*
X159512913Y-106424837D01*
X159512751Y-106425931D01*
X159512387Y-106428384D01*
X159509423Y-106471355D01*
X159508565Y-106483797D01*
X159508476Y-106485008D01*
X159499049Y-106604800D01*
X159499437Y-106609730D01*
X159499437Y-106611820D01*
X159499138Y-106620489D01*
X159466726Y-107090467D01*
X159463555Y-107136440D01*
X157638966Y-107136440D01*
X157637127Y-107131261D01*
X157626299Y-107094938D01*
X157591305Y-107021899D01*
X157588529Y-107015679D01*
X157559455Y-106945487D01*
X157559453Y-106945483D01*
X157557560Y-106940913D01*
X157554974Y-106936694D01*
X157554971Y-106936687D01*
X157537776Y-106908627D01*
X157531578Y-106897236D01*
X157517339Y-106867518D01*
X157515203Y-106863059D01*
X157469217Y-106796398D01*
X157465499Y-106790685D01*
X157464744Y-106789453D01*
X157423216Y-106721684D01*
X157398630Y-106692897D01*
X157390727Y-106682617D01*
X157372009Y-106655483D01*
X157372002Y-106655475D01*
X157369201Y-106651414D01*
X157313354Y-106592768D01*
X157308791Y-106587709D01*
X157259449Y-106529936D01*
X157259443Y-106529930D01*
X157256231Y-106526169D01*
X157227431Y-106501572D01*
X157218020Y-106492656D01*
X157210233Y-106484478D01*
X157191889Y-106465215D01*
X157187957Y-106462209D01*
X157187954Y-106462206D01*
X157127547Y-106416021D01*
X157122274Y-106411759D01*
X157060716Y-106359184D01*
X157028424Y-106339395D01*
X157017742Y-106332068D01*
X156987631Y-106309046D01*
X156916407Y-106270535D01*
X156910513Y-106267139D01*
X156845707Y-106227426D01*
X156841487Y-106224840D01*
X156836917Y-106222947D01*
X156836909Y-106222943D01*
X156806491Y-106210344D01*
X156794789Y-106204775D01*
X156761458Y-106186753D01*
X156685082Y-106159856D01*
X156678723Y-106157421D01*
X156608513Y-106128339D01*
X156608511Y-106128338D01*
X156603940Y-106126445D01*
X156599129Y-106125290D01*
X156599126Y-106125289D01*
X156578424Y-106120319D01*
X156567111Y-106117603D01*
X156554673Y-106113930D01*
X156523612Y-106102991D01*
X156523604Y-106102989D01*
X156518939Y-106101346D01*
X156439297Y-106086728D01*
X156432653Y-106085322D01*
X156380310Y-106072756D01*
X156358738Y-106067577D01*
X156358735Y-106067577D01*
X156353926Y-106066422D01*
X156333213Y-106064792D01*
X156316163Y-106063450D01*
X156303303Y-106061768D01*
X156270918Y-106055824D01*
X156270913Y-106055823D01*
X156266045Y-106054930D01*
X156185110Y-106052951D01*
X156178329Y-106052603D01*
X156097600Y-106046249D01*
X156092670Y-106046637D01*
X156059838Y-106049221D01*
X156046872Y-106049571D01*
X156013960Y-106048766D01*
X156013957Y-106048766D01*
X156009003Y-106048645D01*
X155928749Y-106059353D01*
X155921999Y-106060069D01*
X155888302Y-106062721D01*
X155846211Y-106066033D01*
X155846205Y-106066034D01*
X155841274Y-106066422D01*
X155836462Y-106067577D01*
X155836457Y-106067578D01*
X155804431Y-106075267D01*
X155791685Y-106077641D01*
X155754143Y-106082650D01*
X155676573Y-106105773D01*
X155670011Y-106107538D01*
X155591260Y-106126445D01*
X155586694Y-106128336D01*
X155586692Y-106128337D01*
X155556253Y-106140945D01*
X155544030Y-106145285D01*
X155535077Y-106147954D01*
X155507740Y-106156103D01*
X155490145Y-106164533D01*
X155434745Y-106191075D01*
X155428523Y-106193851D01*
X155358291Y-106222943D01*
X155358284Y-106222947D01*
X155353713Y-106224840D01*
X155321397Y-106244643D01*
X155310017Y-106250834D01*
X155280324Y-106265060D01*
X155280317Y-106265064D01*
X155275861Y-106267199D01*
X155266159Y-106273892D01*
X155209252Y-106313149D01*
X155203540Y-106316865D01*
X155138707Y-106356595D01*
X155138697Y-106356602D01*
X155134484Y-106359184D01*
X155113271Y-106377302D01*
X155105666Y-106383797D01*
X155095389Y-106391698D01*
X155064217Y-106413201D01*
X155009597Y-106465215D01*
X155005620Y-106469002D01*
X155000560Y-106473566D01*
X154938969Y-106526169D01*
X154935761Y-106529925D01*
X154935756Y-106529930D01*
X154869399Y-106607624D01*
X154867378Y-106609934D01*
X153528913Y-108101656D01*
X153527416Y-108103614D01*
X153467874Y-108181491D01*
X153411846Y-108254771D01*
X153289553Y-108480944D01*
X153287909Y-108485611D01*
X153287909Y-108485612D01*
X153205788Y-108718799D01*
X153205786Y-108718805D01*
X153204146Y-108723463D01*
X153203254Y-108728324D01*
X153203253Y-108728327D01*
X153170442Y-108907098D01*
X153157730Y-108976357D01*
X153156916Y-109009666D01*
X153151867Y-109216158D01*
X153151445Y-109233399D01*
X153185450Y-109488260D01*
X153258903Y-109734662D01*
X153369999Y-109966541D01*
X153372814Y-109970622D01*
X153372816Y-109970625D01*
X153469761Y-110111157D01*
X153491979Y-110178588D01*
X153474213Y-110247326D01*
X153422105Y-110295547D01*
X153376700Y-110308254D01*
X153339145Y-110311440D01*
X153288963Y-110315698D01*
X153288959Y-110315699D01*
X153283652Y-110316149D01*
X153278497Y-110317487D01*
X153278491Y-110317488D01*
X153100777Y-110363614D01*
X153056394Y-110375133D01*
X153051528Y-110377325D01*
X153051525Y-110377326D01*
X152847183Y-110469376D01*
X152847180Y-110469377D01*
X152842322Y-110471566D01*
X152647559Y-110602688D01*
X152477673Y-110764751D01*
X152337522Y-110953121D01*
X152335106Y-110957872D01*
X152335104Y-110957876D01*
X152233531Y-111157656D01*
X152231113Y-111162412D01*
X152161489Y-111386640D01*
X152160788Y-111391929D01*
X152143692Y-111520916D01*
X152130639Y-111619393D01*
X152139448Y-111854016D01*
X152140543Y-111859234D01*
X152166654Y-111983676D01*
X152187662Y-112083801D01*
X152273902Y-112302177D01*
X152276671Y-112306740D01*
X152354007Y-112434185D01*
X152395704Y-112502900D01*
X152549585Y-112680232D01*
X152553717Y-112683620D01*
X152727016Y-112825717D01*
X152727022Y-112825721D01*
X152731144Y-112829101D01*
X152735780Y-112831740D01*
X152735783Y-112831742D01*
X152815220Y-112876960D01*
X152935190Y-112945251D01*
X153155889Y-113025361D01*
X153161138Y-113026310D01*
X153161141Y-113026311D01*
X153242215Y-113040971D01*
X153386930Y-113067140D01*
X153391069Y-113067335D01*
X153391076Y-113067336D01*
X153410040Y-113068230D01*
X153410049Y-113068230D01*
X153411529Y-113068300D01*
X153576550Y-113068300D01*
X153657899Y-113061397D01*
X153746237Y-113053902D01*
X153746241Y-113053901D01*
X153751548Y-113053451D01*
X153756703Y-113052113D01*
X153756709Y-113052112D01*
X153973644Y-112995807D01*
X153973646Y-112995806D01*
X153978806Y-112994467D01*
X153983670Y-112992276D01*
X153984246Y-112992073D01*
X154055143Y-112988311D01*
X154116819Y-113023476D01*
X154149692Y-113086403D01*
X154152100Y-113110918D01*
X154152100Y-120542780D01*
X154151570Y-120554014D01*
X154149892Y-120561519D01*
X154150141Y-120569438D01*
X154152038Y-120629812D01*
X154152100Y-120633769D01*
X154152100Y-120661783D01*
X154152596Y-120665708D01*
X154152596Y-120665709D01*
X154152608Y-120665804D01*
X154153541Y-120677649D01*
X154154935Y-120722005D01*
X154157147Y-120729617D01*
X154160613Y-120741548D01*
X154164623Y-120760912D01*
X154166086Y-120772490D01*
X154167173Y-120781099D01*
X154170089Y-120788463D01*
X154170090Y-120788468D01*
X154183507Y-120822356D01*
X154187352Y-120833585D01*
X154199731Y-120876193D01*
X154203769Y-120883020D01*
X154203770Y-120883023D01*
X154210088Y-120893706D01*
X154218788Y-120911464D01*
X154223361Y-120923015D01*
X154223365Y-120923021D01*
X154226281Y-120930388D01*
X154251515Y-120965119D01*
X154252364Y-120966288D01*
X154258881Y-120976210D01*
X154277426Y-121007568D01*
X154277429Y-121007572D01*
X154281466Y-121014398D01*
X154295850Y-121028782D01*
X154308691Y-121043816D01*
X154320658Y-121060287D01*
X154326766Y-121065340D01*
X154354855Y-121088577D01*
X154363635Y-121096567D01*
X156622945Y-123355877D01*
X156630522Y-123364203D01*
X156634647Y-123370703D01*
X156640425Y-123376129D01*
X156640426Y-123376130D01*
X156684481Y-123417500D01*
X156687323Y-123420255D01*
X156707106Y-123440038D01*
X156710314Y-123442526D01*
X156719343Y-123450237D01*
X156751694Y-123480617D01*
X156758643Y-123484437D01*
X156769529Y-123490422D01*
X156786053Y-123501276D01*
X156802133Y-123513749D01*
X156809410Y-123516898D01*
X156842850Y-123531369D01*
X156853511Y-123536592D01*
X156885447Y-123554149D01*
X156885452Y-123554151D01*
X156892397Y-123557969D01*
X156900071Y-123559939D01*
X156900078Y-123559942D01*
X156912113Y-123563032D01*
X156930818Y-123569436D01*
X156939059Y-123573002D01*
X156949492Y-123577517D01*
X156971811Y-123581052D01*
X156993327Y-123584460D01*
X157004940Y-123586865D01*
X157047918Y-123597900D01*
X157068265Y-123597900D01*
X157087977Y-123599451D01*
X157108079Y-123602635D01*
X157115971Y-123601889D01*
X157152256Y-123598459D01*
X157164114Y-123597900D01*
X170329178Y-123597900D01*
X170397299Y-123617902D01*
X170418273Y-123634805D01*
X172711195Y-125927728D01*
X172745221Y-125990040D01*
X172748100Y-126016823D01*
X172748100Y-128430821D01*
X172747570Y-128442060D01*
X172745891Y-128449572D01*
X172746140Y-128457497D01*
X172746140Y-128457498D01*
X172748038Y-128517883D01*
X172748100Y-128521841D01*
X172748100Y-128549836D01*
X172748597Y-128553770D01*
X172748597Y-128553772D01*
X172748608Y-128553859D01*
X172749540Y-128565693D01*
X172750935Y-128610058D01*
X172753147Y-128617671D01*
X172753147Y-128617672D01*
X172756613Y-128629601D01*
X172760623Y-128648965D01*
X172763173Y-128669152D01*
X172766089Y-128676516D01*
X172766090Y-128676521D01*
X172779507Y-128710409D01*
X172783352Y-128721638D01*
X172795731Y-128764246D01*
X172799768Y-128771072D01*
X172806090Y-128781762D01*
X172814787Y-128799512D01*
X172822281Y-128818441D01*
X172826942Y-128824857D01*
X172826943Y-128824858D01*
X172848359Y-128854334D01*
X172854878Y-128864258D01*
X172873430Y-128895629D01*
X172873434Y-128895634D01*
X172877466Y-128902452D01*
X172891853Y-128916839D01*
X172904694Y-128931873D01*
X172916658Y-128948340D01*
X172944719Y-128971554D01*
X172950850Y-128976626D01*
X172959630Y-128984616D01*
X174338098Y-130363083D01*
X174345674Y-130371409D01*
X174349795Y-130377903D01*
X174397936Y-130423110D01*
X174399613Y-130424685D01*
X174402455Y-130427440D01*
X174422254Y-130447239D01*
X174425385Y-130449668D01*
X174425390Y-130449672D01*
X174425476Y-130449739D01*
X174434501Y-130457447D01*
X174466842Y-130487817D01*
X174473787Y-130491635D01*
X174473791Y-130491638D01*
X174484682Y-130497626D01*
X174501203Y-130508478D01*
X174517282Y-130520950D01*
X174558010Y-130538574D01*
X174568667Y-130543796D01*
X174600594Y-130561348D01*
X174600597Y-130561349D01*
X174607545Y-130565169D01*
X174627263Y-130570232D01*
X174645959Y-130576633D01*
X174664641Y-130584717D01*
X174672465Y-130585956D01*
X174672471Y-130585958D01*
X174708468Y-130591660D01*
X174720088Y-130594066D01*
X174755385Y-130603128D01*
X174763066Y-130605100D01*
X174783414Y-130605100D01*
X174803126Y-130606651D01*
X174823228Y-130609835D01*
X174867403Y-130605659D01*
X174879262Y-130605100D01*
X186263726Y-130605100D01*
X186331847Y-130625102D01*
X186352821Y-130642005D01*
X187109758Y-131398943D01*
X187861406Y-132150591D01*
X187868982Y-132158917D01*
X187873103Y-132165411D01*
X187878878Y-132170834D01*
X187922921Y-132212193D01*
X187925763Y-132214948D01*
X187945562Y-132234747D01*
X187948687Y-132237171D01*
X187948696Y-132237179D01*
X187948782Y-132237245D01*
X187957807Y-132244953D01*
X187990150Y-132275325D01*
X187997094Y-132279143D01*
X187997096Y-132279144D01*
X188007985Y-132285130D01*
X188024503Y-132295981D01*
X188040589Y-132308458D01*
X188081322Y-132326084D01*
X188091970Y-132331301D01*
X188130853Y-132352677D01*
X188138528Y-132354648D01*
X188138534Y-132354650D01*
X188150567Y-132357739D01*
X188169269Y-132364142D01*
X188187948Y-132372225D01*
X188221784Y-132377584D01*
X188231783Y-132379168D01*
X188243396Y-132381573D01*
X188286374Y-132392608D01*
X188306721Y-132392608D01*
X188326433Y-132394159D01*
X188346535Y-132397343D01*
X188354427Y-132396597D01*
X188390712Y-132393167D01*
X188402570Y-132392608D01*
X192895735Y-132392608D01*
X192963856Y-132412610D01*
X193010349Y-132466266D01*
X193021735Y-132518608D01*
X193021735Y-132880242D01*
X193022104Y-132883639D01*
X193028490Y-132942424D01*
X193026061Y-132942688D01*
X193026061Y-132971528D01*
X193028490Y-132971792D01*
X193021735Y-133033974D01*
X193021735Y-133680242D01*
X193022104Y-133683639D01*
X193028490Y-133742424D01*
X193026061Y-133742688D01*
X193026061Y-133771528D01*
X193028490Y-133771792D01*
X193021735Y-133833974D01*
X193021735Y-134480242D01*
X193022104Y-134483639D01*
X193028490Y-134542424D01*
X193026351Y-134542656D01*
X193026401Y-134571620D01*
X193028983Y-134571901D01*
X193022604Y-134630622D01*
X193022235Y-134637436D01*
X193022235Y-134684993D01*
X193026710Y-134700232D01*
X193028100Y-134701437D01*
X193049018Y-134705987D01*
X193048753Y-134707205D01*
X193102922Y-134723110D01*
X193135627Y-134753543D01*
X193166974Y-134795369D01*
X193174154Y-134800750D01*
X193248250Y-134856282D01*
X193290765Y-134913141D01*
X193295791Y-134983960D01*
X193261731Y-135046253D01*
X193248250Y-135057934D01*
X193177489Y-135110966D01*
X193144656Y-135128003D01*
X193144776Y-135128293D01*
X193003186Y-135186932D01*
X192872512Y-135267000D01*
X192868747Y-135270216D01*
X192868742Y-135270219D01*
X192819692Y-135312109D01*
X192808628Y-135321558D01*
X192804678Y-135324931D01*
X192798526Y-135329860D01*
X192764757Y-135355213D01*
X192754604Y-135365155D01*
X192749400Y-135371792D01*
X192733877Y-135391587D01*
X192723822Y-135402932D01*
X192574151Y-135552604D01*
X192511839Y-135586629D01*
X192485056Y-135589509D01*
X192119113Y-135589509D01*
X191637789Y-135589508D01*
X191569668Y-135569506D01*
X191540314Y-135542923D01*
X191537738Y-135538760D01*
X191412563Y-135413803D01*
X191408025Y-135411006D01*
X191367436Y-135353755D01*
X191364206Y-135282832D01*
X191399832Y-135221421D01*
X191408328Y-135214046D01*
X191418467Y-135206010D01*
X191532999Y-135091279D01*
X191542011Y-135079868D01*
X191627076Y-134941865D01*
X191633223Y-134928684D01*
X191684398Y-134774398D01*
X191687265Y-134761022D01*
X191696932Y-134666670D01*
X191697260Y-134660254D01*
X191697260Y-134635223D01*
X191692785Y-134619984D01*
X191691395Y-134618779D01*
X191683712Y-134617108D01*
X189249376Y-134617108D01*
X189234137Y-134621583D01*
X189232932Y-134622973D01*
X189231261Y-134630656D01*
X189231261Y-134660203D01*
X189231598Y-134666722D01*
X189241517Y-134762314D01*
X189244409Y-134775708D01*
X189295848Y-134929892D01*
X189302021Y-134943070D01*
X189387323Y-135080915D01*
X189396359Y-135092316D01*
X189511088Y-135206846D01*
X189520022Y-135213902D01*
X189561083Y-135271820D01*
X189564313Y-135342743D01*
X189528686Y-135404154D01*
X189520853Y-135410954D01*
X189514912Y-135414630D01*
X189389955Y-135539805D01*
X189388253Y-135542567D01*
X189331703Y-135582662D01*
X189290736Y-135589508D01*
X188757601Y-135589508D01*
X188749030Y-135589216D01*
X188694380Y-135585490D01*
X188634657Y-135595914D01*
X188628167Y-135596871D01*
X188568036Y-135604148D01*
X188560927Y-135606834D01*
X188555130Y-135608258D01*
X188546975Y-135610488D01*
X188541251Y-135612216D01*
X188533770Y-135613522D01*
X188526815Y-135616575D01*
X188478302Y-135637871D01*
X188472193Y-135640364D01*
X188422629Y-135659092D01*
X188422627Y-135659093D01*
X188415524Y-135661777D01*
X188409265Y-135666078D01*
X188403998Y-135668832D01*
X188396573Y-135672965D01*
X188391441Y-135676000D01*
X188384484Y-135679054D01*
X188378458Y-135683678D01*
X188378456Y-135683679D01*
X188359032Y-135698584D01*
X188347208Y-135707657D01*
X188336426Y-135715930D01*
X188331088Y-135719808D01*
X188287423Y-135749817D01*
X188287416Y-135749823D01*
X188281161Y-135754122D01*
X188276111Y-135759790D01*
X188276110Y-135759791D01*
X188241873Y-135798218D01*
X188236891Y-135803494D01*
X188143194Y-135897191D01*
X188080882Y-135931217D01*
X188067268Y-135933406D01*
X188061614Y-135934000D01*
X188055013Y-135934000D01*
X188048561Y-135935372D01*
X188048556Y-135935372D01*
X187961612Y-135953853D01*
X187868212Y-135973706D01*
X187862182Y-135976391D01*
X187862181Y-135976391D01*
X187699778Y-136048697D01*
X187699776Y-136048698D01*
X187693748Y-136051382D01*
X187539247Y-136163634D01*
X187534826Y-136168544D01*
X187534825Y-136168545D01*
X187456404Y-136255641D01*
X187411460Y-136305556D01*
X187315973Y-136470944D01*
X187308988Y-136492441D01*
X187261496Y-136638607D01*
X187256958Y-136652572D01*
X187256268Y-136659135D01*
X187256268Y-136659136D01*
X187246253Y-136754422D01*
X187219240Y-136820079D01*
X187210039Y-136830346D01*
X187122284Y-136918102D01*
X187116018Y-136923955D01*
X187074741Y-136959963D01*
X187039892Y-137009548D01*
X187035981Y-137014814D01*
X186998595Y-137062494D01*
X186995469Y-137069417D01*
X186992352Y-137074564D01*
X186988207Y-137081832D01*
X186985364Y-137087134D01*
X186980994Y-137093352D01*
X186972065Y-137116254D01*
X186958987Y-137149797D01*
X186956431Y-137155877D01*
X186935106Y-137203108D01*
X186931503Y-137211087D01*
X186930119Y-137218557D01*
X186928332Y-137224259D01*
X186926025Y-137232356D01*
X186924531Y-137238173D01*
X186921771Y-137245252D01*
X186920780Y-137252781D01*
X186920779Y-137252784D01*
X186913863Y-137305318D01*
X186912833Y-137311820D01*
X186901792Y-137371393D01*
X186902229Y-137378973D01*
X186902229Y-137378974D01*
X186905191Y-137430343D01*
X186905400Y-137437596D01*
X186905400Y-140151291D01*
X186905108Y-140159862D01*
X186901382Y-140214512D01*
X186911806Y-140274235D01*
X186912763Y-140280725D01*
X186920040Y-140340856D01*
X186922726Y-140347965D01*
X186924150Y-140353762D01*
X186926380Y-140361917D01*
X186928108Y-140367641D01*
X186929414Y-140375122D01*
X186932467Y-140382077D01*
X186953763Y-140430590D01*
X186956254Y-140436694D01*
X186977669Y-140493368D01*
X186981970Y-140499627D01*
X186984724Y-140504894D01*
X186988857Y-140512319D01*
X186991892Y-140517451D01*
X186994946Y-140524408D01*
X186999570Y-140530434D01*
X186999571Y-140530436D01*
X187031822Y-140572466D01*
X187035700Y-140577804D01*
X187065709Y-140621469D01*
X187065715Y-140621476D01*
X187070014Y-140627731D01*
X187075682Y-140632781D01*
X187075683Y-140632782D01*
X187114110Y-140667019D01*
X187119386Y-140672001D01*
X188611016Y-142163630D01*
X189995791Y-143548405D01*
X190029817Y-143610717D01*
X190024752Y-143681532D01*
X189982205Y-143738368D01*
X189915685Y-143763179D01*
X189906696Y-143763500D01*
X151941367Y-143763500D01*
X151921982Y-143762000D01*
X151907149Y-143759690D01*
X151907145Y-143759690D01*
X151898276Y-143758309D01*
X151877817Y-143760984D01*
X151855992Y-143761928D01*
X151499063Y-143746344D01*
X151488114Y-143745386D01*
X151103621Y-143694767D01*
X151092795Y-143692858D01*
X150714178Y-143608920D01*
X150703561Y-143606075D01*
X150520654Y-143548405D01*
X150333698Y-143489458D01*
X150323385Y-143485705D01*
X149965068Y-143337285D01*
X149955124Y-143332647D01*
X149611132Y-143153576D01*
X149601613Y-143148081D01*
X149274532Y-142939708D01*
X149265528Y-142933403D01*
X148957862Y-142697322D01*
X148949442Y-142690257D01*
X148764301Y-142520607D01*
X148663513Y-142428252D01*
X148655744Y-142420483D01*
X148651622Y-142415984D01*
X148393743Y-142134558D01*
X148386678Y-142126138D01*
X148150597Y-141818472D01*
X148144292Y-141809468D01*
X147935919Y-141482387D01*
X147930423Y-141472867D01*
X147751357Y-141128885D01*
X147746711Y-141118923D01*
X147654636Y-140896633D01*
X147598295Y-140760615D01*
X147594539Y-140750294D01*
X147569854Y-140672001D01*
X147528992Y-140542404D01*
X147477925Y-140380439D01*
X147475080Y-140369822D01*
X147391142Y-139991205D01*
X147389233Y-139980379D01*
X147338614Y-139595886D01*
X147337656Y-139584936D01*
X147335635Y-139538648D01*
X147322561Y-139239206D01*
X147324188Y-139212805D01*
X147324769Y-139209352D01*
X147324770Y-139209345D01*
X147325576Y-139204552D01*
X147325729Y-139192000D01*
X147321759Y-139164276D01*
X147320486Y-139146456D01*
X147320445Y-139007600D01*
X147318968Y-134090993D01*
X189231260Y-134090993D01*
X189235735Y-134106232D01*
X189237125Y-134107437D01*
X189244808Y-134109108D01*
X190192145Y-134109108D01*
X190207384Y-134104633D01*
X190208589Y-134103243D01*
X190210260Y-134095560D01*
X190210260Y-134090993D01*
X190718260Y-134090993D01*
X190722735Y-134106232D01*
X190724125Y-134107437D01*
X190731808Y-134109108D01*
X191679144Y-134109108D01*
X191694383Y-134104633D01*
X191695588Y-134103243D01*
X191697259Y-134095560D01*
X191697259Y-134066013D01*
X191696922Y-134059494D01*
X191687003Y-133963902D01*
X191684111Y-133950508D01*
X191632672Y-133796324D01*
X191626499Y-133783146D01*
X191541197Y-133645301D01*
X191532161Y-133633900D01*
X191417431Y-133519369D01*
X191406020Y-133510357D01*
X191268017Y-133425292D01*
X191254836Y-133419145D01*
X191100550Y-133367970D01*
X191087174Y-133365103D01*
X190992822Y-133355436D01*
X190986405Y-133355108D01*
X190736375Y-133355108D01*
X190721136Y-133359583D01*
X190719931Y-133360973D01*
X190718260Y-133368656D01*
X190718260Y-134090993D01*
X190210260Y-134090993D01*
X190210260Y-133373224D01*
X190205785Y-133357985D01*
X190204395Y-133356780D01*
X190196712Y-133355109D01*
X189942165Y-133355109D01*
X189935646Y-133355446D01*
X189840054Y-133365365D01*
X189826660Y-133368257D01*
X189672476Y-133419696D01*
X189659298Y-133425869D01*
X189521453Y-133511171D01*
X189510052Y-133520207D01*
X189395521Y-133634937D01*
X189386509Y-133646348D01*
X189301444Y-133784351D01*
X189295297Y-133797532D01*
X189244122Y-133951818D01*
X189241255Y-133965194D01*
X189231588Y-134059546D01*
X189231260Y-134065963D01*
X189231260Y-134090993D01*
X147318968Y-134090993D01*
X147310621Y-106299000D01*
X147309931Y-104002094D01*
X193355769Y-104002094D01*
X193356106Y-104008613D01*
X193366025Y-104104205D01*
X193368917Y-104117599D01*
X193420356Y-104271783D01*
X193426529Y-104284961D01*
X193511831Y-104422806D01*
X193520867Y-104434207D01*
X193635597Y-104548738D01*
X193647008Y-104557750D01*
X193785011Y-104642815D01*
X193798192Y-104648962D01*
X193952478Y-104700137D01*
X193965854Y-104703004D01*
X194060206Y-104712671D01*
X194066622Y-104712999D01*
X194104153Y-104712999D01*
X194119392Y-104708524D01*
X194120597Y-104707134D01*
X194122268Y-104699451D01*
X194122268Y-103777114D01*
X194117793Y-103761875D01*
X194116403Y-103760670D01*
X194108720Y-103758999D01*
X193373884Y-103758999D01*
X193358645Y-103763474D01*
X193357440Y-103764864D01*
X193355769Y-103772547D01*
X193355769Y-104002094D01*
X147309931Y-104002094D01*
X147309700Y-103232884D01*
X193355768Y-103232884D01*
X193360243Y-103248123D01*
X193361633Y-103249328D01*
X193369316Y-103250999D01*
X194104153Y-103250999D01*
X194119392Y-103246524D01*
X194120597Y-103245134D01*
X194122268Y-103237451D01*
X194122268Y-102315115D01*
X194117793Y-102299876D01*
X194116403Y-102298671D01*
X194108720Y-102297000D01*
X194066673Y-102297000D01*
X194060154Y-102297337D01*
X193964562Y-102307256D01*
X193951168Y-102310148D01*
X193796984Y-102361587D01*
X193783806Y-102367760D01*
X193645961Y-102453062D01*
X193634560Y-102462098D01*
X193520029Y-102576828D01*
X193511017Y-102588239D01*
X193425952Y-102726242D01*
X193419805Y-102739423D01*
X193368630Y-102893709D01*
X193365763Y-102907085D01*
X193356096Y-103001437D01*
X193355768Y-103007854D01*
X193355768Y-103232884D01*
X147309700Y-103232884D01*
X147308847Y-100394035D01*
X147310347Y-100374613D01*
X147312642Y-100359876D01*
X147312642Y-100359872D01*
X147314023Y-100351003D01*
X147311603Y-100332498D01*
X147311188Y-100321657D01*
X192119768Y-100321657D01*
X192120069Y-100327805D01*
X192133580Y-100465603D01*
X192135963Y-100477638D01*
X192189535Y-100655076D01*
X192194209Y-100666416D01*
X192281228Y-100830077D01*
X192288017Y-100840294D01*
X192405165Y-100983933D01*
X192413809Y-100992637D01*
X192556624Y-101110784D01*
X192566795Y-101117644D01*
X192729844Y-101205804D01*
X192741149Y-101210556D01*
X192856460Y-101246250D01*
X192870563Y-101246456D01*
X192873768Y-101239701D01*
X192873768Y-99997115D01*
X192869293Y-99981876D01*
X192867903Y-99980671D01*
X192860220Y-99979000D01*
X192137883Y-99979000D01*
X192122644Y-99983475D01*
X192121439Y-99984865D01*
X192119768Y-99992548D01*
X192119768Y-100321657D01*
X147311188Y-100321657D01*
X147310719Y-100309431D01*
X147325286Y-100037023D01*
X147326721Y-100023641D01*
X147344746Y-99912150D01*
X147374829Y-99726086D01*
X147377683Y-99712936D01*
X147392776Y-99657794D01*
X147448859Y-99452885D01*
X192119768Y-99452885D01*
X192124243Y-99468124D01*
X192125633Y-99469329D01*
X192133316Y-99471000D01*
X192855653Y-99471000D01*
X192870892Y-99466525D01*
X192872097Y-99465135D01*
X192873768Y-99457452D01*
X192873768Y-98217076D01*
X192869795Y-98203545D01*
X192862000Y-98202425D01*
X192754247Y-98234138D01*
X192742879Y-98238731D01*
X192578614Y-98324607D01*
X192568353Y-98331321D01*
X192423895Y-98447468D01*
X192415136Y-98456046D01*
X192295990Y-98598039D01*
X192289060Y-98608159D01*
X192199766Y-98770585D01*
X192194934Y-98781858D01*
X192138888Y-98958538D01*
X192136338Y-98970532D01*
X192120161Y-99114761D01*
X192119768Y-99121785D01*
X192119768Y-99452885D01*
X147448859Y-99452885D01*
X147457250Y-99422225D01*
X147461491Y-99409453D01*
X147571612Y-99128885D01*
X147577185Y-99116648D01*
X147716616Y-98849406D01*
X147723469Y-98837826D01*
X147890598Y-98586995D01*
X147898648Y-98576210D01*
X148023399Y-98426472D01*
X148091576Y-98344639D01*
X148100729Y-98334775D01*
X148111230Y-98324607D01*
X148317263Y-98125097D01*
X148327418Y-98116265D01*
X148565064Y-97930892D01*
X148576103Y-97923192D01*
X148832181Y-97764216D01*
X148843978Y-97757739D01*
X149115555Y-97626981D01*
X149127976Y-97621798D01*
X149411939Y-97520758D01*
X149424842Y-97516930D01*
X149717969Y-97446753D01*
X149731206Y-97444323D01*
X150030135Y-97405813D01*
X150043555Y-97404808D01*
X150095080Y-97403712D01*
X150309085Y-97399162D01*
X150335144Y-97401324D01*
X150345201Y-97403223D01*
X150354137Y-97402346D01*
X150354140Y-97402346D01*
X150387087Y-97399112D01*
X150399429Y-97398509D01*
X178130339Y-97406038D01*
X190827704Y-97409486D01*
X190848568Y-97411232D01*
X190868448Y-97414576D01*
X190874831Y-97414654D01*
X190876141Y-97414670D01*
X190876144Y-97414670D01*
X190881000Y-97414729D01*
X190891104Y-97413282D01*
X190899069Y-97412399D01*
X190995518Y-97404808D01*
X191100293Y-97396562D01*
X191105100Y-97395408D01*
X191105106Y-97395407D01*
X191240386Y-97362929D01*
X191314187Y-97345211D01*
X191318760Y-97343317D01*
X191512839Y-97262927D01*
X191512843Y-97262925D01*
X191517413Y-97261032D01*
X191704970Y-97146097D01*
X191872237Y-97003237D01*
X192015097Y-96835970D01*
X192130032Y-96648413D01*
X192167929Y-96556922D01*
X192212476Y-96501642D01*
X192279839Y-96479221D01*
X192348631Y-96496779D01*
X192381980Y-96525505D01*
X192405165Y-96553932D01*
X192413809Y-96562637D01*
X192556624Y-96680784D01*
X192566795Y-96687644D01*
X192729844Y-96775804D01*
X192741149Y-96780556D01*
X192856460Y-96816250D01*
X192870563Y-96816456D01*
X192873768Y-96809701D01*
X192873768Y-96802924D01*
X193381768Y-96802924D01*
X193385741Y-96816455D01*
X193393536Y-96817575D01*
X193501289Y-96785862D01*
X193512657Y-96781269D01*
X193676922Y-96695393D01*
X193687183Y-96688679D01*
X193831641Y-96572532D01*
X193840400Y-96563954D01*
X193959546Y-96421961D01*
X193966476Y-96411841D01*
X194055770Y-96249415D01*
X194060602Y-96238142D01*
X194116648Y-96061462D01*
X194119198Y-96049468D01*
X194135375Y-95905239D01*
X194135768Y-95898215D01*
X194135768Y-95891657D01*
X200759768Y-95891657D01*
X200760069Y-95897805D01*
X200773580Y-96035603D01*
X200775963Y-96047638D01*
X200829535Y-96225076D01*
X200834209Y-96236416D01*
X200921228Y-96400077D01*
X200928017Y-96410294D01*
X201045165Y-96553933D01*
X201053809Y-96562637D01*
X201196624Y-96680784D01*
X201206795Y-96687644D01*
X201369844Y-96775804D01*
X201381149Y-96780556D01*
X201496460Y-96816250D01*
X201510563Y-96816456D01*
X201513768Y-96809701D01*
X201513768Y-95817115D01*
X201509293Y-95801876D01*
X201507903Y-95800671D01*
X201500220Y-95799000D01*
X200777883Y-95799000D01*
X200762644Y-95803475D01*
X200761439Y-95804865D01*
X200759768Y-95812548D01*
X200759768Y-95891657D01*
X194135768Y-95891657D01*
X194135768Y-95817115D01*
X194131293Y-95801876D01*
X194129903Y-95800671D01*
X194122220Y-95799000D01*
X193399883Y-95799000D01*
X193384644Y-95803475D01*
X193383439Y-95804865D01*
X193381768Y-95812548D01*
X193381768Y-96802924D01*
X192873768Y-96802924D01*
X192873768Y-95417000D01*
X192893770Y-95348879D01*
X192947426Y-95302386D01*
X192999768Y-95291000D01*
X194117653Y-95291000D01*
X194132892Y-95286525D01*
X194134097Y-95285135D01*
X194135768Y-95277452D01*
X194135768Y-95198343D01*
X194135467Y-95192195D01*
X194121956Y-95054397D01*
X194119573Y-95042362D01*
X194066001Y-94864924D01*
X194061327Y-94853584D01*
X193974307Y-94689921D01*
X193970525Y-94684229D01*
X193949487Y-94616421D01*
X193968448Y-94548003D01*
X194021388Y-94500698D01*
X194075472Y-94488500D01*
X200820273Y-94488500D01*
X200888394Y-94508502D01*
G37*
%TD.AperFunction*%
%TA.AperFunction,Conductor*%
G36*
X195138856Y-136560610D02*
G01*
X195185349Y-136614266D01*
X195196735Y-136666608D01*
X195196735Y-138255242D01*
X195203490Y-138317424D01*
X195254620Y-138453813D01*
X195260006Y-138460999D01*
X195319560Y-138540462D01*
X195344408Y-138606968D01*
X195344734Y-138616027D01*
X195344733Y-140039631D01*
X195324731Y-140107752D01*
X195307906Y-140128649D01*
X195243097Y-140193571D01*
X195180814Y-140227650D01*
X195109994Y-140222647D01*
X195064906Y-140193726D01*
X194982406Y-140111369D01*
X194970995Y-140102357D01*
X194832992Y-140017292D01*
X194819811Y-140011145D01*
X194665525Y-139959970D01*
X194652149Y-139957103D01*
X194557797Y-139947436D01*
X194551380Y-139947108D01*
X194513850Y-139947108D01*
X194498611Y-139951583D01*
X194497406Y-139952973D01*
X194495735Y-139960656D01*
X194495735Y-141283108D01*
X194475733Y-141351229D01*
X194422077Y-141397722D01*
X194369735Y-141409108D01*
X193239351Y-141409108D01*
X193224112Y-141413583D01*
X193222907Y-141414973D01*
X193221236Y-141422656D01*
X193221236Y-141652203D01*
X193221573Y-141658722D01*
X193231492Y-141754314D01*
X193234384Y-141767708D01*
X193285823Y-141921892D01*
X193291996Y-141935070D01*
X193377298Y-142072915D01*
X193386334Y-142084316D01*
X193501064Y-142198847D01*
X193512478Y-142207861D01*
X193650827Y-142293140D01*
X193698321Y-142345912D01*
X193709745Y-142415983D01*
X193681471Y-142481107D01*
X193622477Y-142520607D01*
X193584712Y-142526400D01*
X190931205Y-142526400D01*
X190863084Y-142506398D01*
X190842110Y-142489495D01*
X189235607Y-140882993D01*
X193221235Y-140882993D01*
X193225710Y-140898232D01*
X193227100Y-140899437D01*
X193234783Y-140901108D01*
X193969620Y-140901108D01*
X193984859Y-140896633D01*
X193986064Y-140895243D01*
X193987735Y-140887560D01*
X193987735Y-139965224D01*
X193983260Y-139949985D01*
X193981870Y-139948780D01*
X193974187Y-139947109D01*
X193932140Y-139947109D01*
X193925621Y-139947446D01*
X193830029Y-139957365D01*
X193816635Y-139960257D01*
X193662451Y-140011696D01*
X193649273Y-140017869D01*
X193511428Y-140103171D01*
X193500027Y-140112207D01*
X193385496Y-140226937D01*
X193376484Y-140238348D01*
X193291419Y-140376351D01*
X193285272Y-140389532D01*
X193234097Y-140543818D01*
X193231230Y-140557194D01*
X193221563Y-140651546D01*
X193221235Y-140657963D01*
X193221235Y-140882993D01*
X189235607Y-140882993D01*
X188289505Y-139936891D01*
X188255480Y-139874579D01*
X188252600Y-139847796D01*
X188252600Y-137851627D01*
X188272602Y-137783506D01*
X188326258Y-137737013D01*
X188352404Y-137728380D01*
X188426330Y-137712667D01*
X188426333Y-137712666D01*
X188432788Y-137711294D01*
X188438819Y-137708609D01*
X188601222Y-137636303D01*
X188601224Y-137636302D01*
X188607252Y-137633618D01*
X188761753Y-137521366D01*
X188837180Y-137437596D01*
X188885121Y-137384352D01*
X188885122Y-137384351D01*
X188889540Y-137379444D01*
X188967016Y-137245252D01*
X188981723Y-137219779D01*
X188981724Y-137219778D01*
X188985027Y-137214056D01*
X189044042Y-137032428D01*
X189044579Y-137032602D01*
X189076198Y-136974037D01*
X189138348Y-136939716D01*
X189165715Y-136936708D01*
X189290731Y-136936708D01*
X189358852Y-136956710D01*
X189388206Y-136983293D01*
X189390782Y-136987456D01*
X189395966Y-136992631D01*
X189415600Y-137012231D01*
X189515957Y-137112413D01*
X189522187Y-137116253D01*
X189522188Y-137116254D01*
X189659350Y-137200802D01*
X189666522Y-137205223D01*
X189723914Y-137224259D01*
X189827871Y-137258740D01*
X189827873Y-137258740D01*
X189834399Y-137260905D01*
X189841235Y-137261605D01*
X189841238Y-137261606D01*
X189884291Y-137266017D01*
X189938860Y-137271608D01*
X190989660Y-137271608D01*
X190992906Y-137271271D01*
X190992910Y-137271271D01*
X191088568Y-137261346D01*
X191088572Y-137261345D01*
X191095426Y-137260634D01*
X191101962Y-137258453D01*
X191101964Y-137258453D01*
X191253875Y-137207771D01*
X191263206Y-137204658D01*
X191413608Y-137111586D01*
X191538565Y-136986411D01*
X191540267Y-136983649D01*
X191596817Y-136943554D01*
X191637784Y-136936708D01*
X192720835Y-136936709D01*
X192788551Y-136936709D01*
X192797122Y-136937001D01*
X192851772Y-136940727D01*
X192911495Y-136930303D01*
X192917985Y-136929346D01*
X192978116Y-136922069D01*
X192985225Y-136919383D01*
X192991022Y-136917959D01*
X192999177Y-136915729D01*
X193004901Y-136914001D01*
X193012382Y-136912695D01*
X193067854Y-136888344D01*
X193073959Y-136885853D01*
X193123523Y-136867125D01*
X193123525Y-136867124D01*
X193130628Y-136864440D01*
X193136887Y-136860139D01*
X193142154Y-136857385D01*
X193149579Y-136853252D01*
X193154711Y-136850217D01*
X193161668Y-136847163D01*
X193167694Y-136842539D01*
X193167696Y-136842538D01*
X193209726Y-136810287D01*
X193215064Y-136806409D01*
X193258729Y-136776400D01*
X193258736Y-136776394D01*
X193264991Y-136772095D01*
X193304263Y-136728016D01*
X193309245Y-136722738D01*
X193454472Y-136577512D01*
X193516784Y-136543487D01*
X193543567Y-136540608D01*
X195070735Y-136540608D01*
X195138856Y-136560610D01*
G37*
%TD.AperFunction*%
%TA.AperFunction,Conductor*%
G36*
X209140357Y-130257350D02*
G01*
X209186850Y-130311006D01*
X209198236Y-130363348D01*
X209198236Y-130384993D01*
X209202711Y-130400232D01*
X209204101Y-130401437D01*
X209211784Y-130403108D01*
X210434236Y-130403108D01*
X210502357Y-130423110D01*
X210548850Y-130476766D01*
X210560236Y-130529108D01*
X210560236Y-130785108D01*
X210540234Y-130853229D01*
X210486578Y-130899722D01*
X210434236Y-130911108D01*
X209216352Y-130911108D01*
X209201113Y-130915583D01*
X209199908Y-130916973D01*
X209198237Y-130924656D01*
X209198237Y-131401777D01*
X209198607Y-131408598D01*
X209204131Y-131459460D01*
X209207757Y-131474712D01*
X209252912Y-131595162D01*
X209261450Y-131610756D01*
X209314189Y-131681126D01*
X209339037Y-131747632D01*
X209323984Y-131817015D01*
X209314189Y-131832256D01*
X209255621Y-131910403D01*
X209204491Y-132046792D01*
X209197736Y-132108974D01*
X209196007Y-132108786D01*
X209174667Y-132169295D01*
X209118605Y-132212855D01*
X209072460Y-132221609D01*
X208939074Y-132221609D01*
X208870953Y-132201607D01*
X208849979Y-132184704D01*
X208099168Y-131433893D01*
X208087504Y-131420453D01*
X208076032Y-131405174D01*
X208076030Y-131405172D01*
X208073560Y-131401882D01*
X208064179Y-131392302D01*
X208034265Y-131368847D01*
X208033417Y-131368142D01*
X208032612Y-131367337D01*
X208030207Y-131365472D01*
X208029145Y-131364588D01*
X208026080Y-131362093D01*
X207954711Y-131301140D01*
X207950948Y-131297926D01*
X207825392Y-131220988D01*
X207689344Y-131164641D01*
X207684531Y-131163486D01*
X207684529Y-131163485D01*
X207610118Y-131145623D01*
X207546157Y-131130270D01*
X207509818Y-131127412D01*
X207488372Y-131123843D01*
X207479668Y-131121608D01*
X207453516Y-131121608D01*
X207435768Y-131120352D01*
X207416847Y-131117660D01*
X207416846Y-131117660D01*
X207412763Y-131117079D01*
X207408635Y-131117036D01*
X207404525Y-131116724D01*
X207404611Y-131115594D01*
X207341457Y-131096343D01*
X207295518Y-131042212D01*
X207286137Y-130971838D01*
X207316293Y-130907564D01*
X207321568Y-130901956D01*
X207949270Y-130274253D01*
X208011583Y-130240228D01*
X208038366Y-130237348D01*
X209072236Y-130237348D01*
X209140357Y-130257350D01*
G37*
%TD.AperFunction*%
%TA.AperFunction,Conductor*%
G36*
X209116270Y-128251727D02*
G01*
X209173106Y-128294274D01*
X209197917Y-128360794D01*
X209198238Y-128369783D01*
X209198238Y-128596204D01*
X209198575Y-128602723D01*
X209208494Y-128698315D01*
X209211386Y-128711709D01*
X209240999Y-128800472D01*
X209243583Y-128871422D01*
X209207399Y-128932506D01*
X209143935Y-128964330D01*
X209121475Y-128966348D01*
X208601673Y-128966348D01*
X208533552Y-128946346D01*
X208487059Y-128892690D01*
X208476955Y-128822416D01*
X208506449Y-128757836D01*
X208512578Y-128751253D01*
X208983143Y-128280688D01*
X209045455Y-128246662D01*
X209116270Y-128251727D01*
G37*
%TD.AperFunction*%
%TA.AperFunction,Conductor*%
G36*
X199224247Y-123536749D02*
G01*
X199230749Y-123542796D01*
X199285949Y-123597900D01*
X199307753Y-123619666D01*
X199341832Y-123681949D01*
X199344735Y-123708839D01*
X199344735Y-124898188D01*
X199324733Y-124966309D01*
X199319565Y-124973747D01*
X199281061Y-125025123D01*
X199224201Y-125067638D01*
X199153383Y-125072663D01*
X199091090Y-125038604D01*
X199079409Y-125025123D01*
X199040909Y-124973752D01*
X199016061Y-124907247D01*
X199015735Y-124898188D01*
X199015735Y-123631973D01*
X199035737Y-123563852D01*
X199089393Y-123517359D01*
X199159667Y-123507255D01*
X199224247Y-123536749D01*
G37*
%TD.AperFunction*%
%TD*%
M02*
