%TF.GenerationSoftware,KiCad,Pcbnew,(6.0.7)*%
%TF.CreationDate,2022-08-09T22:59:19+07:00*%
%TF.ProjectId,Keypad-3,4b657970-6164-42d3-932e-6b696361645f,rev?*%
%TF.SameCoordinates,Original*%
%TF.FileFunction,Legend,Top*%
%TF.FilePolarity,Positive*%
%FSLAX46Y46*%
G04 Gerber Fmt 4.6, Leading zero omitted, Abs format (unit mm)*
G04 Created by KiCad (PCBNEW (6.0.7)) date 2022-08-09 22:59:19*
%MOMM*%
%LPD*%
G01*
G04 APERTURE LIST*
%ADD10C,0.150000*%
G04 APERTURE END LIST*
D10*
X149360000Y-99417142D02*
X149407619Y-99464761D01*
X149360000Y-99512380D01*
X149312380Y-99464761D01*
X149360000Y-99417142D01*
X149360000Y-99512380D01*
X149360000Y-98893333D02*
X149407619Y-98940952D01*
X149360000Y-98988571D01*
X149312380Y-98940952D01*
X149360000Y-98893333D01*
X149360000Y-98988571D01*
X149836190Y-99512380D02*
X149836190Y-98512380D01*
X150217142Y-98512380D01*
X150312380Y-98560000D01*
X150360000Y-98607619D01*
X150407619Y-98702857D01*
X150407619Y-98845714D01*
X150360000Y-98940952D01*
X150312380Y-98988571D01*
X150217142Y-99036190D01*
X149836190Y-99036190D01*
X149646285Y-100639571D02*
X149789142Y-100687190D01*
X149836761Y-100734809D01*
X149884380Y-100830047D01*
X149884380Y-100972904D01*
X149836761Y-101068142D01*
X149789142Y-101115761D01*
X149693904Y-101163380D01*
X149312952Y-101163380D01*
X149312952Y-100163380D01*
X149646285Y-100163380D01*
X149741523Y-100211000D01*
X149789142Y-100258619D01*
X149836761Y-100353857D01*
X149836761Y-100449095D01*
X149789142Y-100544333D01*
X149741523Y-100591952D01*
X149646285Y-100639571D01*
X149312952Y-100639571D01*
X150217714Y-100496714D02*
X150455809Y-101163380D01*
X150693904Y-100496714D02*
X150455809Y-101163380D01*
X150360571Y-101401476D01*
X150312952Y-101449095D01*
X150217714Y-101496714D01*
X151836761Y-101163380D02*
X151836761Y-100163380D01*
X152408190Y-101163380D01*
X152408190Y-100163380D01*
X152884380Y-101163380D02*
X152884380Y-100496714D01*
X152884380Y-100163380D02*
X152836761Y-100211000D01*
X152884380Y-100258619D01*
X152932000Y-100211000D01*
X152884380Y-100163380D01*
X152884380Y-100258619D01*
X153789142Y-101115761D02*
X153693904Y-101163380D01*
X153503428Y-101163380D01*
X153408190Y-101115761D01*
X153360571Y-101068142D01*
X153312952Y-100972904D01*
X153312952Y-100687190D01*
X153360571Y-100591952D01*
X153408190Y-100544333D01*
X153503428Y-100496714D01*
X153693904Y-100496714D01*
X153789142Y-100544333D01*
X154217714Y-101163380D02*
X154217714Y-100163380D01*
X154312952Y-100782428D02*
X154598666Y-101163380D01*
X154598666Y-100496714D02*
X154217714Y-100877666D01*
X155455809Y-100496714D02*
X155455809Y-101306238D01*
X155408190Y-101401476D01*
X155360571Y-101449095D01*
X155265333Y-101496714D01*
X155122476Y-101496714D01*
X155027238Y-101449095D01*
X155455809Y-101115761D02*
X155360571Y-101163380D01*
X155170095Y-101163380D01*
X155074857Y-101115761D01*
X155027238Y-101068142D01*
X154979619Y-100972904D01*
X154979619Y-100687190D01*
X155027238Y-100591952D01*
X155074857Y-100544333D01*
X155170095Y-100496714D01*
X155360571Y-100496714D01*
X155455809Y-100544333D01*
X156312952Y-101115761D02*
X156217714Y-101163380D01*
X156027238Y-101163380D01*
X155932000Y-101115761D01*
X155884380Y-101020523D01*
X155884380Y-100639571D01*
X155932000Y-100544333D01*
X156027238Y-100496714D01*
X156217714Y-100496714D01*
X156312952Y-100544333D01*
X156360571Y-100639571D01*
X156360571Y-100734809D01*
X155884380Y-100830047D01*
X156789142Y-101163380D02*
X156789142Y-100496714D01*
X156789142Y-100591952D02*
X156836761Y-100544333D01*
X156932000Y-100496714D01*
X157074857Y-100496714D01*
X157170095Y-100544333D01*
X157217714Y-100639571D01*
X157217714Y-101163380D01*
X157217714Y-100639571D02*
X157265333Y-100544333D01*
X157360571Y-100496714D01*
X157503428Y-100496714D01*
X157598666Y-100544333D01*
X157646285Y-100639571D01*
X157646285Y-101163380D01*
X158074857Y-100258619D02*
X158122476Y-100211000D01*
X158217714Y-100163380D01*
X158455809Y-100163380D01*
X158551047Y-100211000D01*
X158598666Y-100258619D01*
X158646285Y-100353857D01*
X158646285Y-100449095D01*
X158598666Y-100591952D01*
X158027238Y-101163380D01*
X158646285Y-101163380D01*
X159551047Y-100163380D02*
X159074857Y-100163380D01*
X159027238Y-100639571D01*
X159074857Y-100591952D01*
X159170095Y-100544333D01*
X159408190Y-100544333D01*
X159503428Y-100591952D01*
X159551047Y-100639571D01*
X159598666Y-100734809D01*
X159598666Y-100972904D01*
X159551047Y-101068142D01*
X159503428Y-101115761D01*
X159408190Y-101163380D01*
X159170095Y-101163380D01*
X159074857Y-101115761D01*
X159027238Y-101068142D01*
%TO.C,SW1*%
X156146666Y-137056761D02*
X156289523Y-137104380D01*
X156527619Y-137104380D01*
X156622857Y-137056761D01*
X156670476Y-137009142D01*
X156718095Y-136913904D01*
X156718095Y-136818666D01*
X156670476Y-136723428D01*
X156622857Y-136675809D01*
X156527619Y-136628190D01*
X156337142Y-136580571D01*
X156241904Y-136532952D01*
X156194285Y-136485333D01*
X156146666Y-136390095D01*
X156146666Y-136294857D01*
X156194285Y-136199619D01*
X156241904Y-136152000D01*
X156337142Y-136104380D01*
X156575238Y-136104380D01*
X156718095Y-136152000D01*
X157051428Y-136104380D02*
X157289523Y-137104380D01*
X157480000Y-136390095D01*
X157670476Y-137104380D01*
X157908571Y-136104380D01*
X158813333Y-137104380D02*
X158241904Y-137104380D01*
X158527619Y-137104380D02*
X158527619Y-136104380D01*
X158432380Y-136247238D01*
X158337142Y-136342476D01*
X158241904Y-136390095D01*
X154880000Y-135746800D02*
X154880000Y-130546800D01*
X160080000Y-130546800D02*
X160080000Y-135746800D01*
X154880000Y-130546800D02*
X160080000Y-130546800D01*
X160080000Y-135746800D02*
X154880000Y-135746800D01*
X158480000Y-133146800D02*
G75*
G03*
X158480000Y-133146800I-1000000J0D01*
G01*
%TD*%
M02*
