%TF.GenerationSoftware,KiCad,Pcbnew,(6.0.7)*%
%TF.CreationDate,2022-08-09T22:59:19+07:00*%
%TF.ProjectId,Keypad-3,4b657970-6164-42d3-932e-6b696361645f,rev?*%
%TF.SameCoordinates,Original*%
%TF.FileFunction,Copper,L1,Top*%
%TF.FilePolarity,Positive*%
%FSLAX46Y46*%
G04 Gerber Fmt 4.6, Leading zero omitted, Abs format (unit mm)*
G04 Created by KiCad (PCBNEW (6.0.7)) date 2022-08-09 22:59:19*
%MOMM*%
%LPD*%
G01*
G04 APERTURE LIST*
G04 Aperture macros list*
%AMHorizOval*
0 Thick line with rounded ends*
0 $1 width*
0 $2 $3 position (X,Y) of the first rounded end (center of the circle)*
0 $4 $5 position (X,Y) of the second rounded end (center of the circle)*
0 Add line between two ends*
20,1,$1,$2,$3,$4,$5,0*
0 Add two circle primitives to create the rounded ends*
1,1,$1,$2,$3*
1,1,$1,$4,$5*%
G04 Aperture macros list end*
%TA.AperFunction,SMDPad,CuDef*%
%ADD10R,1.800000X1.100000*%
%TD*%
%TA.AperFunction,ComponentPad*%
%ADD11HorizOval,2.250000X0.655001X0.730000X-0.655001X-0.730000X0*%
%TD*%
%TA.AperFunction,ComponentPad*%
%ADD12C,2.250000*%
%TD*%
%TA.AperFunction,ComponentPad*%
%ADD13HorizOval,2.250000X0.020000X0.290000X-0.020000X-0.290000X0*%
%TD*%
%TA.AperFunction,ComponentPad*%
%ADD14O,1.000000X2.100000*%
%TD*%
%TA.AperFunction,ComponentPad*%
%ADD15O,1.000000X1.600000*%
%TD*%
%TA.AperFunction,ViaPad*%
%ADD16C,0.800000*%
%TD*%
%TA.AperFunction,Conductor*%
%ADD17C,0.330200*%
%TD*%
%TA.AperFunction,Conductor*%
%ADD18C,0.254000*%
%TD*%
G04 APERTURE END LIST*
D10*
%TO.P,SW1,1,1*%
%TO.N,GND*%
X160580000Y-134996800D03*
%TO.P,SW1,2,2*%
%TO.N,Net-(R1-Pad2)*%
X154380000Y-131296800D03*
%TO.P,SW1,3*%
%TO.N,N/C*%
X160580000Y-131296800D03*
%TO.P,SW1,4*%
X154380000Y-134996800D03*
%TD*%
D11*
%TO.P,MX1,1,COL*%
%TO.N,COL0*%
X155442601Y-108414800D03*
D12*
X156097600Y-107684800D03*
D13*
%TO.P,MX1,2,ROW*%
%TO.N,Net-(D1-Pad2)*%
X161117600Y-106894800D03*
D12*
X161137600Y-106604800D03*
%TD*%
D11*
%TO.P,MX2,1,COL*%
%TO.N,COL1*%
X174492601Y-117431800D03*
D12*
X175147600Y-116701800D03*
%TO.P,MX2,2,ROW*%
%TO.N,Net-(D2-Pad2)*%
X180187600Y-115621800D03*
D13*
X180167600Y-115911800D03*
%TD*%
D14*
%TO.P,J1,S1,SHIELD*%
%TO.N,GND*%
X201767768Y-99725000D03*
X193127768Y-99725000D03*
D15*
X201767768Y-95545000D03*
X193127768Y-95545000D03*
%TD*%
D16*
%TO.N,GND*%
X188672592Y-128068192D03*
X188813260Y-134424109D03*
X201003768Y-106299000D03*
X201638768Y-101600000D03*
X208691083Y-130589676D03*
X163118800Y-135026400D03*
X210731873Y-126506122D03*
X202018400Y-120915668D03*
X197525000Y-131550000D03*
X192600000Y-141200000D03*
X193002768Y-103505000D03*
X213515753Y-132882103D03*
X199180000Y-124160000D03*
X202400768Y-103505000D03*
X213515751Y-135396576D03*
X193141600Y-101662632D03*
X202250000Y-131550000D03*
%TO.N,+5V*%
X202895200Y-120040400D03*
X187655200Y-124612400D03*
X194056000Y-117703600D03*
X206451200Y-120040400D03*
X188150500Y-136842500D03*
%TO.N,Net-(R1-Pad2)*%
X207772000Y-127127000D03*
%TD*%
D17*
%TO.N,GND*%
X160580000Y-134996800D02*
X163089200Y-134996800D01*
X163089200Y-134996800D02*
X163118800Y-135026400D01*
%TO.N,+5V*%
X195326000Y-120040400D02*
X195021200Y-120040400D01*
X203657200Y-120040400D02*
X202895200Y-120040400D01*
X187655200Y-136347200D02*
X188150500Y-136842500D01*
X194056000Y-117703600D02*
X194056000Y-119075200D01*
X202895200Y-120040400D02*
X195935600Y-120040400D01*
X195935600Y-120040400D02*
X195326000Y-120040400D01*
X194056000Y-119075200D02*
X195021200Y-120040400D01*
X187655200Y-124612400D02*
X187655200Y-136347200D01*
X187655200Y-124612400D02*
X192227200Y-120040400D01*
X192227200Y-120040400D02*
X195326000Y-120040400D01*
X206451200Y-120040400D02*
X203657200Y-120040400D01*
D18*
%TO.N,Net-(R1-Pad2)*%
X207772000Y-137820400D02*
X207772000Y-127127000D01*
X153153000Y-137405000D02*
X154677000Y-138929000D01*
X206663400Y-138929000D02*
X207772000Y-137820400D01*
X153153000Y-132523800D02*
X153153000Y-137405000D01*
X154380000Y-131296800D02*
X153153000Y-132523800D01*
X154677000Y-138929000D02*
X206663400Y-138929000D01*
%TD*%
%TA.AperFunction,Conductor*%
%TO.N,GND*%
G36*
X200888394Y-94508502D02*
G01*
X200934887Y-94562158D01*
X200944991Y-94632432D01*
X200930687Y-94675201D01*
X200839766Y-94840585D01*
X200834934Y-94851858D01*
X200778888Y-95028538D01*
X200776338Y-95040532D01*
X200760161Y-95184761D01*
X200759768Y-95191785D01*
X200759768Y-95272885D01*
X200764243Y-95288124D01*
X200765633Y-95289329D01*
X200773316Y-95291000D01*
X201895768Y-95291000D01*
X201963889Y-95311002D01*
X202010382Y-95364658D01*
X202021768Y-95417000D01*
X202021768Y-96802924D01*
X202025741Y-96816455D01*
X202033536Y-96817575D01*
X202141289Y-96785862D01*
X202152657Y-96781269D01*
X202316922Y-96695393D01*
X202327183Y-96688679D01*
X202471640Y-96572533D01*
X202477340Y-96566951D01*
X202540004Y-96533578D01*
X202610763Y-96539383D01*
X202667152Y-96582521D01*
X202691266Y-96649297D01*
X202691500Y-96656972D01*
X202691500Y-97781377D01*
X202691498Y-97782147D01*
X202691024Y-97859721D01*
X202693491Y-97868352D01*
X202699150Y-97888153D01*
X202702728Y-97904915D01*
X202706920Y-97934187D01*
X202710634Y-97942355D01*
X202710634Y-97942356D01*
X202717548Y-97957562D01*
X202723996Y-97975086D01*
X202731051Y-97999771D01*
X202735843Y-98007365D01*
X202735844Y-98007368D01*
X202746830Y-98024780D01*
X202754969Y-98039863D01*
X202767208Y-98066782D01*
X202773069Y-98073584D01*
X202783970Y-98086235D01*
X202795073Y-98101239D01*
X202808776Y-98122958D01*
X202815501Y-98128897D01*
X202815504Y-98128901D01*
X202830938Y-98142532D01*
X202842982Y-98154724D01*
X202856427Y-98170327D01*
X202856430Y-98170329D01*
X202862287Y-98177127D01*
X202869816Y-98182007D01*
X202869817Y-98182008D01*
X202883835Y-98191094D01*
X202898709Y-98202385D01*
X202911217Y-98213431D01*
X202917951Y-98219378D01*
X202944711Y-98231942D01*
X202959691Y-98240263D01*
X202976983Y-98251471D01*
X202976988Y-98251473D01*
X202984515Y-98256352D01*
X202993108Y-98258922D01*
X202993113Y-98258924D01*
X203009120Y-98263711D01*
X203026564Y-98270372D01*
X203041676Y-98277467D01*
X203041678Y-98277468D01*
X203049800Y-98281281D01*
X203058667Y-98282662D01*
X203058668Y-98282662D01*
X203061353Y-98283080D01*
X203079017Y-98285830D01*
X203095732Y-98289613D01*
X203115466Y-98295515D01*
X203115472Y-98295516D01*
X203124066Y-98298086D01*
X203133037Y-98298141D01*
X203133038Y-98298141D01*
X203143097Y-98298202D01*
X203158506Y-98298296D01*
X203159289Y-98298329D01*
X203160386Y-98298500D01*
X203191377Y-98298500D01*
X203192147Y-98298502D01*
X203265785Y-98298952D01*
X203265786Y-98298952D01*
X203269721Y-98298976D01*
X203271065Y-98298592D01*
X203272410Y-98298500D01*
X215265500Y-98298500D01*
X215333621Y-98318502D01*
X215380114Y-98372158D01*
X215391500Y-98424500D01*
X215391500Y-144145500D01*
X215371498Y-144213621D01*
X215317842Y-144260114D01*
X215265500Y-144271500D01*
X147954500Y-144271500D01*
X147886379Y-144251498D01*
X147839886Y-144197842D01*
X147828500Y-144145500D01*
X147828500Y-132503679D01*
X152512765Y-132503679D01*
X152513511Y-132511571D01*
X152516941Y-132547856D01*
X152517500Y-132559714D01*
X152517500Y-137325980D01*
X152516970Y-137337214D01*
X152515292Y-137344719D01*
X152516383Y-137379444D01*
X152517438Y-137413012D01*
X152517500Y-137416969D01*
X152517500Y-137444983D01*
X152517996Y-137448908D01*
X152517996Y-137448909D01*
X152518008Y-137449004D01*
X152518941Y-137460849D01*
X152520335Y-137505205D01*
X152526013Y-137524748D01*
X152530023Y-137544112D01*
X152532573Y-137564299D01*
X152535489Y-137571663D01*
X152535490Y-137571668D01*
X152548907Y-137605556D01*
X152552752Y-137616785D01*
X152565131Y-137659393D01*
X152569169Y-137666220D01*
X152569170Y-137666223D01*
X152575488Y-137676906D01*
X152584188Y-137694664D01*
X152588761Y-137706215D01*
X152588765Y-137706221D01*
X152591681Y-137713588D01*
X152596339Y-137719999D01*
X152596340Y-137720001D01*
X152617764Y-137749488D01*
X152624281Y-137759410D01*
X152642826Y-137790768D01*
X152642829Y-137790772D01*
X152646866Y-137797598D01*
X152661250Y-137811982D01*
X152674091Y-137827016D01*
X152686058Y-137843487D01*
X152692166Y-137848540D01*
X152720255Y-137871777D01*
X152729035Y-137879767D01*
X154171745Y-139322477D01*
X154179322Y-139330803D01*
X154183447Y-139337303D01*
X154189225Y-139342729D01*
X154189226Y-139342730D01*
X154233281Y-139384100D01*
X154236123Y-139386855D01*
X154255906Y-139406638D01*
X154259114Y-139409126D01*
X154268143Y-139416837D01*
X154300494Y-139447217D01*
X154307443Y-139451037D01*
X154318329Y-139457022D01*
X154334853Y-139467876D01*
X154350933Y-139480349D01*
X154358210Y-139483498D01*
X154391650Y-139497969D01*
X154402311Y-139503192D01*
X154434247Y-139520749D01*
X154434252Y-139520751D01*
X154441197Y-139524569D01*
X154448871Y-139526539D01*
X154448878Y-139526542D01*
X154460913Y-139529632D01*
X154479618Y-139536036D01*
X154491013Y-139540967D01*
X154498292Y-139544117D01*
X154513401Y-139546510D01*
X154542127Y-139551060D01*
X154553740Y-139553465D01*
X154596718Y-139564500D01*
X154617065Y-139564500D01*
X154636777Y-139566051D01*
X154656879Y-139569235D01*
X154664771Y-139568489D01*
X154701056Y-139565059D01*
X154712914Y-139564500D01*
X206584380Y-139564500D01*
X206595614Y-139565030D01*
X206603119Y-139566708D01*
X206671412Y-139564562D01*
X206675369Y-139564500D01*
X206703383Y-139564500D01*
X206707308Y-139564004D01*
X206707309Y-139564004D01*
X206707404Y-139563992D01*
X206719249Y-139563059D01*
X206749070Y-139562122D01*
X206755682Y-139561914D01*
X206755683Y-139561914D01*
X206763605Y-139561665D01*
X206783149Y-139555987D01*
X206802512Y-139551977D01*
X206814840Y-139550420D01*
X206814842Y-139550420D01*
X206822699Y-139549427D01*
X206830063Y-139546511D01*
X206830068Y-139546510D01*
X206863956Y-139533093D01*
X206875185Y-139529248D01*
X206891865Y-139524402D01*
X206917793Y-139516869D01*
X206924620Y-139512831D01*
X206924623Y-139512830D01*
X206935306Y-139506512D01*
X206953064Y-139497812D01*
X206964615Y-139493239D01*
X206964621Y-139493235D01*
X206971988Y-139490319D01*
X206981377Y-139483498D01*
X207007888Y-139464236D01*
X207017810Y-139457719D01*
X207049168Y-139439174D01*
X207049172Y-139439171D01*
X207055998Y-139435134D01*
X207070382Y-139420750D01*
X207085416Y-139407909D01*
X207095473Y-139400602D01*
X207101887Y-139395942D01*
X207130178Y-139361744D01*
X207138167Y-139352965D01*
X208165483Y-138325650D01*
X208173809Y-138318074D01*
X208180303Y-138313953D01*
X208227086Y-138264134D01*
X208229840Y-138261293D01*
X208249639Y-138241494D01*
X208252068Y-138238363D01*
X208252072Y-138238358D01*
X208252139Y-138238272D01*
X208259847Y-138229247D01*
X208284791Y-138202685D01*
X208284794Y-138202681D01*
X208290217Y-138196906D01*
X208294036Y-138189960D01*
X208294039Y-138189955D01*
X208300022Y-138179072D01*
X208310878Y-138162544D01*
X208318492Y-138152729D01*
X208318494Y-138152726D01*
X208323349Y-138146467D01*
X208326495Y-138139197D01*
X208326498Y-138139192D01*
X208340969Y-138105750D01*
X208346192Y-138095089D01*
X208363749Y-138063153D01*
X208363751Y-138063148D01*
X208367569Y-138056203D01*
X208369539Y-138048529D01*
X208369542Y-138048522D01*
X208372632Y-138036487D01*
X208379036Y-138017782D01*
X208383967Y-138006387D01*
X208387117Y-137999108D01*
X208394060Y-137955273D01*
X208396467Y-137943651D01*
X208407500Y-137900682D01*
X208407500Y-137880335D01*
X208409051Y-137860624D01*
X208410995Y-137848350D01*
X208412235Y-137840521D01*
X208408708Y-137803209D01*
X208408059Y-137796344D01*
X208407500Y-137784486D01*
X208407500Y-127827303D01*
X208427502Y-127759182D01*
X208439864Y-127742993D01*
X208506621Y-127668852D01*
X208506622Y-127668851D01*
X208511040Y-127663944D01*
X208606527Y-127498556D01*
X208665542Y-127316928D01*
X208685504Y-127127000D01*
X208665542Y-126937072D01*
X208606527Y-126755444D01*
X208511040Y-126590056D01*
X208383253Y-126448134D01*
X208228752Y-126335882D01*
X208222724Y-126333198D01*
X208222722Y-126333197D01*
X208060319Y-126260891D01*
X208060318Y-126260891D01*
X208054288Y-126258206D01*
X207960887Y-126238353D01*
X207873944Y-126219872D01*
X207873939Y-126219872D01*
X207867487Y-126218500D01*
X207676513Y-126218500D01*
X207670061Y-126219872D01*
X207670056Y-126219872D01*
X207583113Y-126238353D01*
X207489712Y-126258206D01*
X207483682Y-126260891D01*
X207483681Y-126260891D01*
X207321278Y-126333197D01*
X207321276Y-126333198D01*
X207315248Y-126335882D01*
X207160747Y-126448134D01*
X207032960Y-126590056D01*
X206937473Y-126755444D01*
X206878458Y-126937072D01*
X206858496Y-127127000D01*
X206878458Y-127316928D01*
X206937473Y-127498556D01*
X207032960Y-127663944D01*
X207037378Y-127668851D01*
X207037379Y-127668852D01*
X207104136Y-127742993D01*
X207134854Y-127807000D01*
X207136500Y-127827303D01*
X207136500Y-137504977D01*
X207116498Y-137573098D01*
X207099595Y-137594072D01*
X206437072Y-138256595D01*
X206374760Y-138290621D01*
X206347977Y-138293500D01*
X154992423Y-138293500D01*
X154924302Y-138273498D01*
X154903328Y-138256595D01*
X153825405Y-137178672D01*
X153791379Y-137116360D01*
X153788500Y-137089577D01*
X153788500Y-136181300D01*
X153808502Y-136113179D01*
X153862158Y-136066686D01*
X153914500Y-136055300D01*
X155328134Y-136055300D01*
X155390316Y-136048545D01*
X155526705Y-135997415D01*
X155643261Y-135910061D01*
X155730615Y-135793505D01*
X155781745Y-135657116D01*
X155788500Y-135594934D01*
X155788500Y-135591469D01*
X159172001Y-135591469D01*
X159172371Y-135598290D01*
X159177895Y-135649152D01*
X159181521Y-135664404D01*
X159226676Y-135784854D01*
X159235214Y-135800449D01*
X159311715Y-135902524D01*
X159324276Y-135915085D01*
X159426351Y-135991586D01*
X159441946Y-136000124D01*
X159562394Y-136045278D01*
X159577649Y-136048905D01*
X159628514Y-136054431D01*
X159635328Y-136054800D01*
X160307885Y-136054800D01*
X160323124Y-136050325D01*
X160324329Y-136048935D01*
X160326000Y-136041252D01*
X160326000Y-136036684D01*
X160834000Y-136036684D01*
X160838475Y-136051923D01*
X160839865Y-136053128D01*
X160847548Y-136054799D01*
X161524669Y-136054799D01*
X161531490Y-136054429D01*
X161582352Y-136048905D01*
X161597604Y-136045279D01*
X161718054Y-136000124D01*
X161733649Y-135991586D01*
X161835724Y-135915085D01*
X161848285Y-135902524D01*
X161924786Y-135800449D01*
X161933324Y-135784854D01*
X161978478Y-135664406D01*
X161982105Y-135649151D01*
X161987631Y-135598286D01*
X161988000Y-135591472D01*
X161988000Y-135268915D01*
X161983525Y-135253676D01*
X161982135Y-135252471D01*
X161974452Y-135250800D01*
X160852115Y-135250800D01*
X160836876Y-135255275D01*
X160835671Y-135256665D01*
X160834000Y-135264348D01*
X160834000Y-136036684D01*
X160326000Y-136036684D01*
X160326000Y-135268915D01*
X160321525Y-135253676D01*
X160320135Y-135252471D01*
X160312452Y-135250800D01*
X159190116Y-135250800D01*
X159174877Y-135255275D01*
X159173672Y-135256665D01*
X159172001Y-135264348D01*
X159172001Y-135591469D01*
X155788500Y-135591469D01*
X155788500Y-134724685D01*
X159172000Y-134724685D01*
X159176475Y-134739924D01*
X159177865Y-134741129D01*
X159185548Y-134742800D01*
X160307885Y-134742800D01*
X160323124Y-134738325D01*
X160324329Y-134736935D01*
X160326000Y-134729252D01*
X160326000Y-134724685D01*
X160834000Y-134724685D01*
X160838475Y-134739924D01*
X160839865Y-134741129D01*
X160847548Y-134742800D01*
X161969884Y-134742800D01*
X161985123Y-134738325D01*
X161986328Y-134736935D01*
X161987999Y-134729252D01*
X161987999Y-134402131D01*
X161987629Y-134395310D01*
X161982105Y-134344448D01*
X161978479Y-134329196D01*
X161933324Y-134208746D01*
X161924786Y-134193151D01*
X161848285Y-134091076D01*
X161835724Y-134078515D01*
X161733649Y-134002014D01*
X161718054Y-133993476D01*
X161597606Y-133948322D01*
X161582351Y-133944695D01*
X161531486Y-133939169D01*
X161524672Y-133938800D01*
X160852115Y-133938800D01*
X160836876Y-133943275D01*
X160835671Y-133944665D01*
X160834000Y-133952348D01*
X160834000Y-134724685D01*
X160326000Y-134724685D01*
X160326000Y-133956916D01*
X160321525Y-133941677D01*
X160320135Y-133940472D01*
X160312452Y-133938801D01*
X159635331Y-133938801D01*
X159628510Y-133939171D01*
X159577648Y-133944695D01*
X159562396Y-133948321D01*
X159441946Y-133993476D01*
X159426351Y-134002014D01*
X159324276Y-134078515D01*
X159311715Y-134091076D01*
X159235214Y-134193151D01*
X159226676Y-134208746D01*
X159181522Y-134329194D01*
X159177895Y-134344449D01*
X159172369Y-134395314D01*
X159172000Y-134402128D01*
X159172000Y-134724685D01*
X155788500Y-134724685D01*
X155788500Y-134398666D01*
X155781745Y-134336484D01*
X155730615Y-134200095D01*
X155643261Y-134083539D01*
X155526705Y-133996185D01*
X155390316Y-133945055D01*
X155328134Y-133938300D01*
X153914500Y-133938300D01*
X153846379Y-133918298D01*
X153799886Y-133864642D01*
X153788500Y-133812300D01*
X153788500Y-132839223D01*
X153808502Y-132771102D01*
X153825405Y-132750127D01*
X154183329Y-132392204D01*
X154245641Y-132358179D01*
X154272424Y-132355300D01*
X155328134Y-132355300D01*
X155390316Y-132348545D01*
X155526705Y-132297415D01*
X155643261Y-132210061D01*
X155730615Y-132093505D01*
X155781745Y-131957116D01*
X155788500Y-131894934D01*
X159171500Y-131894934D01*
X159178255Y-131957116D01*
X159229385Y-132093505D01*
X159316739Y-132210061D01*
X159433295Y-132297415D01*
X159569684Y-132348545D01*
X159631866Y-132355300D01*
X161528134Y-132355300D01*
X161590316Y-132348545D01*
X161726705Y-132297415D01*
X161843261Y-132210061D01*
X161930615Y-132093505D01*
X161981745Y-131957116D01*
X161988500Y-131894934D01*
X161988500Y-130698666D01*
X161981745Y-130636484D01*
X161930615Y-130500095D01*
X161843261Y-130383539D01*
X161726705Y-130296185D01*
X161590316Y-130245055D01*
X161528134Y-130238300D01*
X159631866Y-130238300D01*
X159569684Y-130245055D01*
X159433295Y-130296185D01*
X159316739Y-130383539D01*
X159229385Y-130500095D01*
X159178255Y-130636484D01*
X159171500Y-130698666D01*
X159171500Y-131894934D01*
X155788500Y-131894934D01*
X155788500Y-130698666D01*
X155781745Y-130636484D01*
X155730615Y-130500095D01*
X155643261Y-130383539D01*
X155526705Y-130296185D01*
X155390316Y-130245055D01*
X155328134Y-130238300D01*
X153431866Y-130238300D01*
X153369684Y-130245055D01*
X153233295Y-130296185D01*
X153116739Y-130383539D01*
X153029385Y-130500095D01*
X152978255Y-130636484D01*
X152971500Y-130698666D01*
X152971500Y-131754377D01*
X152951498Y-131822498D01*
X152934595Y-131843472D01*
X152759517Y-132018550D01*
X152751191Y-132026126D01*
X152744697Y-132030247D01*
X152739274Y-132036022D01*
X152697915Y-132080065D01*
X152695160Y-132082907D01*
X152675361Y-132102706D01*
X152672937Y-132105831D01*
X152672929Y-132105840D01*
X152672863Y-132105926D01*
X152665155Y-132114951D01*
X152634783Y-132147294D01*
X152630965Y-132154238D01*
X152630964Y-132154240D01*
X152624978Y-132165129D01*
X152614127Y-132181647D01*
X152601650Y-132197733D01*
X152584024Y-132238466D01*
X152578807Y-132249114D01*
X152557431Y-132287997D01*
X152555460Y-132295672D01*
X152555458Y-132295678D01*
X152552369Y-132307711D01*
X152545966Y-132326413D01*
X152537883Y-132345092D01*
X152535810Y-132358179D01*
X152530940Y-132388927D01*
X152528535Y-132400540D01*
X152517500Y-132443518D01*
X152517500Y-132463865D01*
X152515949Y-132483576D01*
X152512765Y-132503679D01*
X147828500Y-132503679D01*
X147828500Y-124612400D01*
X186741696Y-124612400D01*
X186742386Y-124618965D01*
X186744053Y-124634821D01*
X186761658Y-124802328D01*
X186820673Y-124983956D01*
X186916160Y-125149344D01*
X186920580Y-125154253D01*
X186949237Y-125186080D01*
X186979954Y-125250088D01*
X186981600Y-125270390D01*
X186981600Y-136319491D01*
X186981308Y-136328062D01*
X186977582Y-136382712D01*
X186988006Y-136442435D01*
X186988963Y-136448925D01*
X186996240Y-136509056D01*
X186998926Y-136516165D01*
X187000350Y-136521962D01*
X187002580Y-136530117D01*
X187004308Y-136535841D01*
X187005614Y-136543322D01*
X187008667Y-136550277D01*
X187029963Y-136598790D01*
X187032456Y-136604899D01*
X187050470Y-136652572D01*
X187053869Y-136661568D01*
X187058170Y-136667827D01*
X187060924Y-136673094D01*
X187065057Y-136680519D01*
X187068092Y-136685651D01*
X187071146Y-136692608D01*
X187075770Y-136698634D01*
X187075771Y-136698636D01*
X187108022Y-136740666D01*
X187111900Y-136746004D01*
X187141909Y-136789669D01*
X187141915Y-136789676D01*
X187146214Y-136795931D01*
X187151882Y-136800981D01*
X187151883Y-136800982D01*
X187190310Y-136835219D01*
X187195586Y-136840201D01*
X187210038Y-136854653D01*
X187244064Y-136916965D01*
X187246253Y-136930575D01*
X187256958Y-137032428D01*
X187315973Y-137214056D01*
X187411460Y-137379444D01*
X187415878Y-137384351D01*
X187415879Y-137384352D01*
X187531549Y-137512817D01*
X187539247Y-137521366D01*
X187693748Y-137633618D01*
X187699776Y-137636302D01*
X187699778Y-137636303D01*
X187830860Y-137694664D01*
X187868212Y-137711294D01*
X187961613Y-137731147D01*
X188048556Y-137749628D01*
X188048561Y-137749628D01*
X188055013Y-137751000D01*
X188245987Y-137751000D01*
X188252439Y-137749628D01*
X188252444Y-137749628D01*
X188339387Y-137731147D01*
X188432788Y-137711294D01*
X188470140Y-137694664D01*
X188601222Y-137636303D01*
X188601224Y-137636302D01*
X188607252Y-137633618D01*
X188761753Y-137521366D01*
X188769451Y-137512817D01*
X188885121Y-137384352D01*
X188885122Y-137384351D01*
X188889540Y-137379444D01*
X188985027Y-137214056D01*
X189044042Y-137032428D01*
X189064004Y-136842500D01*
X189059640Y-136800982D01*
X189044732Y-136659135D01*
X189044732Y-136659133D01*
X189044042Y-136652572D01*
X188985027Y-136470944D01*
X188968554Y-136442411D01*
X188892841Y-136311274D01*
X188889540Y-136305556D01*
X188761753Y-136163634D01*
X188607252Y-136051382D01*
X188601224Y-136048698D01*
X188601222Y-136048697D01*
X188438814Y-135976389D01*
X188438815Y-135976389D01*
X188432788Y-135973706D01*
X188426335Y-135972334D01*
X188420049Y-135970292D01*
X188420628Y-135968509D01*
X188366137Y-135939095D01*
X188331810Y-135876948D01*
X188328800Y-135849570D01*
X188328800Y-125270390D01*
X188348802Y-125202269D01*
X188361163Y-125186080D01*
X188389820Y-125154253D01*
X188394240Y-125149344D01*
X188489727Y-124983956D01*
X188548742Y-124802328D01*
X188559447Y-124700477D01*
X188586460Y-124634821D01*
X188595662Y-124624553D01*
X192469310Y-120750905D01*
X192531622Y-120716879D01*
X192558405Y-120714000D01*
X194947549Y-120714000D01*
X194970509Y-120716110D01*
X194978593Y-120717608D01*
X194986173Y-120717171D01*
X194986174Y-120717171D01*
X195037543Y-120714209D01*
X195044796Y-120714000D01*
X202235759Y-120714000D01*
X202303880Y-120734002D01*
X202309820Y-120738064D01*
X202438448Y-120831518D01*
X202444476Y-120834202D01*
X202444478Y-120834203D01*
X202515186Y-120865684D01*
X202612912Y-120909194D01*
X202706313Y-120929047D01*
X202793256Y-120947528D01*
X202793261Y-120947528D01*
X202799713Y-120948900D01*
X202990687Y-120948900D01*
X202997139Y-120947528D01*
X202997144Y-120947528D01*
X203084087Y-120929047D01*
X203177488Y-120909194D01*
X203275214Y-120865684D01*
X203345922Y-120834203D01*
X203345924Y-120834202D01*
X203351952Y-120831518D01*
X203480580Y-120738064D01*
X203547448Y-120714206D01*
X203554641Y-120714000D01*
X205791759Y-120714000D01*
X205859880Y-120734002D01*
X205865820Y-120738064D01*
X205994448Y-120831518D01*
X206000476Y-120834202D01*
X206000478Y-120834203D01*
X206071186Y-120865684D01*
X206168912Y-120909194D01*
X206262313Y-120929047D01*
X206349256Y-120947528D01*
X206349261Y-120947528D01*
X206355713Y-120948900D01*
X206546687Y-120948900D01*
X206553139Y-120947528D01*
X206553144Y-120947528D01*
X206640087Y-120929047D01*
X206733488Y-120909194D01*
X206831214Y-120865684D01*
X206901922Y-120834203D01*
X206901924Y-120834202D01*
X206907952Y-120831518D01*
X207062453Y-120719266D01*
X207190240Y-120577344D01*
X207285727Y-120411956D01*
X207344742Y-120230328D01*
X207350094Y-120179412D01*
X207364014Y-120046965D01*
X207364704Y-120040400D01*
X207357817Y-119974876D01*
X207345432Y-119857035D01*
X207345432Y-119857033D01*
X207344742Y-119850472D01*
X207285727Y-119668844D01*
X207190240Y-119503456D01*
X207184515Y-119497097D01*
X207066875Y-119366445D01*
X207066874Y-119366444D01*
X207062453Y-119361534D01*
X206907952Y-119249282D01*
X206901924Y-119246598D01*
X206901922Y-119246597D01*
X206739519Y-119174291D01*
X206739518Y-119174291D01*
X206733488Y-119171606D01*
X206640088Y-119151753D01*
X206553144Y-119133272D01*
X206553139Y-119133272D01*
X206546687Y-119131900D01*
X206355713Y-119131900D01*
X206349261Y-119133272D01*
X206349256Y-119133272D01*
X206262312Y-119151753D01*
X206168912Y-119171606D01*
X206162882Y-119174291D01*
X206162881Y-119174291D01*
X206000478Y-119246597D01*
X206000476Y-119246598D01*
X205994448Y-119249282D01*
X205989107Y-119253162D01*
X205989106Y-119253163D01*
X205865820Y-119342736D01*
X205798952Y-119366594D01*
X205791759Y-119366800D01*
X203554641Y-119366800D01*
X203486520Y-119346798D01*
X203480580Y-119342736D01*
X203357294Y-119253163D01*
X203357293Y-119253162D01*
X203351952Y-119249282D01*
X203345924Y-119246598D01*
X203345922Y-119246597D01*
X203183519Y-119174291D01*
X203183518Y-119174291D01*
X203177488Y-119171606D01*
X203084088Y-119151753D01*
X202997144Y-119133272D01*
X202997139Y-119133272D01*
X202990687Y-119131900D01*
X202799713Y-119131900D01*
X202793261Y-119133272D01*
X202793256Y-119133272D01*
X202706312Y-119151753D01*
X202612912Y-119171606D01*
X202606882Y-119174291D01*
X202606881Y-119174291D01*
X202444478Y-119246597D01*
X202444476Y-119246598D01*
X202438448Y-119249282D01*
X202433107Y-119253162D01*
X202433106Y-119253163D01*
X202309820Y-119342736D01*
X202242952Y-119366594D01*
X202235759Y-119366800D01*
X195352406Y-119366800D01*
X195284285Y-119346798D01*
X195263311Y-119329896D01*
X194766505Y-118833091D01*
X194732480Y-118770778D01*
X194729600Y-118743995D01*
X194729600Y-118361590D01*
X194749602Y-118293469D01*
X194761963Y-118277280D01*
X194790620Y-118245453D01*
X194795040Y-118240544D01*
X194810237Y-118214223D01*
X194887223Y-118080879D01*
X194887224Y-118080878D01*
X194890527Y-118075156D01*
X194949542Y-117893528D01*
X194969504Y-117703600D01*
X194949542Y-117513672D01*
X194890527Y-117332044D01*
X194795040Y-117166656D01*
X194788040Y-117158881D01*
X194671675Y-117029645D01*
X194671674Y-117029644D01*
X194667253Y-117024734D01*
X194568157Y-116952736D01*
X194518094Y-116916363D01*
X194518093Y-116916362D01*
X194512752Y-116912482D01*
X194506724Y-116909798D01*
X194506722Y-116909797D01*
X194344319Y-116837491D01*
X194344318Y-116837491D01*
X194338288Y-116834806D01*
X194241147Y-116814158D01*
X194157944Y-116796472D01*
X194157939Y-116796472D01*
X194151487Y-116795100D01*
X193960513Y-116795100D01*
X193954061Y-116796472D01*
X193954056Y-116796472D01*
X193870853Y-116814158D01*
X193773712Y-116834806D01*
X193767682Y-116837491D01*
X193767681Y-116837491D01*
X193605278Y-116909797D01*
X193605276Y-116909798D01*
X193599248Y-116912482D01*
X193593907Y-116916362D01*
X193593906Y-116916363D01*
X193543843Y-116952736D01*
X193444747Y-117024734D01*
X193440326Y-117029644D01*
X193440325Y-117029645D01*
X193323961Y-117158881D01*
X193316960Y-117166656D01*
X193221473Y-117332044D01*
X193162458Y-117513672D01*
X193142496Y-117703600D01*
X193162458Y-117893528D01*
X193221473Y-118075156D01*
X193224776Y-118080878D01*
X193224777Y-118080879D01*
X193301764Y-118214223D01*
X193316960Y-118240544D01*
X193321380Y-118245453D01*
X193350037Y-118277280D01*
X193380754Y-118341288D01*
X193382400Y-118361590D01*
X193382400Y-119047491D01*
X193382108Y-119056062D01*
X193378382Y-119110712D01*
X193388806Y-119170435D01*
X193389759Y-119176893D01*
X193395662Y-119225666D01*
X193383988Y-119295694D01*
X193336306Y-119348296D01*
X193270574Y-119366800D01*
X192254898Y-119366800D01*
X192246328Y-119366508D01*
X192199263Y-119363299D01*
X192199259Y-119363299D01*
X192191687Y-119362783D01*
X192131986Y-119373203D01*
X192125474Y-119374163D01*
X192106702Y-119376435D01*
X192072887Y-119380527D01*
X192072885Y-119380527D01*
X192065344Y-119381440D01*
X192058241Y-119384124D01*
X192052446Y-119385547D01*
X192044296Y-119387777D01*
X192038565Y-119389507D01*
X192031078Y-119390814D01*
X192024123Y-119393867D01*
X191975604Y-119415165D01*
X191969497Y-119417657D01*
X191936864Y-119429988D01*
X191912832Y-119439069D01*
X191906573Y-119443371D01*
X191901251Y-119446153D01*
X191893917Y-119450235D01*
X191888749Y-119453292D01*
X191881791Y-119456346D01*
X191833720Y-119493233D01*
X191828411Y-119497090D01*
X191778469Y-119531414D01*
X191773419Y-119537082D01*
X191773418Y-119537083D01*
X191739173Y-119575519D01*
X191734191Y-119580795D01*
X187647895Y-123667091D01*
X187585583Y-123701117D01*
X187571968Y-123703306D01*
X187566315Y-123703900D01*
X187559713Y-123703900D01*
X187553260Y-123705272D01*
X187553257Y-123705272D01*
X187490687Y-123718572D01*
X187372912Y-123743606D01*
X187366882Y-123746291D01*
X187366881Y-123746291D01*
X187204478Y-123818597D01*
X187204476Y-123818598D01*
X187198448Y-123821282D01*
X187043947Y-123933534D01*
X186916160Y-124075456D01*
X186820673Y-124240844D01*
X186761658Y-124422472D01*
X186741696Y-124612400D01*
X147828500Y-124612400D01*
X147828500Y-120636393D01*
X171180639Y-120636393D01*
X171180839Y-120641722D01*
X171180839Y-120641723D01*
X171183561Y-120714209D01*
X171189448Y-120871016D01*
X171205502Y-120947528D01*
X171215394Y-120994671D01*
X171237662Y-121100801D01*
X171323902Y-121319177D01*
X171445704Y-121519900D01*
X171599585Y-121697232D01*
X171603717Y-121700620D01*
X171777016Y-121842717D01*
X171777022Y-121842721D01*
X171781144Y-121846101D01*
X171785780Y-121848740D01*
X171785783Y-121848742D01*
X171897008Y-121912055D01*
X171985190Y-121962251D01*
X172205889Y-122042361D01*
X172211138Y-122043310D01*
X172211141Y-122043311D01*
X172292215Y-122057971D01*
X172436930Y-122084140D01*
X172441069Y-122084335D01*
X172441076Y-122084336D01*
X172460040Y-122085230D01*
X172460049Y-122085230D01*
X172461529Y-122085300D01*
X172626550Y-122085300D01*
X172707899Y-122078397D01*
X172796237Y-122070902D01*
X172796241Y-122070901D01*
X172801548Y-122070451D01*
X172806703Y-122069113D01*
X172806709Y-122069112D01*
X173023635Y-122012809D01*
X173023634Y-122012809D01*
X173028806Y-122011467D01*
X173033672Y-122009275D01*
X173033675Y-122009274D01*
X173238017Y-121917224D01*
X173238020Y-121917223D01*
X173242878Y-121915034D01*
X173437641Y-121783912D01*
X173607527Y-121621849D01*
X173747678Y-121433479D01*
X173808319Y-121314208D01*
X173851669Y-121228944D01*
X173851669Y-121228943D01*
X173854087Y-121224188D01*
X173923711Y-120999960D01*
X173935560Y-120910566D01*
X173942363Y-120859238D01*
X175145200Y-120859238D01*
X175184664Y-121171630D01*
X175262970Y-121476613D01*
X175378884Y-121769377D01*
X175380786Y-121772836D01*
X175380787Y-121772839D01*
X175512712Y-122012809D01*
X175530576Y-122045304D01*
X175715655Y-122300044D01*
X175931202Y-122529578D01*
X176173818Y-122730287D01*
X176439676Y-122899006D01*
X176443255Y-122900690D01*
X176443262Y-122900694D01*
X176720994Y-123031384D01*
X176720998Y-123031386D01*
X176724584Y-123033073D01*
X177024048Y-123130375D01*
X177333346Y-123189377D01*
X177426900Y-123195263D01*
X177566958Y-123204075D01*
X177566974Y-123204076D01*
X177568953Y-123204200D01*
X177726247Y-123204200D01*
X177728226Y-123204076D01*
X177728242Y-123204075D01*
X177868300Y-123195263D01*
X177961854Y-123189377D01*
X178271152Y-123130375D01*
X178570616Y-123033073D01*
X178574202Y-123031386D01*
X178574206Y-123031384D01*
X178851938Y-122900694D01*
X178851945Y-122900690D01*
X178855524Y-122899006D01*
X179121382Y-122730287D01*
X179363998Y-122529578D01*
X179579545Y-122300044D01*
X179764624Y-122045304D01*
X179782489Y-122012809D01*
X179914413Y-121772839D01*
X179914414Y-121772836D01*
X179916316Y-121769377D01*
X180032230Y-121476613D01*
X180110536Y-121171630D01*
X180150000Y-120859238D01*
X180150000Y-120636393D01*
X181340639Y-120636393D01*
X181340839Y-120641722D01*
X181340839Y-120641723D01*
X181343561Y-120714209D01*
X181349448Y-120871016D01*
X181365502Y-120947528D01*
X181375394Y-120994671D01*
X181397662Y-121100801D01*
X181483902Y-121319177D01*
X181605704Y-121519900D01*
X181759585Y-121697232D01*
X181763717Y-121700620D01*
X181937016Y-121842717D01*
X181937022Y-121842721D01*
X181941144Y-121846101D01*
X181945780Y-121848740D01*
X181945783Y-121848742D01*
X182057008Y-121912055D01*
X182145190Y-121962251D01*
X182365889Y-122042361D01*
X182371138Y-122043310D01*
X182371141Y-122043311D01*
X182452215Y-122057971D01*
X182596930Y-122084140D01*
X182601069Y-122084335D01*
X182601076Y-122084336D01*
X182620040Y-122085230D01*
X182620049Y-122085230D01*
X182621529Y-122085300D01*
X182786550Y-122085300D01*
X182867899Y-122078397D01*
X182956237Y-122070902D01*
X182956241Y-122070901D01*
X182961548Y-122070451D01*
X182966703Y-122069113D01*
X182966709Y-122069112D01*
X183183635Y-122012809D01*
X183183634Y-122012809D01*
X183188806Y-122011467D01*
X183193672Y-122009275D01*
X183193675Y-122009274D01*
X183398017Y-121917224D01*
X183398020Y-121917223D01*
X183402878Y-121915034D01*
X183597641Y-121783912D01*
X183767527Y-121621849D01*
X183907678Y-121433479D01*
X183968319Y-121314208D01*
X184011669Y-121228944D01*
X184011669Y-121228943D01*
X184014087Y-121224188D01*
X184083711Y-120999960D01*
X184095560Y-120910566D01*
X184113861Y-120772490D01*
X184113861Y-120772487D01*
X184114561Y-120767207D01*
X184105752Y-120532584D01*
X184080442Y-120411956D01*
X184058635Y-120308026D01*
X184058634Y-120308023D01*
X184057538Y-120302799D01*
X183971298Y-120084423D01*
X183849496Y-119883700D01*
X183695615Y-119706368D01*
X183649851Y-119668844D01*
X183518184Y-119560883D01*
X183518178Y-119560879D01*
X183514056Y-119557499D01*
X183509420Y-119554860D01*
X183509417Y-119554858D01*
X183325620Y-119450235D01*
X183310010Y-119441349D01*
X183089311Y-119361239D01*
X183084062Y-119360290D01*
X183084059Y-119360289D01*
X182986988Y-119342736D01*
X182858270Y-119319460D01*
X182854131Y-119319265D01*
X182854124Y-119319264D01*
X182835160Y-119318370D01*
X182835151Y-119318370D01*
X182833671Y-119318300D01*
X182668650Y-119318300D01*
X182587301Y-119325203D01*
X182498963Y-119332698D01*
X182498959Y-119332699D01*
X182493652Y-119333149D01*
X182488497Y-119334487D01*
X182488491Y-119334488D01*
X182335626Y-119374164D01*
X182266394Y-119392133D01*
X182261528Y-119394325D01*
X182261525Y-119394326D01*
X182057183Y-119486376D01*
X182057180Y-119486377D01*
X182052322Y-119488566D01*
X181857559Y-119619688D01*
X181687673Y-119781751D01*
X181547522Y-119970121D01*
X181545106Y-119974872D01*
X181545104Y-119974876D01*
X181443531Y-120174656D01*
X181441113Y-120179412D01*
X181371489Y-120403640D01*
X181370788Y-120408929D01*
X181348466Y-120577344D01*
X181340639Y-120636393D01*
X180150000Y-120636393D01*
X180150000Y-120544362D01*
X180110536Y-120231970D01*
X180032230Y-119926987D01*
X179916316Y-119634223D01*
X179910349Y-119623369D01*
X179766533Y-119361768D01*
X179766531Y-119361765D01*
X179764624Y-119358296D01*
X179579545Y-119103556D01*
X179363998Y-118874022D01*
X179121382Y-118673313D01*
X178938090Y-118556992D01*
X178858871Y-118506718D01*
X178858870Y-118506718D01*
X178855524Y-118504594D01*
X178851945Y-118502910D01*
X178851938Y-118502906D01*
X178574206Y-118372216D01*
X178574202Y-118372214D01*
X178570616Y-118370527D01*
X178271152Y-118273225D01*
X177961854Y-118214223D01*
X177868300Y-118208337D01*
X177728242Y-118199525D01*
X177728226Y-118199524D01*
X177726247Y-118199400D01*
X177568953Y-118199400D01*
X177566974Y-118199524D01*
X177566958Y-118199525D01*
X177426900Y-118208337D01*
X177333346Y-118214223D01*
X177024048Y-118273225D01*
X176724584Y-118370527D01*
X176720998Y-118372214D01*
X176720994Y-118372216D01*
X176443262Y-118502906D01*
X176443255Y-118502910D01*
X176439676Y-118504594D01*
X176436330Y-118506718D01*
X176436329Y-118506718D01*
X176357110Y-118556992D01*
X176173818Y-118673313D01*
X175931202Y-118874022D01*
X175715655Y-119103556D01*
X175530576Y-119358296D01*
X175528669Y-119361765D01*
X175528667Y-119361768D01*
X175384851Y-119623369D01*
X175378884Y-119634223D01*
X175262970Y-119926987D01*
X175184664Y-120231970D01*
X175145200Y-120544362D01*
X175145200Y-120859238D01*
X173942363Y-120859238D01*
X173953861Y-120772490D01*
X173953861Y-120772487D01*
X173954561Y-120767207D01*
X173945752Y-120532584D01*
X173920442Y-120411956D01*
X173898635Y-120308026D01*
X173898634Y-120308023D01*
X173897538Y-120302799D01*
X173811298Y-120084423D01*
X173752634Y-119987748D01*
X173734395Y-119919134D01*
X173756146Y-119851551D01*
X173810983Y-119806457D01*
X173863433Y-119796420D01*
X173899370Y-119797299D01*
X173921243Y-119797834D01*
X173921245Y-119797834D01*
X173926199Y-119797955D01*
X174181060Y-119763950D01*
X174427462Y-119690497D01*
X174659341Y-119579401D01*
X174664969Y-119575519D01*
X174728903Y-119531414D01*
X174870985Y-119433399D01*
X175010563Y-119300483D01*
X175036728Y-119271322D01*
X176285388Y-117879688D01*
X176297338Y-117868027D01*
X176302472Y-117863642D01*
X176302475Y-117863639D01*
X176306231Y-117860431D01*
X176309438Y-117856676D01*
X176309445Y-117856669D01*
X176375734Y-117779054D01*
X176377763Y-117776736D01*
X176404633Y-117746790D01*
X176404648Y-117746771D01*
X176406289Y-117744943D01*
X176407784Y-117742987D01*
X176407792Y-117742978D01*
X176416375Y-117731752D01*
X176420658Y-117726454D01*
X176470000Y-117668681D01*
X176473216Y-117664916D01*
X176475799Y-117660701D01*
X176475807Y-117660690D01*
X176493007Y-117632622D01*
X176500336Y-117621937D01*
X176523356Y-117591829D01*
X176561872Y-117520597D01*
X176565274Y-117514693D01*
X176604971Y-117449913D01*
X176604974Y-117449906D01*
X176607560Y-117445687D01*
X176609453Y-117441117D01*
X176609457Y-117441109D01*
X176622053Y-117410698D01*
X176627621Y-117398997D01*
X176645649Y-117365656D01*
X176672552Y-117289263D01*
X176674987Y-117282904D01*
X176704063Y-117212709D01*
X176704065Y-117212703D01*
X176705955Y-117208140D01*
X176707107Y-117203340D01*
X176707110Y-117203332D01*
X176714795Y-117171320D01*
X176718468Y-117158881D01*
X176729414Y-117127800D01*
X176729415Y-117127794D01*
X176731056Y-117123136D01*
X176745676Y-117043481D01*
X176747087Y-117036814D01*
X176764823Y-116962938D01*
X176764824Y-116962935D01*
X176765978Y-116958126D01*
X176768949Y-116920377D01*
X176770631Y-116907518D01*
X176776577Y-116875118D01*
X176777472Y-116870243D01*
X176779452Y-116789274D01*
X176779801Y-116782478D01*
X176785763Y-116706729D01*
X176786151Y-116701800D01*
X176783181Y-116664055D01*
X176782831Y-116651093D01*
X176783636Y-116618158D01*
X176783636Y-116618156D01*
X176783757Y-116613201D01*
X176773045Y-116532918D01*
X176772326Y-116526140D01*
X176766366Y-116450404D01*
X176765978Y-116445474D01*
X176764824Y-116440669D01*
X176764822Y-116440654D01*
X176757138Y-116408650D01*
X176754763Y-116395898D01*
X176750407Y-116363246D01*
X176750406Y-116363241D01*
X176749752Y-116358340D01*
X176726615Y-116280727D01*
X176724846Y-116274148D01*
X176707110Y-116200272D01*
X176705955Y-116195460D01*
X176704059Y-116190882D01*
X176691467Y-116160481D01*
X176688966Y-116153440D01*
X178513555Y-116153440D01*
X178513579Y-116155924D01*
X178513579Y-116155926D01*
X178513962Y-116195460D01*
X178515421Y-116346171D01*
X178558101Y-116599722D01*
X178559673Y-116604406D01*
X178559674Y-116604409D01*
X178637009Y-116834806D01*
X178639919Y-116843476D01*
X178642209Y-116847864D01*
X178642209Y-116847865D01*
X178744744Y-117044373D01*
X178758861Y-117071429D01*
X178911998Y-117277969D01*
X179095561Y-117458010D01*
X179099600Y-117460885D01*
X179099601Y-117460886D01*
X179289062Y-117595754D01*
X179305027Y-117607119D01*
X179309463Y-117609325D01*
X179309464Y-117609326D01*
X179530808Y-117719420D01*
X179530812Y-117719422D01*
X179535242Y-117721625D01*
X179780534Y-117798707D01*
X180034864Y-117836468D01*
X180098651Y-117835850D01*
X180287020Y-117834027D01*
X180287021Y-117834027D01*
X180291971Y-117833979D01*
X180545522Y-117791299D01*
X180550206Y-117789727D01*
X180550209Y-117789726D01*
X180784585Y-117711056D01*
X180784590Y-117711054D01*
X180789276Y-117709481D01*
X180813129Y-117697035D01*
X181012837Y-117592831D01*
X181012840Y-117592829D01*
X181017229Y-117590539D01*
X181021358Y-117587478D01*
X181060058Y-117558784D01*
X181223769Y-117437402D01*
X181403810Y-117253839D01*
X181461801Y-117172374D01*
X181550047Y-117048408D01*
X181550049Y-117048405D01*
X181552919Y-117044373D01*
X181618520Y-116912482D01*
X181665220Y-116818592D01*
X181665222Y-116818588D01*
X181667425Y-116814158D01*
X181744507Y-116568866D01*
X181772813Y-116378216D01*
X181773846Y-116363246D01*
X181816637Y-115742771D01*
X181816726Y-115741554D01*
X181825763Y-115626730D01*
X181826151Y-115621800D01*
X181820819Y-115554047D01*
X181820437Y-115545382D01*
X181819827Y-115482380D01*
X181819827Y-115482379D01*
X181819779Y-115477429D01*
X181813788Y-115441837D01*
X181811331Y-115427241D01*
X181809971Y-115416212D01*
X181808758Y-115400797D01*
X181805978Y-115365474D01*
X181797964Y-115332092D01*
X181790113Y-115299389D01*
X181788380Y-115290892D01*
X181783455Y-115261636D01*
X181777099Y-115223878D01*
X181771795Y-115208075D01*
X181760906Y-115175637D01*
X181757837Y-115164954D01*
X181747109Y-115120267D01*
X181747109Y-115120266D01*
X181745955Y-115115460D01*
X181719941Y-115052656D01*
X181716907Y-115044553D01*
X181696857Y-114984818D01*
X181696855Y-114984813D01*
X181695281Y-114980124D01*
X181692992Y-114975737D01*
X181692989Y-114975730D01*
X181671741Y-114935009D01*
X181667039Y-114924939D01*
X181649457Y-114882491D01*
X181649453Y-114882484D01*
X181647560Y-114877913D01*
X181612044Y-114819957D01*
X181607780Y-114812428D01*
X181578629Y-114756560D01*
X181576339Y-114752171D01*
X181573391Y-114748194D01*
X181573386Y-114748187D01*
X181546024Y-114711283D01*
X181539814Y-114702087D01*
X181513216Y-114658684D01*
X181469078Y-114607005D01*
X181463690Y-114600238D01*
X181423202Y-114545630D01*
X181386860Y-114509984D01*
X181379279Y-114501863D01*
X181349439Y-114466925D01*
X181346231Y-114463169D01*
X181342475Y-114459961D01*
X181342470Y-114459956D01*
X181294561Y-114419038D01*
X181288163Y-114413181D01*
X181243173Y-114369054D01*
X181243165Y-114369047D01*
X181239639Y-114365589D01*
X181208096Y-114343135D01*
X181198172Y-114336071D01*
X181189411Y-114329233D01*
X181154483Y-114299401D01*
X181154480Y-114299399D01*
X181150716Y-114296184D01*
X181092775Y-114260678D01*
X181085568Y-114255914D01*
X181030173Y-114216480D01*
X180984593Y-114193810D01*
X180974871Y-114188426D01*
X180948682Y-114172377D01*
X180931487Y-114161840D01*
X180926917Y-114159947D01*
X180926915Y-114159946D01*
X180868701Y-114135833D01*
X180860807Y-114132240D01*
X180804391Y-114104180D01*
X180804392Y-114104180D01*
X180799958Y-114101975D01*
X180751399Y-114086715D01*
X180740960Y-114082921D01*
X180693940Y-114063445D01*
X180631676Y-114048497D01*
X180627857Y-114047580D01*
X180619496Y-114045265D01*
X180559392Y-114026377D01*
X180559390Y-114026377D01*
X180554666Y-114024892D01*
X180504321Y-114017417D01*
X180493410Y-114015302D01*
X180489587Y-114014384D01*
X180443926Y-114003422D01*
X180422884Y-114001766D01*
X180376175Y-113998090D01*
X180367557Y-113997112D01*
X180317100Y-113989621D01*
X180300336Y-113987132D01*
X180295381Y-113987180D01*
X180249452Y-113987625D01*
X180238344Y-113987243D01*
X180192530Y-113983637D01*
X180187600Y-113983249D01*
X180182670Y-113983637D01*
X180182669Y-113983637D01*
X180119846Y-113988581D01*
X180111181Y-113988963D01*
X180048180Y-113989573D01*
X180048179Y-113989573D01*
X180043229Y-113989621D01*
X179993039Y-113998069D01*
X179982011Y-113999429D01*
X179931274Y-114003422D01*
X179926461Y-114004578D01*
X179926458Y-114004578D01*
X179865193Y-114019286D01*
X179856695Y-114021019D01*
X179794564Y-114031477D01*
X179794557Y-114031479D01*
X179789678Y-114032300D01*
X179784982Y-114033876D01*
X179784983Y-114033876D01*
X179741423Y-114048497D01*
X179730747Y-114051564D01*
X179681260Y-114063445D01*
X179676694Y-114065336D01*
X179676692Y-114065337D01*
X179618480Y-114089449D01*
X179610356Y-114092491D01*
X179586525Y-114100490D01*
X179545924Y-114114118D01*
X179511979Y-114131830D01*
X179500796Y-114137665D01*
X179490727Y-114142366D01*
X179443713Y-114161840D01*
X179439494Y-114164425D01*
X179439483Y-114164431D01*
X179385768Y-114197348D01*
X179378220Y-114201624D01*
X179322363Y-114230769D01*
X179322360Y-114230771D01*
X179317971Y-114233061D01*
X179313991Y-114236012D01*
X179277090Y-114263372D01*
X179267880Y-114269591D01*
X179224484Y-114296184D01*
X179172793Y-114340332D01*
X179166045Y-114345705D01*
X179111431Y-114386198D01*
X179107975Y-114389722D01*
X179107970Y-114389726D01*
X179075792Y-114422534D01*
X179067670Y-114430115D01*
X179028969Y-114463169D01*
X179025761Y-114466925D01*
X179025756Y-114466930D01*
X178984831Y-114514847D01*
X178978974Y-114521245D01*
X178934855Y-114566227D01*
X178934848Y-114566235D01*
X178931390Y-114569761D01*
X178928525Y-114573786D01*
X178928524Y-114573787D01*
X178901877Y-114611221D01*
X178895039Y-114619982D01*
X178861984Y-114658684D01*
X178829751Y-114711283D01*
X178826480Y-114716621D01*
X178821697Y-114723855D01*
X178798416Y-114756560D01*
X178782281Y-114779227D01*
X178780079Y-114783654D01*
X178780076Y-114783659D01*
X178759614Y-114824798D01*
X178754242Y-114834502D01*
X178727640Y-114877913D01*
X178725749Y-114882478D01*
X178725746Y-114882484D01*
X178701631Y-114940703D01*
X178698047Y-114948579D01*
X178667775Y-115009441D01*
X178666293Y-115014157D01*
X178666289Y-115014167D01*
X178652514Y-115058001D01*
X178648719Y-115068445D01*
X178642677Y-115083033D01*
X178629245Y-115115460D01*
X178613374Y-115181565D01*
X178611075Y-115189873D01*
X178590693Y-115254733D01*
X178589966Y-115259631D01*
X178583218Y-115305076D01*
X178581103Y-115315982D01*
X178570379Y-115360654D01*
X178569222Y-115365474D01*
X178568834Y-115370405D01*
X178568833Y-115370411D01*
X178563889Y-115433232D01*
X178562913Y-115441837D01*
X178562751Y-115442931D01*
X178562387Y-115445384D01*
X178559423Y-115488355D01*
X178558565Y-115500797D01*
X178558476Y-115502008D01*
X178549049Y-115621800D01*
X178549437Y-115626730D01*
X178549437Y-115628820D01*
X178549138Y-115637489D01*
X178516726Y-116107467D01*
X178513555Y-116153440D01*
X176688966Y-116153440D01*
X176687127Y-116148261D01*
X176676299Y-116111938D01*
X176641305Y-116038899D01*
X176638529Y-116032679D01*
X176609455Y-115962487D01*
X176609453Y-115962483D01*
X176607560Y-115957913D01*
X176604974Y-115953694D01*
X176604971Y-115953687D01*
X176587776Y-115925627D01*
X176581578Y-115914236D01*
X176567339Y-115884518D01*
X176565203Y-115880059D01*
X176519217Y-115813398D01*
X176515499Y-115807685D01*
X176473216Y-115738684D01*
X176448630Y-115709897D01*
X176440727Y-115699617D01*
X176422009Y-115672483D01*
X176422002Y-115672475D01*
X176419201Y-115668414D01*
X176363354Y-115609768D01*
X176358791Y-115604709D01*
X176309449Y-115546936D01*
X176309443Y-115546930D01*
X176306231Y-115543169D01*
X176277431Y-115518572D01*
X176268020Y-115509656D01*
X176260233Y-115501478D01*
X176241889Y-115482215D01*
X176237957Y-115479209D01*
X176237954Y-115479206D01*
X176177547Y-115433021D01*
X176172274Y-115428759D01*
X176110716Y-115376184D01*
X176078424Y-115356395D01*
X176067742Y-115349068D01*
X176037631Y-115326046D01*
X175966407Y-115287535D01*
X175960513Y-115284139D01*
X175895707Y-115244426D01*
X175891487Y-115241840D01*
X175886917Y-115239947D01*
X175886909Y-115239943D01*
X175856491Y-115227344D01*
X175844789Y-115221775D01*
X175811458Y-115203753D01*
X175735082Y-115176856D01*
X175728723Y-115174421D01*
X175658513Y-115145339D01*
X175658511Y-115145338D01*
X175653940Y-115143445D01*
X175649129Y-115142290D01*
X175649126Y-115142289D01*
X175628424Y-115137319D01*
X175617111Y-115134603D01*
X175604673Y-115130930D01*
X175573612Y-115119991D01*
X175573604Y-115119989D01*
X175568939Y-115118346D01*
X175489297Y-115103728D01*
X175482653Y-115102322D01*
X175430310Y-115089756D01*
X175408738Y-115084577D01*
X175408735Y-115084577D01*
X175403926Y-115083422D01*
X175383213Y-115081792D01*
X175366163Y-115080450D01*
X175353303Y-115078768D01*
X175320918Y-115072824D01*
X175320913Y-115072823D01*
X175316045Y-115071930D01*
X175235110Y-115069951D01*
X175228329Y-115069603D01*
X175147600Y-115063249D01*
X175142670Y-115063637D01*
X175109838Y-115066221D01*
X175096872Y-115066571D01*
X175063960Y-115065766D01*
X175063957Y-115065766D01*
X175059003Y-115065645D01*
X174978749Y-115076353D01*
X174971999Y-115077069D01*
X174938302Y-115079721D01*
X174896211Y-115083033D01*
X174896205Y-115083034D01*
X174891274Y-115083422D01*
X174886462Y-115084577D01*
X174886457Y-115084578D01*
X174854431Y-115092267D01*
X174841685Y-115094641D01*
X174804143Y-115099650D01*
X174726573Y-115122773D01*
X174720011Y-115124538D01*
X174641260Y-115143445D01*
X174636694Y-115145336D01*
X174636692Y-115145337D01*
X174606253Y-115157945D01*
X174594030Y-115162285D01*
X174557740Y-115173103D01*
X174540145Y-115181533D01*
X174484745Y-115208075D01*
X174478523Y-115210851D01*
X174408291Y-115239943D01*
X174408284Y-115239947D01*
X174403713Y-115241840D01*
X174371397Y-115261643D01*
X174360017Y-115267834D01*
X174330324Y-115282060D01*
X174330317Y-115282064D01*
X174325861Y-115284199D01*
X174316159Y-115290892D01*
X174259252Y-115330149D01*
X174253540Y-115333865D01*
X174188707Y-115373595D01*
X174188697Y-115373602D01*
X174184484Y-115376184D01*
X174163271Y-115394302D01*
X174155666Y-115400797D01*
X174145389Y-115408698D01*
X174114217Y-115430201D01*
X174059597Y-115482215D01*
X174055620Y-115486002D01*
X174050560Y-115490566D01*
X173988969Y-115543169D01*
X173985761Y-115546925D01*
X173985756Y-115546930D01*
X173919399Y-115624624D01*
X173917378Y-115626934D01*
X172578913Y-117118656D01*
X172461846Y-117271771D01*
X172339553Y-117497944D01*
X172337909Y-117502611D01*
X172337909Y-117502612D01*
X172255788Y-117735799D01*
X172255786Y-117735805D01*
X172254146Y-117740463D01*
X172253254Y-117745324D01*
X172253253Y-117745327D01*
X172224900Y-117899806D01*
X172207730Y-117993357D01*
X172207609Y-117998312D01*
X172202330Y-118214223D01*
X172201445Y-118250399D01*
X172235450Y-118505260D01*
X172308903Y-118751662D01*
X172419999Y-118983541D01*
X172422814Y-118987622D01*
X172422816Y-118987625D01*
X172519761Y-119128157D01*
X172541979Y-119195588D01*
X172524213Y-119264326D01*
X172472105Y-119312547D01*
X172426700Y-119325254D01*
X172389145Y-119328440D01*
X172338963Y-119332698D01*
X172338959Y-119332699D01*
X172333652Y-119333149D01*
X172328497Y-119334487D01*
X172328491Y-119334488D01*
X172175626Y-119374164D01*
X172106394Y-119392133D01*
X172101528Y-119394325D01*
X172101525Y-119394326D01*
X171897183Y-119486376D01*
X171897180Y-119486377D01*
X171892322Y-119488566D01*
X171697559Y-119619688D01*
X171527673Y-119781751D01*
X171387522Y-119970121D01*
X171385106Y-119974872D01*
X171385104Y-119974876D01*
X171283531Y-120174656D01*
X171281113Y-120179412D01*
X171211489Y-120403640D01*
X171210788Y-120408929D01*
X171188466Y-120577344D01*
X171180639Y-120636393D01*
X147828500Y-120636393D01*
X147828500Y-111619393D01*
X152130639Y-111619393D01*
X152139448Y-111854016D01*
X152140543Y-111859234D01*
X152165394Y-111977671D01*
X152187662Y-112083801D01*
X152273902Y-112302177D01*
X152395704Y-112502900D01*
X152549585Y-112680232D01*
X152553717Y-112683620D01*
X152727016Y-112825717D01*
X152727022Y-112825721D01*
X152731144Y-112829101D01*
X152735780Y-112831740D01*
X152735783Y-112831742D01*
X152847008Y-112895055D01*
X152935190Y-112945251D01*
X153155889Y-113025361D01*
X153161138Y-113026310D01*
X153161141Y-113026311D01*
X153242215Y-113040971D01*
X153386930Y-113067140D01*
X153391069Y-113067335D01*
X153391076Y-113067336D01*
X153410040Y-113068230D01*
X153410049Y-113068230D01*
X153411529Y-113068300D01*
X153576550Y-113068300D01*
X153657899Y-113061397D01*
X153746237Y-113053902D01*
X153746241Y-113053901D01*
X153751548Y-113053451D01*
X153756703Y-113052113D01*
X153756709Y-113052112D01*
X153973635Y-112995809D01*
X153973634Y-112995809D01*
X153978806Y-112994467D01*
X153983672Y-112992275D01*
X153983675Y-112992274D01*
X154188017Y-112900224D01*
X154188020Y-112900223D01*
X154192878Y-112898034D01*
X154387641Y-112766912D01*
X154557527Y-112604849D01*
X154697678Y-112416479D01*
X154758319Y-112297208D01*
X154801669Y-112211944D01*
X154801669Y-112211943D01*
X154804087Y-112207188D01*
X154873711Y-111982960D01*
X154890802Y-111854016D01*
X154892363Y-111842238D01*
X156095200Y-111842238D01*
X156134664Y-112154630D01*
X156212970Y-112459613D01*
X156328884Y-112752377D01*
X156330786Y-112755836D01*
X156330787Y-112755839D01*
X156462712Y-112995809D01*
X156480576Y-113028304D01*
X156665655Y-113283044D01*
X156881202Y-113512578D01*
X157123818Y-113713287D01*
X157389676Y-113882006D01*
X157393255Y-113883690D01*
X157393262Y-113883694D01*
X157670994Y-114014384D01*
X157670998Y-114014386D01*
X157674584Y-114016073D01*
X157678356Y-114017299D01*
X157678357Y-114017299D01*
X157768441Y-114046569D01*
X157974048Y-114113375D01*
X158283346Y-114172377D01*
X158376900Y-114178263D01*
X158516958Y-114187075D01*
X158516974Y-114187076D01*
X158518953Y-114187200D01*
X158676247Y-114187200D01*
X158678226Y-114187076D01*
X158678242Y-114187075D01*
X158818300Y-114178263D01*
X158911854Y-114172377D01*
X159221152Y-114113375D01*
X159426759Y-114046569D01*
X159516843Y-114017299D01*
X159516844Y-114017299D01*
X159520616Y-114016073D01*
X159524202Y-114014386D01*
X159524206Y-114014384D01*
X159801938Y-113883694D01*
X159801945Y-113883690D01*
X159805524Y-113882006D01*
X160071382Y-113713287D01*
X160313998Y-113512578D01*
X160529545Y-113283044D01*
X160714624Y-113028304D01*
X160732489Y-112995809D01*
X160864413Y-112755839D01*
X160864414Y-112755836D01*
X160866316Y-112752377D01*
X160982230Y-112459613D01*
X161060536Y-112154630D01*
X161100000Y-111842238D01*
X161100000Y-111619393D01*
X162290639Y-111619393D01*
X162299448Y-111854016D01*
X162300543Y-111859234D01*
X162325394Y-111977671D01*
X162347662Y-112083801D01*
X162433902Y-112302177D01*
X162555704Y-112502900D01*
X162709585Y-112680232D01*
X162713717Y-112683620D01*
X162887016Y-112825717D01*
X162887022Y-112825721D01*
X162891144Y-112829101D01*
X162895780Y-112831740D01*
X162895783Y-112831742D01*
X163007008Y-112895055D01*
X163095190Y-112945251D01*
X163315889Y-113025361D01*
X163321138Y-113026310D01*
X163321141Y-113026311D01*
X163402215Y-113040971D01*
X163546930Y-113067140D01*
X163551069Y-113067335D01*
X163551076Y-113067336D01*
X163570040Y-113068230D01*
X163570049Y-113068230D01*
X163571529Y-113068300D01*
X163736550Y-113068300D01*
X163817899Y-113061397D01*
X163906237Y-113053902D01*
X163906241Y-113053901D01*
X163911548Y-113053451D01*
X163916703Y-113052113D01*
X163916709Y-113052112D01*
X164133635Y-112995809D01*
X164133634Y-112995809D01*
X164138806Y-112994467D01*
X164143672Y-112992275D01*
X164143675Y-112992274D01*
X164348017Y-112900224D01*
X164348020Y-112900223D01*
X164352878Y-112898034D01*
X164547641Y-112766912D01*
X164717527Y-112604849D01*
X164857678Y-112416479D01*
X164918319Y-112297208D01*
X164961669Y-112211944D01*
X164961669Y-112211943D01*
X164964087Y-112207188D01*
X165033711Y-111982960D01*
X165050802Y-111854016D01*
X165063861Y-111755490D01*
X165063861Y-111755487D01*
X165064561Y-111750207D01*
X165055752Y-111515584D01*
X165037958Y-111430778D01*
X165008635Y-111291026D01*
X165008634Y-111291023D01*
X165007538Y-111285799D01*
X164921298Y-111067423D01*
X164799496Y-110866700D01*
X164645615Y-110689368D01*
X164623647Y-110671355D01*
X164468184Y-110543883D01*
X164468178Y-110543879D01*
X164464056Y-110540499D01*
X164459420Y-110537860D01*
X164459417Y-110537858D01*
X164264653Y-110426992D01*
X164260010Y-110424349D01*
X164039311Y-110344239D01*
X164034062Y-110343290D01*
X164034059Y-110343289D01*
X163952985Y-110328629D01*
X163808270Y-110302460D01*
X163804131Y-110302265D01*
X163804124Y-110302264D01*
X163785160Y-110301370D01*
X163785151Y-110301370D01*
X163783671Y-110301300D01*
X163618650Y-110301300D01*
X163537301Y-110308203D01*
X163448963Y-110315698D01*
X163448959Y-110315699D01*
X163443652Y-110316149D01*
X163438497Y-110317487D01*
X163438491Y-110317488D01*
X163260777Y-110363614D01*
X163216394Y-110375133D01*
X163211528Y-110377325D01*
X163211525Y-110377326D01*
X163007183Y-110469376D01*
X163007180Y-110469377D01*
X163002322Y-110471566D01*
X162807559Y-110602688D01*
X162637673Y-110764751D01*
X162497522Y-110953121D01*
X162495106Y-110957872D01*
X162495104Y-110957876D01*
X162393531Y-111157656D01*
X162391113Y-111162412D01*
X162321489Y-111386640D01*
X162320788Y-111391929D01*
X162303692Y-111520916D01*
X162290639Y-111619393D01*
X161100000Y-111619393D01*
X161100000Y-111527362D01*
X161060536Y-111214970D01*
X160982230Y-110909987D01*
X160866316Y-110617223D01*
X160860349Y-110606369D01*
X160716533Y-110344768D01*
X160716531Y-110344765D01*
X160714624Y-110341296D01*
X160529545Y-110086556D01*
X160313998Y-109857022D01*
X160071382Y-109656313D01*
X159888090Y-109539992D01*
X159808871Y-109489718D01*
X159808870Y-109489718D01*
X159805524Y-109487594D01*
X159801945Y-109485910D01*
X159801938Y-109485906D01*
X159524206Y-109355216D01*
X159524202Y-109355214D01*
X159520616Y-109353527D01*
X159221152Y-109256225D01*
X158911854Y-109197223D01*
X158818300Y-109191337D01*
X158678242Y-109182525D01*
X158678226Y-109182524D01*
X158676247Y-109182400D01*
X158518953Y-109182400D01*
X158516974Y-109182524D01*
X158516958Y-109182525D01*
X158376900Y-109191337D01*
X158283346Y-109197223D01*
X157974048Y-109256225D01*
X157674584Y-109353527D01*
X157670998Y-109355214D01*
X157670994Y-109355216D01*
X157393262Y-109485906D01*
X157393255Y-109485910D01*
X157389676Y-109487594D01*
X157386330Y-109489718D01*
X157386329Y-109489718D01*
X157307110Y-109539992D01*
X157123818Y-109656313D01*
X156881202Y-109857022D01*
X156665655Y-110086556D01*
X156480576Y-110341296D01*
X156478669Y-110344765D01*
X156478667Y-110344768D01*
X156334851Y-110606369D01*
X156328884Y-110617223D01*
X156212970Y-110909987D01*
X156134664Y-111214970D01*
X156095200Y-111527362D01*
X156095200Y-111842238D01*
X154892363Y-111842238D01*
X154903861Y-111755490D01*
X154903861Y-111755487D01*
X154904561Y-111750207D01*
X154895752Y-111515584D01*
X154877958Y-111430778D01*
X154848635Y-111291026D01*
X154848634Y-111291023D01*
X154847538Y-111285799D01*
X154761298Y-111067423D01*
X154702634Y-110970748D01*
X154684395Y-110902134D01*
X154706146Y-110834551D01*
X154760983Y-110789457D01*
X154813433Y-110779420D01*
X154849370Y-110780299D01*
X154871243Y-110780834D01*
X154871245Y-110780834D01*
X154876199Y-110780955D01*
X155131060Y-110746950D01*
X155377462Y-110673497D01*
X155609341Y-110562401D01*
X155820985Y-110416399D01*
X155960563Y-110283483D01*
X155962216Y-110281641D01*
X157235388Y-108862688D01*
X157247338Y-108851027D01*
X157252472Y-108846642D01*
X157252475Y-108846639D01*
X157256231Y-108843431D01*
X157259438Y-108839676D01*
X157259445Y-108839669D01*
X157325734Y-108762054D01*
X157327763Y-108759736D01*
X157354633Y-108729790D01*
X157354648Y-108729771D01*
X157356289Y-108727943D01*
X157357784Y-108725987D01*
X157357792Y-108725978D01*
X157366375Y-108714752D01*
X157370658Y-108709454D01*
X157420000Y-108651681D01*
X157423216Y-108647916D01*
X157425799Y-108643701D01*
X157425807Y-108643690D01*
X157443007Y-108615622D01*
X157450336Y-108604937D01*
X157473356Y-108574829D01*
X157511872Y-108503597D01*
X157515274Y-108497693D01*
X157554971Y-108432913D01*
X157554974Y-108432906D01*
X157557560Y-108428687D01*
X157559453Y-108424117D01*
X157559457Y-108424109D01*
X157572053Y-108393698D01*
X157577621Y-108381997D01*
X157595649Y-108348656D01*
X157622552Y-108272263D01*
X157624987Y-108265904D01*
X157654063Y-108195709D01*
X157654065Y-108195703D01*
X157655955Y-108191140D01*
X157657107Y-108186340D01*
X157657110Y-108186332D01*
X157664795Y-108154320D01*
X157668468Y-108141881D01*
X157679414Y-108110800D01*
X157679415Y-108110794D01*
X157681056Y-108106136D01*
X157695676Y-108026481D01*
X157697087Y-108019814D01*
X157714823Y-107945938D01*
X157714824Y-107945935D01*
X157715978Y-107941126D01*
X157718949Y-107903377D01*
X157720631Y-107890518D01*
X157726577Y-107858118D01*
X157727472Y-107853243D01*
X157729452Y-107772274D01*
X157729801Y-107765478D01*
X157735763Y-107689729D01*
X157736151Y-107684800D01*
X157733181Y-107647055D01*
X157732831Y-107634093D01*
X157733636Y-107601158D01*
X157733636Y-107601156D01*
X157733757Y-107596201D01*
X157723045Y-107515918D01*
X157722326Y-107509140D01*
X157716366Y-107433404D01*
X157715978Y-107428474D01*
X157714824Y-107423669D01*
X157714822Y-107423654D01*
X157707138Y-107391650D01*
X157704763Y-107378898D01*
X157700407Y-107346246D01*
X157700406Y-107346241D01*
X157699752Y-107341340D01*
X157676615Y-107263727D01*
X157674846Y-107257148D01*
X157657110Y-107183272D01*
X157655955Y-107178460D01*
X157654059Y-107173882D01*
X157641467Y-107143481D01*
X157638966Y-107136440D01*
X159463555Y-107136440D01*
X159463579Y-107138924D01*
X159463579Y-107138926D01*
X159463962Y-107178460D01*
X159465421Y-107329171D01*
X159508101Y-107582722D01*
X159509673Y-107587406D01*
X159509674Y-107587409D01*
X159571730Y-107772286D01*
X159589919Y-107826476D01*
X159592209Y-107830864D01*
X159592209Y-107830865D01*
X159694744Y-108027373D01*
X159708861Y-108054429D01*
X159861998Y-108260969D01*
X160045561Y-108441010D01*
X160049600Y-108443885D01*
X160049601Y-108443886D01*
X160239062Y-108578754D01*
X160255027Y-108590119D01*
X160259463Y-108592325D01*
X160259464Y-108592326D01*
X160480808Y-108702420D01*
X160480812Y-108702422D01*
X160485242Y-108704625D01*
X160730534Y-108781707D01*
X160984864Y-108819468D01*
X161048651Y-108818850D01*
X161237020Y-108817027D01*
X161237021Y-108817027D01*
X161241971Y-108816979D01*
X161495522Y-108774299D01*
X161500206Y-108772727D01*
X161500209Y-108772726D01*
X161734585Y-108694056D01*
X161734590Y-108694054D01*
X161739276Y-108692481D01*
X161743665Y-108690191D01*
X161962837Y-108575831D01*
X161962840Y-108575829D01*
X161967229Y-108573539D01*
X161971358Y-108570478D01*
X162010058Y-108541784D01*
X162173769Y-108420402D01*
X162353810Y-108236839D01*
X162389764Y-108186332D01*
X162500047Y-108031408D01*
X162500049Y-108031405D01*
X162502919Y-108027373D01*
X162570989Y-107890518D01*
X162615220Y-107801592D01*
X162615222Y-107801588D01*
X162617425Y-107797158D01*
X162694507Y-107551866D01*
X162722813Y-107361216D01*
X162723846Y-107346246D01*
X162766637Y-106725771D01*
X162766726Y-106724554D01*
X162775763Y-106609730D01*
X162776151Y-106604800D01*
X162770819Y-106537047D01*
X162770437Y-106528382D01*
X162769827Y-106465380D01*
X162769827Y-106465379D01*
X162769779Y-106460429D01*
X162763788Y-106424837D01*
X162761331Y-106410241D01*
X162759971Y-106399212D01*
X162758758Y-106383797D01*
X162755978Y-106348474D01*
X162747964Y-106315092D01*
X162740113Y-106282389D01*
X162738380Y-106273892D01*
X162733455Y-106244636D01*
X162727099Y-106206878D01*
X162721795Y-106191075D01*
X162710906Y-106158637D01*
X162707837Y-106147954D01*
X162697109Y-106103267D01*
X162697109Y-106103266D01*
X162695955Y-106098460D01*
X162669941Y-106035656D01*
X162666907Y-106027553D01*
X162646857Y-105967818D01*
X162646855Y-105967813D01*
X162645281Y-105963124D01*
X162642992Y-105958737D01*
X162642989Y-105958730D01*
X162621741Y-105918009D01*
X162617039Y-105907939D01*
X162599457Y-105865491D01*
X162599453Y-105865484D01*
X162597560Y-105860913D01*
X162562044Y-105802957D01*
X162557780Y-105795428D01*
X162528629Y-105739560D01*
X162526339Y-105735171D01*
X162523391Y-105731194D01*
X162523386Y-105731187D01*
X162496024Y-105694283D01*
X162489814Y-105685087D01*
X162463216Y-105641684D01*
X162419078Y-105590005D01*
X162413690Y-105583238D01*
X162373202Y-105528630D01*
X162336860Y-105492984D01*
X162329279Y-105484863D01*
X162299439Y-105449925D01*
X162296231Y-105446169D01*
X162292475Y-105442961D01*
X162292470Y-105442956D01*
X162244561Y-105402038D01*
X162238163Y-105396181D01*
X162193173Y-105352054D01*
X162193165Y-105352047D01*
X162189639Y-105348589D01*
X162158096Y-105326135D01*
X162148172Y-105319071D01*
X162139411Y-105312233D01*
X162104483Y-105282401D01*
X162104480Y-105282399D01*
X162100716Y-105279184D01*
X162042775Y-105243678D01*
X162035568Y-105238914D01*
X161980173Y-105199480D01*
X161934593Y-105176810D01*
X161924871Y-105171426D01*
X161885710Y-105147428D01*
X161881487Y-105144840D01*
X161876917Y-105142947D01*
X161876915Y-105142946D01*
X161818701Y-105118833D01*
X161810807Y-105115240D01*
X161754391Y-105087180D01*
X161754392Y-105087180D01*
X161749958Y-105084975D01*
X161701399Y-105069715D01*
X161690960Y-105065921D01*
X161643940Y-105046445D01*
X161581676Y-105031497D01*
X161577857Y-105030580D01*
X161569496Y-105028265D01*
X161509392Y-105009377D01*
X161509390Y-105009377D01*
X161504666Y-105007892D01*
X161454321Y-105000417D01*
X161443410Y-104998302D01*
X161398737Y-104987577D01*
X161393926Y-104986422D01*
X161372884Y-104984766D01*
X161326175Y-104981090D01*
X161317557Y-104980112D01*
X161267100Y-104972621D01*
X161250336Y-104970132D01*
X161245381Y-104970180D01*
X161199452Y-104970625D01*
X161188344Y-104970243D01*
X161142530Y-104966637D01*
X161137600Y-104966249D01*
X161132670Y-104966637D01*
X161132669Y-104966637D01*
X161069846Y-104971581D01*
X161061181Y-104971963D01*
X160998180Y-104972573D01*
X160998179Y-104972573D01*
X160993229Y-104972621D01*
X160943039Y-104981069D01*
X160932011Y-104982429D01*
X160881274Y-104986422D01*
X160876461Y-104987578D01*
X160876458Y-104987578D01*
X160815193Y-105002286D01*
X160806695Y-105004019D01*
X160744564Y-105014477D01*
X160744557Y-105014479D01*
X160739678Y-105015300D01*
X160734982Y-105016876D01*
X160734983Y-105016876D01*
X160691423Y-105031497D01*
X160680747Y-105034564D01*
X160631260Y-105046445D01*
X160626694Y-105048336D01*
X160626692Y-105048337D01*
X160568480Y-105072449D01*
X160560356Y-105075491D01*
X160536525Y-105083490D01*
X160495924Y-105097118D01*
X160461979Y-105114830D01*
X160450796Y-105120665D01*
X160440727Y-105125366D01*
X160393713Y-105144840D01*
X160389494Y-105147425D01*
X160389483Y-105147431D01*
X160335768Y-105180348D01*
X160328220Y-105184624D01*
X160272363Y-105213769D01*
X160272360Y-105213771D01*
X160267971Y-105216061D01*
X160263991Y-105219012D01*
X160227090Y-105246372D01*
X160217880Y-105252591D01*
X160174484Y-105279184D01*
X160122793Y-105323332D01*
X160116045Y-105328705D01*
X160061431Y-105369198D01*
X160057975Y-105372722D01*
X160057970Y-105372726D01*
X160025792Y-105405534D01*
X160017670Y-105413115D01*
X159978969Y-105446169D01*
X159975761Y-105449925D01*
X159975756Y-105449930D01*
X159934831Y-105497847D01*
X159928974Y-105504245D01*
X159884855Y-105549227D01*
X159884848Y-105549235D01*
X159881390Y-105552761D01*
X159878525Y-105556786D01*
X159878524Y-105556787D01*
X159851877Y-105594221D01*
X159845039Y-105602982D01*
X159811984Y-105641684D01*
X159779751Y-105694283D01*
X159776480Y-105699621D01*
X159771697Y-105706855D01*
X159748416Y-105739560D01*
X159732281Y-105762227D01*
X159730079Y-105766654D01*
X159730076Y-105766659D01*
X159709614Y-105807798D01*
X159704242Y-105817502D01*
X159677640Y-105860913D01*
X159675749Y-105865478D01*
X159675746Y-105865484D01*
X159651631Y-105923703D01*
X159648047Y-105931579D01*
X159617775Y-105992441D01*
X159616293Y-105997157D01*
X159616289Y-105997167D01*
X159602514Y-106041001D01*
X159598719Y-106051445D01*
X159592677Y-106066033D01*
X159579245Y-106098460D01*
X159563374Y-106164565D01*
X159561075Y-106172873D01*
X159540693Y-106237733D01*
X159539966Y-106242631D01*
X159533218Y-106288076D01*
X159531103Y-106298982D01*
X159520379Y-106343654D01*
X159519222Y-106348474D01*
X159518834Y-106353405D01*
X159518833Y-106353411D01*
X159513889Y-106416232D01*
X159512913Y-106424837D01*
X159512751Y-106425931D01*
X159512387Y-106428384D01*
X159509423Y-106471355D01*
X159508565Y-106483797D01*
X159508476Y-106485008D01*
X159499049Y-106604800D01*
X159499437Y-106609730D01*
X159499437Y-106611820D01*
X159499138Y-106620489D01*
X159466726Y-107090467D01*
X159463555Y-107136440D01*
X157638966Y-107136440D01*
X157637127Y-107131261D01*
X157626299Y-107094938D01*
X157591305Y-107021899D01*
X157588529Y-107015679D01*
X157559455Y-106945487D01*
X157559453Y-106945483D01*
X157557560Y-106940913D01*
X157554974Y-106936694D01*
X157554971Y-106936687D01*
X157537776Y-106908627D01*
X157531578Y-106897236D01*
X157517339Y-106867518D01*
X157515203Y-106863059D01*
X157469217Y-106796398D01*
X157465499Y-106790685D01*
X157423216Y-106721684D01*
X157398630Y-106692897D01*
X157390727Y-106682617D01*
X157372009Y-106655483D01*
X157372002Y-106655475D01*
X157369201Y-106651414D01*
X157313354Y-106592768D01*
X157308791Y-106587709D01*
X157259449Y-106529936D01*
X157259443Y-106529930D01*
X157256231Y-106526169D01*
X157227431Y-106501572D01*
X157218020Y-106492656D01*
X157210233Y-106484478D01*
X157191889Y-106465215D01*
X157187957Y-106462209D01*
X157187954Y-106462206D01*
X157127547Y-106416021D01*
X157122274Y-106411759D01*
X157060716Y-106359184D01*
X157028424Y-106339395D01*
X157017742Y-106332068D01*
X156987631Y-106309046D01*
X156916407Y-106270535D01*
X156910513Y-106267139D01*
X156845707Y-106227426D01*
X156841487Y-106224840D01*
X156836917Y-106222947D01*
X156836909Y-106222943D01*
X156806491Y-106210344D01*
X156794789Y-106204775D01*
X156761458Y-106186753D01*
X156685082Y-106159856D01*
X156678723Y-106157421D01*
X156608513Y-106128339D01*
X156608511Y-106128338D01*
X156603940Y-106126445D01*
X156599129Y-106125290D01*
X156599126Y-106125289D01*
X156578424Y-106120319D01*
X156567111Y-106117603D01*
X156554673Y-106113930D01*
X156523612Y-106102991D01*
X156523604Y-106102989D01*
X156518939Y-106101346D01*
X156439297Y-106086728D01*
X156432653Y-106085322D01*
X156380310Y-106072756D01*
X156358738Y-106067577D01*
X156358735Y-106067577D01*
X156353926Y-106066422D01*
X156333213Y-106064792D01*
X156316163Y-106063450D01*
X156303303Y-106061768D01*
X156270918Y-106055824D01*
X156270913Y-106055823D01*
X156266045Y-106054930D01*
X156185110Y-106052951D01*
X156178329Y-106052603D01*
X156097600Y-106046249D01*
X156092670Y-106046637D01*
X156059838Y-106049221D01*
X156046872Y-106049571D01*
X156013960Y-106048766D01*
X156013957Y-106048766D01*
X156009003Y-106048645D01*
X155928749Y-106059353D01*
X155921999Y-106060069D01*
X155888302Y-106062721D01*
X155846211Y-106066033D01*
X155846205Y-106066034D01*
X155841274Y-106066422D01*
X155836462Y-106067577D01*
X155836457Y-106067578D01*
X155804431Y-106075267D01*
X155791685Y-106077641D01*
X155754143Y-106082650D01*
X155676573Y-106105773D01*
X155670011Y-106107538D01*
X155591260Y-106126445D01*
X155586694Y-106128336D01*
X155586692Y-106128337D01*
X155556253Y-106140945D01*
X155544030Y-106145285D01*
X155507740Y-106156103D01*
X155490145Y-106164533D01*
X155434745Y-106191075D01*
X155428523Y-106193851D01*
X155358291Y-106222943D01*
X155358284Y-106222947D01*
X155353713Y-106224840D01*
X155321397Y-106244643D01*
X155310017Y-106250834D01*
X155280324Y-106265060D01*
X155280317Y-106265064D01*
X155275861Y-106267199D01*
X155266159Y-106273892D01*
X155209252Y-106313149D01*
X155203540Y-106316865D01*
X155138707Y-106356595D01*
X155138697Y-106356602D01*
X155134484Y-106359184D01*
X155113271Y-106377302D01*
X155105666Y-106383797D01*
X155095389Y-106391698D01*
X155064217Y-106413201D01*
X155009597Y-106465215D01*
X155005620Y-106469002D01*
X155000560Y-106473566D01*
X154938969Y-106526169D01*
X154935761Y-106529925D01*
X154935756Y-106529930D01*
X154869399Y-106607624D01*
X154867378Y-106609934D01*
X153528913Y-108101656D01*
X153411846Y-108254771D01*
X153289553Y-108480944D01*
X153287909Y-108485611D01*
X153287909Y-108485612D01*
X153205788Y-108718799D01*
X153205786Y-108718805D01*
X153204146Y-108723463D01*
X153203254Y-108728324D01*
X153203253Y-108728327D01*
X153178593Y-108862688D01*
X153157730Y-108976357D01*
X153157609Y-108981312D01*
X153152330Y-109197223D01*
X153151445Y-109233399D01*
X153185450Y-109488260D01*
X153258903Y-109734662D01*
X153369999Y-109966541D01*
X153372814Y-109970622D01*
X153372816Y-109970625D01*
X153469761Y-110111157D01*
X153491979Y-110178588D01*
X153474213Y-110247326D01*
X153422105Y-110295547D01*
X153376700Y-110308254D01*
X153339145Y-110311440D01*
X153288963Y-110315698D01*
X153288959Y-110315699D01*
X153283652Y-110316149D01*
X153278497Y-110317487D01*
X153278491Y-110317488D01*
X153100777Y-110363614D01*
X153056394Y-110375133D01*
X153051528Y-110377325D01*
X153051525Y-110377326D01*
X152847183Y-110469376D01*
X152847180Y-110469377D01*
X152842322Y-110471566D01*
X152647559Y-110602688D01*
X152477673Y-110764751D01*
X152337522Y-110953121D01*
X152335106Y-110957872D01*
X152335104Y-110957876D01*
X152233531Y-111157656D01*
X152231113Y-111162412D01*
X152161489Y-111386640D01*
X152160788Y-111391929D01*
X152143692Y-111520916D01*
X152130639Y-111619393D01*
X147828500Y-111619393D01*
X147828500Y-100321657D01*
X192119768Y-100321657D01*
X192120069Y-100327805D01*
X192133580Y-100465603D01*
X192135963Y-100477638D01*
X192189535Y-100655076D01*
X192194209Y-100666416D01*
X192281228Y-100830077D01*
X192288017Y-100840294D01*
X192405165Y-100983933D01*
X192413809Y-100992637D01*
X192556624Y-101110784D01*
X192566795Y-101117644D01*
X192729844Y-101205804D01*
X192741149Y-101210556D01*
X192856460Y-101246250D01*
X192870563Y-101246456D01*
X192873768Y-101239701D01*
X192873768Y-101232924D01*
X193381768Y-101232924D01*
X193385741Y-101246455D01*
X193393536Y-101247575D01*
X193501289Y-101215862D01*
X193512657Y-101211269D01*
X193676922Y-101125393D01*
X193687183Y-101118679D01*
X193831641Y-101002532D01*
X193840400Y-100993954D01*
X193959546Y-100851961D01*
X193966476Y-100841841D01*
X194055770Y-100679415D01*
X194060602Y-100668142D01*
X194116648Y-100491462D01*
X194119198Y-100479468D01*
X194135375Y-100335239D01*
X194135768Y-100328215D01*
X194135768Y-100112026D01*
X194155770Y-100043905D01*
X194209426Y-99997412D01*
X194279700Y-99987308D01*
X194289254Y-99989061D01*
X194459262Y-100027062D01*
X194459269Y-100027063D01*
X194464311Y-100028190D01*
X194469856Y-100028500D01*
X194603012Y-100028500D01*
X194737805Y-100013857D01*
X194855958Y-99974094D01*
X194902972Y-99958272D01*
X194902974Y-99958271D01*
X194909443Y-99956094D01*
X195064673Y-99862823D01*
X195069630Y-99858135D01*
X195069633Y-99858133D01*
X195191295Y-99743082D01*
X195191297Y-99743080D01*
X195196253Y-99738393D01*
X195200085Y-99732755D01*
X195200088Y-99732751D01*
X195294210Y-99594255D01*
X195298045Y-99588612D01*
X195365298Y-99420466D01*
X195366412Y-99413738D01*
X195366413Y-99413734D01*
X195393761Y-99248539D01*
X195393761Y-99248536D01*
X195394876Y-99241802D01*
X195389971Y-99148198D01*
X199500660Y-99148198D01*
X199501017Y-99155015D01*
X199501017Y-99155019D01*
X199505919Y-99248539D01*
X199510138Y-99329047D01*
X199511949Y-99335620D01*
X199511949Y-99335623D01*
X199545506Y-99457452D01*
X199558229Y-99503641D01*
X199642690Y-99663836D01*
X199647095Y-99669049D01*
X199647098Y-99669053D01*
X199755174Y-99796943D01*
X199755178Y-99796947D01*
X199759581Y-99802157D01*
X199765005Y-99806304D01*
X199765006Y-99806305D01*
X199898025Y-99908006D01*
X199898029Y-99908009D01*
X199903446Y-99912150D01*
X199990140Y-99952576D01*
X200061399Y-99985805D01*
X200061402Y-99985806D01*
X200067576Y-99988685D01*
X200074224Y-99990171D01*
X200074227Y-99990172D01*
X200170454Y-100011681D01*
X200244311Y-100028190D01*
X200249856Y-100028500D01*
X200383012Y-100028500D01*
X200517805Y-100013857D01*
X200524269Y-100011682D01*
X200524272Y-100011681D01*
X200591484Y-99989061D01*
X200593579Y-99988356D01*
X200664521Y-99985586D01*
X200725700Y-100021609D01*
X200757691Y-100084990D01*
X200759768Y-100107775D01*
X200759768Y-100321657D01*
X200760069Y-100327805D01*
X200773580Y-100465603D01*
X200775963Y-100477638D01*
X200829535Y-100655076D01*
X200834209Y-100666416D01*
X200921228Y-100830077D01*
X200928017Y-100840294D01*
X201045165Y-100983933D01*
X201053809Y-100992637D01*
X201196624Y-101110784D01*
X201206795Y-101117644D01*
X201369844Y-101205804D01*
X201381149Y-101210556D01*
X201496460Y-101246250D01*
X201510563Y-101246456D01*
X201513768Y-101239701D01*
X201513768Y-101232924D01*
X202021768Y-101232924D01*
X202025741Y-101246455D01*
X202033536Y-101247575D01*
X202141289Y-101215862D01*
X202152657Y-101211269D01*
X202316922Y-101125393D01*
X202327183Y-101118679D01*
X202471641Y-101002532D01*
X202480400Y-100993954D01*
X202599546Y-100851961D01*
X202606476Y-100841841D01*
X202695770Y-100679415D01*
X202700602Y-100668142D01*
X202756648Y-100491462D01*
X202759198Y-100479468D01*
X202775375Y-100335239D01*
X202775768Y-100328215D01*
X202775768Y-99997115D01*
X202771293Y-99981876D01*
X202769903Y-99980671D01*
X202762220Y-99979000D01*
X202039883Y-99979000D01*
X202024644Y-99983475D01*
X202023439Y-99984865D01*
X202021768Y-99992548D01*
X202021768Y-101232924D01*
X201513768Y-101232924D01*
X201513768Y-99452885D01*
X202021768Y-99452885D01*
X202026243Y-99468124D01*
X202027633Y-99469329D01*
X202035316Y-99471000D01*
X202757653Y-99471000D01*
X202772892Y-99466525D01*
X202774097Y-99465135D01*
X202775768Y-99457452D01*
X202775768Y-99128343D01*
X202775467Y-99122195D01*
X202761956Y-98984397D01*
X202759573Y-98972362D01*
X202706001Y-98794924D01*
X202701327Y-98783584D01*
X202614308Y-98619923D01*
X202607519Y-98609706D01*
X202490371Y-98466067D01*
X202481727Y-98457363D01*
X202338912Y-98339216D01*
X202328741Y-98332356D01*
X202165692Y-98244196D01*
X202154387Y-98239444D01*
X202039076Y-98203750D01*
X202024973Y-98203544D01*
X202021768Y-98210299D01*
X202021768Y-99452885D01*
X201513768Y-99452885D01*
X201513768Y-98217076D01*
X201509795Y-98203545D01*
X201502000Y-98202425D01*
X201394247Y-98234138D01*
X201382879Y-98238731D01*
X201218614Y-98324607D01*
X201208353Y-98331321D01*
X201063895Y-98447468D01*
X201055136Y-98456046D01*
X201010768Y-98508921D01*
X200951658Y-98548248D01*
X200880670Y-98549374D01*
X200837720Y-98528028D01*
X200772090Y-98477850D01*
X200666954Y-98428825D01*
X200614137Y-98404195D01*
X200614134Y-98404194D01*
X200607960Y-98401315D01*
X200601312Y-98399829D01*
X200601309Y-98399828D01*
X200436262Y-98362936D01*
X200436263Y-98362936D01*
X200431225Y-98361810D01*
X200425680Y-98361500D01*
X200292524Y-98361500D01*
X200157731Y-98376143D01*
X200074377Y-98404195D01*
X199992564Y-98431728D01*
X199992562Y-98431729D01*
X199986093Y-98433906D01*
X199830863Y-98527177D01*
X199825906Y-98531865D01*
X199825903Y-98531867D01*
X199704241Y-98646918D01*
X199699283Y-98651607D01*
X199695451Y-98657245D01*
X199695448Y-98657249D01*
X199644508Y-98732205D01*
X199597491Y-98801388D01*
X199530238Y-98969534D01*
X199529124Y-98976262D01*
X199529123Y-98976266D01*
X199503947Y-99128343D01*
X199500660Y-99148198D01*
X195389971Y-99148198D01*
X195385755Y-99067766D01*
X195385398Y-99060953D01*
X195362072Y-98976266D01*
X195339120Y-98892941D01*
X195337307Y-98886359D01*
X195252846Y-98726164D01*
X195248441Y-98720951D01*
X195248438Y-98720947D01*
X195140362Y-98593057D01*
X195140358Y-98593053D01*
X195135955Y-98587843D01*
X195130530Y-98583695D01*
X194997511Y-98481994D01*
X194997507Y-98481991D01*
X194992090Y-98477850D01*
X194886954Y-98428825D01*
X194834137Y-98404195D01*
X194834134Y-98404194D01*
X194827960Y-98401315D01*
X194821312Y-98399829D01*
X194821309Y-98399828D01*
X194656262Y-98362936D01*
X194656263Y-98362936D01*
X194651225Y-98361810D01*
X194645680Y-98361500D01*
X194512524Y-98361500D01*
X194377731Y-98376143D01*
X194294377Y-98404195D01*
X194212564Y-98431728D01*
X194212562Y-98431729D01*
X194206093Y-98433906D01*
X194054117Y-98525222D01*
X194054114Y-98525223D01*
X194050863Y-98527177D01*
X194050513Y-98526594D01*
X193988851Y-98550065D01*
X193919377Y-98535439D01*
X193881377Y-98504085D01*
X193850371Y-98466067D01*
X193841727Y-98457363D01*
X193698912Y-98339216D01*
X193688741Y-98332356D01*
X193525692Y-98244196D01*
X193514387Y-98239444D01*
X193399076Y-98203750D01*
X193384973Y-98203544D01*
X193381768Y-98210299D01*
X193381768Y-101232924D01*
X192873768Y-101232924D01*
X192873768Y-99997115D01*
X192869293Y-99981876D01*
X192867903Y-99980671D01*
X192860220Y-99979000D01*
X192137883Y-99979000D01*
X192122644Y-99983475D01*
X192121439Y-99984865D01*
X192119768Y-99992548D01*
X192119768Y-100321657D01*
X147828500Y-100321657D01*
X147828500Y-99452885D01*
X192119768Y-99452885D01*
X192124243Y-99468124D01*
X192125633Y-99469329D01*
X192133316Y-99471000D01*
X192855653Y-99471000D01*
X192870892Y-99466525D01*
X192872097Y-99465135D01*
X192873768Y-99457452D01*
X192873768Y-98217076D01*
X192869795Y-98203545D01*
X192862000Y-98202425D01*
X192754247Y-98234138D01*
X192742879Y-98238731D01*
X192578614Y-98324607D01*
X192568353Y-98331321D01*
X192423895Y-98447468D01*
X192415136Y-98456046D01*
X192295990Y-98598039D01*
X192289060Y-98608159D01*
X192199766Y-98770585D01*
X192194934Y-98781858D01*
X192138888Y-98958538D01*
X192136338Y-98970532D01*
X192120161Y-99114761D01*
X192119768Y-99121785D01*
X192119768Y-99452885D01*
X147828500Y-99452885D01*
X147828500Y-98424500D01*
X147848502Y-98356379D01*
X147902158Y-98309886D01*
X147954500Y-98298500D01*
X191761377Y-98298500D01*
X191762148Y-98298502D01*
X191839721Y-98298976D01*
X191868152Y-98290850D01*
X191884915Y-98287272D01*
X191885753Y-98287152D01*
X191914187Y-98283080D01*
X191937564Y-98272451D01*
X191955087Y-98266004D01*
X191979771Y-98258949D01*
X191987365Y-98254157D01*
X191987368Y-98254156D01*
X192004780Y-98243170D01*
X192019865Y-98235030D01*
X192021827Y-98234138D01*
X192046782Y-98222792D01*
X192066235Y-98206030D01*
X192081239Y-98194927D01*
X192102958Y-98181224D01*
X192108897Y-98174499D01*
X192108901Y-98174496D01*
X192122532Y-98159062D01*
X192134724Y-98147018D01*
X192150327Y-98133573D01*
X192150329Y-98133570D01*
X192157127Y-98127713D01*
X192171094Y-98106165D01*
X192182385Y-98091291D01*
X192193431Y-98078783D01*
X192193432Y-98078782D01*
X192199378Y-98072049D01*
X192211943Y-98045287D01*
X192220263Y-98030309D01*
X192231471Y-98013017D01*
X192231473Y-98013012D01*
X192236352Y-98005485D01*
X192238922Y-97996892D01*
X192238924Y-97996887D01*
X192243711Y-97980880D01*
X192250372Y-97963436D01*
X192257467Y-97948324D01*
X192257468Y-97948322D01*
X192261281Y-97940200D01*
X192265830Y-97910983D01*
X192269613Y-97894268D01*
X192275515Y-97874534D01*
X192275516Y-97874528D01*
X192278086Y-97865934D01*
X192278296Y-97831494D01*
X192278329Y-97830711D01*
X192278500Y-97829614D01*
X192278500Y-97798623D01*
X192278502Y-97797853D01*
X192278952Y-97724215D01*
X192278952Y-97724214D01*
X192278976Y-97720279D01*
X192278592Y-97718935D01*
X192278500Y-97717590D01*
X192278500Y-96718463D01*
X192298502Y-96650342D01*
X192352158Y-96603849D01*
X192422432Y-96593745D01*
X192484815Y-96621378D01*
X192556624Y-96680784D01*
X192566795Y-96687644D01*
X192729844Y-96775804D01*
X192741149Y-96780556D01*
X192856460Y-96816250D01*
X192870563Y-96816456D01*
X192873768Y-96809701D01*
X192873768Y-96802924D01*
X193381768Y-96802924D01*
X193385741Y-96816455D01*
X193393536Y-96817575D01*
X193501289Y-96785862D01*
X193512657Y-96781269D01*
X193676922Y-96695393D01*
X193687183Y-96688679D01*
X193831641Y-96572532D01*
X193840400Y-96563954D01*
X193959546Y-96421961D01*
X193966476Y-96411841D01*
X194055770Y-96249415D01*
X194060602Y-96238142D01*
X194116648Y-96061462D01*
X194119198Y-96049468D01*
X194135375Y-95905239D01*
X194135768Y-95898215D01*
X194135768Y-95891657D01*
X200759768Y-95891657D01*
X200760069Y-95897805D01*
X200773580Y-96035603D01*
X200775963Y-96047638D01*
X200829535Y-96225076D01*
X200834209Y-96236416D01*
X200921228Y-96400077D01*
X200928017Y-96410294D01*
X201045165Y-96553933D01*
X201053809Y-96562637D01*
X201196624Y-96680784D01*
X201206795Y-96687644D01*
X201369844Y-96775804D01*
X201381149Y-96780556D01*
X201496460Y-96816250D01*
X201510563Y-96816456D01*
X201513768Y-96809701D01*
X201513768Y-95817115D01*
X201509293Y-95801876D01*
X201507903Y-95800671D01*
X201500220Y-95799000D01*
X200777883Y-95799000D01*
X200762644Y-95803475D01*
X200761439Y-95804865D01*
X200759768Y-95812548D01*
X200759768Y-95891657D01*
X194135768Y-95891657D01*
X194135768Y-95817115D01*
X194131293Y-95801876D01*
X194129903Y-95800671D01*
X194122220Y-95799000D01*
X193399883Y-95799000D01*
X193384644Y-95803475D01*
X193383439Y-95804865D01*
X193381768Y-95812548D01*
X193381768Y-96802924D01*
X192873768Y-96802924D01*
X192873768Y-95417000D01*
X192893770Y-95348879D01*
X192947426Y-95302386D01*
X192999768Y-95291000D01*
X194117653Y-95291000D01*
X194132892Y-95286525D01*
X194134097Y-95285135D01*
X194135768Y-95277452D01*
X194135768Y-95198343D01*
X194135467Y-95192195D01*
X194121956Y-95054397D01*
X194119573Y-95042362D01*
X194066001Y-94864924D01*
X194061327Y-94853584D01*
X193974307Y-94689921D01*
X193970525Y-94684229D01*
X193949487Y-94616421D01*
X193968448Y-94548003D01*
X194021388Y-94500698D01*
X194075472Y-94488500D01*
X200820273Y-94488500D01*
X200888394Y-94508502D01*
G37*
%TD.AperFunction*%
%TD*%
M02*
