%TF.GenerationSoftware,KiCad,Pcbnew,(6.0.7)*%
%TF.CreationDate,2022-08-09T22:51:11+07:00*%
%TF.ProjectId,Keypad-3,4b657970-6164-42d3-932e-6b696361645f,rev?*%
%TF.SameCoordinates,Original*%
%TF.FileFunction,Legend,Bot*%
%TF.FilePolarity,Positive*%
%FSLAX46Y46*%
G04 Gerber Fmt 4.6, Leading zero omitted, Abs format (unit mm)*
G04 Created by KiCad (PCBNEW (6.0.7)) date 2022-08-09 22:51:11*
%MOMM*%
%LPD*%
G01*
G04 APERTURE LIST*
%ADD10C,0.150000*%
%ADD11C,0.120000*%
G04 APERTURE END LIST*
D10*
%TO.C,R5*%
X201207666Y-105620212D02*
X201541000Y-105144022D01*
X201779095Y-105620212D02*
X201779095Y-104620212D01*
X201398142Y-104620212D01*
X201302904Y-104667832D01*
X201255285Y-104715451D01*
X201207666Y-104810689D01*
X201207666Y-104953546D01*
X201255285Y-105048784D01*
X201302904Y-105096403D01*
X201398142Y-105144022D01*
X201779095Y-105144022D01*
X200302904Y-104620212D02*
X200779095Y-104620212D01*
X200826714Y-105096403D01*
X200779095Y-105048784D01*
X200683857Y-105001165D01*
X200445761Y-105001165D01*
X200350523Y-105048784D01*
X200302904Y-105096403D01*
X200255285Y-105191641D01*
X200255285Y-105429736D01*
X200302904Y-105524974D01*
X200350523Y-105572593D01*
X200445761Y-105620212D01*
X200683857Y-105620212D01*
X200779095Y-105572593D01*
X200826714Y-105524974D01*
%TO.C,U1*%
X191982615Y-130995203D02*
X192792139Y-130995203D01*
X192887377Y-131042822D01*
X192934996Y-131090441D01*
X192982615Y-131185679D01*
X192982615Y-131376155D01*
X192934996Y-131471393D01*
X192887377Y-131519012D01*
X192792139Y-131566631D01*
X191982615Y-131566631D01*
X192982615Y-132566631D02*
X192982615Y-131995203D01*
X192982615Y-132280917D02*
X191982615Y-132280917D01*
X192125473Y-132185679D01*
X192220711Y-132090441D01*
X192268330Y-131995203D01*
%TO.C,D1*%
X168796980Y-110946704D02*
X167796980Y-110946704D01*
X167796980Y-111184800D01*
X167844600Y-111327657D01*
X167939838Y-111422895D01*
X168035076Y-111470514D01*
X168225552Y-111518133D01*
X168368409Y-111518133D01*
X168558885Y-111470514D01*
X168654123Y-111422895D01*
X168749361Y-111327657D01*
X168796980Y-111184800D01*
X168796980Y-110946704D01*
X168796980Y-112470514D02*
X168796980Y-111899085D01*
X168796980Y-112184800D02*
X167796980Y-112184800D01*
X167939838Y-112089561D01*
X168035076Y-111994323D01*
X168082695Y-111899085D01*
%TO.C,C4*%
X211993541Y-123023333D02*
X212041160Y-122975714D01*
X212088779Y-122832857D01*
X212088779Y-122737619D01*
X212041160Y-122594761D01*
X211945922Y-122499523D01*
X211850684Y-122451904D01*
X211660208Y-122404285D01*
X211517351Y-122404285D01*
X211326875Y-122451904D01*
X211231637Y-122499523D01*
X211136399Y-122594761D01*
X211088779Y-122737619D01*
X211088779Y-122832857D01*
X211136399Y-122975714D01*
X211184018Y-123023333D01*
X211422113Y-123880476D02*
X212088779Y-123880476D01*
X211041160Y-123642380D02*
X211755446Y-123404285D01*
X211755446Y-124023333D01*
%TO.C,Y1*%
X213582426Y-131280917D02*
X214058616Y-131280917D01*
X213058616Y-130947584D02*
X213582426Y-131280917D01*
X213058616Y-131614250D01*
X214058616Y-132471393D02*
X214058616Y-131899965D01*
X214058616Y-132185679D02*
X213058616Y-132185679D01*
X213201474Y-132090441D01*
X213296712Y-131995203D01*
X213344331Y-131899965D01*
%TO.C,R6*%
X195455434Y-102572212D02*
X195788768Y-102096022D01*
X196026863Y-102572212D02*
X196026863Y-101572212D01*
X195645910Y-101572212D01*
X195550672Y-101619832D01*
X195503053Y-101667451D01*
X195455434Y-101762689D01*
X195455434Y-101905546D01*
X195503053Y-102000784D01*
X195550672Y-102048403D01*
X195645910Y-102096022D01*
X196026863Y-102096022D01*
X194598291Y-101572212D02*
X194788768Y-101572212D01*
X194884006Y-101619832D01*
X194931625Y-101667451D01*
X195026863Y-101810308D01*
X195074482Y-102000784D01*
X195074482Y-102381736D01*
X195026863Y-102476974D01*
X194979244Y-102524593D01*
X194884006Y-102572212D01*
X194693529Y-102572212D01*
X194598291Y-102524593D01*
X194550672Y-102476974D01*
X194503053Y-102381736D01*
X194503053Y-102143641D01*
X194550672Y-102048403D01*
X194598291Y-102000784D01*
X194693529Y-101953165D01*
X194884006Y-101953165D01*
X194979244Y-102000784D01*
X195026863Y-102048403D01*
X195074482Y-102143641D01*
%TO.C,C6*%
X192501402Y-135146441D02*
X192549021Y-135098822D01*
X192596640Y-134955965D01*
X192596640Y-134860727D01*
X192549021Y-134717869D01*
X192453783Y-134622631D01*
X192358545Y-134575012D01*
X192168069Y-134527393D01*
X192025212Y-134527393D01*
X191834736Y-134575012D01*
X191739498Y-134622631D01*
X191644260Y-134717869D01*
X191596640Y-134860727D01*
X191596640Y-134955965D01*
X191644260Y-135098822D01*
X191691879Y-135146441D01*
X191596640Y-136003584D02*
X191596640Y-135813108D01*
X191644260Y-135717869D01*
X191691879Y-135670250D01*
X191834736Y-135575012D01*
X192025212Y-135527393D01*
X192406164Y-135527393D01*
X192501402Y-135575012D01*
X192549021Y-135622631D01*
X192596640Y-135717869D01*
X192596640Y-135908346D01*
X192549021Y-136003584D01*
X192501402Y-136051203D01*
X192406164Y-136098822D01*
X192168069Y-136098822D01*
X192072831Y-136051203D01*
X192025212Y-136003584D01*
X191977593Y-135908346D01*
X191977593Y-135717869D01*
X192025212Y-135622631D01*
X192072831Y-135575012D01*
X192168069Y-135527393D01*
%TO.C,R1*%
X206574380Y-123023333D02*
X206098190Y-122690000D01*
X206574380Y-122451904D02*
X205574380Y-122451904D01*
X205574380Y-122832857D01*
X205622000Y-122928095D01*
X205669619Y-122975714D01*
X205764857Y-123023333D01*
X205907714Y-123023333D01*
X206002952Y-122975714D01*
X206050571Y-122928095D01*
X206098190Y-122832857D01*
X206098190Y-122451904D01*
X206574380Y-123975714D02*
X206574380Y-123404285D01*
X206574380Y-123690000D02*
X205574380Y-123690000D01*
X205717238Y-123594761D01*
X205812476Y-123499523D01*
X205860095Y-123404285D01*
%TO.C,C1*%
X211322898Y-137517142D02*
X211370517Y-137564761D01*
X211513374Y-137612380D01*
X211608612Y-137612380D01*
X211751470Y-137564761D01*
X211846708Y-137469523D01*
X211894327Y-137374285D01*
X211941946Y-137183809D01*
X211941946Y-137040952D01*
X211894327Y-136850476D01*
X211846708Y-136755238D01*
X211751470Y-136660000D01*
X211608612Y-136612380D01*
X211513374Y-136612380D01*
X211370517Y-136660000D01*
X211322898Y-136707619D01*
X210370517Y-137612380D02*
X210941946Y-137612380D01*
X210656232Y-137612380D02*
X210656232Y-136612380D01*
X210751470Y-136755238D01*
X210846708Y-136850476D01*
X210941946Y-136898095D01*
%TO.C,C2*%
X211322903Y-126722142D02*
X211370522Y-126769761D01*
X211513379Y-126817380D01*
X211608617Y-126817380D01*
X211751475Y-126769761D01*
X211846713Y-126674523D01*
X211894332Y-126579285D01*
X211941951Y-126388809D01*
X211941951Y-126245952D01*
X211894332Y-126055476D01*
X211846713Y-125960238D01*
X211751475Y-125865000D01*
X211608617Y-125817380D01*
X211513379Y-125817380D01*
X211370522Y-125865000D01*
X211322903Y-125912619D01*
X210941951Y-125912619D02*
X210894332Y-125865000D01*
X210799094Y-125817380D01*
X210560998Y-125817380D01*
X210465760Y-125865000D01*
X210418141Y-125912619D01*
X210370522Y-126007857D01*
X210370522Y-126103095D01*
X210418141Y-126245952D01*
X210989570Y-126817380D01*
X210370522Y-126817380D01*
%TO.C,U2*%
X198500904Y-103731212D02*
X198500904Y-104540736D01*
X198453285Y-104635974D01*
X198405666Y-104683593D01*
X198310428Y-104731212D01*
X198119952Y-104731212D01*
X198024714Y-104683593D01*
X197977095Y-104635974D01*
X197929476Y-104540736D01*
X197929476Y-103731212D01*
X197500904Y-103826451D02*
X197453285Y-103778832D01*
X197358047Y-103731212D01*
X197119952Y-103731212D01*
X197024714Y-103778832D01*
X196977095Y-103826451D01*
X196929476Y-103921689D01*
X196929476Y-104016927D01*
X196977095Y-104159784D01*
X197548523Y-104731212D01*
X196929476Y-104731212D01*
%TO.C,R2*%
X201239380Y-117804501D02*
X200763190Y-117471168D01*
X201239380Y-117233072D02*
X200239380Y-117233072D01*
X200239380Y-117614025D01*
X200287000Y-117709263D01*
X200334619Y-117756882D01*
X200429857Y-117804501D01*
X200572714Y-117804501D01*
X200667952Y-117756882D01*
X200715571Y-117709263D01*
X200763190Y-117614025D01*
X200763190Y-117233072D01*
X200334619Y-118185453D02*
X200287000Y-118233072D01*
X200239380Y-118328310D01*
X200239380Y-118566406D01*
X200287000Y-118661644D01*
X200334619Y-118709263D01*
X200429857Y-118756882D01*
X200525095Y-118756882D01*
X200667952Y-118709263D01*
X201239380Y-118137834D01*
X201239380Y-118756882D01*
%TO.C,C7*%
X189296120Y-126951525D02*
X189343739Y-126903906D01*
X189391358Y-126761049D01*
X189391358Y-126665811D01*
X189343739Y-126522953D01*
X189248501Y-126427715D01*
X189153263Y-126380096D01*
X188962787Y-126332477D01*
X188819930Y-126332477D01*
X188629454Y-126380096D01*
X188534216Y-126427715D01*
X188438978Y-126522953D01*
X188391358Y-126665811D01*
X188391358Y-126761049D01*
X188438978Y-126903906D01*
X188486597Y-126951525D01*
X188391358Y-127284858D02*
X188391358Y-127951525D01*
X189391358Y-127522953D01*
%TO.C,C5*%
X202940902Y-143065250D02*
X202988521Y-143112869D01*
X203131378Y-143160488D01*
X203226616Y-143160488D01*
X203369474Y-143112869D01*
X203464712Y-143017631D01*
X203512331Y-142922393D01*
X203559950Y-142731917D01*
X203559950Y-142589060D01*
X203512331Y-142398584D01*
X203464712Y-142303346D01*
X203369474Y-142208108D01*
X203226616Y-142160488D01*
X203131378Y-142160488D01*
X202988521Y-142208108D01*
X202940902Y-142255727D01*
X202036140Y-142160488D02*
X202512331Y-142160488D01*
X202559950Y-142636679D01*
X202512331Y-142589060D01*
X202417093Y-142541441D01*
X202178997Y-142541441D01*
X202083759Y-142589060D01*
X202036140Y-142636679D01*
X201988521Y-142731917D01*
X201988521Y-142970012D01*
X202036140Y-143065250D01*
X202083759Y-143112869D01*
X202178997Y-143160488D01*
X202417093Y-143160488D01*
X202512331Y-143112869D01*
X202559950Y-143065250D01*
%TO.C,F1*%
X192150839Y-109545166D02*
X192150839Y-109211833D01*
X192674648Y-109211833D02*
X191674648Y-109211833D01*
X191674648Y-109688023D01*
X192674648Y-110592785D02*
X192674648Y-110021357D01*
X192674648Y-110307071D02*
X191674648Y-110307071D01*
X191817506Y-110211833D01*
X191912744Y-110116595D01*
X191960363Y-110021357D01*
%TO.C,C3*%
X201169066Y-124603810D02*
X201216685Y-124651429D01*
X201359542Y-124699048D01*
X201454780Y-124699048D01*
X201597638Y-124651429D01*
X201692876Y-124556191D01*
X201740495Y-124460953D01*
X201788114Y-124270477D01*
X201788114Y-124127620D01*
X201740495Y-123937144D01*
X201692876Y-123841906D01*
X201597638Y-123746668D01*
X201454780Y-123699048D01*
X201359542Y-123699048D01*
X201216685Y-123746668D01*
X201169066Y-123794287D01*
X200835733Y-123699048D02*
X200216685Y-123699048D01*
X200550019Y-124080001D01*
X200407161Y-124080001D01*
X200311923Y-124127620D01*
X200264304Y-124175239D01*
X200216685Y-124270477D01*
X200216685Y-124508572D01*
X200264304Y-124603810D01*
X200311923Y-124651429D01*
X200407161Y-124699048D01*
X200692876Y-124699048D01*
X200788114Y-124651429D01*
X200835733Y-124603810D01*
%TO.C,R3*%
X195742148Y-117804501D02*
X195265958Y-117471168D01*
X195742148Y-117233072D02*
X194742148Y-117233072D01*
X194742148Y-117614025D01*
X194789768Y-117709263D01*
X194837387Y-117756882D01*
X194932625Y-117804501D01*
X195075482Y-117804501D01*
X195170720Y-117756882D01*
X195218339Y-117709263D01*
X195265958Y-117614025D01*
X195265958Y-117233072D01*
X194742148Y-118137834D02*
X194742148Y-118756882D01*
X195123101Y-118423548D01*
X195123101Y-118566406D01*
X195170720Y-118661644D01*
X195218339Y-118709263D01*
X195313577Y-118756882D01*
X195551672Y-118756882D01*
X195646910Y-118709263D01*
X195694529Y-118661644D01*
X195742148Y-118566406D01*
X195742148Y-118280691D01*
X195694529Y-118185453D01*
X195646910Y-118137834D01*
%TO.C,R4*%
X195320901Y-143257488D02*
X195654235Y-142781298D01*
X195892330Y-143257488D02*
X195892330Y-142257488D01*
X195511377Y-142257488D01*
X195416139Y-142305108D01*
X195368520Y-142352727D01*
X195320901Y-142447965D01*
X195320901Y-142590822D01*
X195368520Y-142686060D01*
X195416139Y-142733679D01*
X195511377Y-142781298D01*
X195892330Y-142781298D01*
X194463758Y-142590822D02*
X194463758Y-143257488D01*
X194701854Y-142209869D02*
X194939949Y-142924155D01*
X194320901Y-142924155D01*
%TO.C,D2*%
X188227980Y-119836704D02*
X187227980Y-119836704D01*
X187227980Y-120074800D01*
X187275600Y-120217657D01*
X187370838Y-120312895D01*
X187466076Y-120360514D01*
X187656552Y-120408133D01*
X187799409Y-120408133D01*
X187989885Y-120360514D01*
X188085123Y-120312895D01*
X188180361Y-120217657D01*
X188227980Y-120074800D01*
X188227980Y-119836704D01*
X187323219Y-120789085D02*
X187275600Y-120836704D01*
X187227980Y-120931942D01*
X187227980Y-121170038D01*
X187275600Y-121265276D01*
X187323219Y-121312895D01*
X187418457Y-121360514D01*
X187513695Y-121360514D01*
X187656552Y-121312895D01*
X188227980Y-120741466D01*
X188227980Y-121360514D01*
%TO.C,J1*%
X197781101Y-101692380D02*
X197781101Y-102406666D01*
X197828720Y-102549523D01*
X197923958Y-102644761D01*
X198066815Y-102692380D01*
X198162053Y-102692380D01*
X196781101Y-102692380D02*
X197352529Y-102692380D01*
X197066815Y-102692380D02*
X197066815Y-101692380D01*
X197162053Y-101835238D01*
X197257291Y-101930476D01*
X197352529Y-101978095D01*
D11*
%TO.C,R5*%
X199887704Y-102707500D02*
X200341832Y-102707500D01*
X199887704Y-104177500D02*
X200341832Y-104177500D01*
D10*
%TO.C,U1*%
X205155235Y-136932108D02*
X204480235Y-136932108D01*
X194805235Y-126582108D02*
X195380235Y-126582108D01*
X205155235Y-126582108D02*
X205155235Y-127257108D01*
X195380235Y-126582108D02*
X195380235Y-125307108D01*
X205155235Y-126582108D02*
X204480235Y-126582108D01*
X205155235Y-136932108D02*
X205155235Y-136257108D01*
X194805235Y-136932108D02*
X195480235Y-136932108D01*
X194805235Y-126582108D02*
X194805235Y-127257108D01*
X194805235Y-136932108D02*
X194805235Y-136257108D01*
D11*
%TO.C,D1*%
X167344600Y-113934800D02*
X167344600Y-110034800D01*
X167344600Y-113934800D02*
X165344600Y-113934800D01*
X165344600Y-113934800D02*
X165344600Y-110034800D01*
%TO.C,C4*%
X210691400Y-123451252D02*
X210691400Y-122928748D01*
X209221400Y-123451252D02*
X209221400Y-122928748D01*
%TO.C,Y1*%
X212806236Y-133757108D02*
X209506236Y-133757108D01*
X209506236Y-133757108D02*
X209506236Y-129757108D01*
%TO.C,R6*%
X195515832Y-102769999D02*
X195061704Y-102769999D01*
X195515832Y-104239999D02*
X195061704Y-104239999D01*
%TO.C,C6*%
X191199260Y-135574360D02*
X191199260Y-135051856D01*
X189729260Y-135574360D02*
X189729260Y-135051856D01*
%TO.C,R1*%
X208507000Y-122962936D02*
X208507000Y-123417064D01*
X207037000Y-122962936D02*
X207037000Y-123417064D01*
%TO.C,C1*%
X211383296Y-136175109D02*
X210929168Y-136175109D01*
X211383296Y-134705109D02*
X210929168Y-134705109D01*
%TO.C,C2*%
X210894985Y-128809109D02*
X211417489Y-128809109D01*
X210894985Y-127339109D02*
X211417489Y-127339109D01*
%TO.C,U2*%
X200055768Y-105603000D02*
X200055768Y-104993000D01*
X200055768Y-104993000D02*
X197155768Y-104993000D01*
X197955768Y-108113000D02*
X197155768Y-108113000D01*
X197955768Y-108113000D02*
X198755768Y-108113000D01*
%TO.C,R2*%
X199706768Y-117744104D02*
X199706768Y-118198232D01*
X198236768Y-117744104D02*
X198236768Y-118198232D01*
%TO.C,C7*%
X189883978Y-126856940D02*
X189883978Y-127379444D01*
X191353978Y-126856940D02*
X191353978Y-127379444D01*
%TO.C,C5*%
X202512984Y-140293108D02*
X203035488Y-140293108D01*
X202512984Y-141763108D02*
X203035488Y-141763108D01*
%TO.C,F1*%
X194952268Y-109276436D02*
X194952268Y-110480564D01*
X193132268Y-109276436D02*
X193132268Y-110480564D01*
%TO.C,C3*%
X200741148Y-121831668D02*
X201263652Y-121831668D01*
X200741148Y-123301668D02*
X201263652Y-123301668D01*
%TO.C,R3*%
X196204768Y-117744104D02*
X196204768Y-118198232D01*
X197674768Y-117744104D02*
X197674768Y-118198232D01*
%TO.C,R4*%
X194927171Y-140420108D02*
X195381299Y-140420108D01*
X194927171Y-141890108D02*
X195381299Y-141890108D01*
%TO.C,D2*%
X186775600Y-122824800D02*
X186775600Y-118924800D01*
X184775600Y-122824800D02*
X184775600Y-118924800D01*
X186775600Y-122824800D02*
X184775600Y-122824800D01*
%TO.C,J1*%
X202147768Y-98495000D02*
X202147768Y-96495000D01*
X192747768Y-94595000D02*
X192747768Y-92695000D01*
X202147768Y-94595000D02*
X202147768Y-92695000D01*
X192747768Y-92695000D02*
X202147768Y-92695000D01*
X192747768Y-98495000D02*
X192747768Y-96495000D01*
%TD*%
M02*
