M48
; DRILL file {KiCad (6.0.7)} date Tue Aug  9 22:50:51 2022
; FORMAT={-:-/ absolute / inch / decimal}
; #@! TF.CreationDate,2022-08-09T22:50:51+07:00
; #@! TF.GenerationSoftware,Kicad,Pcbnew,(6.0.7)
; #@! TF.FileFunction,Plated,1,2,PTH
FMAT,2
INCH
; #@! TA.AperFunction,Plated,PTH,ViaDrill
T1C0.0157
; #@! TA.AperFunction,Plated,PTH,ComponentDrill
T2C0.0236
; #@! TA.AperFunction,Plated,PTH,ComponentDrill
T3C0.0579
%
G90
G05
T1
X6.422Y-5.316
X7.388Y-4.906
X7.4075Y-5.3875
X7.4281Y-5.0421
X7.4336Y-5.2923
X7.5827Y-5.5591
X7.5985Y-4.075
X7.604Y-4.0025
X7.64Y-4.634
X7.7766Y-5.1791
X7.8417Y-4.8882
X7.9135Y-4.185
X7.9385Y-4.0
X7.9535Y-4.7605
X7.9626Y-5.1791
X7.9685Y-4.075
X7.988Y-4.726
X8.128Y-4.726
X8.18Y-5.005
X8.2162Y-5.1413
X8.2965Y-4.9806
X8.4061Y-5.3306
X8.4061Y-5.2316
T3
X6.094Y-4.297
X6.1456Y-4.2396
X6.3424Y-4.2199
X6.344Y-4.197
X6.844Y-4.652
X6.8956Y-4.5946
X7.0924Y-4.5749
X7.094Y-4.552
T2
G00X7.6035Y-3.7498
M15
G01X7.6035Y-3.7734
M16
G05
G00X7.6035Y-3.9045
M15
G01X7.6035Y-3.9478
M16
G05
G00X7.9436Y-3.7498
M15
G01X7.9436Y-3.7734
M16
G05
G00X7.9436Y-3.9045
M15
G01X7.9436Y-3.9478
M16
G05
T0
M30
